<svg width="175" height="175" viewBox="0 0 175 175" fill="none" xmlns="http://www.w3.org/2000/svg">
<path d="M109.067 11.5745C109.067 11.5745 82.488 5.62454 57.869 22.897C33.25 40.1695 22.176 70 12.5615 94.01C2.94698 118.02 10.7905 140.371 30.9505 148.631C51.1105 156.891 63.3745 139.818 90.65 135.874C117.925 131.929 125.538 134.862 147.269 117.236C169.001 99.61 170.842 63.749 151.277 39.6585C131.712 15.568 109.067 11.5745 109.067 11.5745Z" fill="#FF3C3C"/>
<path opacity="0.7" d="M109.067 11.5745C109.067 11.5745 82.488 5.62454 57.869 22.897C33.25 40.1695 22.176 70 12.5615 94.01C2.94698 118.02 10.7905 140.371 30.9505 148.631C51.1105 156.891 63.3745 139.818 90.65 135.874C117.925 131.929 125.538 134.862 147.269 117.236C169.001 99.61 170.842 63.749 151.277 39.6585C131.712 15.568 109.067 11.5745 109.067 11.5745Z" fill="white"/>
<path d="M76.293 67.3435L60.7985 126.07L78.2915 115.574L88.2875 130.319L87.038 68.593L76.293 67.3435Z" fill="#FF3C3C"/>
<mask id="mask0_82_2725" style="mask-type:luminance" maskUnits="userSpaceOnUse" x="60" y="67" width="29" height="64">
<path d="M76.293 67.3435L60.7985 126.07L78.2915 115.574L88.2875 130.319L87.038 68.593L76.293 67.3435Z" fill="white"/>
</mask>
<g mask="url(#mask0_82_2725)">
<path d="M78.988 112.416L64.5435 121.086L78.043 69.9125L84.7315 70.6895L85.7815 122.433L78.988 112.416Z" fill="white"/>
<path opacity="0.3" d="M87.325 82.712L87.038 68.6L76.3 67.3435L72.9855 79.905C74.1685 82.2885 74.9805 85.456 77.056 86.1315C79.856 87.0345 83.5835 82.6315 86.6705 82.6315C86.8907 82.6382 87.1097 82.6651 87.325 82.712Z" fill="black"/>
</g>
<path d="M97.6465 67.7915L122.339 123.281L106.032 115.042L95.886 131.873L87.241 70.7455L97.6465 67.7915Z" fill="#FF3C3C"/>
<mask id="mask1_82_2725" style="mask-type:luminance" maskUnits="userSpaceOnUse" x="87" y="67" width="36" height="65">
<path d="M97.6465 67.7915L122.339 123.281L106.032 115.042L95.886 131.873L87.241 70.7455L97.6465 67.7915Z" fill="white"/>
</mask>
<g mask="url(#mask1_82_2725)">
<path d="M89.8521 72.443L96.3306 70.6055L117.513 118.212L105.147 111.961L97.286 125.006L89.8521 72.443Z" fill="white"/>
<path opacity="0.3" d="M97.65 67.7915L87.2445 70.7455L88.9 82.4145H89.054C92.141 82.4145 95.886 86.8 98.672 85.897C100.807 85.197 101.605 81.8615 102.848 79.457L97.65 67.7915Z" fill="black"/>
</g>
<path d="M120.159 52.4999C120.159 55.5869 114.793 57.7884 113.887 60.5709C112.952 63.4584 115.965 68.3864 114.215 70.7909C112.465 73.1954 106.82 71.8654 104.395 73.6294C101.969 75.3934 101.549 81.1614 98.6615 82.0959C95.8615 83.0024 92.1305 78.5959 89.0435 78.5959C85.9565 78.5959 82.215 82.9849 79.429 82.0959C76.5415 81.1614 76.097 75.3794 73.696 73.6294C71.295 71.8794 65.646 73.2164 63.8715 70.7909C62.097 68.3654 65.1385 63.4585 64.2005 60.5745C63.2975 57.7744 57.932 55.5869 57.932 52.4999C57.932 49.4129 63.2975 47.2114 64.2005 44.4289C65.1385 41.5414 62.125 36.6134 63.8715 34.2089C65.618 31.8044 71.267 33.1344 73.696 31.3704C76.125 29.6064 76.5415 23.8384 79.429 22.9039C82.229 21.9974 85.9565 26.3864 89.0435 26.3864C92.1305 26.3864 95.8755 21.9974 98.6615 22.9039C101.546 23.8384 101.99 29.6204 104.395 31.3704C106.799 33.1204 112.444 31.7834 114.215 34.2089C115.986 36.6344 112.952 41.5589 113.887 44.4254C114.8 47.1974 120.159 49.3989 120.159 52.4999Z" fill="#FF3C3C"/>
<path opacity="0.6" d="M116.763 52.4999C116.763 55.2509 111.982 57.2109 111.163 59.6924C110.327 62.2649 113.011 66.6539 111.454 68.7924C109.896 70.9309 104.867 69.7514 102.704 71.3229C100.541 72.8944 100.17 78.0324 97.5975 78.8689C95.116 79.6739 91.7805 75.7644 89.0295 75.7644C86.2785 75.7644 82.95 79.6599 80.479 78.8549C77.9065 78.0184 77.511 72.8699 75.369 71.3089C73.227 69.7479 68.194 70.9414 66.619 68.7784C65.044 66.6154 67.746 62.2509 66.913 59.6784C66.1045 57.1969 61.313 55.2369 61.313 52.4859C61.313 49.7349 66.0905 47.7749 66.913 45.2934C67.746 42.7209 65.0615 38.3319 66.619 36.1934C68.1765 34.0549 73.2095 35.2344 75.369 33.6629C77.5285 32.0914 77.9065 26.9534 80.479 26.1169C82.957 25.3119 86.296 29.2214 89.0435 29.2214C91.791 29.2214 95.13 25.3119 97.6115 26.1169C100.184 26.9534 100.579 32.1019 102.718 33.6629C104.856 35.2239 109.896 34.0129 111.468 36.1934C113.039 38.3739 110.341 42.7209 111.177 45.2934C112 47.7749 116.763 49.7349 116.763 52.4999Z" fill="white"/>
<path d="M89.0434 75.5999C101.809 75.5999 112.157 65.2515 112.157 52.486C112.157 39.7204 101.809 29.3719 89.0434 29.3719C76.2779 29.3719 65.9294 39.7204 65.9294 52.486C65.9294 65.2515 76.2779 75.5999 89.0434 75.5999Z" fill="white"/>
<path d="M78.0291 41.6499C80.7906 40.2919 82.9711 39.5184 86.5096 35.3009H95.1336V62.7269H99.6381V69.1704H80.2586V62.7409H85.1026V44.7649L80.2586 47.0434L78.0291 41.6499Z" fill="#263238"/>
</svg>
