<svg width="175" height="175" viewBox="0 0 175 175" fill="none" xmlns="http://www.w3.org/2000/svg">
<path d="M48.0655 152.005C48.0655 152.005 69.5415 166.705 98.448 167.38C127.354 168.056 160.069 113.05 166.173 83.853C172.277 54.656 170.709 28 154.882 16.3415C139.055 4.68298 116.273 2.48148 86.366 17.15C56.4585 31.8185 39.1615 25.837 20.979 36.4875C2.7965 47.138 0.906503 74.55 12.6 106.928C24.2935 139.307 48.0655 152.005 48.0655 152.005Z" fill="#FF3C3C"/>
<path opacity="0.7" d="M48.0655 152.005C48.0655 152.005 69.5415 166.705 98.448 167.38C127.354 168.056 160.069 113.05 166.173 83.853C172.277 54.656 170.709 28 154.882 16.3415C139.055 4.68298 116.273 2.48148 86.366 17.15C56.4585 31.8185 39.1615 25.837 20.979 36.4875C2.7965 47.138 0.906503 74.55 12.6 106.928C24.2935 139.307 48.0655 152.005 48.0655 152.005Z" fill="white"/>
<path d="M77.4165 52.3284C77.4165 52.3284 72.5165 44.1489 67.837 43.4489C63.1575 42.7489 62.937 48.5869 61.061 49.7489C59.185 50.9109 56.623 47.4144 53.816 48.5799C51.009 49.7454 51.947 51.8524 50.316 52.7799C48.685 53.7074 48.447 51.1454 44.9435 52.5454C41.44 53.9454 40.271 56.5179 40.271 56.5179H81.1545L77.4165 52.3284Z" stroke="#263238" stroke-width="0.35" stroke-linecap="round" stroke-linejoin="round"/>
<path d="M139.562 103.026C139.562 103.026 135.59 96.4844 132.786 97.4259C129.983 98.3674 129.517 102.098 127.648 102.326C125.779 102.553 124.848 99.9879 123.207 100.926C121.565 101.864 120.872 103.964 119.238 104.198C117.603 104.433 117.369 103.264 115.738 103.729C114.107 104.195 112.938 106.302 112.938 106.302H145.414C145.414 106.302 145.369 102.963 143.314 102.329C141.792 101.85 140.731 102.791 139.562 103.026Z" stroke="#263238" stroke-width="0.35" stroke-linecap="round" stroke-linejoin="round"/>
<path d="M151.921 27.118C151.921 27.118 147.949 20.5765 145.145 21.518C142.342 22.4595 141.873 26.1905 140.004 26.418C138.135 26.6455 137.204 24.08 135.566 25.018C133.928 25.956 133.231 28.056 131.593 28.2905C129.955 28.525 129.724 27.356 128.093 27.8215C126.462 28.287 125.293 30.394 125.293 30.394H157.77C157.77 30.394 157.724 27.055 155.67 26.4215C154.151 25.9525 153.09 26.8835 151.921 27.118Z" stroke="#263238" stroke-width="0.35" stroke-linecap="round" stroke-linejoin="round"/>
<path d="M37.548 144.9C37.548 144.9 33.5755 138.358 30.772 139.3C27.9685 140.241 27.503 143.972 25.634 144.2C23.765 144.427 22.834 141.862 21.1925 142.8C19.551 143.738 18.858 145.838 17.22 146.072C15.582 146.307 15.351 145.138 13.72 145.603C12.089 146.069 10.92 148.172 10.92 148.172H43.4C43.4 148.172 43.3545 144.837 41.3 144.203C39.7775 143.727 38.717 144.658 37.548 144.9Z" stroke="#263238" stroke-width="0.35" stroke-linecap="round" stroke-linejoin="round"/>
<path d="M85.239 75.4565V50.0045" stroke="#263238" stroke-width="0.35" stroke-linecap="round" stroke-linejoin="round"/>
<path d="M101.85 76.9545L101.815 69.3385L103.471 74.2385C103.471 74.2385 101.948 76.2475 101.85 76.9545Z" fill="#263238" stroke="#263238" stroke-width="0.35" stroke-linecap="round" stroke-linejoin="round"/>
<path d="M103.478 74.242C103.478 74.242 101.175 76.37 102.078 77.7C102.981 79.03 104.825 77.7875 108.549 77.7875C112.273 77.7875 115.199 80.36 115.199 80.36V67.9455C115.199 67.9455 115.02 66.4405 112.63 65.5515C110.24 64.6625 104.293 65.3765 103.229 63.6895C102.165 62.0025 102.879 59.1675 102.879 59.1675C102.879 59.1675 100.93 63.07 101.637 66.0835C102.344 69.097 103.478 74.242 103.478 74.242Z" fill="white" stroke="#263238" stroke-width="0.35" stroke-linecap="round" stroke-linejoin="round"/>
<path d="M85.302 50.869C86.3783 51.8955 87.7692 52.5292 89.25 52.668C95.2 53.347 96.3165 52.8745 99.1515 53.494C101.987 54.1135 103.495 56.5985 103.495 56.5985V74.242C103.495 74.242 102.61 71.582 98.8855 71.225C95.1615 70.868 91.7945 71.1375 88.7775 70.959C85.7605 70.7805 85.3195 70.259 85.3195 70.259L85.302 50.869Z" fill="white" stroke="#263238" stroke-width="0.35" stroke-linecap="round" stroke-linejoin="round"/>
<path d="M103.093 69.692V64.323C102.914 64.0675 102.725 63.812 102.526 63.567L101.315 62.132C101.051 61.8069 100.807 61.4668 100.583 61.1135C100.366 60.7578 100.255 60.3472 100.265 59.9305C100.255 59.7051 100.33 59.4843 100.475 59.311C100.554 59.231 100.655 59.1766 100.765 59.1548C100.876 59.133 100.99 59.1447 101.094 59.1885C101.333 59.2443 101.541 59.388 101.679 59.591C101.815 59.8156 101.904 60.0657 101.941 60.326C101.993 60.6514 102.022 60.98 102.029 61.3095L103.079 61.488V58.6215C102.998 58.527 102.907 58.4325 102.813 58.3415C102.437 58.0028 101.998 57.7422 101.521 57.575V56.2765L100.821 56.0525V57.3545C99.946 57.1445 99.246 57.2122 98.721 57.5575C98.196 57.9028 97.9358 58.534 97.9405 59.451C97.9341 59.8928 98.0004 60.3326 98.1365 60.753C98.2667 61.1415 98.4454 61.5119 98.6685 61.8555C98.9035 62.2183 99.157 62.5687 99.428 62.9055L100.671 64.365C101.026 64.7711 101.341 65.2106 101.612 65.6775C101.844 66.091 101.965 66.5578 101.962 67.032C101.972 67.251 101.913 67.4676 101.794 67.6515C101.682 67.8125 101.476 67.844 101.171 67.746C100.916 67.6695 100.691 67.5138 100.531 67.3015C100.346 67.0497 100.22 66.7606 100.16 66.4545C100.067 66.0382 100.015 65.6139 100.006 65.1875L97.9475 64.8865C97.9374 65.9262 98.2148 66.9485 98.749 67.8405C99.2892 68.6351 100.08 69.2255 100.996 69.517V70.875L101.696 71.0955V69.7235C102.155 69.8448 102.639 69.8339 103.093 69.692Z" fill="#FF3C3C"/>
<path d="M142.285 165.288L115.206 122.577L107.765 126.074L85.239 75.4565L58.7825 121.657L54.649 115.399L23.289 165.288H142.285Z" fill="#FF3C3C"/>
<path d="M21.833 166.996L54.649 115.399L58.7825 121.657L85.239 75.4565L107.765 126.074L115.206 122.577L143.598 167.36" stroke="#263238" stroke-width="0.35" stroke-linecap="round" stroke-linejoin="round"/>
<path d="M54.649 115.398L57.967 124.495L56.301 133.304L58.919 127.589L60.585 130.448L57.015 160.685L64.3965 132.59L61.061 126.399L61.299 118.065L58.7825 121.656L54.649 115.398Z" fill="#263238" stroke="#263238" stroke-width="0.35" stroke-linecap="round" stroke-linejoin="round"/>
<path d="M90.8215 88.0671L101.301 130.211L98.441 130.925L95.109 121.639L93.919 124.733L95.585 140.21L93.443 142.114L94.871 165.207L107.965 147.83L115.287 162.421L130.298 154.819L140.63 162.53L115.206 122.577L107.765 126.074L90.8215 88.0671Z" fill="#263238" stroke="#263238" stroke-width="0.35" stroke-linecap="round" stroke-linejoin="round"/>
<path d="M95.1025 87.8291C95.9467 84.2826 93.7561 80.7231 90.2096 79.8789C86.663 79.0346 83.1036 81.2253 82.2594 84.7718C81.4151 88.3183 83.6057 91.8778 87.1523 92.722C90.6988 93.5663 94.2582 91.3756 95.1025 87.8291Z" stroke="#263238" stroke-width="0.35" stroke-linecap="round" stroke-linejoin="round"/>
<path d="M51.562 86.3064H82.082" stroke="#263238" stroke-width="0.35" stroke-linecap="round" stroke-linejoin="round"/>
<path d="M21.567 86.3064H51.562" stroke="#263238" stroke-width="1.75" stroke-linecap="round" stroke-linejoin="round"/>
<path d="M57.491 84.2556V88.5081" stroke="#263238" stroke-width="0.35" stroke-linecap="round" stroke-linejoin="round"/>
<path d="M60.781 84.2556V88.5081" stroke="#263238" stroke-width="0.35" stroke-linecap="round" stroke-linejoin="round"/>
<path d="M64.071 84.2556V88.5081" stroke="#263238" stroke-width="0.35" stroke-linecap="round" stroke-linejoin="round"/>
<path d="M67.361 84.2556V88.5081" stroke="#263238" stroke-width="0.35" stroke-linecap="round" stroke-linejoin="round"/>
<path d="M70.651 84.2556V88.5081" stroke="#263238" stroke-width="0.35" stroke-linecap="round" stroke-linejoin="round"/>
<path d="M73.9375 84.2556V88.5081" stroke="#263238" stroke-width="0.35" stroke-linecap="round" stroke-linejoin="round"/>
<path d="M88.683 49.1855V79.7055" stroke="#263238" stroke-width="0.35" stroke-linecap="round" stroke-linejoin="round"/>
<path d="M88.683 19.1906V49.1856" stroke="#263238" stroke-width="1.75" stroke-linecap="round" stroke-linejoin="round"/>
<path d="M90.734 55.1145H86.4815" stroke="#263238" stroke-width="0.35" stroke-linecap="round" stroke-linejoin="round"/>
<path d="M90.734 58.4045H86.4815" stroke="#263238" stroke-width="0.35" stroke-linecap="round" stroke-linejoin="round"/>
<path d="M90.734 61.6945H86.4815" stroke="#263238" stroke-width="0.35" stroke-linecap="round" stroke-linejoin="round"/>
<path d="M90.734 64.9845H86.4815" stroke="#263238" stroke-width="0.35" stroke-linecap="round" stroke-linejoin="round"/>
<path d="M90.734 68.2745H86.4815" stroke="#263238" stroke-width="0.35" stroke-linecap="round" stroke-linejoin="round"/>
<path d="M90.734 71.5645H86.4815" stroke="#263238" stroke-width="0.35" stroke-linecap="round" stroke-linejoin="round"/>
<path d="M125.804 86.3064H95.284" stroke="#263238" stroke-width="0.35" stroke-linecap="round" stroke-linejoin="round"/>
<path d="M155.799 86.3064H125.804" stroke="#263238" stroke-width="1.75" stroke-linecap="round" stroke-linejoin="round"/>
<path d="M119.875 88.361V84.105" stroke="#263238" stroke-width="0.35" stroke-linecap="round" stroke-linejoin="round"/>
<path d="M116.585 88.361V84.105" stroke="#263238" stroke-width="0.35" stroke-linecap="round" stroke-linejoin="round"/>
<path d="M113.295 88.361V84.105" stroke="#263238" stroke-width="0.35" stroke-linecap="round" stroke-linejoin="round"/>
<path d="M110.005 88.361V84.105" stroke="#263238" stroke-width="0.35" stroke-linecap="round" stroke-linejoin="round"/>
<path d="M106.715 88.361V84.105" stroke="#263238" stroke-width="0.35" stroke-linecap="round" stroke-linejoin="round"/>
<path d="M103.425 88.361V84.105" stroke="#263238" stroke-width="0.35" stroke-linecap="round" stroke-linejoin="round"/>
<path d="M88.683 123.427V92.9075" stroke="#263238" stroke-width="0.35" stroke-linecap="round" stroke-linejoin="round"/>
<path d="M88.683 153.422V123.427" stroke="#263238" stroke-width="1.75" stroke-linecap="round" stroke-linejoin="round"/>
<path d="M86.6285 117.499H90.8845" stroke="#263238" stroke-width="0.35" stroke-linecap="round" stroke-linejoin="round"/>
<path d="M86.6285 114.208H90.8845" stroke="#263238" stroke-width="0.35" stroke-linecap="round" stroke-linejoin="round"/>
<path d="M86.6285 110.918H90.8845" stroke="#263238" stroke-width="0.35" stroke-linecap="round" stroke-linejoin="round"/>
<path d="M86.6285 107.628H90.8845" stroke="#263238" stroke-width="0.35" stroke-linecap="round" stroke-linejoin="round"/>
<path d="M86.6285 104.338H90.8845" stroke="#263238" stroke-width="0.35" stroke-linecap="round" stroke-linejoin="round"/>
<path d="M86.6285 101.052H90.8845" stroke="#263238" stroke-width="0.35" stroke-linecap="round" stroke-linejoin="round"/>
<path d="M88.683 13.0305C48.2125 13.0305 15.4 45.85 15.4 86.3065C15.4 126.763 48.2125 159.6 88.683 159.6C129.153 159.6 161.959 126.795 161.959 86.324C161.959 45.8535 129.15 13.0305 88.683 13.0305ZM88.683 149.097C76.2643 149.097 64.1245 145.414 53.7987 138.514C43.473 131.615 35.425 121.809 30.6726 110.335C25.9202 98.8618 24.6767 86.2369 27.0995 74.0568C29.5223 61.8767 35.5024 50.6886 44.2838 41.9073C53.0651 33.1259 64.2532 27.1458 76.4333 24.723C88.6133 22.3002 101.238 23.5437 112.712 28.2961C124.185 33.0485 133.992 41.0965 140.891 51.4223C147.79 61.748 151.473 73.8878 151.473 86.3065C151.473 94.5525 149.85 102.718 146.694 110.336C143.539 117.955 138.914 124.877 133.083 130.708C127.253 136.539 120.331 141.164 112.712 144.32C105.094 147.476 96.929 149.1 88.683 149.1V149.097Z" fill="#263238"/>
</svg>
