<svg width="175" height="175" viewBox="0 0 175 175" fill="none" xmlns="http://www.w3.org/2000/svg">
<path d="M171.017 104.828C173.117 73.3565 157.216 43.2285 129.664 27.8775C124.506 25.0062 119.053 22.7003 113.4 21C69.3 7.69999 52.85 18.9 41.3 32.9C29.75 46.9 40.6 70.7 27.3 80.5C14 90.3 -2.10004 104.3 4.54996 124.95C11.2 145.6 27.65 159.25 43.05 157.85C58.45 156.45 74.55 138.25 85.4 150.15C96.25 162.05 130.9 173.6 153.65 153.65C165.809 142.989 169.869 122.031 171.017 104.828Z" fill="#FF3C3C"/>
<path opacity="0.7" d="M171.017 104.828C173.117 73.3565 157.216 43.2285 129.664 27.8775C124.506 25.0062 119.053 22.7003 113.4 21C69.3 7.69999 52.85 18.9 41.3 32.9C29.75 46.9 40.6 70.7 27.3 80.5C14 90.3 -2.10004 104.3 4.54996 124.95C11.2 145.6 27.65 159.25 43.05 157.85C58.45 156.45 74.55 138.25 85.4 150.15C96.25 162.05 130.9 173.6 153.65 153.65C165.809 142.989 169.869 122.031 171.017 104.828Z" fill="white"/>
<path d="M154.41 109.494C152.94 109.743 150.185 111.636 150.182 111.636C150.178 111.636 151.981 113.075 152.107 113.152C153.559 114.034 156.888 114.884 158.326 113.635C158.559 113.421 158.745 113.161 158.871 112.871C158.997 112.581 159.061 112.267 159.058 111.951C159.055 111.635 158.985 111.323 158.854 111.035C158.722 110.747 158.532 110.491 158.295 110.282C157.315 109.361 155.663 109.281 154.41 109.494Z" fill="#FF3C3C"/>
<path d="M148.145 102.025C146.846 102.627 144.823 104.983 144.662 105.175C143.317 104.016 141.896 102.947 140.41 101.976C139.545 101.406 138.66 100.86 137.764 100.321C138.208 100.506 138.607 100.671 138.667 100.671C140.301 101.136 143.735 101.08 144.795 99.498C144.964 99.2303 145.074 98.9301 145.119 98.6168C145.164 98.3036 145.143 97.9844 145.056 97.68C144.97 97.3756 144.82 97.0928 144.617 96.85C144.414 96.6073 144.162 96.41 143.878 96.271C142.692 95.641 141.078 96.0015 139.923 96.537C138.768 97.0725 136.99 99.0535 136.528 99.582C136.178 99.379 135.828 99.1725 135.478 98.973C133.816 98.0035 132.15 97.048 130.547 96.0575C129.98 95.7075 129.437 95.3575 128.891 94.9865C129.287 95.1475 129.623 95.284 129.675 95.298C131.31 95.767 134.743 95.7075 135.8 94.1255C135.969 93.8578 136.079 93.5576 136.124 93.2443C136.169 92.9311 136.148 92.6119 136.061 92.3075C135.975 92.003 135.825 91.7203 135.622 91.4775C135.419 91.2348 135.167 91.0375 134.883 90.8985C133.697 90.2685 132.083 90.629 130.932 91.1645C129.78 91.7 128.17 93.4885 127.621 94.115C127.071 93.7265 126.522 93.3415 126.011 92.939C125.661 92.659 125.311 92.414 124.985 92.1095L123.995 91.245C123.386 90.671 122.756 90.083 122.175 89.495C121.769 89.0995 121.391 88.7145 121.006 88.326C121.566 88.676 122.672 89.348 122.773 89.3935C124.317 90.0935 127.719 90.566 129.007 89.1625C129.214 88.9233 129.368 88.6431 129.46 88.3403C129.552 88.0374 129.579 87.7186 129.539 87.4046C129.5 87.0906 129.394 86.7885 129.23 86.5179C129.066 86.2473 128.847 86.0143 128.587 85.834C127.512 85.029 125.86 85.134 124.639 85.484C123.298 85.8725 121.023 87.8045 120.743 88.0495C120.11 87.4055 119.501 86.7755 118.934 86.17C117.684 84.8365 116.599 83.6185 115.7 82.572L114.65 83.272C115.605 84.322 116.767 85.589 118.118 86.9645C118.755 87.619 119.452 88.3085 120.176 89.0085C119.623 89.793 119.119 90.6112 118.668 91.4585C117.268 91.1085 114.506 91.441 114.153 91.4865C113.978 90.601 113.803 89.7365 113.68 88.921C113.39 87.213 113.166 85.6765 112.98 84.3535L111.85 85.092C112.039 86.2925 112.27 87.6435 112.55 89.124C112.721 90.0235 112.924 90.9825 113.138 91.9625C112.788 92.0955 110.019 93.2015 109.046 94.2095C108.164 95.1195 107.296 96.53 107.499 97.8565C107.537 98.1706 107.64 98.4731 107.802 98.7446C107.965 99.016 108.182 99.2502 108.441 99.4318C108.7 99.6134 108.994 99.7384 109.305 99.7987C109.615 99.859 109.935 99.8531 110.243 99.7815C112.084 99.302 113.267 96.0785 113.365 94.381C113.365 94.2795 113.309 93.1875 113.26 92.498C113.351 92.897 113.435 93.289 113.533 93.6985C113.722 94.514 113.936 95.3225 114.16 96.1905C114.282 96.607 114.408 97.027 114.534 97.4505C114.66 97.874 114.828 98.308 114.972 98.742C115.322 99.7395 115.742 100.73 116.179 101.721C115.479 101.889 112.945 102.519 111.927 103.289C110.908 104.059 109.827 105.319 109.844 106.663C109.834 106.979 109.89 107.293 110.01 107.586C110.129 107.879 110.309 108.143 110.538 108.362C110.766 108.58 111.038 108.748 111.336 108.855C111.634 108.961 111.951 109.004 112.266 108.98C114.16 108.784 115.819 105.777 116.172 104.115C116.193 104.01 116.312 102.788 116.361 102.116C116.631 102.711 116.893 103.303 117.184 103.894C118.024 105.602 118.934 107.307 119.812 109.008C120.089 109.529 120.355 110.058 120.621 110.576C120.369 110.632 117.352 111.314 116.214 112.179C115.203 112.949 114.114 114.209 114.132 115.553C114.121 115.869 114.177 116.184 114.296 116.477C114.415 116.77 114.595 117.034 114.824 117.253C115.053 117.472 115.325 117.64 115.623 117.746C115.921 117.852 116.238 117.894 116.554 117.87C118.447 117.674 120.103 114.667 120.456 113.005C120.481 112.879 120.649 111.122 120.67 110.67C121.261 111.822 121.839 112.973 122.364 114.132C123.096 115.699 123.726 117.313 124.25 118.962C124.131 118.99 120.981 119.69 119.816 120.572C118.804 121.342 117.716 122.602 117.716 123.946C117.705 124.262 117.762 124.576 117.881 124.869C118.001 125.162 118.181 125.426 118.409 125.645C118.638 125.863 118.91 126.031 119.208 126.138C119.505 126.244 119.822 126.287 120.138 126.263C122.031 126.067 123.69 123.06 124.044 121.398C124.068 121.268 124.25 119.375 124.257 119.028C124.285 119.123 124.327 119.221 124.355 119.315C124.819 120.974 125.135 122.671 125.3 124.387C125.402 125.335 125.444 126.245 125.468 127.131C124.866 127.201 122.129 127.551 120.992 128.23C119.854 128.909 118.696 130.018 118.542 131.355C118.498 131.668 118.52 131.986 118.607 132.29C118.694 132.594 118.844 132.876 119.047 133.118C119.25 133.36 119.501 133.557 119.785 133.696C120.069 133.835 120.378 133.912 120.694 133.924C122.598 133.924 124.579 131.124 125.111 129.518C125.139 129.43 125.335 128.503 125.461 127.827C125.461 128.226 125.461 128.639 125.461 129.024C125.461 130.463 125.356 131.782 125.258 132.948C125.199 133.609 125.132 134.208 125.062 134.768C124.509 135.146 122.301 136.689 121.618 137.795C120.936 138.901 120.4 140.438 120.89 141.691C120.994 141.989 121.16 142.263 121.377 142.493C121.594 142.724 121.857 142.906 122.149 143.027C122.441 143.149 122.755 143.208 123.071 143.2C123.387 143.193 123.698 143.118 123.984 142.982C125.682 142.114 126.144 138.712 125.871 137.032C125.846 136.885 125.22 134.659 125.192 134.68L125.157 134.701C125.234 134.166 125.311 133.588 125.381 132.951C125.503 131.782 125.629 130.463 125.671 129.021C125.733 127.463 125.704 125.902 125.584 124.348C125.456 122.608 125.175 120.883 124.744 119.193C124.744 119.172 124.744 119.154 124.744 119.133C125.041 119.606 125.916 120.883 125.993 120.988C127.099 122.28 129.997 124.138 131.754 123.389C132.042 123.259 132.3 123.069 132.51 122.833C132.72 122.597 132.878 122.319 132.973 122.017C133.069 121.716 133.1 121.397 133.064 121.083C133.028 120.769 132.926 120.466 132.766 120.194C132.125 119.014 130.578 118.423 129.322 118.234C127.922 118.02 124.919 118.871 124.681 118.934C124.199 117.225 123.604 115.551 122.899 113.922C122.493 112.97 122.056 112.021 121.604 111.08C121.874 111.479 122.119 111.836 122.157 111.881C123.263 113.173 126.161 115.031 127.915 114.282C128.203 114.152 128.461 113.963 128.671 113.727C128.882 113.491 129.04 113.213 129.136 112.911C129.232 112.609 129.263 112.291 129.227 111.977C129.192 111.662 129.09 111.359 128.93 111.087C128.289 109.904 126.742 109.316 125.486 109.123C124.229 108.931 121.636 109.606 120.978 109.792C120.799 109.442 120.628 109.071 120.449 108.714C119.592 106.988 118.731 105.273 117.94 103.562C117.66 102.96 117.408 102.358 117.152 101.752C117.39 102.102 117.597 102.403 117.632 102.452C118.738 103.744 121.636 105.602 123.393 104.857C123.681 104.726 123.938 104.536 124.149 104.299C124.359 104.063 124.517 103.784 124.612 103.483C124.707 103.181 124.738 102.862 124.702 102.548C124.667 102.233 124.565 101.93 124.404 101.658C123.764 100.478 122.217 99.8865 120.96 99.6975C119.704 99.5085 117.376 100.114 116.571 100.335C116.33 99.708 116.085 99.0815 115.871 98.4655C115.738 98.042 115.581 97.643 115.472 97.209C115.364 96.775 115.241 96.3585 115.122 95.9385C114.93 95.123 114.73 94.2865 114.562 93.4885C114.443 92.9355 114.338 92.4035 114.233 91.868C114.503 92.4735 115.059 93.6425 115.115 93.7335C115.953 94.9731 117.094 95.9779 118.43 96.6525C118.516 96.7948 118.615 96.9285 118.727 97.0515C118.932 97.2926 119.185 97.4878 119.471 97.6245C119.756 97.7612 120.067 97.8362 120.383 97.8448C120.7 97.8534 121.014 97.7953 121.306 97.6743C121.599 97.5533 121.862 97.3721 122.08 97.1425C123.351 95.725 122.56 92.386 121.702 90.916C121.653 90.8285 121.002 89.95 120.579 89.404C120.876 89.6875 121.16 89.9675 121.468 90.2545C122.077 90.832 122.7 91.3885 123.365 92.0045L124.373 92.848C124.705 93.1385 125.09 93.401 125.451 93.681C126.301 94.3145 127.201 94.9165 128.104 95.501C127.6 96.033 125.843 97.951 125.419 99.155C124.996 100.359 124.8 101.997 125.542 103.117C125.708 103.386 125.929 103.617 126.19 103.795C126.452 103.973 126.747 104.094 127.059 104.151C127.37 104.207 127.689 104.198 127.997 104.123C128.304 104.048 128.592 103.909 128.842 103.716C130.316 102.505 130.039 99.0815 129.413 97.503C129.374 97.4015 128.8 96.32 128.471 95.7285C129.021 96.0785 129.57 96.4285 130.137 96.7575C131.779 97.7235 133.469 98.644 135.153 99.575C135.667 99.8585 136.178 100.149 136.689 100.436C136.511 100.622 134.372 102.858 133.889 104.206C133.469 105.403 133.266 107.048 134.012 108.168C134.178 108.436 134.398 108.667 134.659 108.845C134.92 109.023 135.216 109.145 135.527 109.201C135.838 109.257 136.157 109.248 136.464 109.173C136.771 109.098 137.059 108.959 137.309 108.766C138.782 107.555 138.506 104.132 137.883 102.554C137.834 102.435 137.004 100.874 136.773 100.489C137.9 101.122 139.017 101.763 140.095 102.442C141.551 103.351 142.949 104.353 144.277 105.441C144.193 105.529 141.95 107.849 141.477 109.232C141.057 110.429 140.854 112.074 141.6 113.194C141.766 113.463 141.987 113.694 142.248 113.872C142.51 114.05 142.806 114.171 143.117 114.227C143.428 114.283 143.748 114.273 144.055 114.197C144.362 114.122 144.65 113.983 144.9 113.789C146.37 112.581 146.094 109.158 145.471 107.576C145.422 107.454 144.526 105.777 144.344 105.476L144.582 105.662C145.883 106.79 147.082 108.033 148.162 109.375C148.768 110.11 149.307 110.845 149.814 111.57C149.352 111.958 147.263 113.764 146.689 114.958C146.115 116.151 145.758 117.716 146.377 118.909C146.512 119.195 146.706 119.449 146.946 119.655C147.186 119.861 147.467 120.014 147.77 120.104C148.073 120.194 148.392 120.22 148.706 120.178C149.019 120.137 149.321 120.03 149.59 119.865C151.186 118.815 151.288 115.395 150.84 113.754C150.815 113.663 150.469 112.784 150.206 112.147C150.43 112.48 150.668 112.816 150.878 113.138C151.662 114.345 152.31 115.497 152.873 116.526C153.188 117.11 153.461 117.646 153.713 118.15C153.458 118.769 152.467 121.275 152.509 122.577C152.551 123.879 152.954 125.451 154.049 126.228C154.301 126.419 154.591 126.555 154.899 126.627C155.207 126.699 155.526 126.705 155.837 126.645C156.148 126.585 156.442 126.461 156.702 126.28C156.961 126.099 157.179 125.865 157.343 125.594C158.281 123.939 156.79 120.845 155.635 119.595C155.537 119.487 153.783 117.975 153.773 118.006L153.755 118.045C153.524 117.555 153.269 117.033 152.982 116.466C152.439 115.416 151.816 114.258 151.053 113.029C150.246 111.695 149.362 110.409 148.404 109.179C147.34 107.793 146.155 106.504 144.862 105.329L144.813 105.291C145.32 105.522 146.762 106.117 146.878 106.148C148.512 106.617 151.946 106.558 153.006 104.976C153.175 104.708 153.285 104.408 153.33 104.094C153.375 103.781 153.354 103.462 153.267 103.157C153.181 102.853 153.031 102.57 152.828 102.328C152.625 102.085 152.373 101.887 152.089 101.749C150.913 101.129 149.296 101.5 148.145 102.025Z" fill="#FF3C3C"/>
<path d="M125.72 127.4C125.685 127.4 126.42 129.591 126.49 129.724C127.214 131.26 129.521 133.805 131.407 133.574C131.718 133.524 132.015 133.41 132.279 133.238C132.543 133.067 132.768 132.842 132.94 132.578C133.112 132.315 133.227 132.018 133.277 131.707C133.327 131.396 133.311 131.078 133.231 130.774C132.923 129.465 131.589 128.485 130.431 127.974C129.062 127.326 125.72 127.4 125.72 127.4Z" fill="#FF3C3C"/>
<path d="M50.61 52.15C51.66 51.555 53.1965 49.35 53.1965 49.35C53.1965 49.35 51.4464 48.7655 51.3274 48.7445C49.9904 48.4855 47.25 48.769 46.5115 50.106C46.3952 50.3316 46.3276 50.5793 46.3133 50.8327C46.299 51.0862 46.3381 51.3399 46.4283 51.5772C46.5184 51.8145 46.6574 52.0303 46.8364 52.2104C47.0153 52.3904 47.2302 52.5309 47.467 52.6225C48.461 53.067 49.728 52.6645 50.61 52.15Z" fill="#FF3C3C"/>
<path d="M57.4 56.0385C58.2085 55.223 59.0765 52.8885 59.15 52.703C60.4837 53.2022 61.8495 53.6115 63.238 53.928C64.0465 54.117 64.869 54.278 65.688 54.439C65.303 54.439 64.9565 54.411 64.9075 54.4145C63.546 54.5195 60.9805 55.517 60.62 57.001C60.5682 57.2494 60.5691 57.506 60.6228 57.754C60.6764 58.0021 60.7815 58.2361 60.9312 58.441C61.081 58.6459 61.2722 58.817 61.4923 58.9434C61.7124 59.0697 61.9566 59.1485 62.209 59.1745C63.2765 59.3215 64.393 58.6005 65.1105 57.876C65.828 57.1515 66.619 55.167 66.8185 54.642L67.767 54.8135C69.2895 55.076 70.8085 55.335 72.2925 55.6325C72.814 55.7375 73.325 55.86 73.836 55.9825C73.486 55.9825 73.2025 55.9615 73.157 55.9825C71.799 56.084 69.23 57.0815 68.873 58.569C68.8206 58.8172 68.8211 59.0737 68.8742 59.3217C68.9274 59.5698 69.0322 59.8039 69.1817 60.0088C69.3312 60.2138 69.5221 60.385 69.7421 60.5114C69.962 60.6378 70.2061 60.7165 70.4585 60.7425C71.5295 60.886 72.6425 60.165 73.3635 59.444C74.0845 58.723 74.795 56.924 75.033 56.294C75.5545 56.434 76.083 56.5705 76.573 56.7315C76.923 56.847 77.2415 56.9345 77.574 57.0815L78.561 57.4595C79.177 57.722 79.8175 57.988 80.4125 58.261C80.829 58.4465 81.221 58.611 81.6165 58.814C81.0985 58.7055 80.08 58.5095 79.9925 58.5025C78.631 58.3975 75.943 58.996 75.362 60.41C75.2724 60.6476 75.2339 60.9014 75.249 61.1549C75.2642 61.4084 75.3326 61.6559 75.4499 61.8811C75.5671 62.1064 75.7306 62.3044 75.9295 62.4622C76.1285 62.62 76.3585 62.7341 76.6045 62.797C77.6545 63.105 78.848 62.5625 79.6705 61.957C80.57 61.2885 81.746 59.2025 81.8895 58.94C82.544 59.248 83.1775 59.556 83.7725 59.8535C85.085 60.508 86.2225 61.124 87.206 61.6595L87.8045 60.8545C86.7895 60.319 85.568 59.6995 84.168 59.038C83.5065 58.723 82.789 58.3975 82.0505 58.072C82.2472 57.3281 82.3992 56.5731 82.5055 55.811C83.65 55.685 85.6555 54.6665 85.897 54.5335C86.2715 55.1495 86.632 55.755 86.947 56.3325C87.647 57.5365 88.235 58.632 88.732 59.5805L89.376 58.709C88.9035 57.8585 88.3505 56.9065 87.724 55.8705C87.346 55.244 86.9295 54.579 86.492 53.9C86.7125 53.704 88.494 52.0975 88.942 51.072C89.3515 50.1375 89.6175 48.8355 89.0925 47.894C88.9782 47.6669 88.8172 47.4666 88.6201 47.306C88.4231 47.1454 88.1943 47.0283 87.9488 46.9622C87.7034 46.8961 87.4467 46.8826 87.1957 46.9226C86.9446 46.9625 86.7048 47.055 86.492 47.194C85.239 48.069 85.2425 50.8235 85.645 52.129C85.666 52.206 86.016 53.011 86.2435 53.529C86.065 53.2525 85.8935 52.983 85.7045 52.703C85.3545 52.1395 84.952 51.59 84.5425 50.9985L83.909 50.155C83.706 49.868 83.4505 49.5915 83.209 49.3045C82.6595 48.6535 82.075 48.0235 81.459 47.397C81.949 47.075 83.6745 45.899 84.224 45.0345C84.7735 44.17 85.232 42.9345 84.854 41.9195C84.7738 41.6787 84.6438 41.4574 84.4725 41.2701C84.3012 41.0828 84.0924 40.9337 83.8597 40.8323C83.627 40.731 83.3756 40.6798 83.1218 40.6819C82.868 40.6841 82.6174 40.7397 82.3865 40.845C81.018 41.5205 80.605 44.2435 80.801 45.5945C80.801 45.6785 81.0635 46.6445 81.214 47.152C80.8465 46.781 80.4825 46.4065 80.101 46.0425C78.995 44.9925 77.8435 43.9425 76.699 42.924L75.649 41.9685C75.824 41.8565 77.903 40.502 78.5225 39.536C79.0685 38.6785 79.527 37.436 79.1525 36.4175C79.0716 36.1792 78.9419 35.9604 78.7717 35.7751C78.6014 35.5898 78.3944 35.442 78.1639 35.3413C77.9333 35.2405 77.6843 35.1889 77.4326 35.1898C77.181 35.1907 76.9323 35.244 76.7025 35.3465C75.3305 36.022 74.9175 38.745 75.117 40.096C75.117 40.1975 75.495 41.566 75.6035 41.909C74.837 41.209 74.0845 40.509 73.367 39.774C72.4118 38.7893 71.5209 37.7441 70.7 36.645C70.7805 36.5925 72.9575 35.189 73.591 34.195C74.137 33.3375 74.5955 32.095 74.221 31.08C74.1405 30.8414 74.011 30.6222 73.841 30.4366C73.6709 30.2509 73.4639 30.1027 73.2333 30.0016C73.0027 29.9004 72.7536 29.8486 72.5018 29.8492C72.25 29.8499 72.0011 29.9031 71.771 30.0055C70.399 30.681 69.9895 33.404 70.1855 34.755C70.1855 34.86 70.5915 36.3335 70.6825 36.596C70.6335 36.533 70.5775 36.4735 70.5285 36.407C69.7243 35.2863 69.0215 34.0963 68.4285 32.851C68.0785 32.151 67.802 31.493 67.5395 30.835C67.97 30.6145 69.9335 29.589 70.602 28.7595C71.2705 27.93 71.834 26.7785 71.5715 25.732C71.5185 25.4837 71.4137 25.2494 71.264 25.0444C71.1144 24.8394 70.9232 24.6682 70.7029 24.542C70.4826 24.4159 70.2382 24.3376 69.9856 24.3122C69.733 24.2869 69.478 24.3151 69.237 24.395C67.7985 24.913 67.0915 27.5765 67.137 28.945C67.137 29.0185 67.249 29.7675 67.3365 30.3135C67.221 30.0125 67.0985 29.708 66.9865 29.4175C66.5945 28.329 66.2865 27.3175 66.0485 26.4075C65.912 25.893 65.793 25.424 65.6985 24.983C66.01 24.5455 67.2455 22.771 67.4485 21.7455C67.6515 20.72 67.627 19.418 66.913 18.5955C66.7513 18.4 66.5503 18.2407 66.3231 18.1279C66.0958 18.0151 65.8474 17.9513 65.5939 17.9408C65.3405 17.9302 65.0876 17.9731 64.8518 18.0666C64.6159 18.1601 64.4024 18.3021 64.225 18.4835C63.175 19.607 63.7875 22.295 64.456 23.485C64.5155 23.5865 65.6075 25.088 65.6215 25.067L65.6425 25.039C65.7335 25.466 65.835 25.9175 65.9575 26.4145C66.1885 27.328 66.4615 28.3535 66.8325 29.4525C67.2182 30.6445 67.6728 31.8131 68.194 32.9525C68.7738 34.2276 69.4648 35.4491 70.259 36.603L70.2905 36.6415C69.9405 36.3685 68.9185 35.6405 68.8345 35.5915C67.641 34.93 64.9495 34.3455 63.833 35.385C63.6523 35.5631 63.511 35.7772 63.4184 36.0134C63.3258 36.2497 63.2839 36.5028 63.2954 36.7563C63.307 37.0097 63.3717 37.258 63.4854 37.4848C63.5991 37.7117 63.7593 37.912 63.9555 38.073C64.7675 38.773 66.0975 38.7975 67.1055 38.591C68.229 38.36 70.2555 36.89 70.4025 36.771C71.2402 37.9243 72.1546 39.02 73.1395 40.0505C73.7065 40.656 74.3015 41.244 74.8895 41.8285C74.5745 41.6045 74.291 41.405 74.249 41.3805C73.0555 40.7155 70.364 40.131 69.2475 41.174C69.0668 41.3521 68.9255 41.5662 68.8329 41.8024C68.7403 42.0387 68.6984 42.2918 68.7099 42.5453C68.7215 42.7987 68.7862 43.047 68.8999 43.2738C69.0136 43.5007 69.1738 43.701 69.37 43.862C70.182 44.562 71.512 44.5865 72.52 44.38C73.528 44.1735 75.271 42.952 75.7295 42.63L76.4295 43.295C77.553 44.345 78.6765 45.395 79.7475 46.4765C80.129 46.851 80.486 47.236 80.8465 47.6175C80.5665 47.418 80.3285 47.25 80.29 47.229C79.1 46.564 76.405 45.983 75.2885 47.0225C75.108 47.2008 74.9669 47.4151 74.8746 47.6515C74.7823 47.8879 74.7407 48.141 74.7526 48.3945C74.7645 48.648 74.8296 48.8962 74.9436 49.1229C75.0576 49.3496 75.2181 49.5498 75.4145 49.7105C76.223 50.4105 77.553 50.435 78.5645 50.2285C79.576 50.022 81.1475 48.9195 81.69 48.531C82.04 48.9335 82.39 49.336 82.74 49.7455C82.957 50.0255 83.188 50.2845 83.391 50.582L84.0035 51.4395C84.3745 51.9995 84.7595 52.5735 85.106 53.13C85.351 53.515 85.5785 53.886 85.806 54.257C85.435 53.879 84.6895 53.1545 84.623 53.0985C83.6467 52.3996 82.5084 51.9611 81.3155 51.8245C81.2068 51.739 81.0895 51.6651 80.9655 51.604C80.7442 51.4798 80.4993 51.4036 80.2466 51.3803C79.9939 51.357 79.7392 51.3871 79.4989 51.4686C79.2586 51.5501 79.0382 51.6813 78.8519 51.8535C78.6656 52.0258 78.5176 52.2353 78.4175 52.4685C77.854 53.8895 79.38 56.182 80.4335 57.05C80.4965 57.1025 81.2315 57.582 81.7005 57.876C81.3995 57.7465 81.1055 57.6135 80.794 57.484C80.178 57.218 79.5515 56.973 78.883 56.707L77.889 56.357C77.56 56.231 77.189 56.14 76.839 56.028C76.0235 55.79 75.1835 55.5835 74.3365 55.398C74.5675 54.8555 75.355 52.9235 75.3375 51.898C75.32 50.8725 75.0155 49.5845 74.144 48.951C73.9443 48.7946 73.7139 48.682 73.4678 48.6205C73.2217 48.5589 72.9654 48.5498 72.7156 48.5937C72.4658 48.6376 72.2279 48.7335 72.0176 48.8753C71.8072 49.017 71.629 49.2014 71.4945 49.4165C70.7245 50.736 71.883 53.235 72.793 54.25C72.849 54.3165 73.584 54.971 73.9935 55.3245C73.4825 55.216 72.975 55.104 72.4535 55.013C70.952 54.7435 69.4225 54.5195 67.9035 54.285L66.5035 54.0645C66.5875 53.8755 67.5745 51.597 67.5535 50.4525C67.536 49.434 67.2315 48.139 66.36 47.5055C66.1603 47.3491 65.9299 47.2365 65.6838 47.175C65.4377 47.1134 65.1814 47.1043 64.9316 47.1482C64.6818 47.1921 64.4439 47.288 64.2336 47.4298C64.0232 47.5715 63.845 47.7559 63.7105 47.971C62.9405 49.2905 64.099 51.7895 65.0055 52.808C65.0755 52.8815 66.1325 53.8265 66.4055 54.054C65.38 53.8895 64.3615 53.704 63.3605 53.5045C62.0119 53.2251 60.6826 52.8592 59.381 52.409C59.4195 52.3215 60.4625 49.959 60.431 48.776C60.4135 47.7575 60.109 46.4625 59.2375 45.829C59.0378 45.6726 58.8074 45.56 58.5613 45.4985C58.3152 45.4369 58.0589 45.4278 57.8091 45.4717C57.5593 45.5156 57.3214 45.6115 57.1111 45.7533C56.9007 45.895 56.7225 46.0794 56.588 46.2945C55.818 47.614 56.9765 50.113 57.8865 51.1315C57.9565 51.2085 59.0975 52.2235 59.3145 52.3915C59.241 52.367 59.1605 52.346 59.0835 52.318C57.79 51.8302 56.5426 51.2281 55.356 50.519C54.698 50.1375 54.089 49.7315 53.5045 49.329C53.7425 48.9055 54.817 46.9665 54.9045 45.9095C54.992 44.8525 54.838 43.575 54.0435 42.847C53.8618 42.6696 53.6449 42.5323 53.4068 42.444C53.1687 42.3558 52.9148 42.3185 52.6613 42.3347C52.4079 42.3509 52.1608 42.4201 51.9358 42.5379C51.7109 42.6557 51.5131 42.8194 51.3555 43.0185C50.4455 44.247 51.324 46.8685 52.115 47.9675C52.157 48.0305 52.6645 48.594 53.039 49.0175C52.7765 48.832 52.5035 48.643 52.2585 48.4575C51.331 47.7575 50.526 47.082 49.8085 46.466C49.4095 46.116 49.0525 45.7835 48.7235 45.4755C48.7445 44.94 48.7935 42.777 48.4015 41.8075C48.0095 40.838 47.2675 39.767 46.2245 39.4905C45.9811 39.4168 45.7249 39.3953 45.4726 39.4272C45.2204 39.4592 44.9777 39.5441 44.7604 39.6762C44.5431 39.8083 44.356 39.9847 44.2115 40.1939C44.067 40.4031 43.9681 40.6405 43.9215 40.8905C43.6765 42.399 45.6715 44.3135 46.8755 44.933C46.9805 44.9855 48.7165 45.633 48.72 45.6085V45.577C49.0315 45.8815 49.3675 46.2035 49.742 46.55C50.442 47.18 51.233 47.8905 52.15 48.601C53.1272 49.3808 54.1498 50.1019 55.2125 50.7605C56.3985 51.5045 57.6482 52.1417 58.947 52.6645L58.9925 52.682C58.548 52.647 57.295 52.6015 57.2005 52.6085C55.839 52.7135 53.27 53.711 52.913 55.195C52.8606 55.4432 52.8611 55.6997 52.9142 55.9477C52.9674 56.1958 53.0721 56.4299 53.2217 56.6348C53.3712 56.8398 53.5621 57.011 53.7821 57.1374C54.002 57.2638 54.2461 57.3425 54.4985 57.3685C55.5695 57.484 56.7 56.763 57.4 56.0385Z" fill="#FF3C3C"/>
<path d="M67.235 30.716C67.2595 30.716 66.094 29.2634 66.01 29.1829C65.037 28.2274 62.594 26.9499 61.25 27.6499C61.0285 27.7739 60.8356 27.9432 60.6839 28.1467C60.5323 28.3502 60.4252 28.5834 60.3697 28.8311C60.3142 29.0788 60.3116 29.3354 60.3619 29.5842C60.4123 29.833 60.5145 30.0683 60.662 30.2749C61.2535 31.1744 62.531 31.542 63.5495 31.605C64.75 31.6925 67.2315 30.7194 67.235 30.716Z" fill="#FF3C3C"/>
<g opacity="0.1">
<path d="M26.1625 64.6555C26.2115 64.281 25.7775 63.8715 25.7775 63.4865C25.7775 63.1015 26.2115 62.6885 26.1625 62.3175C26.1135 61.9465 25.5885 61.649 25.4905 61.2675C25.3925 60.886 25.704 60.389 25.557 60.039C25.41 59.689 24.8325 59.5455 24.64 59.22C24.4475 58.8945 24.619 58.317 24.388 58.016C24.157 57.715 23.5585 57.729 23.289 57.4595C23.0195 57.19 23.037 56.595 22.7325 56.3605C22.428 56.126 21.861 56.2975 21.5285 56.1085C21.196 55.9195 21.063 55.3385 20.7095 55.1915C20.356 55.0445 19.852 55.356 19.481 55.258C19.11 55.16 18.83 54.635 18.4485 54.586C18.067 54.537 17.668 54.971 17.2795 54.971C16.891 54.971 16.485 54.5545 16.1 54.6C15.715 54.6455 15.435 55.174 15.071 55.272C14.707 55.37 14.189 55.0585 13.839 55.2055C13.489 55.3525 13.349 55.93 13.02 56.1225C12.691 56.315 12.117 56.1435 11.816 56.3745C11.515 56.6055 11.529 57.204 11.2595 57.4735C10.99 57.743 10.395 57.7255 10.164 58.03C9.93297 58.3345 10.101 58.9015 9.90847 59.234C9.71597 59.5665 9.13847 59.6995 8.99147 60.053C8.84447 60.4065 9.15947 60.9105 9.05797 61.2815C8.95647 61.6525 8.43847 61.9325 8.38597 62.3315C8.33347 62.7305 8.77097 63.1155 8.77097 63.5005C8.77097 63.8855 8.34047 64.295 8.38597 64.6695C8.43147 65.044 8.95997 65.3345 9.05797 65.7195C9.15597 66.1045 8.84797 66.598 8.99147 66.948C9.13497 67.298 9.71947 67.438 9.90847 67.767C10.0975 68.096 9.92947 68.67 10.164 68.971C10.3985 69.272 10.99 69.258 11.2595 69.5275C11.529 69.797 11.515 70.392 11.816 70.6265C12.117 70.861 12.691 70.6895 13.02 70.8785C13.349 71.0675 13.489 71.6485 13.8425 71.7955C14.196 71.9425 14.7 71.631 15.071 71.729C15.442 71.827 15.7185 72.3485 16.1 72.401C16.4815 72.4535 16.884 72.016 17.269 72.016C17.654 72.016 18.067 72.45 18.438 72.401C18.809 72.352 19.1065 71.827 19.4705 71.729C19.8345 71.631 20.349 71.939 20.699 71.7955C21.049 71.652 21.1925 71.0675 21.518 70.8785C21.8435 70.6895 22.421 70.8575 22.722 70.623C23.023 70.3885 23.009 69.797 23.2785 69.5275C23.548 69.258 24.1465 69.272 24.3775 68.971C24.6085 68.67 24.4405 68.0995 24.633 67.767C24.8255 67.4345 25.403 67.3015 25.5465 66.948C25.69 66.5945 25.382 66.087 25.48 65.7195C25.578 65.352 26.1135 65.037 26.1625 64.6555ZM17.2795 70.378C15.9165 70.378 14.5841 69.9738 13.4508 69.2166C12.3175 68.4593 11.4342 67.383 10.9125 66.1238C10.3909 64.8645 10.2545 63.4789 10.5204 62.142C10.7863 60.8052 11.4426 59.5773 12.4064 58.6135C13.3702 57.6497 14.5982 56.9933 15.935 56.7274C17.2718 56.4615 18.6575 56.598 19.9167 57.1196C21.176 57.6412 22.2523 58.5245 23.0095 59.6578C23.7668 60.7911 24.171 62.1235 24.171 63.4865C24.17 65.314 23.4437 67.0663 22.1515 68.3585C20.8593 69.6507 19.1069 70.3771 17.2795 70.378Z" fill="black"/>
<path d="M21.178 67.3852C23.3308 65.2325 23.3308 61.7421 21.178 59.5894C19.0253 57.4366 15.5349 57.4366 13.3822 59.5894C11.2294 61.7421 11.2294 65.2325 13.3822 67.3852C15.5349 69.538 19.0253 69.538 21.178 67.3852Z" fill="black"/>
</g>
<g opacity="0.1">
<path d="M162.662 62.0725C162.725 61.5755 162.148 61.0225 162.148 60.5115C162.148 60.0005 162.725 59.4615 162.662 58.9505C162.599 58.4395 161.896 58.0615 161.766 57.575C161.637 57.0885 162.05 56.399 161.854 55.9335C161.658 55.468 160.885 55.2755 160.633 54.838C160.381 54.4005 160.601 53.634 160.283 53.2315C159.964 52.829 159.177 52.85 158.816 52.4895C158.456 52.129 158.466 51.3345 158.074 51.023C157.682 50.7115 156.908 50.939 156.467 50.673C156.026 50.407 155.845 49.6475 155.372 49.4515C154.9 49.2555 154.228 49.672 153.731 49.539C153.234 49.406 152.866 48.7095 152.355 48.643C151.844 48.5765 151.305 49.1575 150.794 49.1575C150.283 49.1575 149.744 48.58 149.233 48.643C148.722 48.706 148.344 49.4095 147.858 49.539C147.371 49.6685 146.685 49.259 146.216 49.4515C145.747 49.644 145.561 50.421 145.12 50.6765C144.679 50.932 143.916 50.7045 143.514 51.0265C143.111 51.3485 143.15 52.129 142.8 52.5C142.45 52.871 141.645 52.85 141.337 53.242C141.029 53.634 141.253 54.4075 140.987 54.8485C140.721 55.2895 139.958 55.4715 139.762 55.944C139.566 56.4165 139.986 57.0885 139.853 57.5855C139.72 58.0825 139.023 58.45 138.957 58.961C138.89 59.472 139.468 60.011 139.468 60.522C139.468 61.033 138.89 61.572 138.957 62.083C139.023 62.594 139.723 62.972 139.853 63.4585C139.982 63.945 139.569 64.631 139.762 65.1C139.954 65.569 140.731 65.7545 140.987 66.1955C141.242 66.6365 141.018 67.3995 141.337 67.802C141.655 68.2045 142.443 68.1835 142.8 68.544C143.157 68.9045 143.15 69.699 143.542 70.007C143.934 70.315 144.707 70.091 145.152 70.357C145.596 70.623 145.775 71.386 146.247 71.582C146.72 71.778 147.392 71.3615 147.885 71.491C148.379 71.6205 148.753 72.3205 149.261 72.387C149.768 72.4535 150.311 71.876 150.822 71.876C151.333 71.876 151.872 72.4535 152.383 72.387C152.894 72.3205 153.272 71.6205 153.758 71.491C154.245 71.3615 154.934 71.7745 155.4 71.582C155.865 71.3895 156.058 70.6125 156.495 70.357C156.933 70.1015 157.699 70.329 158.102 70.007C158.504 69.685 158.483 68.901 158.844 68.544C159.204 68.187 159.999 68.194 160.31 67.802C160.622 67.41 160.394 66.6365 160.66 66.1955C160.926 65.7545 161.686 65.569 161.882 65.1C162.078 64.631 161.661 63.952 161.794 63.4585C161.927 62.965 162.596 62.58 162.662 62.0725ZM150.804 69.7095C148.985 69.7095 147.207 69.17 145.694 68.1594C144.182 67.1487 143.003 65.7121 142.307 64.0314C141.61 62.3507 141.428 60.5013 141.783 58.7171C142.138 56.9328 143.014 55.2939 144.301 54.0075C145.587 52.7212 147.226 51.8451 149.01 51.4902C150.794 51.1353 152.644 51.3175 154.324 52.0137C156.005 52.7098 157.442 53.8888 158.452 55.4014C159.463 56.914 160.002 58.6923 160.002 60.5115C160.002 62.9507 159.032 65.2897 157.307 67.0144C155.583 68.7392 153.244 69.7086 150.804 69.7095Z" fill="black"/>
<path d="M155.044 65.7426C158.294 63.3047 158.953 58.6933 156.515 55.4428C154.077 52.1923 149.466 51.5335 146.215 53.9714C142.965 56.4093 142.306 61.0207 144.744 64.2712C147.182 67.5217 151.793 68.1805 155.044 65.7426Z" fill="black"/>
</g>
<g opacity="0.1">
<path d="M143.353 136.896C141.83 136.896 140.341 137.347 139.075 138.193C137.809 139.039 136.822 140.242 136.239 141.649C135.656 143.056 135.504 144.604 135.801 146.098C136.098 147.591 136.831 148.963 137.908 150.04C138.985 151.117 140.357 151.85 141.851 152.148C143.344 152.445 144.893 152.292 146.3 151.709C147.707 151.127 148.909 150.14 149.755 148.873C150.601 147.607 151.053 146.118 151.053 144.596C151.053 142.553 150.242 140.595 148.798 139.151C147.354 137.707 145.395 136.896 143.353 136.896ZM143.85 149.937V150.749H142.87V149.937C141.54 149.755 140.941 148.743 140.941 147.291V146.65H142.058V147.385C142.058 148.348 142.457 148.901 143.314 148.901C144.172 148.901 144.571 148.348 144.571 147.385C144.571 144.998 140.987 144.967 140.987 141.95C140.987 140.48 141.585 139.517 142.87 139.318V138.46H143.85V139.3C145.152 139.486 145.747 140.494 145.747 141.932V142.223H144.63V141.855C144.63 140.907 144.249 140.326 143.391 140.326C142.534 140.326 142.166 140.907 142.166 141.855C142.166 144.26 145.764 144.274 145.764 147.291C145.764 148.729 145.152 149.755 143.85 149.937Z" fill="black"/>
<path d="M143.353 131.996C140.861 131.996 138.425 132.735 136.353 134.119C134.281 135.504 132.666 137.471 131.712 139.774C130.758 142.076 130.509 144.61 130.995 147.054C131.481 149.498 132.681 151.743 134.443 153.505C136.206 155.267 138.451 156.467 140.895 156.953C143.339 157.44 145.872 157.19 148.175 156.236C150.477 155.283 152.445 153.668 153.829 151.596C155.214 149.524 155.953 147.088 155.953 144.596C155.953 141.254 154.625 138.049 152.262 135.686C149.9 133.323 146.695 131.996 143.353 131.996ZM143.353 154.046C141.484 154.046 139.657 153.491 138.103 152.453C136.549 151.415 135.338 149.939 134.622 148.212C133.907 146.485 133.72 144.585 134.085 142.752C134.449 140.919 135.349 139.235 136.671 137.913C137.992 136.592 139.676 135.692 141.509 135.327C143.342 134.963 145.243 135.15 146.969 135.865C148.696 136.58 150.172 137.791 151.21 139.345C152.249 140.9 152.803 142.727 152.803 144.596C152.803 147.102 151.807 149.506 150.035 151.278C148.263 153.05 145.859 154.046 143.353 154.046Z" fill="black"/>
</g>
<g opacity="0.1">
<path d="M113.6 147.819C112.524 147.819 111.472 148.138 110.578 148.735C109.683 149.333 108.986 150.183 108.575 151.176C108.163 152.17 108.055 153.264 108.265 154.319C108.475 155.374 108.993 156.343 109.754 157.104C110.514 157.864 111.483 158.382 112.538 158.592C113.593 158.802 114.687 158.694 115.681 158.283C116.675 157.871 117.524 157.174 118.122 156.28C118.72 155.385 119.039 154.334 119.039 153.258C119.039 152.544 118.898 151.836 118.625 151.176C118.351 150.517 117.951 149.917 117.445 149.412C116.94 148.907 116.341 148.506 115.681 148.233C115.021 147.96 114.314 147.819 113.6 147.819ZM113.95 157.031V157.605H113.25V157.031C112.308 156.901 111.888 156.187 111.888 155.158V154.7H112.7V155.218C112.7 155.897 112.98 156.289 113.586 156.289C114.191 156.289 114.475 155.897 114.475 155.218C114.475 153.531 111.944 153.51 111.944 151.368C111.944 150.318 112.364 149.649 113.274 149.509V148.904H113.974V149.509C114.891 149.639 115.315 150.353 115.315 151.368V151.574H114.524V151.315C114.524 150.643 114.254 150.234 113.649 150.234C113.043 150.234 112.784 150.643 112.784 151.315C112.784 153.013 115.325 153.023 115.325 155.165C115.304 156.177 114.87 156.901 113.953 157.031H113.95Z" fill="black"/>
<path d="M113.599 144.357C111.839 144.357 110.118 144.879 108.655 145.857C107.191 146.835 106.05 148.225 105.376 149.852C104.703 151.478 104.527 153.268 104.87 154.994C105.213 156.721 106.061 158.307 107.306 159.552C108.551 160.796 110.137 161.644 111.863 161.987C113.59 162.331 115.379 162.155 117.006 161.481C118.632 160.807 120.022 159.666 121 158.203C121.978 156.739 122.5 155.018 122.5 153.258C122.5 150.897 121.562 148.633 119.893 146.964C118.224 145.295 115.96 144.357 113.599 144.357ZM113.599 159.932C112.279 159.932 110.989 159.541 109.891 158.808C108.794 158.074 107.938 157.032 107.433 155.812C106.928 154.593 106.796 153.251 107.053 151.956C107.311 150.661 107.946 149.472 108.88 148.538C109.813 147.605 111.003 146.969 112.297 146.712C113.592 146.454 114.934 146.586 116.154 147.091C117.373 147.597 118.416 148.452 119.149 149.55C119.883 150.647 120.274 151.938 120.274 153.258C120.276 154.136 120.105 155.006 119.771 155.818C119.437 156.629 118.945 157.367 118.325 157.989C117.705 158.61 116.969 159.104 116.158 159.44C115.347 159.777 114.477 159.95 113.599 159.95V159.932Z" fill="black"/>
</g>
<g opacity="0.1">
<path d="M104.198 128.922C103.123 128.922 102.071 129.241 101.177 129.839C100.282 130.437 99.5851 131.286 99.1734 132.28C98.7618 133.274 98.654 134.367 98.8639 135.422C99.0738 136.478 99.5918 137.447 100.352 138.207C101.113 138.968 102.082 139.486 103.137 139.696C104.192 139.906 105.286 139.798 106.28 139.386C107.274 138.975 108.123 138.278 108.721 137.383C109.318 136.489 109.637 135.437 109.637 134.361C109.638 133.647 109.497 132.94 109.224 132.279C108.951 131.619 108.551 131.02 108.045 130.514C107.54 130.009 106.94 129.609 106.28 129.335C105.62 129.062 104.913 128.922 104.198 128.922ZM104.548 138.134V138.705H103.848V138.134C102.91 138.005 102.487 137.291 102.487 136.262V135.8H103.278V136.318C103.278 136.997 103.558 137.389 104.163 137.389C104.769 137.389 105.049 136.997 105.049 136.318C105.049 134.631 102.518 134.61 102.518 132.468C102.518 131.418 102.942 130.749 103.848 130.609V130.004H104.548V130.609C105.469 130.739 105.889 131.453 105.889 132.468V132.674H105.101V132.415C105.101 131.743 104.828 131.334 104.223 131.334C103.617 131.334 103.358 131.743 103.358 132.415C103.358 134.113 105.899 134.123 105.899 136.265C105.899 137.28 105.469 138.005 104.548 138.134Z" fill="black"/>
<path d="M104.198 125.461C102.438 125.46 100.717 125.982 99.2526 126.959C97.7885 127.937 96.6471 129.327 95.973 130.953C95.2988 132.579 95.122 134.369 95.465 136.096C95.8081 137.822 96.6555 139.409 97.9001 140.654C99.1447 141.899 100.731 142.747 102.457 143.091C104.184 143.434 105.974 143.258 107.6 142.585C109.227 141.911 110.617 140.77 111.595 139.307C112.573 137.843 113.095 136.122 113.095 134.361C113.096 133.193 112.866 132.035 112.419 130.956C111.972 129.876 111.317 128.895 110.491 128.068C109.665 127.242 108.684 126.586 107.604 126.139C106.524 125.691 105.367 125.461 104.198 125.461ZM104.198 141.036C102.878 141.036 101.588 140.644 100.49 139.911C99.3927 139.178 98.5372 138.135 98.032 136.916C97.5268 135.696 97.3947 134.354 97.6522 133.059C97.9097 131.765 98.5454 130.575 99.4788 129.642C100.412 128.708 101.602 128.073 102.896 127.815C104.191 127.558 105.533 127.69 106.753 128.195C107.972 128.7 109.015 129.556 109.748 130.653C110.481 131.751 110.873 133.041 110.873 134.361C110.875 135.239 110.703 136.109 110.369 136.92C110.034 137.731 109.543 138.469 108.923 139.09C108.303 139.711 107.567 140.204 106.756 140.541C105.945 140.877 105.076 141.05 104.198 141.05V141.036Z" fill="black"/>
</g>
<path opacity="0.1" d="M30.0229 25.9105H35.1714L32.5954 21.455L30.0229 25.9105Z" fill="black"/>
<path opacity="0.1" d="M19.9185 25.9105H25.067L22.4945 21.455L19.9185 25.9105Z" fill="black"/>
<path opacity="0.1" d="M27.545 15.6345C25.5638 15.6345 23.6271 16.222 21.9798 17.3227C20.3325 18.4234 19.0486 19.9878 18.2905 21.8182C17.5323 23.6486 17.3339 25.6626 17.7204 27.6057C18.1069 29.5488 19.061 31.3337 20.4619 32.7346C21.8628 34.1355 23.6476 35.0895 25.5907 35.476C27.5338 35.8626 29.5479 35.6642 31.3783 34.906C33.2087 34.1479 34.7731 32.864 35.8738 31.2167C36.9745 29.5694 37.562 27.6327 37.562 25.6515C37.5592 22.9957 36.5029 20.4495 34.625 18.5715C32.747 16.6936 30.2008 15.6373 27.545 15.6345ZM34.629 27.3H30.5655C30.3672 27.3 30.1724 27.2479 30.0007 27.1488C29.8289 27.0497 29.6862 26.9072 29.587 26.7356C29.4877 26.564 29.4353 26.3693 29.435 26.171C29.4347 25.9728 29.4866 25.7779 29.5855 25.606L32.5255 20.51H28.238V30.24H29.827V31.0695H32.0425V32.235H23.324V31.0695H25.2595V30.24H27.3V20.4925H22.5645L25.5045 25.5885C25.6077 25.7608 25.6632 25.9575 25.6652 26.1584C25.6671 26.3592 25.6156 26.557 25.5158 26.7313C25.416 26.9056 25.2715 27.0502 25.0973 27.1502C24.923 27.2501 24.7253 27.3018 24.5245 27.3H20.461C20.2627 27.3 20.0679 27.2479 19.8962 27.1488C19.7244 27.0497 19.5817 26.9072 19.4825 26.7356C19.3832 26.564 19.3308 26.3693 19.3305 26.171C19.3302 25.9728 19.3821 25.7779 19.481 25.606L22.421 20.51H22.302C22.1832 20.4998 22.0726 20.4454 21.992 20.3576C21.9114 20.2698 21.8667 20.155 21.8667 20.0358C21.8667 19.9166 21.9114 19.8017 21.992 19.7139C22.0726 19.6261 22.1832 19.5717 22.302 19.5615H27.3C27.3102 19.4428 27.3646 19.3322 27.4524 19.2516C27.5402 19.171 27.655 19.1263 27.7742 19.1263C27.8934 19.1263 28.0082 19.171 28.0961 19.2516C28.1839 19.3322 28.2382 19.4428 28.2485 19.5615H33.222C33.2877 19.5559 33.3538 19.5639 33.4162 19.5852C33.4787 19.6065 33.536 19.6405 33.5846 19.6851C33.6332 19.7297 33.672 19.7839 33.6985 19.8442C33.725 19.9046 33.7387 19.9698 33.7387 20.0358C33.7387 20.1017 33.725 20.1669 33.6985 20.2273C33.672 20.2877 33.6332 20.3419 33.5846 20.3865C33.536 20.4311 33.4787 20.4651 33.4162 20.4863C33.3538 20.5076 33.2877 20.5157 33.222 20.51H32.6655L35.609 25.606C35.7078 25.7779 35.7597 25.9728 35.7594 26.171C35.7591 26.3693 35.7067 26.564 35.6075 26.7356C35.5082 26.9072 35.3655 27.0497 35.1938 27.1488C35.022 27.2479 34.8272 27.3 34.629 27.3Z" fill="black"/>
<path opacity="0.1" d="M27.5449 14.182C25.2765 14.182 23.059 14.8547 21.1728 16.115C19.2867 17.3753 17.8166 19.1665 16.9485 21.2623C16.0804 23.3581 15.8533 25.6642 16.2958 27.8891C16.7384 30.114 17.8307 32.1576 19.4348 33.7617C21.0388 35.3657 23.0825 36.4581 25.3074 36.9006C27.5322 37.3432 29.8384 37.116 31.9341 36.2479C34.0299 35.3798 35.8212 33.9098 37.0815 32.0236C38.3418 30.1375 39.0144 27.92 39.0144 25.6515C39.0144 22.6096 37.8061 19.6923 35.6551 17.5413C33.5042 15.3904 30.5868 14.182 27.5449 14.182ZM27.5449 36.0185C25.4945 36.0185 23.4902 35.4105 21.7853 34.2714C20.0805 33.1322 18.7517 31.5131 17.9671 29.6188C17.1824 27.7245 16.9771 25.64 17.3771 23.629C17.7772 21.618 18.7645 19.7708 20.2144 18.3209C21.6642 16.8711 23.5114 15.8837 25.5224 15.4837C27.5334 15.0837 29.6179 15.289 31.5122 16.0736C33.4065 16.8583 35.0257 18.1871 36.1648 19.8919C37.3039 21.5968 37.9119 23.6011 37.9119 25.6515C37.9082 28.3999 36.8148 31.0346 34.8714 32.978C32.928 34.9214 30.2933 36.0148 27.5449 36.0185Z" fill="black"/>
<path opacity="0.1" d="M37.6635 143.322H42.812L40.2395 138.863L37.6635 143.322Z" fill="black"/>
<path opacity="0.1" d="M27.5625 143.322H32.711L30.135 138.863L27.5625 143.322Z" fill="black"/>
<path opacity="0.1" d="M35.1855 133.045C33.2041 133.045 31.2673 133.633 29.6199 134.734C27.9726 135.835 26.6887 137.399 25.9306 139.23C25.1726 141.06 24.9744 143.075 25.3612 145.018C25.748 146.961 26.7024 148.746 28.1036 150.147C29.5049 151.547 31.29 152.501 33.2334 152.887C35.1767 153.273 37.1909 153.075 39.0212 152.316C40.8515 151.557 42.4157 150.273 43.516 148.625C44.6163 146.977 45.2031 145.04 45.2025 143.059C45.1997 140.403 44.1433 137.858 42.2653 135.98C40.3872 134.103 37.841 133.047 35.1855 133.045ZM42.273 144.69H38.206C38.0076 144.69 37.8126 144.638 37.6407 144.539C37.4688 144.44 37.3261 144.298 37.227 144.126C37.128 143.954 37.076 143.759 37.0764 143.561C37.0769 143.362 37.1297 143.167 37.2295 142.996L40.1695 137.903H35.882V147.647H37.471V148.477H39.6865V149.642H30.9645V148.477H32.9V147.647H34.93V137.9H30.205L33.145 142.992C33.2448 143.164 33.2976 143.359 33.298 143.557C33.2984 143.755 33.2464 143.95 33.1474 144.122C33.0483 144.294 32.9056 144.437 32.7337 144.536C32.5618 144.635 32.3668 144.687 32.1685 144.686H28.1015C27.9031 144.687 27.7081 144.635 27.5362 144.536C27.3643 144.437 27.2216 144.294 27.1225 144.122C27.0235 143.95 26.9715 143.755 26.9719 143.557C26.9724 143.359 27.0251 143.164 27.125 142.992L30.065 137.9H29.946C29.8197 137.9 29.6986 137.85 29.6094 137.76C29.5201 137.671 29.47 137.55 29.47 137.424C29.47 137.298 29.5201 137.177 29.6094 137.087C29.6986 136.998 29.8197 136.948 29.946 136.948H34.93C34.93 136.822 34.9801 136.701 35.0694 136.611C35.1586 136.522 35.2797 136.472 35.406 136.472C35.5322 136.472 35.6533 136.522 35.7425 136.611C35.8318 136.701 35.882 136.822 35.882 136.948H40.866C40.9922 136.948 41.1133 136.998 41.2025 137.087C41.2918 137.177 41.342 137.298 41.342 137.424C41.342 137.55 41.2918 137.671 41.2025 137.76C41.1133 137.85 40.9922 137.9 40.866 137.9H40.3095L43.2495 142.992C43.349 143.164 43.4016 143.359 43.4019 143.558C43.4023 143.756 43.3503 143.951 43.2514 144.123C43.1524 144.295 43.0099 144.438 42.8381 144.538C42.6664 144.637 42.4714 144.69 42.273 144.69Z" fill="black"/>
<path opacity="0.1" d="M35.1854 131.6C32.917 131.6 30.6995 132.273 28.8133 133.533C26.9272 134.793 25.4571 136.585 24.589 138.68C23.7209 140.776 23.4938 143.082 23.9363 145.307C24.3789 147.532 25.4712 149.576 27.0753 151.18C28.6793 152.784 30.723 153.876 32.9479 154.319C35.1727 154.761 37.4789 154.534 39.5746 153.666C41.6704 152.798 43.4617 151.328 44.722 149.442C45.9823 147.556 46.6549 145.338 46.6549 143.07C46.6549 140.028 45.4466 137.11 43.2956 134.959C41.1447 132.808 38.2273 131.6 35.1854 131.6ZM35.1854 153.437C33.135 153.437 31.1307 152.829 29.4259 151.689C27.721 150.55 26.3922 148.931 25.6076 147.037C24.8229 145.143 24.6176 143.058 25.0176 141.047C25.4177 139.036 26.405 137.189 27.8549 135.739C29.3047 134.289 31.1519 133.302 33.1629 132.902C35.1739 132.502 37.2584 132.707 39.1527 133.492C41.047 134.276 42.6662 135.605 43.8053 137.31C44.9444 139.015 45.5524 141.019 45.5524 143.07C45.5469 145.816 44.4525 148.449 42.5093 150.39C40.566 152.332 37.9323 153.423 35.1854 153.426V153.437Z" fill="black"/>
<path d="M137.368 97.5345C139.437 97.9195 141.694 96.593 142.968 94.4615C143.938 92.862 144.277 91.2835 144.673 89.474C145.117 87.5 160.489 16.0335 160.65 15.3265H82.796L66.948 88.97L66.304 91.9415C66.1703 92.56 65.9337 93.1515 65.604 93.6915L65.135 94.472C64.6394 95.2924 63.9285 95.9614 63.0797 96.4066C62.2308 96.8517 61.2763 97.0559 60.3196 96.9971C59.3629 96.9384 58.4406 96.6188 57.6526 96.0731C56.8646 95.5274 56.2411 94.7764 55.8495 93.9015C55.2039 92.4563 54.159 91.2254 52.8377 90.3536C51.5165 89.4819 49.9738 89.0055 48.391 88.9805H48.1005C46.2588 89.0152 44.4805 89.6596 43.0441 90.8129C41.6077 91.9662 40.5943 93.5632 40.1625 95.354L33.733 122.031H111.577L117.485 97.531" fill="white"/>
<path d="M137.368 97.5345C139.437 97.9195 141.694 96.593 142.968 94.4615C143.938 92.862 144.277 91.2835 144.673 89.474C145.117 87.5 160.489 16.0335 160.65 15.3265H82.796L66.948 88.97L66.304 91.9415C66.1703 92.56 65.9337 93.1515 65.604 93.6915L65.135 94.472C64.6394 95.2924 63.9285 95.9614 63.0797 96.4066C62.2308 96.8517 61.2763 97.0559 60.3196 96.9971C59.3629 96.9384 58.4406 96.6188 57.6526 96.0731C56.8646 95.5274 56.2411 94.7764 55.8495 93.9015C55.2039 92.4563 54.159 91.2254 52.8377 90.3536C51.5165 89.4819 49.9738 89.0055 48.391 88.9805H48.1005C46.2588 89.0152 44.4805 89.6596 43.0441 90.8129C41.6077 91.9662 40.5943 93.5632 40.1625 95.354L33.733 122.031H111.577L117.485 97.531" stroke="#263238" stroke-width="0.35" stroke-linecap="round" stroke-linejoin="round"/>
<path d="M107.45 23.639L107.338 24.227H106.638L106.757 23.6005C106.873 23.0125 106.708 22.659 106.173 22.659C105.637 22.659 105.34 23.009 105.224 23.6005L104.559 27.062C104.444 27.65 104.619 28.0035 105.144 28.0035C105.669 28.0035 105.98 27.6535 106.092 27.062L106.257 26.2115H106.957L106.803 27.0235C106.61 28.014 106.015 28.6685 105.007 28.6685C103.999 28.6685 103.667 28.014 103.856 27.0235L104.51 23.639C104.699 22.6485 105.294 21.994 106.295 21.994C107.296 21.994 107.625 22.6485 107.45 23.639Z" fill="#263238"/>
<path d="M108.042 23.639C108.234 22.638 108.854 21.994 109.855 21.994C110.856 21.994 111.234 22.638 111.041 23.639L110.39 27.0235C110.198 28.014 109.578 28.6685 108.567 28.6685C107.555 28.6685 107.198 28.014 107.387 27.0235L108.042 23.639ZM108.101 27.062C107.986 27.6605 108.171 28.0035 108.696 28.0035C109.221 28.0035 109.536 27.6535 109.652 27.062L110.32 23.6005C110.432 23.0125 110.257 22.659 109.725 22.659C109.193 22.659 108.882 23.009 108.77 23.6005L108.101 27.062Z" fill="#263238"/>
<path d="M111.423 28.602H110.768L112.028 22.05H112.956L113.558 26.7785L114.471 22.05H115.115L113.852 28.5915H113.096L112.441 23.303L111.423 28.602Z" fill="#263238"/>
<path d="M115.546 28.602L116.68 22.722H115.472L115.602 22.0605H118.734L118.605 22.722H117.401L116.267 28.602H115.546Z" fill="#263238"/>
<path d="M120.687 22.05C121.716 22.05 122.045 22.5715 121.859 23.5445L121.754 24.0765C121.618 24.7975 121.278 25.2455 120.683 25.424C121.247 25.6025 121.383 26.089 121.243 26.789L121.044 27.8075C120.976 28.0645 120.976 28.3346 121.044 28.5915H120.302C120.249 28.3278 120.261 28.0551 120.337 27.797L120.533 26.7715C120.676 26.0295 120.375 25.7985 119.766 25.7985H119.252L118.713 28.5985H117.985L119.227 22.05H120.687ZM119.906 25.1335C120.038 25.1527 120.173 25.1442 120.301 25.1087C120.43 25.0731 120.55 25.0112 120.653 24.927C120.756 24.8428 120.841 24.738 120.902 24.6193C120.962 24.5006 120.998 24.3706 121.005 24.2375L121.124 23.611C121.24 23.0195 121.082 22.7115 120.54 22.7115H119.84L119.35 25.144L119.906 25.1335Z" fill="#263238"/>
<path d="M122.644 27.3L122.15 28.602H121.45L123.981 22.05H125.031V28.5915H124.303V27.3H122.644ZM122.857 26.6735H124.317V22.897L122.857 26.6735Z" fill="#263238"/>
<path d="M129.434 23.639L129.322 24.227H128.622L128.744 23.6005C128.856 23.0125 128.692 22.659 128.16 22.659C127.628 22.659 127.323 23.009 127.211 23.6005L126.543 27.062C126.431 27.65 126.602 28.0035 127.127 28.0035C127.652 28.0035 127.964 27.6535 128.076 27.062L128.24 26.2115H128.94L128.8 27.0235C128.608 28.014 128.016 28.6685 127.005 28.6685C125.993 28.6685 125.65 28 125.836 27.0235L126.49 23.639C126.679 22.6485 127.274 21.994 128.275 21.994C129.276 21.994 129.626 22.6485 129.434 23.639Z" fill="#263238"/>
<path d="M130.085 28.602L131.219 22.722H130.015L130.141 22.0605H133.273L133.147 22.722H131.95L130.816 28.602H130.085Z" fill="#263238"/>
<path d="M84.8015 31.801H153.468" stroke="#263238" stroke-width="0.35" stroke-miterlimit="10"/>
<path d="M135.202 39.41H151.27" stroke="#263238" stroke-width="0.35" stroke-miterlimit="10"/>
<path d="M110.002 39.41H133.511" stroke="#263238" stroke-width="0.35" stroke-miterlimit="10"/>
<path d="M94.2726 39.41H108.651" stroke="#263238" stroke-width="0.35" stroke-miterlimit="10"/>
<path d="M82.6035 39.41H92.9215" stroke="#263238" stroke-width="0.35" stroke-miterlimit="10"/>
<path d="M133.172 43.2986H150.423" stroke="#263238" stroke-width="0.35" stroke-miterlimit="10"/>
<path d="M94.1045 43.2986H131.481" stroke="#263238" stroke-width="0.35" stroke-miterlimit="10"/>
<path d="M81.76 43.2986H92.582" stroke="#263238" stroke-width="0.35" stroke-miterlimit="10"/>
<path d="M129.623 47.1906H149.58" stroke="#263238" stroke-width="0.35" stroke-miterlimit="10"/>
<path d="M99.687 47.1906H128.268" stroke="#263238" stroke-width="0.35" stroke-miterlimit="10"/>
<path d="M80.9131 47.1906H98.3326" stroke="#263238" stroke-width="0.35" stroke-miterlimit="10"/>
<path d="M136.217 51.0791H148.733" stroke="#263238" stroke-width="0.35" stroke-miterlimit="10"/>
<path d="M117.107 51.0791H134.526" stroke="#263238" stroke-width="0.35" stroke-miterlimit="10"/>
<path d="M98.672 51.0791H115.416" stroke="#263238" stroke-width="0.35" stroke-miterlimit="10"/>
<path d="M84.8015 51.0791H97.1495" stroke="#263238" stroke-width="0.35" stroke-miterlimit="10"/>
<path d="M80.066 51.0791H83.279" stroke="#263238" stroke-width="0.35" stroke-miterlimit="10"/>
<path d="M145.012 54.9711H147.886" stroke="#263238" stroke-width="0.35" stroke-miterlimit="10"/>
<path d="M116.427 54.9711H142.814" stroke="#263238" stroke-width="0.35" stroke-miterlimit="10"/>
<path d="M96.3025 54.9711H114.737" stroke="#263238" stroke-width="0.35" stroke-miterlimit="10"/>
<path d="M79.2225 54.9711H94.444" stroke="#263238" stroke-width="0.35" stroke-miterlimit="10"/>
<path d="M141.292 58.8595H147.042" stroke="#263238" stroke-width="0.35" stroke-miterlimit="10"/>
<path d="M124.547 58.8595H139.769" stroke="#263238" stroke-width="0.35" stroke-miterlimit="10"/>
<path d="M119.473 58.8595H122.857" stroke="#263238" stroke-width="0.35" stroke-miterlimit="10"/>
<path d="M95.1195 58.8595H118.629" stroke="#263238" stroke-width="0.35" stroke-miterlimit="10"/>
<path d="M78.3755 58.8595H93.765" stroke="#263238" stroke-width="0.35" stroke-miterlimit="10"/>
<path d="M77.5286 62.748H146.195" stroke="#263238" stroke-width="0.35" stroke-miterlimit="10"/>
<path d="M141.799 66.64H145.352" stroke="#263238" stroke-width="0.35" stroke-miterlimit="10"/>
<path d="M126.238 66.64H139.601" stroke="#263238" stroke-width="0.35" stroke-miterlimit="10"/>
<path d="M103.915 66.64H123.872" stroke="#263238" stroke-width="0.35" stroke-miterlimit="10"/>
<path d="M99.0081 66.64H102.393" stroke="#263238" stroke-width="0.35" stroke-miterlimit="10"/>
<path d="M83.4506 66.64H97.1496" stroke="#263238" stroke-width="0.35" stroke-miterlimit="10"/>
<path d="M76.6851 66.64H81.4206" stroke="#263238" stroke-width="0.35" stroke-miterlimit="10"/>
<path d="M127.253 70.5286H144.505" stroke="#263238" stroke-width="0.35" stroke-miterlimit="10"/>
<path d="M108.987 70.5286H125.055" stroke="#263238" stroke-width="0.35" stroke-miterlimit="10"/>
<path d="M94.9515 70.5286H107.296" stroke="#263238" stroke-width="0.35" stroke-miterlimit="10"/>
<path d="M75.838 70.5286H93.2575" stroke="#263238" stroke-width="0.35" stroke-miterlimit="10"/>
<path d="M138.247 74.4207H143.658" stroke="#263238" stroke-width="0.35" stroke-miterlimit="10"/>
<path d="M120.32 74.4207H136.385" stroke="#263238" stroke-width="0.35" stroke-miterlimit="10"/>
<path d="M108.818 74.4207H119.136" stroke="#263238" stroke-width="0.35" stroke-miterlimit="10"/>
<path d="M99.5155 74.4207H107.128" stroke="#263238" stroke-width="0.35" stroke-miterlimit="10"/>
<path d="M90.7235 74.4207H98.1645" stroke="#263238" stroke-width="0.35" stroke-miterlimit="10"/>
<path d="M79.5585 74.4207H88.8615" stroke="#263238" stroke-width="0.35" stroke-miterlimit="10"/>
<path d="M74.9945 74.4207H78.036" stroke="#263238" stroke-width="0.35" stroke-miterlimit="10"/>
<path d="M133.679 78.3091H142.814" stroke="#263238" stroke-width="0.35" stroke-miterlimit="10"/>
<path d="M117.614 78.3091H131.649" stroke="#263238" stroke-width="0.35" stroke-miterlimit="10"/>
<path d="M102.561 78.3091H115.584" stroke="#263238" stroke-width="0.35" stroke-miterlimit="10"/>
<path d="M84.973 78.3091H100.531" stroke="#263238" stroke-width="0.35" stroke-miterlimit="10"/>
<path d="M74.1476 78.3091H83.2791" stroke="#263238" stroke-width="0.35" stroke-miterlimit="10"/>
<path d="M133.172 82.1975H141.967" stroke="#263238" stroke-width="0.35" stroke-miterlimit="10"/>
<path d="M117.95 82.1975H131.481" stroke="#263238" stroke-width="0.35" stroke-miterlimit="10"/>
<path d="M102.221 82.1975H115.584" stroke="#263238" stroke-width="0.35" stroke-miterlimit="10"/>
<path d="M91.399 82.1975H100.702" stroke="#263238" stroke-width="0.35" stroke-miterlimit="10"/>
<path d="M80.2375 82.1975H89.7085" stroke="#263238" stroke-width="0.35" stroke-miterlimit="10"/>
<path d="M73.3005 82.1975H79.2225" stroke="#263238" stroke-width="0.35" stroke-miterlimit="10"/>
<path d="M136.049 86.0896H141.12" stroke="#263238" stroke-width="0.35" stroke-miterlimit="10"/>
<path d="M118.797 86.0896H134.358" stroke="#263238" stroke-width="0.35" stroke-miterlimit="10"/>
<path d="M105.098 86.0896H116.767" stroke="#263238" stroke-width="0.35" stroke-miterlimit="10"/>
<path d="M96.1345 86.0896H103.236" stroke="#263238" stroke-width="0.35" stroke-miterlimit="10"/>
<path d="M81.76 86.0896H93.597" stroke="#263238" stroke-width="0.35" stroke-miterlimit="10"/>
<path d="M72.457 86.0896H80.5735" stroke="#263238" stroke-width="0.35" stroke-miterlimit="10"/>
<path d="M125.409 88.97V88.9945C123.665 89.14 122.011 89.832 120.683 90.9719C119.355 92.1119 118.421 93.6416 118.013 95.3435L111.577 122.031H33.733L40.166 95.3435C40.5978 93.5527 41.6112 91.9556 43.0476 90.8023C44.484 89.649 46.2623 89.0046 48.104 88.97H125.409Z" fill="white" stroke="#263238" stroke-width="0.35" stroke-linecap="round" stroke-linejoin="round"/>
<path d="M137.368 97.5346H117.484L118.013 95.3436C118.424 93.6435 119.36 92.1157 120.687 90.9763C122.014 89.837 123.666 89.1437 125.408 88.9946C125.636 88.9771 125.863 88.9666 126.091 88.9666C129.241 88.9666 132.478 90.6921 133.7 93.8911C134.561 96.1521 135.915 97.2616 137.368 97.5346Z" fill="#263238" stroke="#263238" stroke-width="0.35" stroke-linecap="round" stroke-linejoin="round"/>
<path d="M113.022 95.2526C113.022 95.5116 112.389 95.7041 112.343 95.9526C112.298 96.2011 112.812 96.6141 112.721 96.8486C112.63 97.0831 111.969 97.0411 111.839 97.2616C111.71 97.4821 112.06 98.0351 111.895 98.2311C111.731 98.4271 111.122 98.1821 110.929 98.3536C110.737 98.5251 110.929 99.1551 110.719 99.3021C110.509 99.4491 109.977 99.0571 109.753 99.1761C109.529 99.2951 109.564 99.9566 109.326 100.051C109.088 100.146 108.654 99.6521 108.409 99.7221C108.164 99.7921 108.059 100.447 107.814 100.492C107.569 100.538 107.233 99.9671 106.978 99.9916C106.722 100.016 106.505 100.636 106.25 100.636C105.994 100.636 105.767 100.013 105.518 99.9916C105.27 99.9706 104.93 100.538 104.685 100.492C104.44 100.447 104.335 99.7921 104.087 99.7221C103.838 99.6521 103.404 100.146 103.173 100.051C102.942 99.9566 102.963 99.2951 102.746 99.1761C102.529 99.0571 101.983 99.4456 101.78 99.3021C101.577 99.1586 101.752 98.5181 101.567 98.3536C101.381 98.1891 100.762 98.4201 100.601 98.2311C100.44 98.0421 100.786 97.4751 100.66 97.2581C100.534 97.0411 99.869 97.0831 99.778 96.8486C99.687 96.6141 100.202 96.2011 100.153 95.9526C100.104 95.7041 99.4771 95.5151 99.4771 95.2526C99.4771 94.9901 100.107 94.8046 100.153 94.5526C100.198 94.3006 99.687 93.8946 99.778 93.6566C99.869 93.4186 100.527 93.4676 100.66 93.2471C100.793 93.0266 100.436 92.4736 100.601 92.2776C100.765 92.0816 101.378 92.3266 101.567 92.1551C101.756 91.9836 101.567 91.3536 101.78 91.2066C101.994 91.0596 102.519 91.4516 102.746 91.3291C102.974 91.2066 102.935 90.5521 103.173 90.4541C103.411 90.3561 103.842 90.8566 104.087 90.7866C104.332 90.7166 104.437 90.0621 104.685 90.0166C104.934 89.9711 105.263 90.5416 105.518 90.5171C105.774 90.4926 105.991 89.8696 106.25 89.8696C106.509 89.8696 106.729 90.4926 106.978 90.5171C107.226 90.5416 107.569 89.9676 107.814 90.0166C108.059 90.0656 108.164 90.7166 108.409 90.7866C108.654 90.8566 109.109 90.3631 109.326 90.4541C109.543 90.5451 109.533 91.2136 109.753 91.3291C109.974 91.4446 110.513 91.0631 110.719 91.2066C110.926 91.3501 110.747 91.9871 110.929 92.1551C111.111 92.3231 111.738 92.0851 111.895 92.2776C112.053 92.4701 111.71 93.0336 111.839 93.2471C111.969 93.4606 112.63 93.4256 112.721 93.6601C112.812 93.8946 112.294 94.3041 112.343 94.5526C112.392 94.8011 113.022 94.9971 113.022 95.2526Z" fill="#FF3C3C"/>
<path d="M106.25 99.2845C109.089 99.2845 111.391 97.4793 111.391 95.2525C111.391 93.0256 109.089 91.2205 106.25 91.2205C103.41 91.2205 101.108 93.0256 101.108 95.2525C101.108 97.4793 103.41 99.2845 106.25 99.2845Z" fill="white"/>
<path d="M106.25 98.5181C108.548 98.5181 110.411 97.056 110.411 95.2526C110.411 93.4491 108.548 91.9871 106.25 91.9871C103.951 91.9871 102.088 93.4491 102.088 95.2526C102.088 97.056 103.951 98.5181 106.25 98.5181Z" fill="#FF3C3C"/>
<path d="M109.179 114.902H75.376" stroke="#263238" stroke-width="0.35" stroke-linecap="round" stroke-linejoin="round"/>
<path d="M64.6241 114.902H40.4041" stroke="#263238" stroke-width="0.35" stroke-linecap="round" stroke-linejoin="round"/>
<path d="M82.7085 114.188C82.7085 114.188 89.089 107.121 90.909 100.188C92.729 93.2541 88.2525 97.0131 86.464 104.703C84.6755 112.392 84.6755 114.363 86.464 112.931C87.8988 111.7 89.137 110.256 90.1355 108.651C90.3875 108.252 90.5975 107.881 90.7585 107.566C91.4585 106.134 89.1485 107.03 88.6095 109.89C88.0705 112.749 91.294 108.64 92.1865 107.209C93.079 105.777 94.871 105.063 93.4395 108.819C92.008 112.574 89.8625 111.857 91.8295 109.354C93.7965 106.852 95.9455 101.654 96.124 104.524C96.3025 107.394 95.585 110.6 94.15 111.503C92.715 112.406 96.831 107.391 98.084 107.748C99.337 108.105 99.8725 109.536 98.6195 110.611C97.3665 111.685 97.3665 108.105 106.848 108.462" stroke="#263238" stroke-width="0.35" stroke-linecap="round" stroke-linejoin="round"/>
</svg>
