<svg width="175" height="175" viewBox="0 0 175 175" fill="none" xmlns="http://www.w3.org/2000/svg">
<path d="M154.382 125.748C161.196 108.682 163.482 88.515 157.766 70.833C151.116 50.2005 132.412 38.3495 110.866 36.4245C96.25 35.112 81.2 40.6875 72.709 52.787C67.627 60.0215 63.6755 68.341 57.008 74.3715C50.3405 80.402 41.195 81.5955 33.25 85.19C25.55 88.6725 20.783 95.095 18.4765 103.019C15.7258 112.607 16.3699 122.852 20.3 132.02C26.4285 146.244 39.592 155.361 54.7225 158.518C73.6225 162.466 95.046 162.431 113.992 158.592C132.937 154.752 147.301 143.5 154.382 125.748Z" fill="#FF3C3C"/>
<path opacity="0.7" d="M154.382 125.748C161.196 108.682 163.482 88.515 157.766 70.833C151.116 50.2005 132.412 38.3495 110.866 36.4245C96.25 35.112 81.2 40.6875 72.709 52.787C67.627 60.0215 63.6755 68.341 57.008 74.3715C50.3405 80.402 41.195 81.5955 33.25 85.19C25.55 88.6725 20.783 95.095 18.4765 103.019C15.7258 112.607 16.3699 122.852 20.3 132.02C26.4285 146.244 39.592 155.361 54.7225 158.518C73.6225 162.466 95.046 162.431 113.992 158.592C132.937 154.752 147.301 143.5 154.382 125.748Z" fill="white"/>
<path opacity="0.03" d="M158.753 74.228H57.1584C57.1059 74.277 57.0605 74.326 57.008 74.3715C52.206 78.715 46.095 80.5525 40.075 82.6H160.377C160.012 79.778 159.47 76.9817 158.753 74.228Z" fill="black"/>
<path opacity="0.03" d="M161 91.1924H24.9165C22.6954 93.6491 20.9274 96.4801 19.6945 99.5539H160.678C160.927 96.774 161.034 93.9832 161 91.1924Z" fill="black"/>
<path opacity="0.03" d="M16.828 116.519H157.528C158.31 113.77 158.967 110.982 159.499 108.154H17.332C16.8932 110.919 16.7244 113.72 16.828 116.519Z" fill="black"/>
<path opacity="0.03" d="M20.3 132.02C20.51 132.513 20.734 133 20.965 133.479H150.598C152.056 131.003 153.321 128.418 154.382 125.748C154.466 125.538 154.546 125.328 154.627 125.118H17.9935C18.5622 127.481 19.3339 129.79 20.3 132.02Z" fill="black"/>
<path opacity="0.03" d="M35.5495 150.444H134.4C138.032 148.086 141.349 145.275 144.27 142.079H26.4215C29.0603 145.278 32.1326 148.094 35.5495 150.444Z" fill="black"/>
<path d="M91.7 161.304C99.1794 160.969 106.622 160.063 113.963 158.592C119.515 157.496 124.885 155.626 129.916 153.037V122.99H91.7V161.304Z" fill="#FF3C3C"/>
<path d="M91.7 161.304C99.1794 160.969 106.622 160.063 113.963 158.592C119.515 157.496 124.885 155.626 129.916 153.037V122.99H91.7V161.304Z" fill="black" fill-opacity="0.5" stroke="#263238" stroke-width="0.35" stroke-linecap="round" stroke-linejoin="round"/>
<path d="M91.7001 161.304V122.99L88.3926 115.15V161.423C89.4986 161.395 90.6081 161.35 91.7001 161.304Z" fill="#263238"/>
<path opacity="0.5" d="M129.931 123.053H91.7106L88.3926 115.146H126.609L129.931 123.053Z" fill="white" stroke="#263238" stroke-width="0.409472" stroke-linecap="round" stroke-linejoin="round"/>
<path d="M129.931 123.053H91.7106L88.3926 115.146H126.609L129.931 123.053Z" fill="#FF3C3C" stroke="#263238" stroke-width="0.35" stroke-linecap="round" stroke-linejoin="round"/>
<path d="M89.3725 143.85H51.156V157.644C52.3227 157.97 53.5057 158.258 54.705 158.508C66.1021 160.823 77.7321 161.789 89.355 161.385L89.3725 143.85Z" fill="#FF3C3C" stroke="#263238" stroke-width="0.35" stroke-linecap="round" stroke-linejoin="round"/>
<path d="M89.3725 143.92H51.156L47.8345 136.013H86.0545L89.3725 143.92Z" fill="#FF3C3C"/>
<mask id="mask0_82_2275" style="mask-type:luminance" maskUnits="userSpaceOnUse" x="47" y="136" width="43" height="8">
<path d="M89.3725 143.92H51.156L47.8345 136.013H86.0545L89.3725 143.92Z" fill="white"/>
</mask>
<g mask="url(#mask0_82_2275)">
<path opacity="0.5" d="M89.3725 143.92H51.156L47.8345 136.013H86.0545L89.3725 143.92Z" fill="white" stroke="#263238" stroke-width="0.35" stroke-linecap="round" stroke-linejoin="round"/>
</g>
<path d="M89.3725 143.92H51.156L47.8345 136.013H86.0545L89.3725 143.92Z" stroke="#263238" stroke-width="0.409472" stroke-linecap="round" stroke-linejoin="round"/>
<path d="M47.8345 156.625C48.9265 157.003 50.036 157.342 51.156 157.654V143.85L47.8345 136.003V156.625Z" fill="#263238"/>
<path d="M20.3 132.02C25.529 144.2 35.9345 152.624 48.3 156.8V131.376H20.02C20.111 131.6 20.1915 131.806 20.3 132.02Z" fill="#FF3C3C"/>
<path d="M20.3 132.02C25.529 144.2 35.9345 152.624 48.3 156.8V131.376H20.02C20.111 131.6 20.1915 131.806 20.3 132.02Z" fill="black" fill-opacity="0.5" stroke="#263238" stroke-width="0.35" stroke-linecap="round" stroke-linejoin="round"/>
<path d="M20.048 131.439H48.3L44.9925 123.55H17.647C18.1906 126.251 18.9946 128.893 20.048 131.439Z" fill="#FF3C3C" stroke="#263238" stroke-width="0.35" stroke-linecap="round" stroke-linejoin="round"/>
<path d="M147.455 64.967L128.009 41.839L125.965 43.883L133.053 52.311L65.2365 109.333L49.5915 91.588C49.1986 91.142 48.7132 90.7869 48.1692 90.5475C47.6251 90.3081 47.0354 90.1902 46.4411 90.2018C45.8468 90.2135 45.2622 90.3545 44.728 90.615C44.1937 90.8756 43.7226 91.2494 43.3475 91.7105L8.67651 134.295L15.029 139.468L46.6445 100.618L61.74 117.74C62.4466 118.542 63.4392 119.037 64.5055 119.116C65.5717 119.196 66.6269 118.855 67.445 118.167L138.324 58.5795L145.411 67.011L147.455 64.967Z" fill="white" stroke="#263238" stroke-width="0.35" stroke-linecap="round" stroke-linejoin="round"/>
<path d="M157.759 36.568L128.009 41.839L135.1 50.2705L67.2805 107.292L51.6355 89.544C51.2422 89.0979 50.7565 88.7428 50.2122 88.5034C49.6678 88.264 49.0779 88.146 48.4833 88.1577C47.8888 88.1693 47.3039 88.3104 46.7693 88.5709C46.2348 88.8315 45.7634 89.2053 45.388 89.6665L10.7205 132.254L17.0695 137.424L48.6885 98.574L63.784 115.696C64.4905 116.498 65.4832 116.993 66.5494 117.072C67.6157 117.152 68.6708 116.811 69.489 116.123L140.367 56.539L147.455 64.967L157.759 36.568Z" fill="#263238" stroke="#263238" stroke-width="0.35" stroke-linecap="round" stroke-linejoin="round"/>
</svg>
