<svg width="175" height="175" viewBox="0 0 175 175" fill="none" xmlns="http://www.w3.org/2000/svg">
<path d="M158.55 132.71C148.34 148.676 126.682 159.698 88.8405 159.698C53.6585 159.698 32.3155 150.171 21.084 135.999C-11.55 94.85 41.1075 14.511 87.689 14.511C133.059 14.511 185.391 90.72 158.55 132.71Z" fill="#FF3C3C"/>
<path opacity="0.7" d="M158.55 132.71C148.34 148.676 126.682 159.698 88.8405 159.698C53.6585 159.698 32.3155 150.171 21.084 135.999C-11.55 94.85 41.1075 14.511 87.689 14.511C133.059 14.511 185.391 90.72 158.55 132.71Z" fill="white"/>
<path opacity="0.4" d="M158.55 132.454V132.709C148.34 148.676 126.682 159.698 88.8405 159.698C53.6585 159.698 32.3155 150.171 21.084 135.999V130.049H25.144V133.927H27.5415V138.358H32.368V130.053H35.4305V123.497H40.726V114.544L41.6255 113.648V123.501H43.4525V134.116H45.584V146.3H48.405V137.623L52.955 133.073V124.425L54.222 125.688V137.991L55.7375 139.51V143.71H61.075V138.915H59.15V137.623H61.0785V135.775H66.129V129.976H67.424V135.775H69.65V148.33H75.6735V143.717L79.1735 140.217H82.005V133.745H83.65V140.206H85.673L89.1975 143.734V148.33H93.835V139.839H98.105L103.005 134.939V128.184H104.387V135.397L108.808 139.818H114.79V144.812H118.412V134.298H123.008V121.8H122.154V116.966H123.008V113.648H124.362V124.894L126.304 126.833V134.669H131.012V136.699H136.262V127.75H138.66V118.65H139.454V127.75H142.758L146.65 131.687V135.037H149.947V129.685H155.295V132.454H158.55Z" fill="#FF3C3C"/>
<path d="M38.9725 124.625H36.792V126.805H38.9725V124.625Z" fill="white"/>
<path d="M41.72 124.625H39.5395V126.805H41.72V124.625Z" fill="white"/>
<path d="M38.9725 127.41H36.792V129.591H38.9725V127.41Z" fill="white"/>
<path d="M41.72 127.41H39.5395V129.591H41.72V127.41Z" fill="white"/>
<path d="M38.9725 130.193H36.792V132.373H38.9725V130.193Z" fill="white"/>
<path d="M41.72 130.193H39.5395V132.373H41.72V130.193Z" fill="white"/>
<path d="M38.9725 132.979H36.792V135.16H38.9725V132.979Z" fill="white"/>
<path d="M41.72 132.979H39.5395V135.16H41.72V132.979Z" fill="white"/>
<path d="M38.9725 135.765H36.792V137.945H38.9725V135.765Z" fill="white"/>
<path d="M41.72 135.765H39.5395V137.945H41.72V135.765Z" fill="white"/>
<path d="M38.9725 138.551H36.792V140.732H38.9725V138.551Z" fill="white"/>
<path d="M38.9725 141.337H36.792V143.517H38.9725V141.337Z" fill="white"/>
<path d="M41.72 141.337H39.5395V143.517H41.72V141.337Z" fill="white"/>
<path d="M38.9725 144.123H36.792V146.304H38.9725V144.123Z" fill="white"/>
<path d="M41.72 144.123H39.5395V146.304H41.72V144.123Z" fill="white"/>
<path d="M38.9725 146.909H36.792V149.089H38.9725V146.909Z" fill="white"/>
<path d="M41.72 146.909H39.5395V149.089H41.72V146.909Z" fill="white"/>
<path d="M44.464 135.765H42.2835V137.945H44.464V135.765Z" fill="white"/>
<path d="M44.464 138.551H42.2835V140.732H44.464V138.551Z" fill="white"/>
<path d="M44.464 141.337H42.2835V143.517H44.464V141.337Z" fill="white"/>
<path d="M44.464 146.909H42.2835V149.089H44.464V146.909Z" fill="white"/>
<path d="M36.225 132.979H34.0445V135.16H36.225V132.979Z" fill="white"/>
<path d="M36.225 135.765H34.0445V137.945H36.225V135.765Z" fill="white"/>
<path d="M36.225 138.551H34.0445V140.732H36.225V138.551Z" fill="white"/>
<path d="M36.225 141.337H34.0445V143.517H36.225V141.337Z" fill="white"/>
<path d="M53.48 135.093H51.7335V137.274H53.48V135.093Z" fill="white"/>
<path d="M53.48 137.847H51.7335V140.028H53.48V137.847Z" fill="white"/>
<path d="M53.48 140.598H51.7335V142.779H53.48V140.598Z" fill="white"/>
<path d="M53.48 143.349H51.7335V145.53H53.48V143.349Z" fill="white"/>
<path d="M53.48 146.1H51.7335V148.281H53.48V146.1Z" fill="white"/>
<path d="M53.48 148.852H51.7335V151.032H53.48V148.852Z" fill="white"/>
<path d="M51.191 137.861H49.4445V140.042H51.191V137.861Z" fill="white"/>
<path d="M51.191 140.613H49.4445V142.793H51.191V140.613Z" fill="white"/>
<path d="M51.191 143.36H49.4445V145.54H51.191V143.36Z" fill="white"/>
<path d="M51.191 146.111H49.4445V148.291H51.191V146.111Z" fill="white"/>
<path d="M51.191 148.858H49.4445V151.039H51.191V148.858Z" fill="white"/>
<path d="M51.191 151.609H49.4445V153.79H51.191V151.609Z" fill="white"/>
<path d="M26.25 135.397H24.5035V137.578H26.25V135.397Z" fill="white"/>
<path d="M26.25 138.183H24.5035V140.364H26.25V138.183Z" fill="white"/>
<path d="M26.25 140.969H24.5035V143.15H26.25V140.969Z" fill="white"/>
<path d="M26.25 146.538H24.5035V148.718H26.25V146.538Z" fill="white"/>
<path d="M26.25 149.324H24.5035V151.504H26.25V149.324Z" fill="white"/>
<path d="M23.961 135.397H22.2145V137.578H23.961V135.397Z" fill="white"/>
<path d="M23.961 138.183H22.2145V140.364H23.961V138.183Z" fill="white"/>
<path d="M23.961 140.969H22.2145V143.15H23.961V140.969Z" fill="white"/>
<path d="M23.961 143.752H22.2145V145.932H23.961V143.752Z" fill="white"/>
<path d="M23.961 146.538H22.2145V148.718H23.961V146.538Z" fill="white"/>
<path d="M66.2725 136.829H64.3685V139.009H66.2725V136.829Z" fill="white"/>
<path d="M68.67 136.829H66.766V139.009H68.67V136.829Z" fill="white"/>
<path d="M66.2725 139.576H64.3685V141.757H66.2725V139.576Z" fill="white"/>
<path d="M68.67 139.576H66.766V141.757H68.67V139.576Z" fill="white"/>
<path d="M66.2725 142.324H64.3685V144.504H66.2725V142.324Z" fill="white"/>
<path d="M68.67 142.324H66.766V144.504H68.67V142.324Z" fill="white"/>
<path d="M66.2725 145.072H64.3685V147.252H66.2725V145.072Z" fill="white"/>
<path d="M68.67 145.072H66.766V147.252H68.67V145.072Z" fill="white"/>
<path d="M66.2725 147.819H64.3685V149.999H66.2725V147.819Z" fill="white"/>
<path d="M68.67 147.819H66.766V149.999H68.67V147.819Z" fill="white"/>
<path d="M66.2725 150.566H64.3685V152.747H66.2725V150.566Z" fill="white"/>
<path d="M68.67 150.566H66.766V152.747H68.67V150.566Z" fill="white"/>
<path d="M63.8785 136.829H61.9745V139.009H63.8785V136.829Z" fill="white"/>
<path d="M63.8785 139.576H61.9745V141.757H63.8785V139.576Z" fill="white"/>
<path d="M63.8785 142.324H61.9745V144.504H63.8785V142.324Z" fill="white"/>
<path d="M63.8785 145.072H61.9745V147.252H63.8785V145.072Z" fill="white"/>
<path d="M82.257 143.745H80.0765V145.925H82.257V143.745Z" fill="white"/>
<path d="M85.0045 143.745H82.824V145.925H85.0045V143.745Z" fill="white"/>
<path d="M82.257 146.479H80.0765V148.659H82.257V146.479Z" fill="white"/>
<path d="M85.0045 146.479H82.824V148.659H85.0045V146.479Z" fill="white"/>
<path d="M82.257 149.212H80.0765V151.392H82.257V149.212Z" fill="white"/>
<path d="M85.0045 149.212H82.824V151.392H85.0045V149.212Z" fill="white"/>
<path d="M82.257 151.942H80.0765V154.122H82.257V151.942Z" fill="white"/>
<path d="M85.0045 151.942H82.824V154.122H85.0045V151.942Z" fill="white"/>
<path d="M82.257 154.676H80.0765V156.856H82.257V154.676Z" fill="white"/>
<path d="M85.0045 154.676H82.824V156.856H85.0045V154.676Z" fill="white"/>
<path d="M87.7485 143.745H85.568V145.925H87.7485V143.745Z" fill="white"/>
<path d="M87.7485 146.479H85.568V148.659H87.7485V146.479Z" fill="white"/>
<path d="M87.7485 151.942H85.568V154.122H87.7485V151.942Z" fill="white"/>
<path d="M87.7485 154.676H85.568V156.856H87.7485V154.676Z" fill="white"/>
<path d="M79.513 143.745H77.3325V145.925H79.513V143.745Z" fill="white"/>
<path d="M79.513 146.479H77.3325V148.659H79.513V146.479Z" fill="white"/>
<path d="M79.513 149.212H77.3325V151.392H79.513V149.212Z" fill="white"/>
<path d="M124.534 135.765H122.353V137.945H124.534V135.765Z" fill="white"/>
<path d="M127.281 135.765H125.1V137.945H127.281V135.765Z" fill="white"/>
<path d="M124.534 138.558H122.353V140.738H124.534V138.558Z" fill="white"/>
<path d="M127.281 138.558H125.1V140.738H127.281V138.558Z" fill="white"/>
<path d="M124.534 141.347H122.353V143.528H124.534V141.347Z" fill="white"/>
<path d="M127.281 141.347H125.1V143.528H127.281V141.347Z" fill="white"/>
<path d="M124.534 144.14H122.353V146.321H124.534V144.14Z" fill="white"/>
<path d="M127.281 144.14H125.1V146.321H127.281V144.14Z" fill="white"/>
<path d="M124.534 146.933H122.353V149.114H124.534V146.933Z" fill="white"/>
<path d="M127.281 146.933H125.1V149.114H127.281V146.933Z" fill="white"/>
<path d="M130.029 135.765H127.848V137.945H130.029V135.765Z" fill="white"/>
<path d="M130.029 138.558H127.848V140.738H130.029V138.558Z" fill="white"/>
<path d="M130.029 146.933H127.848V149.114H130.029V146.933Z" fill="white"/>
<path d="M139.766 131.999H137.585V134.18H139.766V131.999Z" fill="white"/>
<path d="M142.513 131.999H140.333V134.18H142.513V131.999Z" fill="white"/>
<path d="M139.766 134.792H137.585V136.972H139.766V134.792Z" fill="white"/>
<path d="M142.513 134.792H140.333V136.972H142.513V134.792Z" fill="white"/>
<path d="M139.766 137.582H137.585V139.762H139.766V137.582Z" fill="white"/>
<path d="M142.513 137.582H140.333V139.762H142.513V137.582Z" fill="white"/>
<path d="M139.766 140.375H137.585V142.555H139.766V140.375Z" fill="white"/>
<path d="M142.513 140.375H140.333V142.555H142.513V140.375Z" fill="white"/>
<path d="M139.766 143.167H137.585V145.348H139.766V143.167Z" fill="white"/>
<path d="M142.513 143.167H140.333V145.348H142.513V143.167Z" fill="white"/>
<path d="M145.257 131.999H143.077V134.18H145.257V131.999Z" fill="white"/>
<path d="M145.257 134.792H143.077V136.972H145.257V134.792Z" fill="white"/>
<path d="M145.257 137.582H143.077V139.762H145.257V137.582Z" fill="white"/>
<path d="M145.257 140.375H143.077V142.555H145.257V140.375Z" fill="white"/>
<path d="M145.257 143.167H143.077V145.348H145.257V143.167Z" fill="white"/>
<path d="M152.702 133.438H150.871V135.618H152.702V133.438Z" fill="white"/>
<path d="M155.099 133.438H153.269V135.618H155.099V133.438Z" fill="white"/>
<path d="M152.702 136.223H150.871V138.404H152.702V136.223Z" fill="white"/>
<path d="M155.099 136.223H153.269V138.404H155.099V136.223Z" fill="white"/>
<path d="M152.702 139.01H150.871V141.19H152.702V139.01Z" fill="white"/>
<path d="M155.099 139.01H153.269V141.19H155.099V139.01Z" fill="white"/>
<path d="M155.099 141.795H153.269V143.976H155.099V141.795Z" fill="white"/>
<path d="M152.702 144.582H150.871V146.762H152.702V144.582Z" fill="white"/>
<path d="M157.497 133.438H155.666V135.618H157.497V133.438Z" fill="white"/>
<path d="M157.497 141.795H155.666V143.976H157.497V141.795Z" fill="white"/>
<path d="M121.79 135.765H119.609V137.945H121.79V135.765Z" fill="white"/>
<path d="M121.79 138.558H119.609V140.738H121.79V138.558Z" fill="white"/>
<path d="M121.79 141.347H119.609V143.528H121.79V141.347Z" fill="white"/>
<path d="M121.79 144.14H119.609V146.321H121.79V144.14Z" fill="white"/>
<path d="M108.126 144.102H105.945V146.283H108.126V144.102Z" fill="white"/>
<path d="M105.451 144.102H103.271V146.283H105.451V144.102Z" fill="white"/>
<path d="M102.781 144.102H100.6V146.283H102.781V144.102Z" fill="white"/>
<path d="M100.107 144.102H97.9265V146.283H100.107V144.102Z" fill="white"/>
<path d="M97.433 144.102H95.2525V146.283H97.433V144.102Z" fill="white"/>
<path d="M110.8 144.102H108.619V146.283H110.8V144.102Z" fill="white"/>
<path d="M113.473 144.102H111.293V146.283H113.473V144.102Z" fill="white"/>
<path d="M108.126 146.881H105.945V149.061H108.126V146.881Z" fill="white"/>
<path d="M105.451 146.881H103.271V149.061H105.451V146.881Z" fill="white"/>
<path d="M102.781 146.881H100.6V149.061H102.781V146.881Z" fill="white"/>
<path d="M100.107 146.881H97.9265V149.061H100.107V146.881Z" fill="white"/>
<path d="M97.433 146.881H95.2525V149.061H97.433V146.881Z" fill="white"/>
<path d="M110.8 146.881H108.619V149.061H110.8V146.881Z" fill="white"/>
<path d="M113.473 146.881H111.293V149.061H113.473V146.881Z" fill="white"/>
<path d="M108.126 149.663H105.945V151.844H108.126V149.663Z" fill="white"/>
<path d="M105.451 149.663H103.271V151.844H105.451V149.663Z" fill="white"/>
<path d="M102.781 149.663H100.6V151.844H102.781V149.663Z" fill="white"/>
<path d="M100.107 149.663H97.9265V151.844H100.107V149.663Z" fill="white"/>
<path d="M110.8 149.663H108.619V151.844H110.8V149.663Z" fill="white"/>
<path d="M108.126 152.442H105.945V154.623H108.126V152.442Z" fill="white"/>
<path d="M105.451 152.442H103.271V154.623H105.451V152.442Z" fill="white"/>
<path d="M100.107 152.442H97.9265V154.623H100.107V152.442Z" fill="white"/>
<path d="M110.8 152.442H108.619V154.623H110.8V152.442Z" fill="white"/>
<path d="M108.126 155.221H105.945V157.402H108.126V155.221Z" fill="white"/>
<path d="M105.451 155.221H103.271V157.402H105.451V155.221Z" fill="white"/>
<path d="M102.781 155.221H100.6V157.402H102.781V155.221Z" fill="white"/>
<path d="M100.107 155.221H97.9265V157.402H100.107V155.221Z" fill="white"/>
<path d="M97.433 155.221H95.2525V157.402H97.433V155.221Z" fill="white"/>
<path d="M110.8 155.221H108.619V157.402H110.8V155.221Z" fill="white"/>
<path d="M113.473 155.221H111.293V157.402H113.473V155.221Z" fill="white"/>
<path d="M108.126 158H105.945V160.181H108.126V158Z" fill="white"/>
<path d="M102.781 158H100.6V160.181H102.781V158Z" fill="white"/>
<path d="M100.107 158H97.9265V160.181H100.107V158Z" fill="white"/>
<path d="M97.433 158H95.2525V160.181H97.433V158Z" fill="white"/>
<path d="M108.126 160.783H105.945V162.963H108.126V160.783Z" fill="white"/>
<path d="M100.107 160.783H97.9265V162.963H100.107V160.783Z" fill="white"/>
<path d="M113.473 160.783H111.293V162.963H113.473V160.783Z" fill="white"/>
<path d="M108.126 141.323H105.945V143.504H108.126V141.323Z" fill="white"/>
<path d="M105.451 141.323H103.271V143.504H105.451V141.323Z" fill="white"/>
<path d="M102.781 141.323H100.6V143.504H102.781V141.323Z" fill="white"/>
<path d="M100.107 141.323H97.9265V143.504H100.107V141.323Z" fill="white"/>
<path d="M97.433 141.323H95.2525V143.504H97.433V141.323Z" fill="white"/>
<path d="M110.8 141.323H108.619V143.504H110.8V141.323Z" fill="white"/>
<path d="M113.473 141.323H111.293V143.504H113.473V141.323Z" fill="white"/>
<path d="M142.513 145.957H140.333V148.138H142.513V145.957Z" fill="white"/>
<path d="M142.513 148.75H140.333V150.931H142.513V148.75Z" fill="white"/>
<path d="M139.766 151.54H137.585V153.72H139.766V151.54Z" fill="white"/>
<path d="M145.257 145.957H143.077V148.138H145.257V145.957Z" fill="white"/>
<path d="M145.257 148.75H143.077V150.931H145.257V148.75Z" fill="white"/>
<path d="M127.281 149.723H125.1V151.903H127.281V149.723Z" fill="white"/>
<path d="M124.534 152.516H122.353V154.696H124.534V152.516Z" fill="white"/>
<path d="M127.281 152.516H125.1V154.696H127.281V152.516Z" fill="white"/>
<path d="M124.534 155.309H122.353V157.489H124.534V155.309Z" fill="white"/>
<path d="M127.281 155.309H125.1V157.489H127.281V155.309Z" fill="white"/>
<path d="M130.029 149.723H127.848V151.903H130.029V149.723Z" fill="white"/>
<path d="M130.029 152.516H127.848V154.696H130.029V152.516Z" fill="white"/>
<path d="M121.79 149.723H119.609V151.903H121.79V149.723Z" fill="white"/>
<path d="M82.257 157.406H80.0765V159.586H82.257V157.406Z" fill="white"/>
<path d="M85.0045 157.406H82.824V159.586H85.0045V157.406Z" fill="white"/>
<path d="M82.257 160.139H80.0765V162.319H82.257V160.139Z" fill="white"/>
<path d="M79.513 157.406H77.3325V159.586H79.513V157.406Z" fill="white"/>
<path d="M66.2725 153.314H64.3685V155.494H66.2725V153.314Z" fill="white"/>
<path d="M68.67 153.314H66.766V155.494H68.67V153.314Z" fill="white"/>
<path d="M68.67 156.062H66.766V158.242H68.67V156.062Z" fill="white"/>
<path d="M63.8785 153.314H61.9745V155.494H63.8785V153.314Z" fill="white"/>
<path d="M63.8785 158.809H61.9745V160.989H63.8785V158.809Z" fill="white"/>
<path d="M53.48 157.104H51.7335V159.285H53.48V157.104Z" fill="white"/>
<path d="M53.48 159.859H51.7335V162.039H53.48V159.859Z" fill="white"/>
<path d="M51.191 154.36H49.4445V156.541H51.191V154.36Z" fill="white"/>
<path d="M51.191 157.108H49.4445V159.288H51.191V157.108Z" fill="white"/>
<path d="M41.72 149.723H39.5395V151.903H41.72V149.723Z" fill="white"/>
<path d="M38.9725 152.509H36.792V154.69H38.9725V152.509Z" fill="white"/>
<path d="M88.844 29.428C88.844 28.9975 88.844 28.567 88.8265 28.1365" stroke="#263238" stroke-width="0.35" stroke-linecap="round" stroke-linejoin="round"/>
<path d="M88.8265 42.301C88.8662 39.6573 88.8825 37.0137 88.8755 34.37" stroke="#263238" stroke-width="0.35" stroke-linecap="round" stroke-linejoin="round"/>
<path d="M88.8265 49.329V47.089" stroke="#263238" stroke-width="0.35" stroke-linecap="round" stroke-linejoin="round"/>
<path d="M106.852 32.928C107.202 32.1545 107.552 31.3845 107.933 30.625" stroke="#263238" stroke-width="0.35" stroke-linecap="round" stroke-linejoin="round"/>
<path d="M101.811 44.905C103.25 41.79 104.461 38.5805 105.78 35.4165" stroke="#263238" stroke-width="0.35" stroke-linecap="round" stroke-linejoin="round"/>
<path d="M98.966 51.5445C99.5843 50.0978 100.203 48.6546 100.821 47.215" stroke="#263238" stroke-width="0.35" stroke-linecap="round" stroke-linejoin="round"/>
<path d="M96.404 49.329L100.142 36.0465" stroke="#263238" stroke-width="0.35" stroke-linecap="round" stroke-linejoin="round"/>
<path d="M74.9385 38.6224C76.2125 42.5984 77.294 46.6479 78.582 50.5609" stroke="#263238" stroke-width="0.35" stroke-linecap="round" stroke-linejoin="round"/>
<path d="M72.499 30.625C73.0707 32.4917 73.64 34.3583 74.207 36.225" stroke="#263238" stroke-width="0.35" stroke-linecap="round" stroke-linejoin="round"/>
<path d="M75.495 50.379L76.02 51.5445" stroke="#263238" stroke-width="0.35" stroke-linecap="round" stroke-linejoin="round"/>
<path d="M71.8585 42.301L74.5115 48.1915" stroke="#263238" stroke-width="0.35" stroke-linecap="round" stroke-linejoin="round"/>
<path d="M56.924 56.5215C58.275 58.0825 59.6155 59.654 60.921 61.257" stroke="#263238" stroke-width="0.35" stroke-linecap="round" stroke-linejoin="round"/>
<path d="M50.89 49.385C52.29 51.1595 53.7845 52.885 55.2685 54.607" stroke="#263238" stroke-width="0.35" stroke-linecap="round" stroke-linejoin="round"/>
<path d="M48.111 46.1019L49.161 47.3584" stroke="#263238" stroke-width="0.35" stroke-linecap="round" stroke-linejoin="round"/>
<path d="M51.5795 56.2765L58.73 63.1785" stroke="#263238" stroke-width="0.35" stroke-linecap="round" stroke-linejoin="round"/>
<path d="M52.339 78.9495L54.516 79.506" stroke="#263238" stroke-width="0.35" stroke-linecap="round" stroke-linejoin="round"/>
<path d="M36.7675 74.97L50.134 78.4" stroke="#263238" stroke-width="0.35" stroke-linecap="round" stroke-linejoin="round"/>
<path d="M32.795 73.9551L34.2405 74.3261" stroke="#263238" stroke-width="0.35" stroke-linecap="round" stroke-linejoin="round"/>
<path d="M49.4305 74.4309L54.516 76.7304" stroke="#263238" stroke-width="0.35" stroke-linecap="round" stroke-linejoin="round"/>
<path d="M43.6555 71.8235L47.1555 73.4055" stroke="#263238" stroke-width="0.35" stroke-linecap="round" stroke-linejoin="round"/>
<path d="M132.356 47.6454L133.227 46.9244" stroke="#263238" stroke-width="0.35" stroke-linecap="round" stroke-linejoin="round"/>
<path d="M128.296 51.0125L130.326 49.329" stroke="#263238" stroke-width="0.35" stroke-linecap="round" stroke-linejoin="round"/>
<path d="M119.941 57.9354L126.277 52.6854" stroke="#263238" stroke-width="0.35" stroke-linecap="round" stroke-linejoin="round"/>
<path d="M114.762 62.2265L118.023 59.5245" stroke="#263238" stroke-width="0.35" stroke-linecap="round" stroke-linejoin="round"/>
<path d="M115.51 46.1019L108.465 55.8144" stroke="#263238" stroke-width="0.35" stroke-linecap="round" stroke-linejoin="round"/>
<path d="M143.437 68.4425L144.966 67.9805" stroke="#263238" stroke-width="0.35" stroke-linecap="round" stroke-linejoin="round"/>
<path d="M129.199 72.7545C133.186 71.589 137.186 70.469 141.123 69.146" stroke="#263238" stroke-width="0.35" stroke-linecap="round" stroke-linejoin="round"/>
<path d="M122.125 74.9174C123.651 74.4169 125.188 73.9444 126.728 73.4824" stroke="#263238" stroke-width="0.35" stroke-linecap="round" stroke-linejoin="round"/>
<path d="M122.979 78.7606L135.999 77.0596" stroke="#263238" stroke-width="0.35" stroke-linecap="round" stroke-linejoin="round"/>
<path d="M141.75 101.36L143.689 101.983" stroke="#263238" stroke-width="0.35" stroke-linecap="round" stroke-linejoin="round"/>
<path d="M122.552 95.2C128.282 96.8205 133.675 98.9765 139.412 100.604" stroke="#263238" stroke-width="0.35" stroke-linecap="round" stroke-linejoin="round"/>
<path d="M131.456 94.1499L139.097 95.1999" stroke="#263238" stroke-width="0.35" stroke-linecap="round" stroke-linejoin="round"/>
<path d="M122.979 92.96L128.87 93.8" stroke="#263238" stroke-width="0.35" stroke-linecap="round" stroke-linejoin="round"/>
<path d="M128.475 125.128L129.458 126.357" stroke="#263238" stroke-width="0.35" stroke-linecap="round" stroke-linejoin="round"/>
<path d="M114.762 107.982C118.839 113.011 122.885 118.132 127.012 123.287" stroke="#263238" stroke-width="0.35" stroke-linecap="round" stroke-linejoin="round"/>
<path d="M120.788 110.716C121.971 111.868 123.153 113.021 124.334 114.174" stroke="#263238" stroke-width="0.35" stroke-linecap="round" stroke-linejoin="round"/>
<path d="M116.365 106.4L119.312 109.273" stroke="#263238" stroke-width="0.35" stroke-linecap="round" stroke-linejoin="round"/>
<path d="M52.892 125.317L52.115 126.388" stroke="#263238" stroke-width="0.35" stroke-linecap="round" stroke-linejoin="round"/>
<path d="M57.687 118.751C56.588 120.295 55.475 121.831 54.3305 123.343" stroke="#263238" stroke-width="0.35" stroke-linecap="round" stroke-linejoin="round"/>
<path d="M64.4 109.525C62.5835 111.86 60.8685 114.275 59.15 116.69" stroke="#263238" stroke-width="0.35" stroke-linecap="round" stroke-linejoin="round"/>
<path d="M58.128 111.405L54.1415 114.989" stroke="#263238" stroke-width="0.35" stroke-linecap="round" stroke-linejoin="round"/>
<path d="M62.251 107.698L59.8955 109.816" stroke="#263238" stroke-width="0.35" stroke-linecap="round" stroke-linejoin="round"/>
<path d="M41.783 102.98L37.1735 105.28" stroke="#263238" stroke-width="0.35" stroke-linecap="round" stroke-linejoin="round"/>
<path d="M55.65 96.075C51.947 97.9055 47.901 99.792 43.995 101.885" stroke="#263238" stroke-width="0.35" stroke-linecap="round" stroke-linejoin="round"/>
<path d="M54.516 90.4714L44.429 92.2319" stroke="#263238" stroke-width="0.35" stroke-linecap="round" stroke-linejoin="round"/>
<path d="M118.384 67.9805L124.334 64.351" stroke="#263238" stroke-width="0.35" stroke-linecap="round" stroke-linejoin="round"/>
<path d="M63.959 50.0499L67.5885 55.8144" stroke="#263238" stroke-width="0.35" stroke-linecap="round" stroke-linejoin="round"/>
<path d="M111.559 116.851L113.802 121.625" stroke="#263238" stroke-width="0.35" stroke-linecap="round" stroke-linejoin="round"/>
<path d="M109.641 112.76C109.952 113.425 110.267 114.093 110.579 114.762" stroke="#263238" stroke-width="0.35" stroke-linecap="round" stroke-linejoin="round"/>
<path d="M130.578 105.018L131.838 105.76" stroke="#263238" stroke-width="0.35" stroke-linecap="round" stroke-linejoin="round"/>
<path d="M121.359 99.575L128.429 103.747" stroke="#263238" stroke-width="0.35" stroke-linecap="round" stroke-linejoin="round"/>
<path d="M138.617 87.3494H141.977" stroke="#263238" stroke-width="0.35" stroke-linecap="round" stroke-linejoin="round"/>
<path d="M123.994 87.3494C128.012 87.3844 132.045 87.3844 136.22 87.3494" stroke="#263238" stroke-width="0.35" stroke-linecap="round" stroke-linejoin="round"/>
<path d="M38.5 87.5L32.3715 87.6015" stroke="#263238" stroke-width="0.35" stroke-linecap="round" stroke-linejoin="round"/>
<path d="M50.442 87.3215C47.2045 87.388 43.967 87.402 40.726 87.444" stroke="#263238" stroke-width="0.35" stroke-linecap="round" stroke-linejoin="round"/>
<path d="M54.1415 87.2234L52.8325 87.2654" stroke="#263238" stroke-width="0.35" stroke-linecap="round" stroke-linejoin="round"/>
<path d="M48.3 62.3419L43.2635 59.1115" stroke="#263238" stroke-width="0.35" stroke-linecap="round" stroke-linejoin="round"/>
<path d="M57.0955 67.9805L50.491 63.749" stroke="#263238" stroke-width="0.35" stroke-linecap="round" stroke-linejoin="round"/>
<path d="M87.6505 54.446C71.239 54.677 57.9005 68.1345 57.7815 84.546C57.7464 89.1079 58.7439 93.6185 60.6993 97.7401C62.6546 101.862 65.5172 105.488 69.0725 108.346C70.313 109.362 71.2321 110.717 71.7185 112.245L73.1185 116.575H103.037L104.468 112.158C104.945 110.674 105.842 109.361 107.051 108.378C111.972 104.426 115.536 99.0366 117.245 92.9618C118.955 86.8869 118.725 80.4298 116.588 74.4918C114.451 68.5538 110.513 63.4314 105.324 59.8396C100.135 56.2477 93.9537 54.3658 87.6435 54.4565L87.6505 54.446Z" fill="white"/>
<mask id="mask0_82_1339" style="mask-type:luminance" maskUnits="userSpaceOnUse" x="57" y="54" width="62" height="63">
<path d="M87.6505 54.446C71.239 54.677 57.9005 68.1345 57.7815 84.546C57.7464 89.1079 58.7439 93.6185 60.6993 97.7401C62.6546 101.862 65.5172 105.488 69.0725 108.346C70.313 109.362 71.2321 110.717 71.7185 112.245L73.1185 116.575H103.037L104.468 112.158C104.945 110.674 105.842 109.361 107.051 108.378C111.972 104.426 115.536 99.0366 117.245 92.9618C118.955 86.8869 118.725 80.4298 116.588 74.4918C114.451 68.5538 110.513 63.4314 105.324 59.8396C100.135 56.2477 93.9537 54.3658 87.6435 54.4565L87.6505 54.446Z" fill="white"/>
</mask>
<g mask="url(#mask0_82_1339)">
<path d="M80.71 114.069C80.7275 114.828 80.71 115.259 80.71 115.259" stroke="#263238" stroke-width="0.35" stroke-linecap="round" stroke-linejoin="round"/>
<path d="M79.975 104.797C80.3495 107.548 80.5385 110.065 80.633 111.941" stroke="#263238" stroke-width="0.35" stroke-linecap="round" stroke-linejoin="round"/>
<path d="M77.2765 89.4146H75.1485C77.35 92.7501 78.68 97.3456 79.485 101.742" stroke="#263238" stroke-width="0.35" stroke-linecap="round" stroke-linejoin="round"/>
<path d="M81.5115 88.543L81.263 89.4145H77.994" stroke="#263238" stroke-width="0.35" stroke-linecap="round" stroke-linejoin="round"/>
<path d="M83.8495 91.0177L83.566 91.9767L81.9315 87.0662L81.6725 87.9727" stroke="#263238" stroke-width="0.35" stroke-linecap="round" stroke-linejoin="round"/>
<path d="M87.227 89.8592L86.5795 91.9767L85.008 87.0662L84.1645 89.9432" stroke="#263238" stroke-width="0.35" stroke-linecap="round" stroke-linejoin="round"/>
<path d="M91.8155 89.3027L91.161 87.0662L89.5895 91.9767L88.0845 87.0662L87.6435 88.5047" stroke="#263238" stroke-width="0.35" stroke-linecap="round" stroke-linejoin="round"/>
<path d="M95.872 89.4147H94.9025L94.2375 87.0662L92.5995 91.9767L92.085 90.2162" stroke="#263238" stroke-width="0.35" stroke-linecap="round" stroke-linejoin="round"/>
<path d="M97.1425 99.4735C97.9685 95.809 99.1935 92.1761 101.017 89.4146H96.887" stroke="#263238" stroke-width="0.35" stroke-linecap="round" stroke-linejoin="round"/>
<path d="M96.25 104.342C96.418 103.163 96.6245 101.941 96.8695 100.716" stroke="#263238" stroke-width="0.35" stroke-linecap="round" stroke-linejoin="round"/>
<path d="M95.6445 110.117C95.732 108.885 95.858 107.495 96.0365 106.011" stroke="#263238" stroke-width="0.35" stroke-linecap="round" stroke-linejoin="round"/>
<path d="M95.4975 112.759C95.4975 112.437 95.529 112.087 95.5465 111.709" stroke="#263238" stroke-width="0.35" stroke-linecap="round" stroke-linejoin="round"/>
<path d="M95.445 115.259C95.445 115.259 95.445 114.685 95.466 113.694" stroke="#263238" stroke-width="0.35" stroke-linecap="round" stroke-linejoin="round"/>
<path opacity="0.2" d="M87.6505 54.446C71.239 54.677 57.9005 68.1345 57.7815 84.546C57.7464 89.1079 58.7439 93.6185 60.6993 97.7401C62.6546 101.862 65.5172 105.488 69.0725 108.346C70.313 109.362 71.2321 110.717 71.7185 112.245L73.1185 116.575H103.037L104.468 112.158C104.945 110.674 105.842 109.361 107.051 108.378C111.972 104.426 115.536 99.0366 117.245 92.9618C118.955 86.8869 118.725 80.4298 116.588 74.4918C114.451 68.5538 110.513 63.4314 105.324 59.8396C100.135 56.2477 93.9537 54.3658 87.6435 54.4565L87.6505 54.446ZM88.0845 104.041C83.4959 104.042 79.0102 102.682 75.1947 100.133C71.3792 97.5838 68.4053 93.9606 66.6492 89.7213C64.893 85.4821 64.4336 80.8173 65.3288 76.3169C66.2241 71.8165 68.4339 67.6827 71.6788 64.4383C74.9236 61.194 79.0578 58.9848 83.5583 58.0902C88.0588 57.1956 92.7236 57.6558 96.9625 59.4126C101.201 61.1693 104.824 64.1438 107.373 67.9597C109.921 71.7755 111.28 76.2615 111.279 80.85C111.278 87.001 108.834 92.8997 104.484 97.2488C100.135 101.598 94.2355 104.041 88.0845 104.041Z" fill="#FF3C3C"/>
</g>
<path d="M87.6505 54.446C71.239 54.677 57.9005 68.1345 57.7815 84.546C57.7464 89.1079 58.7439 93.6185 60.6993 97.7401C62.6546 101.862 65.5172 105.488 69.0725 108.346C70.313 109.362 71.2321 110.717 71.7185 112.245L73.1185 116.575H103.037L104.468 112.158C104.945 110.674 105.842 109.361 107.051 108.378C111.972 104.426 115.536 99.0366 117.245 92.9617C118.955 86.8869 118.725 80.4298 116.588 74.4918C114.451 68.5538 110.513 63.4314 105.324 59.8396C100.135 56.2477 93.9537 54.3658 87.6435 54.4565L87.6505 54.446Z" stroke="#263238" stroke-width="0.35" stroke-linecap="round" stroke-linejoin="round"/>
<path d="M91.588 145.694H84.588C84.4144 145.695 84.2438 145.649 84.0938 145.561C83.9437 145.474 83.8196 145.349 83.734 145.197L82.684 143.349L78.6345 141.001H97.58L93.534 143.349L92.484 145.197C92.3942 145.354 92.2632 145.483 92.1053 145.571C91.9473 145.658 91.7685 145.701 91.588 145.694Z" fill="#263238" stroke="#263238" stroke-width="0.35" stroke-linecap="round" stroke-linejoin="round"/>
<path d="M99.421 139.608H76.748C77.1495 140.446 77.7794 141.153 78.5651 141.648C79.3509 142.144 80.2606 142.407 81.1895 142.408H94.976C95.9053 142.407 96.8154 142.144 97.6017 141.648C98.388 141.153 99.0186 140.446 99.421 139.608Z" fill="#757575" stroke="#263238" stroke-width="0.35" stroke-linecap="round" stroke-linejoin="round"/>
<path d="M99.421 139.608H76.748L74.0495 120.393H102.119L99.421 139.608Z" fill="#999999"/>
<mask id="mask1_82_1339" style="mask-type:luminance" maskUnits="userSpaceOnUse" x="74" y="120" width="29" height="20">
<path d="M99.421 139.608H76.748L74.0495 120.393H102.119L99.421 139.608Z" fill="white"/>
</mask>
<g mask="url(#mask1_82_1339)">
<path opacity="0.4" d="M77.91 133.287L78.1585 135.488L98.182 133.938L98.4375 131.656L77.91 133.287Z" fill="white"/>
<path opacity="0.4" d="M85.4525 138.95H95.9C96.2367 138.949 96.5672 138.86 96.8584 138.691C97.1497 138.522 97.3913 138.279 97.559 137.988L85.4525 138.95Z" fill="white"/>
<path opacity="0.4" d="M78.2635 136.423L78.3545 137.245C78.413 137.743 78.6643 138.198 79.0545 138.512L97.839 137.056L98.0875 134.848L78.2635 136.423Z" fill="white"/>
<path opacity="0.4" d="M98.8925 127.62L98.9695 126.927H87.906H87.451H77.1995L77.462 129.283L98.8925 127.62Z" fill="white"/>
<path opacity="0.4" d="M77.567 130.217L77.8085 132.349L98.5425 130.742L98.7875 128.534L77.567 130.217Z" fill="white"/>
</g>
<path d="M99.421 139.608H76.748L74.0495 120.393H102.119L99.421 139.608Z" stroke="#263238" stroke-width="0.35" stroke-linecap="round" stroke-linejoin="round"/>
<path d="M75.138 129.924C74.9236 129.931 74.7148 129.854 74.5576 129.708C74.4004 129.562 74.3076 129.359 74.2997 129.145C74.2919 128.93 74.3695 128.722 74.5155 128.564C74.6616 128.407 74.8641 128.314 75.0785 128.307L100.978 126.392C101.192 126.376 101.404 126.446 101.566 126.586C101.729 126.726 101.829 126.925 101.845 127.139C101.861 127.353 101.791 127.565 101.651 127.727C101.51 127.89 101.311 127.99 101.097 128.006L75.1975 129.92L75.138 129.924Z" fill="#BFBFBF"/>
<mask id="mask2_82_1339" style="mask-type:luminance" maskUnits="userSpaceOnUse" x="74" y="126" width="28" height="4">
<path d="M75.138 129.924C74.9236 129.931 74.7148 129.854 74.5576 129.708C74.4004 129.562 74.3076 129.359 74.2997 129.145C74.2919 128.93 74.3695 128.722 74.5155 128.564C74.6616 128.407 74.8641 128.314 75.0785 128.307L100.978 126.392C101.192 126.376 101.404 126.446 101.566 126.586C101.729 126.726 101.829 126.925 101.845 127.139C101.861 127.353 101.791 127.565 101.651 127.727C101.51 127.89 101.311 127.99 101.097 128.006L75.1975 129.92L75.138 129.924Z" fill="white"/>
</mask>
<g mask="url(#mask2_82_1339)">
<g opacity="0.4">
<path d="M101.741 126.826C101.679 126.948 101.586 127.052 101.471 127.128C101.356 127.203 101.224 127.248 101.087 127.257L75.187 129.171H75.1275C75.0565 129.212 74.9763 129.233 74.8946 129.235C74.8128 129.236 74.7322 129.216 74.6601 129.177C74.5881 129.139 74.527 129.082 74.4826 129.014C74.4383 128.945 74.4121 128.866 74.4065 128.785C74.4009 128.703 74.4161 128.621 74.4507 128.547C74.4853 128.473 74.5381 128.409 74.6042 128.361C74.6703 128.313 74.7475 128.282 74.8286 128.272C74.9097 128.262 74.9921 128.273 75.068 128.303L100.968 126.389C101.126 126.378 101.283 126.413 101.421 126.491C101.558 126.569 101.67 126.685 101.741 126.826Z" fill="white"/>
</g>
</g>
<path d="M75.138 129.924C74.9236 129.931 74.7148 129.854 74.5576 129.708C74.4004 129.562 74.3076 129.359 74.2997 129.145C74.2919 128.93 74.3695 128.722 74.5155 128.564C74.6616 128.407 74.8641 128.314 75.0785 128.307L100.978 126.392C101.192 126.376 101.404 126.446 101.566 126.586C101.729 126.726 101.829 126.925 101.845 127.139C101.861 127.353 101.791 127.565 101.651 127.727C101.51 127.89 101.311 127.99 101.097 128.006L75.1975 129.92L75.138 129.924Z" stroke="#263238" stroke-width="0.35" stroke-linecap="round" stroke-linejoin="round"/>
<path d="M75.6 133.046C75.3856 133.054 75.1768 132.976 75.0196 132.83C74.8624 132.684 74.7696 132.481 74.7617 132.267C74.7539 132.052 74.8315 131.844 74.9775 131.686C75.1236 131.529 75.3261 131.437 75.5405 131.429L100.544 129.577C100.758 129.561 100.97 129.631 101.132 129.771C101.295 129.911 101.395 130.11 101.411 130.324C101.427 130.538 101.357 130.75 101.217 130.912C101.076 131.075 100.877 131.175 100.663 131.191L75.6595 133.042L75.6 133.046Z" fill="#BFBFBF"/>
<mask id="mask3_82_1339" style="mask-type:luminance" maskUnits="userSpaceOnUse" x="74" y="129" width="28" height="5">
<path d="M75.6 133.046C75.3856 133.054 75.1768 132.976 75.0196 132.83C74.8624 132.684 74.7696 132.481 74.7617 132.267C74.7539 132.052 74.8315 131.844 74.9775 131.686C75.1236 131.529 75.3261 131.437 75.5405 131.429L100.544 129.577C100.758 129.561 100.97 129.631 101.132 129.771C101.295 129.911 101.395 130.11 101.411 130.324C101.427 130.538 101.357 130.75 101.217 130.912C101.076 131.075 100.877 131.175 100.663 131.191L75.6595 133.042L75.6 133.046Z" fill="white"/>
</mask>
<g mask="url(#mask3_82_1339)">
<g opacity="0.4">
<path d="M101.301 130.011C101.238 130.133 101.145 130.237 101.03 130.313C100.915 130.388 100.783 130.433 100.646 130.442L75.642 132.3H75.6C75.529 132.341 75.4488 132.362 75.3671 132.363C75.2853 132.365 75.2047 132.345 75.1326 132.306C75.0606 132.268 74.9995 132.211 74.9552 132.143C74.9108 132.074 74.8846 131.995 74.879 131.914C74.8734 131.832 74.8886 131.75 74.9232 131.676C74.9578 131.602 75.0106 131.538 75.0767 131.49C75.1428 131.442 75.22 131.411 75.3011 131.401C75.3823 131.391 75.4646 131.402 75.5405 131.432L100.545 129.581C100.698 129.574 100.851 129.61 100.985 129.687C101.118 129.763 101.228 129.875 101.301 130.011Z" fill="white"/>
</g>
</g>
<path d="M75.6 133.046C75.3856 133.054 75.1768 132.976 75.0196 132.83C74.8624 132.684 74.7696 132.481 74.7617 132.267C74.7539 132.052 74.8315 131.844 74.9775 131.686C75.1236 131.529 75.3261 131.437 75.5405 131.429L100.544 129.577C100.758 129.561 100.97 129.631 101.132 129.771C101.295 129.911 101.395 130.11 101.411 130.324C101.427 130.538 101.357 130.75 101.217 130.912C101.076 131.075 100.877 131.175 100.663 131.191L75.6595 133.042L75.6 133.046Z" stroke="#263238" stroke-width="0.35" stroke-linecap="round" stroke-linejoin="round"/>
<path d="M76.0235 136.168C75.8091 136.175 75.6005 136.097 75.4436 135.951C75.2867 135.804 75.1944 135.601 75.187 135.387C75.1796 135.173 75.2576 134.964 75.404 134.807C75.5504 134.65 75.7531 134.558 75.9675 134.551L100.083 132.769C100.188 132.761 100.295 132.774 100.396 132.808C100.497 132.841 100.59 132.894 100.67 132.963C100.751 133.033 100.817 133.117 100.865 133.212C100.912 133.307 100.941 133.41 100.949 133.516C100.957 133.622 100.943 133.729 100.91 133.83C100.877 133.93 100.824 134.024 100.755 134.104C100.685 134.185 100.601 134.251 100.506 134.298C100.411 134.346 100.307 134.375 100.202 134.383L76.0865 136.168H76.0235Z" fill="#BFBFBF"/>
<mask id="mask4_82_1339" style="mask-type:luminance" maskUnits="userSpaceOnUse" x="75" y="132" width="26" height="5">
<path d="M76.0235 136.168C75.8091 136.175 75.6005 136.097 75.4436 135.951C75.2867 135.804 75.1944 135.601 75.187 135.387C75.1796 135.173 75.2576 134.964 75.404 134.807C75.5504 134.65 75.7531 134.558 75.9675 134.551L100.083 132.769C100.188 132.761 100.295 132.774 100.396 132.808C100.497 132.841 100.59 132.894 100.67 132.963C100.751 133.033 100.817 133.117 100.865 133.212C100.912 133.307 100.941 133.41 100.949 133.516C100.957 133.622 100.943 133.729 100.91 133.83C100.877 133.93 100.824 134.024 100.755 134.104C100.685 134.185 100.601 134.251 100.506 134.298C100.411 134.346 100.307 134.375 100.202 134.383L76.0865 136.168H76.0235Z" fill="white"/>
</mask>
<g mask="url(#mask4_82_1339)">
<g opacity="0.4">
<path d="M100.856 133.203C100.794 133.326 100.701 133.43 100.586 133.506C100.472 133.581 100.339 133.625 100.202 133.633L76.0865 135.418H76.0235C75.9524 135.458 75.8725 135.479 75.7911 135.48C75.7097 135.48 75.6294 135.46 75.5579 135.421C75.4863 135.383 75.4257 135.326 75.3817 135.258C75.3377 135.189 75.3117 135.111 75.3061 135.03C75.3006 134.948 75.3157 134.867 75.35 134.793C75.3843 134.719 75.4367 134.656 75.5023 134.607C75.5679 134.559 75.6447 134.528 75.7254 134.518C75.8061 134.507 75.8882 134.517 75.964 134.547L100.079 132.765C100.237 132.754 100.395 132.79 100.533 132.867C100.671 132.945 100.784 133.062 100.856 133.203Z" fill="white"/>
</g>
</g>
<path d="M76.0235 136.168C75.8091 136.175 75.6005 136.097 75.4436 135.951C75.2867 135.804 75.1944 135.601 75.187 135.387C75.1796 135.173 75.2576 134.964 75.404 134.807C75.5504 134.65 75.7531 134.558 75.9675 134.551L100.083 132.769C100.188 132.761 100.295 132.774 100.396 132.808C100.497 132.841 100.59 132.894 100.67 132.963C100.751 133.033 100.817 133.117 100.865 133.212C100.912 133.307 100.941 133.41 100.949 133.516C100.957 133.622 100.943 133.729 100.91 133.83C100.877 133.93 100.824 134.024 100.755 134.104C100.685 134.185 100.601 134.251 100.506 134.298C100.411 134.346 100.307 134.375 100.202 134.383L76.0865 136.168H76.0235Z" stroke="#263238" stroke-width="0.35" stroke-linecap="round" stroke-linejoin="round"/>
<path d="M76.468 139.3C76.2536 139.308 76.0448 139.23 75.8876 139.084C75.7304 138.938 75.6376 138.736 75.6297 138.521C75.6219 138.307 75.6995 138.098 75.8455 137.941C75.9916 137.784 76.1941 137.691 76.4085 137.683L99.638 135.965C99.852 135.949 100.063 136.019 100.226 136.159C100.388 136.299 100.488 136.498 100.504 136.712C100.52 136.926 100.45 137.137 100.31 137.3C100.17 137.462 99.971 137.562 99.757 137.578L76.5275 139.3H76.468Z" fill="#BFBFBF"/>
<mask id="mask5_82_1339" style="mask-type:luminance" maskUnits="userSpaceOnUse" x="75" y="135" width="26" height="5">
<path d="M76.468 139.3C76.2536 139.308 76.0448 139.23 75.8876 139.084C75.7304 138.938 75.6376 138.736 75.6297 138.521C75.6219 138.307 75.6995 138.098 75.8455 137.941C75.9916 137.784 76.1941 137.691 76.4085 137.683L99.638 135.965C99.852 135.949 100.063 136.019 100.226 136.159C100.388 136.299 100.488 136.498 100.504 136.712C100.52 136.926 100.45 137.137 100.31 137.3C100.17 137.462 99.971 137.562 99.757 137.578L76.5275 139.3H76.468Z" fill="white"/>
</mask>
<g mask="url(#mask5_82_1339)">
<g opacity="0.4">
<path d="M100.415 136.388C100.352 136.511 100.259 136.615 100.145 136.691C100.03 136.767 99.8976 136.812 99.7605 136.822L76.5275 138.541H76.468C76.397 138.581 76.3168 138.603 76.2351 138.604C76.1533 138.605 76.0727 138.585 76.0006 138.547C75.9286 138.508 75.8675 138.452 75.8231 138.383C75.7788 138.314 75.7526 138.236 75.747 138.154C75.7414 138.072 75.7566 137.991 75.7912 137.917C75.8257 137.843 75.8785 137.779 75.9447 137.73C76.0108 137.682 76.088 137.652 76.1691 137.642C76.2502 137.632 76.3326 137.642 76.4085 137.673L99.638 135.954C99.7957 135.943 99.9532 135.978 100.091 136.055C100.229 136.132 100.342 136.248 100.415 136.388Z" fill="white"/>
</g>
</g>
<path d="M76.468 139.3C76.2536 139.308 76.0448 139.23 75.8876 139.084C75.7304 138.938 75.6376 138.736 75.6297 138.521C75.6219 138.307 75.6995 138.098 75.8455 137.941C75.9916 137.784 76.1941 137.691 76.4085 137.683L99.638 135.965C99.852 135.949 100.063 136.019 100.226 136.159C100.388 136.299 100.488 136.498 100.504 136.712C100.52 136.926 100.45 137.137 100.31 137.3C100.17 137.462 99.971 137.562 99.757 137.578L76.5275 139.3H76.468Z" stroke="#263238" stroke-width="0.35" stroke-linecap="round" stroke-linejoin="round"/>
<path d="M105.248 114.331L104.36 124.25L102.281 125.818H73.8885L71.806 124.25L70.9205 114.331L71.5365 112.76H104.629L105.248 114.331Z" fill="#FF3C3C"/>
<mask id="mask6_82_1339" style="mask-type:luminance" maskUnits="userSpaceOnUse" x="70" y="112" width="36" height="14">
<path d="M105.248 114.331L104.36 124.25L102.281 125.818H73.8885L71.806 124.25L70.9205 114.331L71.5365 112.76H104.629L105.248 114.331Z" fill="white"/>
</mask>
<g mask="url(#mask6_82_1339)">
<path opacity="0.2" d="M104.36 124.25L102.28 125.818H73.8885L71.806 124.25H104.36Z" fill="black" fill-opacity="0.7"/>
<path opacity="0.4" d="M105.248 114.331H70.9205L71.5365 112.76H104.629L105.248 114.331Z" fill="white"/>
</g>
<path d="M105.248 114.331L104.36 124.25L102.281 125.818H73.8885L71.806 124.25L70.9205 114.331L71.5365 112.76H104.629L105.248 114.331Z" stroke="#263238" stroke-width="0.35" stroke-linecap="round" stroke-linejoin="round"/>
<path d="M70.9205 114.331H83.6325" stroke="#263238" stroke-width="0.35" stroke-linecap="round" stroke-linejoin="round"/>
<path d="M85.6275 114.331H88.8265" stroke="#263238" stroke-width="0.35" stroke-linecap="round" stroke-linejoin="round"/>
<path d="M91.105 114.331H91.8155" stroke="#263238" stroke-width="0.35" stroke-linecap="round" stroke-linejoin="round"/>
<path d="M105.248 114.331H102.119" stroke="#263238" stroke-width="0.35" stroke-linecap="round" stroke-linejoin="round"/>
<path d="M104.359 124.25H91.8155" stroke="#263238" stroke-width="0.35" stroke-linecap="round" stroke-linejoin="round"/>
<path d="M89.754 124.25H85.6275" stroke="#263238" stroke-width="0.35" stroke-linecap="round" stroke-linejoin="round"/>
<path d="M82.425 124.25H81.571" stroke="#263238" stroke-width="0.35" stroke-linecap="round" stroke-linejoin="round"/>
<path d="M71.806 124.25H75.215" stroke="#263238" stroke-width="0.35" stroke-linecap="round" stroke-linejoin="round"/>
<path opacity="0.4" d="M80.7905 140.073C81.97 141.158 84.791 141.925 88.0845 141.925C91.378 141.925 94.1955 141.158 95.3785 140.073H80.7905Z" fill="white"/>
<path opacity="0.2" d="M89.6 145.25H86.555C86.4494 145.249 86.3468 145.215 86.2619 145.152C86.1771 145.089 86.1143 145.001 86.0825 144.9L85.6555 143.588H90.51L90.083 144.9C90.0512 145.003 89.9869 145.093 89.8998 145.156C89.8128 145.219 89.7075 145.252 89.6 145.25Z" fill="white"/>
<path opacity="0.2" d="M85.6555 143.08H90.51L91.0525 142.667H85.1165L85.6555 143.08Z" fill="white"/>
</svg>
