<svg width="420" height="409" viewBox="0 0 420 409" fill="none" xmlns="http://www.w3.org/2000/svg">
<g clip-path="url(#clip0_95_3250)">
<path d="M400.74 162.948C390.415 141.747 379.03 121.078 366.63 101.02C347.827 70.5389 323.207 41.9649 290.986 23.9347C216.238 -17.8895 130.147 -1.5113 73.377 46.6657C16.6067 94.8427 62.9737 156.648 52.5615 203.006C42.1494 249.364 9.04144 247.545 0.527217 314.807C-7.98701 382.068 88.5163 422.065 163.255 404.79C237.994 387.516 238.996 356.622 302.338 354.803C365.681 352.984 403.578 333.891 416.819 262.992C421.476 238.082 421.968 211.002 411.802 187.208C408.358 179.141 404.65 171.023 400.74 162.948Z" fill="#FF3B3B"/>
<path opacity="0.8" d="M400.74 162.948C390.415 141.747 379.03 121.078 366.63 101.02C347.827 70.5389 323.207 41.9649 290.986 23.9347C216.238 -17.8895 130.147 -1.5113 73.377 46.6657C16.6067 94.8427 62.9737 156.648 52.5615 203.006C42.1494 249.364 9.04144 247.545 0.527217 314.807C-7.98701 382.068 88.5163 422.065 163.255 404.79C237.994 387.516 238.996 356.622 302.338 354.803C365.681 352.984 403.578 333.891 416.819 262.992C421.476 238.082 421.968 211.002 411.802 187.208C408.358 179.141 404.65 171.023 400.74 162.948Z" fill="white"/>
<path d="M400.74 385.609H410.256" stroke="#263238" stroke-width="0.878661" stroke-linecap="round" stroke-linejoin="round"/>
<path d="M18.5925 385.609H392.006" stroke="#263238" stroke-width="0.878661" stroke-linecap="round" stroke-linejoin="round"/>
<g opacity="0.3">
<path d="M79.598 96.2661C77.9022 94.5088 74.9411 92.8745 69.8185 92.7515C58.3081 92.4703 61.401 100.659 58.3081 102.584C55.2152 104.508 54.3805 101.459 51.2788 103.462C48.1771 105.466 49.5917 109.358 47.07 109.92C44.5482 110.483 41.1654 107.39 38.0813 109.358C34.9972 111.326 34.9884 113.005 33.5825 113.005C32.1767 113.005 29.3738 111.889 27.6867 113.005C25.9997 114.12 24.0403 115.535 24.0403 115.535H54.2047" stroke="black" stroke-width="0.878661" stroke-linecap="round" stroke-linejoin="round"/>
<path d="M82.77 101.301C82.4976 101.16 82.2076 101.028 81.8913 100.897C81.7567 99.8479 81.4035 98.8392 80.8545 97.9355" stroke="black" stroke-width="0.878661" stroke-linecap="round" stroke-linejoin="round"/>
<path d="M58.062 115.5H95.0976C95.0976 115.5 95.9762 112.969 92.8482 111.291C89.7202 109.613 88.3582 111.01 87.2336 109.604C86.2319 108.356 89.4654 105.325 84.2373 102.092" stroke="black" stroke-width="0.878661" stroke-linecap="round" stroke-linejoin="round"/>
</g>
<g opacity="0.3">
<path d="M341.966 281.997C340.262 280.24 337.309 278.606 332.187 278.483C320.676 278.202 323.76 286.347 320.676 288.306C317.592 290.266 316.74 287.182 313.647 289.185C310.554 291.188 311.96 295.081 309.429 295.643C306.899 296.205 303.534 293.121 300.449 295.081C297.365 297.04 297.357 298.736 295.951 298.736C294.545 298.736 291.742 297.611 290.055 298.736C288.368 299.861 286.408 301.258 286.408 301.258H316.555" stroke="black" stroke-width="0.878661" stroke-linecap="round" stroke-linejoin="round"/>
<path d="M345.138 287.006L344.259 286.61C344.126 285.559 343.773 284.547 343.223 283.641" stroke="black" stroke-width="0.878661" stroke-linecap="round" stroke-linejoin="round"/>
<path d="M320.43 301.223H357.466C357.466 301.223 358.344 298.701 355.216 297.014C352.088 295.327 350.726 296.733 349.602 295.327C348.6 294.079 351.834 291.048 346.597 287.823" stroke="black" stroke-width="0.878661" stroke-linecap="round" stroke-linejoin="round"/>
</g>
<g opacity="0.3">
<path d="M146.297 61.0406H185.732C185.732 61.0406 187.067 57.0075 182.147 54.3276C177.226 51.6477 174.977 53.8795 173.184 51.6389C171.392 49.3983 178.114 43.5728 164.679 37.7561C164.679 37.7561 163.8 25.2176 145.419 24.7695C137.511 24.5762 133.908 26.8782 132.001 29.8218" stroke="black" stroke-width="0.878661" stroke-linecap="round" stroke-linejoin="round"/>
<path d="M134.268 61.0494H140.832" stroke="black" stroke-width="0.878661" stroke-linecap="round" stroke-linejoin="round"/>
<path d="M129.611 36.0075C129.049 37.9142 128.443 39.5222 127.063 40.4008C122.134 43.5288 120.79 38.6435 115.869 41.7364C110.949 44.8293 113.181 51.1468 109.147 52.0431C105.114 52.9393 99.7458 48.01 94.8165 51.1644C89.8872 54.3188 89.8872 56.9811 87.6554 56.9811C85.4236 56.9811 80.9337 55.2238 78.245 56.9811C75.5563 58.7385 72.4282 61.0142 72.4282 61.0142H122.784" stroke="black" stroke-width="0.878661" stroke-linecap="round" stroke-linejoin="round"/>
</g>
<path d="M409.772 385.469V379.037L404.421 375.751L398.815 379.204L393.201 375.751L387.595 379.204L381.989 375.751L376.383 379.204L370.777 375.751L365.163 379.204L359.557 375.751L353.942 379.204L348.336 375.751L342.73 379.204L337.116 375.751L331.51 379.204L325.895 375.751L320.289 379.204L314.684 375.751L309.069 379.204L303.463 375.751L297.848 379.204L292.243 375.751L286.628 379.204L281.022 375.751L275.416 379.204L269.802 375.751L264.187 379.204L258.581 375.751L252.966 379.204L247.361 375.751L241.746 379.204L236.14 375.751L230.525 379.204L224.92 375.751L219.305 379.204L213.699 375.751L208.084 379.204L202.479 375.751L196.864 379.204L191.249 375.751L185.643 379.204L180.038 375.751L174.423 379.204L168.817 375.751L163.202 379.204L157.597 375.751L151.991 379.204L146.376 375.751L140.77 379.204L135.156 375.751L129.55 379.204L123.935 375.751L118.32 379.204L112.715 375.751L107.1 379.204L101.494 375.751L95.8795 379.204L90.2648 375.751L84.6502 379.204L79.0355 375.751L73.4209 379.204L67.8062 375.751L62.2004 379.204L56.5857 375.751L50.9799 379.204L45.3652 375.751L39.7506 379.204L34.1359 375.751L28.5125 379.204L22.9067 375.751L18.2146 378.633V385.469H409.772Z" fill="#FF3B3B"/>
<path d="M19.9807 267.939C19.9807 267.939 49.5476 270.865 64.5288 289.185C64.5288 289.185 80.3447 267.956 108.787 268.396C115.732 260.015 120.154 249.834 121.538 239.038C122.922 228.242 121.211 217.275 116.604 207.414C111.997 197.552 104.683 189.202 95.5149 183.336C86.3465 177.47 75.7004 174.329 64.8161 174.278C53.9318 174.228 43.2569 177.27 34.0344 183.05C24.8119 188.831 17.4211 197.113 12.7225 206.931C8.02384 216.749 6.21069 227.699 7.49411 238.508C8.77753 249.317 13.1047 259.538 19.9719 267.983L19.9807 267.939Z" fill="#FF3B3B"/>
<path d="M19.9807 267.939C19.9807 267.939 49.5476 270.865 64.5288 289.185C64.5288 289.185 80.3447 267.956 108.787 268.396C115.732 260.015 120.154 249.834 121.538 239.038C122.922 228.242 121.211 217.275 116.604 207.414C111.997 197.552 104.683 189.202 95.5149 183.336C86.3465 177.47 75.7004 174.329 64.8161 174.278C53.9318 174.228 43.2569 177.27 34.0344 183.05C24.8119 188.831 17.4211 197.113 12.7225 206.931C8.02384 216.749 6.21069 227.699 7.49411 238.508C8.77753 249.317 13.1047 259.538 19.9719 267.983L19.9807 267.939Z" fill="#FF3B3B"/>
<path opacity="0.5" d="M19.9807 267.939C19.9807 267.939 49.5476 270.865 64.5288 289.185C64.5288 289.185 80.3447 267.956 108.787 268.396C115.732 260.015 120.154 249.834 121.538 239.038C122.922 228.242 121.211 217.275 116.604 207.414C111.997 197.552 104.683 189.202 95.5149 183.336C86.3465 177.47 75.7004 174.329 64.8161 174.278C53.9318 174.228 43.2569 177.27 34.0344 183.05C24.8119 188.831 17.4211 197.113 12.7225 206.931C8.02384 216.749 6.21069 227.699 7.49411 238.508C8.77753 249.317 13.1047 259.538 19.9719 267.983L19.9807 267.939Z" fill="white"/>
<path d="M66.3125 385.873L63.5535 178.324L62.8594 385.873H66.3125Z" fill="#828282"/>
<path d="M65.0209 283.605C65.0209 283.605 75.0024 265.637 92.9623 260.154C92.9623 260.154 74.0008 264.644 64.52 280.108L65.0209 283.605Z" fill="#828282"/>
<path d="M63.9578 233.197C63.9578 233.197 75.0289 214.745 92.9536 209.253C92.9536 209.253 73.4034 214.885 63.9578 230.341V233.197Z" fill="#828282"/>
<path d="M64.3444 259.433C64.3444 259.433 75.0289 240.191 92.9888 234.699C92.9888 234.699 73.5704 240.085 64.0896 255.559L64.3444 259.433Z" fill="#828282"/>
<path d="M63.5711 245.709C63.5711 245.709 53.9058 227.74 36.605 222.257C36.605 222.257 54.8987 226.747 64.0456 242.212L63.5711 245.709Z" fill="#828282"/>
<path d="M63.5711 270.628C63.5711 270.628 53.9058 252.668 36.605 247.176C36.605 247.176 54.8987 251.666 64.0456 267.139L63.5711 270.628Z" fill="#828282"/>
<path d="M308.12 267.939C308.12 267.939 337.678 270.865 352.659 289.185C352.659 289.185 368.475 267.956 396.917 268.396C403.867 260.015 408.294 249.832 409.68 239.033C411.067 228.234 409.357 217.264 404.751 207.399C400.144 197.534 392.829 189.181 383.658 183.312C374.488 177.443 363.839 174.301 352.951 174.25C342.064 174.2 331.386 177.243 322.161 183.026C312.936 188.809 305.544 197.094 300.846 206.916C296.147 216.737 294.336 227.692 295.622 238.503C296.908 249.314 301.239 259.538 308.111 267.983L308.12 267.939Z" fill="#FF3B3B"/>
<path opacity="0.5" d="M308.12 267.939C308.12 267.939 337.678 270.865 352.659 289.185C352.659 289.185 368.475 267.956 396.917 268.396C403.867 260.015 408.294 249.832 409.68 239.033C411.067 228.234 409.357 217.264 404.751 207.399C400.144 197.534 392.829 189.181 383.658 183.312C374.488 177.443 363.839 174.301 352.951 174.25C342.064 174.2 331.386 177.243 322.161 183.026C312.936 188.809 305.544 197.094 300.846 206.916C296.147 216.737 294.336 227.692 295.622 238.503C296.908 249.314 301.239 259.538 308.111 267.983L308.12 267.939Z" fill="white"/>
<path d="M354.443 385.873L351.684 178.324L350.99 385.873H354.443Z" fill="#828282"/>
<path d="M353.222 283.605C353.222 283.605 363.203 265.637 381.163 260.154C381.163 260.154 362.201 264.644 352.721 280.108L353.222 283.605Z" fill="#828282"/>
<path d="M352.088 233.197C352.088 233.197 363.159 214.745 381.084 209.253C381.084 209.253 361.534 214.885 352.088 230.341V233.197Z" fill="#828282"/>
<path d="M352.484 259.433C352.484 259.433 363.159 240.191 381.119 234.699C381.119 234.699 361.701 240.085 352.22 255.559L352.484 259.433Z" fill="#828282"/>
<path d="M351.702 245.709C351.702 245.709 342.036 227.74 324.736 222.257C324.736 222.257 343.038 226.747 352.185 242.212L351.702 245.709Z" fill="#828282"/>
<path d="M351.702 270.628C351.702 270.628 342.036 252.668 324.736 247.176C324.736 247.176 343.038 251.666 352.185 267.139L351.702 270.628Z" fill="#828282"/>
<path d="M240.806 165.074C240.806 165.074 291.013 170.047 316.467 201.169C316.467 201.169 343.354 165.144 391.646 165.847C403.439 151.609 410.947 134.314 413.293 115.975C415.64 97.6358 412.729 79.0075 404.9 62.2584C397.071 45.5093 384.646 31.3283 369.071 21.3662C353.496 11.4041 335.412 6.07058 316.924 5.9866C298.436 5.90263 280.304 11.0716 264.639 20.8919C248.974 30.7121 236.421 44.7796 228.44 61.4569C220.46 78.1342 217.38 96.7353 219.56 115.095C221.74 133.454 229.089 150.817 240.753 165.162L240.806 165.074Z" fill="#FF3B3B"/>
<path opacity="0.5" d="M240.806 165.074C240.806 165.074 291.013 170.047 316.467 201.169C316.467 201.169 343.354 165.144 391.646 165.847C403.439 151.609 410.947 134.314 413.293 115.975C415.64 97.6358 412.729 79.0075 404.9 62.2584C397.071 45.5093 384.646 31.3283 369.071 21.3662C353.496 11.4041 335.412 6.07058 316.924 5.9866C298.436 5.90263 280.304 11.0716 264.639 20.8919C248.974 30.7121 236.421 44.7796 228.44 61.4569C220.46 78.1342 217.38 96.7353 219.56 115.095C221.74 133.454 229.089 150.817 240.753 165.162L240.806 165.074Z" fill="white"/>
<path d="M319.771 385.873L314.807 12.8548L313.559 385.873H319.771Z" fill="#828282"/>
<path d="M317.346 191.68C317.346 191.68 334.295 161.173 364.794 151.85C364.794 151.85 332.582 159.477 316.467 185.749L317.346 191.68Z" fill="#828282"/>
<path d="M315.501 106.063C315.501 106.063 334.295 74.7213 364.811 65.3987C364.811 65.3987 331.598 74.9586 315.501 101.231V106.063Z" fill="#828282"/>
<path d="M316.16 150.629C316.16 150.629 334.295 117.951 364.811 108.629C364.811 108.629 331.818 117.767 315.72 144.048L316.16 150.629Z" fill="#828282"/>
<path d="M314.833 127.274C314.833 127.274 298.472 96.7582 269.037 87.4356C269.037 87.4356 300.115 95.0624 315.65 121.334L314.833 127.274Z" fill="#828282"/>
<path d="M314.833 169.652C314.833 169.652 298.472 139.136 269.037 129.813C269.037 129.813 300.115 137.44 315.65 163.712L314.833 169.652Z" fill="#828282"/>
<path d="M303.314 346.641C304.678 346.999 306.087 347.156 307.496 347.106C307.496 347.106 306.855 345.164 306.802 345.041C306.152 343.688 304.096 341.439 302.409 341.667C302.132 341.713 301.868 341.816 301.634 341.97C301.4 342.124 301.201 342.326 301.05 342.562C300.899 342.799 300.8 343.064 300.758 343.341C300.717 343.619 300.734 343.901 300.81 344.172C301.021 344.741 301.355 345.257 301.788 345.684C302.22 346.111 302.741 346.437 303.314 346.641Z" fill="#828282"/>
<path d="M304.342 355.225C305.737 355.219 307.123 355.003 308.454 354.584C308.891 356.081 309.425 357.549 310.053 358.977C310.422 359.856 310.809 360.655 311.213 361.49L310.721 360.778C309.737 359.645 307.153 358.019 305.607 358.678C305.352 358.795 305.125 358.965 304.94 359.175C304.755 359.386 304.617 359.633 304.534 359.901C304.451 360.169 304.425 360.451 304.459 360.729C304.492 361.008 304.584 361.276 304.728 361.516C305.078 362.016 305.533 362.432 306.062 362.735C306.59 363.039 307.179 363.223 307.786 363.274C309.143 363.279 310.492 363.072 311.784 362.659L312.258 363.616C313.023 365.145 313.796 366.665 314.508 368.177C314.763 368.713 314.982 369.24 315.22 369.776L314.789 369.161C313.796 368.018 311.222 366.402 309.666 367.061C309.413 367.179 309.186 367.349 309.002 367.559C308.818 367.77 308.68 368.017 308.597 368.285C308.515 368.552 308.489 368.834 308.522 369.112C308.554 369.39 308.645 369.658 308.788 369.899C309.139 370.398 309.596 370.814 310.126 371.118C310.656 371.422 311.246 371.605 311.854 371.656C313.174 371.663 314.487 371.468 315.747 371.076C315.966 371.63 316.186 372.183 316.371 372.728C316.485 373.106 316.625 373.457 316.731 373.844L317.038 374.969C317.214 375.689 317.399 376.427 317.548 377.139C317.653 377.631 317.75 378.097 317.847 378.571C317.601 378.044 317.109 377.007 317.056 376.928C316.256 375.645 313.954 373.651 312.311 374.072C312.046 374.15 311.8 374.282 311.588 374.459C311.376 374.637 311.204 374.857 311.082 375.105C310.959 375.352 310.89 375.623 310.878 375.899C310.866 376.175 310.911 376.451 311.011 376.708C311.286 377.249 311.676 377.723 312.155 378.097C312.633 378.47 313.187 378.734 313.779 378.87C315.15 379.082 316.546 379.082 317.917 378.87C318.075 379.652 318.216 380.416 318.348 381.146C318.629 382.736 318.84 384.168 318.998 385.381H320.105C319.912 384.133 319.657 382.639 319.332 380.987C319.174 380.188 318.989 379.336 318.796 378.466C319.585 378.154 320.354 377.793 321.098 377.385C322.118 378.255 323.25 378.985 324.463 379.555C324.164 380.293 323.866 381.014 323.584 381.69C322.978 383.096 322.398 384.326 321.88 385.407H323.075C323.523 384.432 324.006 383.316 324.507 382.077C324.823 381.321 325.131 380.513 325.447 379.678C326.799 379.996 328.192 380.106 329.577 380.003C330.178 379.91 330.751 379.686 331.257 379.347C331.762 379.009 332.187 378.564 332.503 378.044C332.626 377.792 332.695 377.517 332.705 377.238C332.715 376.958 332.666 376.679 332.562 376.419C332.458 376.159 332.3 375.923 332.099 375.728C331.898 375.533 331.659 375.382 331.396 375.285C329.797 374.749 327.354 376.568 326.458 377.78C326.405 377.851 325.922 378.659 325.623 379.23C325.746 378.887 325.878 378.554 326.001 378.202C326.256 377.508 326.493 376.805 326.748 376.049C326.853 375.68 326.967 375.311 327.081 374.933C327.196 374.556 327.284 374.151 327.38 373.765C327.6 372.886 327.776 371.911 327.934 370.962C329.188 371.453 330.509 371.75 331.853 371.841C332.46 371.838 333.059 371.704 333.608 371.446C334.158 371.188 334.644 370.813 335.033 370.347C335.194 370.117 335.305 369.856 335.359 369.581C335.412 369.305 335.407 369.022 335.344 368.749C335.281 368.475 335.162 368.218 334.993 367.994C334.825 367.77 334.611 367.584 334.366 367.447C332.863 366.674 330.166 368.106 329.094 369.205C329.023 369.266 328.347 370.083 327.978 370.593C328.066 370.022 328.162 369.451 328.233 368.836C328.443 367.157 328.602 365.461 328.769 363.766C328.812 363.247 328.874 362.729 328.927 362.21C330.222 362.726 331.588 363.046 332.977 363.159C333.584 363.157 334.184 363.022 334.733 362.764C335.282 362.506 335.769 362.131 336.158 361.666C336.32 361.437 336.432 361.177 336.486 360.902C336.54 360.627 336.536 360.344 336.473 360.07C336.41 359.797 336.29 359.541 336.12 359.318C335.951 359.094 335.736 358.909 335.49 358.775C333.988 357.993 331.299 359.425 330.218 360.488C330.139 360.567 329.164 361.789 328.927 362.114C329.05 360.972 329.181 359.838 329.348 358.722C329.582 357.219 329.907 355.731 330.324 354.267C331.629 354.784 333.002 355.107 334.401 355.225C335.008 355.223 335.607 355.088 336.156 354.83C336.706 354.572 337.192 354.197 337.582 353.731C337.744 353.502 337.856 353.241 337.91 352.965C337.964 352.69 337.96 352.406 337.897 352.132C337.834 351.858 337.713 351.601 337.544 351.377C337.375 351.153 337.16 350.967 336.914 350.832C335.411 350.059 332.722 351.491 331.642 352.589C331.554 352.668 330.508 353.986 330.333 354.241C330.333 354.153 330.376 354.065 330.403 353.977C330.859 352.521 331.447 351.109 332.16 349.76C332.538 349.004 332.951 348.31 333.364 347.642C334.573 348.287 335.874 348.744 337.221 348.995C337.825 349.059 338.435 348.991 339.009 348.797C339.584 348.603 340.11 348.287 340.551 347.871C340.736 347.659 340.874 347.411 340.957 347.142C341.039 346.874 341.065 346.591 341.032 346.312C340.999 346.033 340.908 345.764 340.764 345.523C340.621 345.281 340.429 345.072 340.2 344.91C338.794 343.978 335.965 345.103 334.779 346.043L333.698 347.124L334.269 346.245C334.972 345.182 335.692 344.251 336.325 343.433C336.694 342.968 337.028 342.555 337.353 342.177C338.718 342.191 340.078 341.998 341.386 341.606C341.951 341.384 342.46 341.042 342.879 340.604C343.297 340.165 343.616 339.641 343.811 339.067C343.879 338.794 343.889 338.511 343.84 338.234C343.791 337.958 343.684 337.695 343.527 337.463C343.369 337.231 343.164 337.035 342.926 336.887C342.687 336.739 342.42 336.644 342.142 336.606C340.464 336.422 338.469 338.724 337.854 340.121C337.801 340.235 337.186 342.195 337.221 342.195C336.905 342.555 336.562 342.95 336.202 343.381C335.552 344.189 334.814 345.138 334.084 346.157C333.283 347.286 332.547 348.46 331.879 349.672C331.13 351.026 330.501 352.443 329.999 353.907C329.999 353.907 329.999 353.907 329.999 353.96C329.999 353.468 329.999 352.08 329.999 351.974C329.805 350.48 328.558 347.704 326.888 347.396C326.611 347.354 326.329 347.371 326.058 347.444C325.788 347.518 325.537 347.648 325.32 347.825C325.103 348.002 324.925 348.223 324.799 348.473C324.673 348.723 324.6 348.997 324.586 349.277C324.61 349.884 324.767 350.478 325.044 351.018C325.322 351.559 325.715 352.032 326.194 352.405C327.359 353.181 328.636 353.774 329.981 354.162C329.505 355.664 329.132 357.196 328.865 358.749C328.707 359.627 328.575 360.567 328.452 361.49C328.452 361.059 328.452 360.682 328.452 360.611C328.259 359.118 327.002 356.341 325.342 356.033C325.065 355.991 324.782 356.008 324.512 356.082C324.242 356.156 323.99 356.285 323.773 356.462C323.556 356.64 323.379 356.86 323.253 357.11C323.126 357.36 323.054 357.634 323.04 357.914C323.063 358.521 323.219 359.116 323.496 359.656C323.774 360.197 324.167 360.67 324.648 361.042C325.776 361.796 327.015 362.368 328.32 362.738C328.276 363.089 328.224 363.441 328.18 363.801C327.978 365.488 327.784 367.184 327.547 368.836C327.459 369.424 327.354 369.987 327.248 370.593C327.248 370.206 327.248 369.89 327.248 369.837C327.055 368.344 325.799 365.567 324.138 365.259C323.861 365.217 323.578 365.234 323.308 365.308C323.038 365.381 322.786 365.511 322.569 365.688C322.352 365.866 322.175 366.086 322.049 366.336C321.922 366.586 321.85 366.86 321.836 367.14C321.86 367.747 322.017 368.341 322.294 368.881C322.572 369.422 322.964 369.895 323.444 370.268C324.536 371.004 325.737 371.564 327.002 371.928C326.879 372.508 326.756 373.097 326.616 373.686C326.51 374.064 326.431 374.441 326.299 374.81C326.168 375.179 326.062 375.557 325.939 375.926C325.684 376.621 325.43 377.341 325.166 378.018C324.982 378.483 324.806 378.896 324.621 379.38C324.718 378.8 324.867 377.666 324.876 377.569C324.855 376.242 324.495 374.941 323.83 373.791C323.848 373.645 323.848 373.498 323.83 373.352C323.796 373.073 323.703 372.805 323.558 372.565C323.413 372.325 323.219 372.118 322.988 371.958C322.758 371.798 322.496 371.688 322.22 371.636C321.944 371.584 321.661 371.591 321.388 371.656C319.753 372.087 318.752 374.951 318.646 376.462C318.646 376.55 318.699 377.517 318.743 378.132C318.664 377.772 318.585 377.429 318.497 377.06C318.321 376.339 318.137 375.628 317.926 374.854C317.82 374.485 317.706 374.116 317.592 373.738C317.478 373.361 317.328 372.983 317.197 372.596C316.871 371.718 316.502 370.839 316.116 369.96C317.434 369.688 318.703 369.213 319.876 368.554C320.382 368.217 320.809 367.773 321.126 367.254C321.443 366.735 321.643 366.154 321.713 365.549C321.72 365.269 321.668 364.99 321.56 364.731C321.453 364.471 321.292 364.238 321.088 364.045C320.884 363.852 320.642 363.704 320.377 363.61C320.113 363.517 319.831 363.48 319.551 363.502C317.873 363.687 316.415 366.358 316.107 367.843C316.107 367.931 315.993 369.011 315.949 369.6C315.712 369.082 315.474 368.554 315.211 368.027C314.464 366.516 313.656 365.013 312.856 363.502C312.61 363.045 312.373 362.579 312.135 362.123C313.501 361.838 314.817 361.35 316.037 360.673C316.543 360.337 316.969 359.895 317.286 359.378C317.604 358.86 317.804 358.28 317.873 357.677C317.88 357.396 317.828 357.117 317.72 356.858C317.613 356.599 317.452 356.365 317.248 356.172C317.044 355.979 316.802 355.831 316.537 355.737C316.273 355.644 315.991 355.607 315.712 355.629C314.033 355.814 312.575 358.485 312.267 359.961C312.267 360.075 312.109 361.639 312.092 362.035C311.564 361.015 311.046 359.996 310.571 358.968C309.931 357.588 309.382 356.168 308.928 354.715C310.302 354.428 311.625 353.939 312.856 353.266C313.36 352.929 313.784 352.486 314.1 351.969C314.416 351.452 314.615 350.872 314.684 350.269C314.692 349.989 314.641 349.71 314.534 349.451C314.428 349.192 314.268 348.958 314.064 348.765C313.861 348.572 313.62 348.424 313.356 348.33C313.091 348.237 312.81 348.2 312.531 348.222C310.844 348.407 309.394 351.078 309.087 352.554C309.087 352.668 308.911 354.311 308.902 354.654C308.902 354.575 308.84 354.487 308.823 354.399C308.394 352.932 308.1 351.43 307.944 349.909C307.856 349.074 307.812 348.266 307.786 347.475C309.15 347.349 310.487 347.014 311.749 346.482C312.288 346.202 312.76 345.808 313.132 345.327C313.504 344.846 313.766 344.29 313.902 343.697C313.94 343.419 313.919 343.136 313.841 342.867C313.762 342.597 313.628 342.347 313.446 342.133C313.265 341.919 313.04 341.746 312.787 341.625C312.534 341.504 312.258 341.437 311.977 341.43C310.29 341.43 308.551 343.926 308.085 345.358C308.085 345.437 307.892 346.236 307.777 346.86C307.777 346.5 307.777 346.14 307.777 345.797C307.777 344.523 307.856 343.354 307.944 342.282C307.988 341.694 308.05 341.167 308.102 340.666C309.25 339.927 310.278 339.018 311.151 337.968C311.499 337.47 311.735 336.903 311.842 336.306C311.95 335.708 311.927 335.094 311.775 334.506C311.681 334.242 311.532 334.001 311.339 333.798C311.145 333.595 310.911 333.436 310.651 333.33C310.392 333.223 310.113 333.173 309.833 333.182C309.552 333.191 309.277 333.259 309.025 333.382C307.523 334.155 307.127 337.177 307.382 338.654C307.382 338.777 307.971 340.754 307.997 340.736C307.927 341.21 307.865 341.72 307.804 342.282C307.698 343.319 307.593 344.488 307.566 345.797C307.517 347.177 307.55 348.559 307.663 349.936C307.783 351.478 308.039 353.007 308.428 354.505C308.431 354.522 308.431 354.54 308.428 354.557C308.164 354.136 307.382 352.993 307.312 352.914C306.328 351.772 303.797 350.155 302.198 350.814C301.943 350.931 301.716 351.101 301.531 351.311C301.346 351.522 301.208 351.769 301.125 352.037C301.042 352.305 301.016 352.587 301.05 352.865C301.083 353.144 301.175 353.412 301.319 353.652C301.683 354.113 302.141 354.492 302.662 354.763C303.183 355.034 303.755 355.191 304.342 355.225Z" fill="#828282"/>
<path d="M333.294 347.291C333.294 347.291 333.839 345.323 333.856 345.191C334.058 343.697 333.584 340.692 332.099 339.919C331.843 339.804 331.566 339.744 331.286 339.743C331.006 339.743 330.729 339.801 330.473 339.915C330.216 340.028 329.987 340.194 329.799 340.403C329.612 340.611 329.47 340.856 329.384 341.123C329.245 341.714 329.237 342.33 329.361 342.925C329.486 343.52 329.74 344.081 330.104 344.567C330.781 345.709 333.294 347.291 333.294 347.291Z" fill="#828282"/>
<path d="M353.52 360.813C354.38 361.038 355.268 361.135 356.156 361.103C356.156 361.103 355.752 359.873 355.717 359.794C355.304 358.915 354.004 357.51 352.941 357.65C352.764 357.678 352.596 357.743 352.447 357.841C352.298 357.939 352.171 358.067 352.075 358.217C351.978 358.367 351.915 358.536 351.888 358.712C351.862 358.889 351.873 359.069 351.921 359.241C352.056 359.604 352.269 359.934 352.545 360.206C352.822 360.477 353.155 360.685 353.52 360.813Z" fill="#828282"/>
<path d="M354.171 366.244C355.065 366.242 355.955 366.103 356.807 365.831C357.086 366.791 357.427 367.733 357.826 368.651C358.063 369.187 358.309 369.714 358.564 370.25C358.415 370.022 358.274 369.82 358.248 369.793C357.624 369.073 355.99 368.036 355.005 368.458C354.843 368.531 354.699 368.639 354.581 368.772C354.463 368.906 354.374 369.063 354.321 369.233C354.268 369.403 354.252 369.582 354.273 369.759C354.294 369.936 354.352 370.106 354.443 370.259C354.667 370.573 354.957 370.834 355.292 371.024C355.628 371.214 356.001 371.327 356.385 371.357C357.246 371.359 358.103 371.228 358.924 370.971C359.021 371.173 359.118 371.375 359.223 371.577C359.706 372.544 360.198 373.51 360.646 374.468C360.805 374.802 360.954 375.144 361.095 375.487C360.963 375.285 360.849 375.118 360.822 375.092C360.198 374.371 358.564 373.334 357.58 373.756C357.424 373.83 357.285 373.936 357.171 374.066C357.057 374.196 356.971 374.348 356.918 374.513C356.866 374.678 356.847 374.851 356.864 375.023C356.881 375.196 356.934 375.362 357.018 375.513C357.237 375.827 357.522 376.09 357.852 376.283C358.183 376.475 358.552 376.594 358.933 376.629C359.77 376.632 360.603 376.508 361.402 376.26C361.543 376.612 361.683 376.963 361.798 377.306C361.912 377.649 361.964 377.772 362.026 378.018C362.087 378.264 362.158 378.492 362.228 378.729C362.334 379.186 362.448 379.661 362.544 380.109C362.615 380.416 362.676 380.715 362.738 380.987L362.237 379.942C361.727 379.133 360.26 377.868 359.223 378.132C359.052 378.18 358.893 378.265 358.756 378.379C358.62 378.493 358.509 378.635 358.431 378.795C358.353 378.955 358.31 379.13 358.304 379.308C358.298 379.486 358.33 379.663 358.397 379.828C358.571 380.172 358.819 380.474 359.122 380.713C359.426 380.951 359.778 381.12 360.154 381.207C361.028 381.34 361.917 381.34 362.79 381.207C362.887 381.699 362.984 382.191 363.063 382.648C363.239 383.659 363.37 384.572 363.476 385.337H364.179C364.056 384.546 363.898 383.58 363.687 382.534C363.581 382.024 363.467 381.488 363.344 380.935C363.845 380.733 364.335 380.505 364.811 380.249C365.457 380.802 366.175 381.264 366.946 381.62C366.753 382.095 366.569 382.551 366.375 382.973C365.989 383.852 365.62 384.66 365.295 385.337H366.05C366.331 384.713 366.639 384.01 366.929 383.219C367.122 382.745 367.324 382.235 367.526 381.708C368.391 381.902 369.279 381.97 370.162 381.91C370.544 381.851 370.908 381.708 371.228 381.492C371.548 381.277 371.818 380.993 372.016 380.662C372.096 380.502 372.142 380.327 372.149 380.149C372.157 379.97 372.126 379.792 372.06 379.626C371.993 379.46 371.893 379.31 371.764 379.185C371.635 379.061 371.482 378.966 371.313 378.905C370.303 378.562 368.748 379.713 368.185 380.487C368.185 380.531 367.843 381.067 367.649 381.409C367.729 381.19 367.808 380.979 367.895 380.759C368.054 380.311 368.203 379.88 368.361 379.388C368.431 379.151 368.502 378.923 368.581 378.677C368.66 378.431 368.704 378.185 368.765 377.939C368.906 377.359 369.02 376.761 369.117 376.181C369.912 376.495 370.751 376.688 371.603 376.752C371.989 376.752 372.37 376.666 372.719 376.502C373.068 376.338 373.377 376.1 373.624 375.803C373.728 375.658 373.799 375.492 373.834 375.317C373.868 375.142 373.865 374.962 373.824 374.788C373.783 374.614 373.706 374.451 373.597 374.31C373.489 374.168 373.351 374.051 373.194 373.967C372.245 373.475 370.558 374.38 369.855 375.056C369.855 375.1 369.38 375.636 369.152 375.935C369.213 375.575 369.266 375.215 369.31 374.846C369.442 373.782 369.547 372.702 369.653 371.63C369.653 371.296 369.723 370.971 369.749 370.637C370.573 370.965 371.44 371.169 372.324 371.243C372.71 371.242 373.091 371.157 373.44 370.993C373.789 370.829 374.098 370.591 374.345 370.294C374.447 370.148 374.517 369.983 374.551 369.808C374.584 369.633 374.581 369.453 374.54 369.28C374.5 369.106 374.423 368.944 374.315 368.802C374.207 368.66 374.071 368.543 373.914 368.458C372.965 367.966 371.278 368.871 370.584 369.547C370.531 369.6 369.908 370.373 369.758 370.575C369.837 369.855 369.916 369.134 370.031 368.431C370.173 367.473 370.378 366.525 370.646 365.593C371.472 365.925 372.342 366.132 373.229 366.208C373.615 366.208 373.996 366.122 374.345 365.958C374.694 365.794 375.003 365.556 375.25 365.259C375.352 365.114 375.423 364.949 375.457 364.774C375.492 364.6 375.489 364.42 375.449 364.247C375.409 364.074 375.333 363.911 375.226 363.769C375.119 363.627 374.984 363.509 374.828 363.423C373.87 362.931 372.192 363.836 371.489 364.513C371.436 364.565 370.769 365.391 370.654 365.558C370.654 365.505 370.654 365.444 370.654 365.391C370.953 364.468 371.329 363.571 371.779 362.711C372.025 362.237 372.28 361.833 372.544 361.376C373.313 361.789 374.139 362.085 374.995 362.254C375.378 362.296 375.765 362.252 376.129 362.128C376.494 362.003 376.826 361.801 377.104 361.534C377.22 361.399 377.308 361.242 377.36 361.072C377.412 360.901 377.429 360.722 377.408 360.545C377.387 360.368 377.33 360.198 377.24 360.044C377.15 359.891 377.029 359.758 376.884 359.654C376.005 359.065 374.195 359.777 373.44 360.374L372.754 361.059L373.115 360.488C373.563 359.821 373.993 359.223 374.424 358.731C374.652 358.441 374.872 358.177 375.074 357.931C375.94 357.945 376.803 357.823 377.631 357.571C377.991 357.432 378.316 357.217 378.583 356.939C378.85 356.661 379.053 356.328 379.177 355.963C379.22 355.79 379.225 355.61 379.193 355.435C379.162 355.259 379.094 355.092 378.993 354.945C378.893 354.798 378.763 354.673 378.612 354.579C378.46 354.485 378.291 354.424 378.114 354.399C377.051 354.285 375.786 355.744 375.39 356.622C375.39 356.692 374.969 357.94 374.986 357.94L374.345 358.687C373.923 359.197 373.466 359.785 372.992 360.444C372.484 361.158 372.018 361.901 371.595 362.667C371.122 363.528 370.722 364.428 370.4 365.356C370.4 365.04 370.4 364.161 370.4 364.1C370.277 363.142 369.521 361.385 368.431 361.191C368.255 361.164 368.075 361.174 367.903 361.221C367.731 361.267 367.57 361.35 367.432 361.462C367.294 361.575 367.181 361.715 367.1 361.875C367.019 362.034 366.973 362.208 366.964 362.386C366.982 362.771 367.083 363.147 367.259 363.489C367.434 363.832 367.682 364.133 367.983 364.372C368.726 364.856 369.537 365.223 370.391 365.462C370.091 366.417 369.856 367.391 369.688 368.379C369.582 368.95 369.495 369.53 369.416 370.136C369.416 369.864 369.416 369.618 369.416 369.582C369.292 368.633 368.493 366.876 367.439 366.674C367.263 366.648 367.084 366.659 366.913 366.707C366.742 366.754 366.582 366.836 366.445 366.949C366.308 367.061 366.195 367.201 366.115 367.36C366.035 367.518 365.989 367.692 365.98 367.869C365.994 368.254 366.093 368.632 366.269 368.975C366.445 369.318 366.694 369.619 366.999 369.855C367.716 370.332 368.501 370.696 369.328 370.936C369.328 371.155 369.266 371.375 369.24 371.603C369.117 372.675 368.994 373.756 368.836 374.802C368.783 375.171 368.713 375.531 368.651 375.9C368.651 375.654 368.651 375.452 368.651 375.426C368.528 374.477 367.772 372.71 366.683 372.517C366.507 372.49 366.327 372.5 366.154 372.547C365.982 372.593 365.822 372.676 365.683 372.788C365.545 372.901 365.432 373.041 365.351 373.201C365.271 373.36 365.224 373.534 365.216 373.712C365.233 374.097 365.333 374.474 365.509 374.816C365.684 375.159 365.932 375.46 366.235 375.698C366.932 376.162 367.696 376.515 368.502 376.744C368.423 377.121 368.344 377.49 368.256 377.842C368.168 378.193 368.133 378.316 368.054 378.554C367.975 378.791 367.904 379.028 367.825 379.265C367.667 379.705 367.5 380.144 367.333 380.592C367.166 381.04 367.105 381.172 366.99 381.471C367.043 381.102 367.149 380.381 367.149 380.32C367.134 379.48 366.907 378.658 366.49 377.93C366.49 377.833 366.49 377.736 366.49 377.649C366.467 377.471 366.408 377.301 366.315 377.148C366.223 376.995 366.099 376.864 365.953 376.762C365.806 376.66 365.64 376.59 365.464 376.557C365.289 376.523 365.108 376.527 364.934 376.568C363.898 376.849 363.239 378.659 363.177 379.617C363.177 379.678 363.177 380.293 363.239 380.68C363.186 380.451 363.142 380.232 363.08 380.003C362.975 379.546 362.852 379.125 362.72 378.597L362.509 377.895C362.439 377.657 362.342 377.411 362.254 377.165C362.052 376.612 361.815 376.049 361.569 375.496C362.406 375.328 363.212 375.032 363.959 374.617C364.28 374.404 364.55 374.122 364.751 373.793C364.951 373.463 365.077 373.094 365.119 372.71C365.132 372.529 365.106 372.348 365.043 372.178C364.979 372.007 364.88 371.853 364.752 371.725C364.623 371.596 364.469 371.497 364.299 371.434C364.129 371.37 363.947 371.344 363.766 371.357C362.694 371.48 361.771 373.176 361.578 374.116C361.578 374.169 361.499 374.854 361.472 375.241C361.323 374.907 361.174 374.573 361.007 374.239C360.532 373.282 360.023 372.324 359.513 371.366C359.355 371.076 359.205 370.777 359.056 370.487C359.921 370.319 360.756 370.023 361.534 369.609C361.855 369.395 362.125 369.114 362.326 368.784C362.526 368.455 362.652 368.085 362.694 367.702C362.698 367.524 362.665 367.347 362.596 367.183C362.528 367.019 362.426 366.87 362.297 366.748C362.168 366.625 362.014 366.531 361.847 366.472C361.679 366.412 361.501 366.388 361.323 366.402C360.26 366.525 359.337 368.221 359.144 369.152C359.144 369.222 359.039 370.215 359.03 370.47C358.687 369.82 358.362 369.178 358.063 368.528C357.656 367.65 357.307 366.746 357.018 365.822C357.889 365.657 358.73 365.36 359.513 364.943C359.834 364.729 360.104 364.448 360.305 364.119C360.505 363.789 360.631 363.42 360.673 363.036C360.677 362.858 360.644 362.682 360.576 362.517C360.507 362.353 360.405 362.205 360.276 362.082C360.147 361.96 359.993 361.865 359.826 361.806C359.658 361.746 359.48 361.722 359.302 361.736C358.239 361.85 357.316 363.555 357.123 364.486C357.123 364.565 357.009 365.628 357.009 365.822L356.947 365.664C356.685 364.729 356.505 363.774 356.411 362.808C356.35 362.272 356.323 361.762 356.306 361.262C357.171 361.183 358.019 360.97 358.819 360.629C359.162 360.454 359.462 360.206 359.699 359.902C359.936 359.599 360.103 359.247 360.19 358.872C360.213 358.695 360.199 358.516 360.149 358.345C360.099 358.174 360.014 358.016 359.899 357.88C359.783 357.744 359.641 357.634 359.481 357.557C359.321 357.479 359.146 357.436 358.968 357.431C357.896 357.431 356.789 359.012 356.499 359.917C356.499 359.97 356.367 360.488 356.297 360.875C356.297 360.646 356.297 360.418 356.297 360.198C356.297 359.39 356.35 358.643 356.403 357.993C356.403 357.615 356.473 357.281 356.508 356.965C357.235 356.494 357.886 355.916 358.441 355.251C358.664 354.937 358.814 354.577 358.883 354.197C358.951 353.818 358.935 353.428 358.836 353.055C358.777 352.886 358.682 352.731 358.558 352.602C358.434 352.472 358.285 352.37 358.119 352.302C357.953 352.234 357.775 352.201 357.596 352.207C357.416 352.213 357.24 352.256 357.079 352.334C356.13 352.826 355.875 354.751 356.034 355.691C356.034 355.77 356.411 357.026 356.429 357.018C356.385 357.316 356.341 357.641 356.306 358.002C356.244 358.661 356.174 359.399 356.157 360.216C356.121 361.095 356.141 361.975 356.218 362.852C356.294 363.831 356.456 364.801 356.701 365.751C356.534 365.488 356.042 364.759 355.998 364.706C355.366 363.985 353.731 362.949 352.747 363.37C352.585 363.444 352.44 363.551 352.322 363.685C352.205 363.818 352.116 363.975 352.063 364.145C352.01 364.315 351.993 364.494 352.014 364.671C352.035 364.848 352.094 365.019 352.185 365.172C352.416 365.486 352.714 365.745 353.057 365.931C353.401 366.116 353.781 366.223 354.171 366.244Z" fill="#828282"/>
<path d="M372.552 361.209C372.552 361.209 372.895 359.961 372.904 359.873C373.035 358.924 372.737 357.018 371.77 356.552C371.606 356.473 371.427 356.43 371.246 356.427C371.064 356.423 370.883 356.459 370.716 356.532C370.55 356.604 370.4 356.712 370.279 356.847C370.158 356.983 370.067 357.143 370.013 357.316C369.925 357.691 369.921 358.08 370 358.456C370.079 358.833 370.239 359.188 370.47 359.495C371.074 360.168 371.776 360.746 372.552 361.209Z" fill="#828282"/>
<path d="M53.9937 359.469C54.8535 359.694 55.7416 359.792 56.6297 359.759C56.6297 359.759 56.2255 358.529 56.1904 358.459C55.7774 357.58 54.4331 356.165 53.405 356.315C53.2298 356.343 53.0626 356.408 52.9141 356.505C52.7656 356.602 52.6391 356.729 52.543 356.878C52.4469 357.028 52.3832 357.195 52.3561 357.371C52.3291 357.546 52.3391 357.725 52.3858 357.896C52.5212 358.261 52.7356 358.591 53.0136 358.863C53.2916 359.135 53.6263 359.342 53.9937 359.469Z" fill="#828282"/>
<path d="M54.6438 364.917C55.5375 364.912 56.4257 364.776 57.2798 364.513C57.5556 365.472 57.8961 366.411 58.299 367.324C58.5275 367.86 58.7735 368.396 59.0283 368.923C58.8789 368.695 58.7384 368.502 58.7208 368.475C58.0882 367.746 56.4538 366.718 55.4697 367.14C55.3076 367.213 55.1628 367.321 55.0449 367.454C54.927 367.588 54.8386 367.744 54.7855 367.915C54.7324 368.085 54.7159 368.264 54.7369 368.441C54.7579 368.618 54.816 368.788 54.9074 368.941C55.132 369.253 55.4222 369.513 55.7576 369.701C56.0931 369.889 56.4657 370.002 56.8492 370.031C57.7105 370.032 58.5668 369.902 59.3886 369.644C59.494 369.846 59.5907 370.048 59.6873 370.25C60.1794 371.217 60.6626 372.183 61.1195 373.141C61.2777 373.484 61.4183 373.818 61.5677 374.16L61.2953 373.774C60.6626 373.044 59.0283 372.016 58.0442 372.438C57.8881 372.512 57.7488 372.618 57.6351 372.748C57.5213 372.878 57.4354 373.03 57.3827 373.195C57.33 373.36 57.3116 373.533 57.3287 373.705C57.3457 373.878 57.3979 374.044 57.4819 374.195C57.7064 374.508 57.9966 374.767 58.3321 374.955C58.6676 375.143 59.0402 375.256 59.4237 375.285C60.261 375.292 61.0942 375.168 61.8928 374.916C62.0333 375.267 62.1739 375.619 62.2882 375.961C62.4024 376.304 62.4551 376.427 62.5166 376.673C62.5781 376.919 62.6484 377.148 62.7187 377.385C62.8241 377.842 62.9471 378.316 63.0438 378.764C63.1053 379.081 63.1668 379.379 63.2283 379.643C63.0789 379.3 62.7626 378.65 62.7275 378.597C62.2179 377.78 60.7593 376.515 59.7225 376.779C59.5465 376.821 59.3817 376.901 59.2393 377.013C59.0968 377.125 58.98 377.266 58.8967 377.426C58.8134 377.587 58.7656 377.764 58.7564 377.945C58.7473 378.125 58.7771 378.306 58.8438 378.474C59.0178 378.819 59.2654 379.121 59.5691 379.36C59.8728 379.598 60.2251 379.767 60.6011 379.854C61.4748 379.987 62.3634 379.987 63.2371 379.854C63.3338 380.355 63.4304 380.838 63.5095 381.295C63.6852 382.314 63.8258 383.219 63.9225 383.992H64.6254C64.5024 383.193 64.3442 382.235 64.1333 381.181C64.0367 380.671 63.9225 380.135 63.7907 379.582C64.2952 379.388 64.7855 379.159 65.258 378.896C65.9063 379.447 66.6242 379.911 67.3932 380.276C67.2087 380.741 67.0153 381.154 66.8308 381.629C66.4354 382.508 66.0664 383.316 65.7413 383.992H66.5057C66.7869 383.369 67.0944 382.657 67.3844 381.875C67.5865 381.4 67.7798 380.882 67.9819 380.355C68.8449 380.558 69.734 380.626 70.6179 380.557C70.9986 380.498 71.362 380.357 71.6823 380.143C72.0026 379.929 72.2721 379.647 72.4718 379.318C72.5507 379.158 72.5953 378.984 72.6027 378.806C72.6101 378.628 72.5801 378.451 72.5147 378.285C72.4493 378.12 72.3499 377.97 72.223 377.845C72.096 377.72 71.9443 377.623 71.7777 377.561C70.7584 377.218 69.212 378.378 68.6409 379.142C68.6409 379.195 68.2982 379.722 68.1049 380.065C68.1928 379.845 68.2718 379.634 68.3509 379.415C68.5091 378.975 68.6584 378.536 68.8254 378.044L69.0363 377.341C69.1154 377.104 69.1593 376.84 69.2296 376.594C69.3614 376.014 69.4756 375.417 69.5723 374.837C70.3668 375.154 71.2055 375.347 72.0589 375.408C72.4446 375.407 72.8256 375.322 73.1748 375.158C73.5239 374.994 73.8329 374.755 74.0798 374.459C74.1822 374.314 74.2529 374.148 74.2872 373.974C74.3215 373.8 74.3187 373.62 74.2789 373.447C74.2391 373.273 74.1633 373.11 74.0563 372.968C73.9493 372.826 73.8136 372.709 73.658 372.623C72.7003 372.131 71.022 373.036 70.3191 373.712C70.3191 373.756 69.8446 374.292 69.6074 374.591C69.6689 374.231 69.7304 373.87 69.7743 373.501C69.9061 372.438 70.0028 371.357 70.1082 370.285L70.2137 369.301C71.0344 369.627 71.8992 369.828 72.7794 369.899C73.1644 369.899 73.5449 369.815 73.8941 369.653C74.2432 369.49 74.5526 369.253 74.8003 368.959C74.9029 368.813 74.9737 368.647 75.0081 368.472C75.0424 368.296 75.0397 368.116 74.9999 367.942C74.9601 367.768 74.8843 367.605 74.7772 367.462C74.6702 367.319 74.5344 367.2 74.3785 367.113C73.4208 366.621 71.7425 367.526 71.0396 368.203C70.9869 368.256 70.363 369.029 70.2225 369.24C70.2928 368.51 70.3806 367.79 70.4861 367.087C70.6551 366.154 70.884 365.232 71.1714 364.328C71.9991 364.653 72.869 364.857 73.7547 364.934C74.1405 364.934 74.5214 364.848 74.8706 364.684C75.2198 364.52 75.5287 364.282 75.7756 363.985C75.8777 363.839 75.9479 363.674 75.9816 363.499C76.0152 363.324 76.0116 363.144 75.971 362.971C75.9303 362.798 75.8536 362.635 75.7457 362.493C75.6379 362.351 75.5013 362.234 75.3451 362.149C74.3961 361.657 72.7091 362.562 72.0061 363.238C71.9534 363.291 71.2856 364.117 71.1802 364.284C71.1802 364.231 71.1802 364.179 71.2241 364.126C71.5126 363.2 71.8862 362.303 72.34 361.446C72.5861 360.972 72.8409 360.523 73.1045 360.102C73.8734 360.515 74.6997 360.811 75.5559 360.98C75.9387 361.022 76.3259 360.978 76.6902 360.854C77.0545 360.729 77.3872 360.527 77.6647 360.26C77.7824 360.127 77.8706 359.97 77.9237 359.8C77.9768 359.631 77.9935 359.452 77.9728 359.275C77.9521 359.098 77.8944 358.928 77.8034 358.775C77.7125 358.623 77.5904 358.491 77.4451 358.388C76.5664 357.791 74.7564 358.502 74.0095 359.1L73.3154 359.785C73.4384 359.601 73.5614 359.399 73.6844 359.223C74.1325 358.546 74.563 357.958 74.9848 357.466C75.222 357.176 75.4329 356.912 75.6438 356.675C76.5071 356.684 77.3666 356.559 78.1919 356.306C78.5471 356.158 78.8656 355.935 79.1252 355.651C79.3847 355.367 79.579 355.03 79.6944 354.663C79.7381 354.49 79.7446 354.309 79.7135 354.133C79.6824 353.957 79.6144 353.79 79.514 353.642C79.4135 353.494 79.2829 353.369 79.1308 353.276C78.9787 353.182 78.8084 353.122 78.6312 353.099C77.5681 352.985 76.3028 354.443 75.9162 355.322C75.9162 355.401 75.4856 356.64 75.512 356.64L74.8706 357.387C74.4576 357.905 73.9919 358.485 73.5262 359.144C73.0178 359.857 72.5513 360.599 72.1292 361.367C71.6505 362.225 71.2505 363.125 70.9342 364.056C70.9342 363.739 70.9342 362.861 70.9342 362.799C70.8112 361.85 70.0555 360.084 68.9572 359.891C68.7814 359.863 68.6017 359.873 68.43 359.92C68.2584 359.967 68.0985 360.049 67.9608 360.162C67.8232 360.275 67.7109 360.416 67.6312 360.575C67.5516 360.734 67.5064 360.908 67.4986 361.086C67.5137 361.474 67.6145 361.854 67.7937 362.199C67.973 362.544 68.2263 362.845 68.5354 363.08C69.2761 363.563 70.0845 363.934 70.9342 364.179C70.634 365.131 70.3992 366.103 70.2313 367.087C70.1258 367.658 70.0467 368.238 69.9676 368.844C69.9676 368.572 69.9676 368.326 69.9676 368.291C69.8446 367.342 69.089 365.585 67.9995 365.391C67.8232 365.364 67.6431 365.374 67.4709 365.421C67.2988 365.467 67.1383 365.55 67 365.662C66.8617 365.775 66.7486 365.915 66.668 366.075C66.5873 366.234 66.5411 366.408 66.5321 366.586C66.5476 366.97 66.6469 367.346 66.823 367.687C66.999 368.029 67.2476 368.328 67.5513 368.563C68.2577 369.019 69.0275 369.369 69.8359 369.6L69.7568 370.268C69.625 371.349 69.502 372.42 69.3438 373.466C69.2911 373.835 69.2296 374.204 69.1593 374.564C69.1593 374.327 69.1593 374.116 69.1593 374.09C69.0363 373.141 68.2806 371.375 67.1823 371.182C67.0065 371.154 66.8268 371.164 66.6552 371.211C66.4835 371.258 66.3236 371.34 66.1859 371.453C66.0483 371.566 65.936 371.706 65.8563 371.866C65.7767 372.025 65.7315 372.199 65.7237 372.377C65.7383 372.769 65.8406 373.154 66.023 373.502C66.2055 373.85 66.4635 374.153 66.7781 374.389C67.4738 374.851 68.235 375.207 69.0363 375.443C68.9572 375.812 68.8869 376.181 68.7902 376.533C68.6936 376.884 68.676 377.016 68.5882 377.253C68.5003 377.49 68.4388 377.719 68.3597 377.956C68.2015 378.395 68.0346 378.835 67.8677 379.283C67.7007 379.731 67.6392 379.863 67.525 380.161C67.5865 379.801 67.6831 379.072 67.6831 379.01C67.6718 378.17 67.4449 377.348 67.0241 376.62C67.0331 376.527 67.0331 376.433 67.0241 376.339C67.0005 376.163 66.9403 375.993 66.8474 375.841C66.7546 375.689 66.631 375.558 66.4847 375.456C66.3384 375.355 66.1725 375.284 65.9976 375.25C65.8227 375.216 65.6427 375.219 65.4689 375.259C64.4409 375.54 63.7819 377.359 63.7116 378.316C63.7116 378.369 63.7116 378.984 63.7731 379.371C63.7731 379.142 63.6764 378.923 63.6237 378.694C63.5095 378.237 63.3865 377.815 63.2635 377.297C63.1932 377.06 63.1229 376.823 63.0438 376.585C62.9647 376.348 62.8769 376.102 62.7978 375.865C62.5957 375.303 62.3584 374.74 62.1036 374.187C62.9413 374.02 63.7477 373.724 64.4936 373.308C64.8135 373.086 65.0802 372.796 65.2747 372.459C65.4692 372.121 65.5865 371.745 65.6183 371.357C65.6239 371.179 65.5917 371.001 65.5238 370.836C65.4559 370.671 65.3539 370.523 65.2245 370.4C65.095 370.277 64.9411 370.183 64.7727 370.124C64.6043 370.065 64.4254 370.042 64.2476 370.057C63.1844 370.171 62.253 371.867 62.0597 372.807C62.0597 372.86 61.9894 373.554 61.963 373.932C61.8049 373.598 61.6555 373.264 61.4886 372.93C61.0141 371.972 60.5045 371.015 59.9948 370.057C59.8455 369.767 59.6873 369.477 59.5379 369.178C60.4041 369.014 61.2398 368.718 62.0158 368.3C62.3368 368.086 62.607 367.804 62.8074 367.475C63.0078 367.146 63.1335 366.776 63.1756 366.393C63.1813 366.215 63.1492 366.038 63.0812 365.873C63.0133 365.708 62.9111 365.56 62.7815 365.438C62.6519 365.316 62.4978 365.223 62.3294 365.165C62.161 365.107 61.9822 365.085 61.8049 365.101C60.7417 365.215 59.8191 366.911 59.6258 367.851C59.6258 367.922 59.5204 368.906 59.5116 369.161C59.1777 368.519 58.8438 367.869 58.5451 367.219C58.1433 366.341 57.7942 365.44 57.4995 364.521C58.3722 364.339 59.2131 364.028 59.9948 363.599C60.3159 363.385 60.5861 363.104 60.7865 362.774C60.9869 362.445 61.1126 362.075 61.1547 361.692C61.1635 361.509 61.1324 361.326 61.0636 361.156C60.9948 360.986 60.8899 360.834 60.7562 360.708C60.6225 360.583 60.4632 360.488 60.2893 360.43C60.1153 360.373 59.9309 360.353 59.7488 360.374C58.6856 360.497 57.763 362.193 57.5697 363.133C57.5697 363.203 57.4555 364.267 57.4555 364.46C57.434 364.408 57.4164 364.356 57.4028 364.302C57.1323 363.369 56.95 362.413 56.858 361.446C56.7965 360.919 56.7702 360.4 56.7526 359.908C57.6203 359.826 58.4705 359.613 59.2743 359.276C59.6157 359.1 59.9144 358.851 60.1496 358.548C60.3849 358.244 60.551 357.893 60.6363 357.518C60.6611 357.342 60.6483 357.162 60.5987 356.991C60.5491 356.819 60.4639 356.66 60.3485 356.524C60.2332 356.388 60.0904 356.278 59.9295 356.201C59.7686 356.124 59.5933 356.082 59.4149 356.077C58.343 356.077 57.2446 357.659 56.9459 358.573C56.9459 358.617 56.8229 359.144 56.7526 359.522C56.7526 359.293 56.7526 359.065 56.7526 358.845C56.7526 358.037 56.8053 357.299 56.858 356.64C56.858 356.262 56.9283 355.928 56.9635 355.612C57.6918 355.143 58.3438 354.565 58.8965 353.898C59.1191 353.583 59.2699 353.223 59.3382 352.844C59.4065 352.464 59.3907 352.074 59.2919 351.702C59.2335 351.532 59.1393 351.376 59.0157 351.246C58.8921 351.115 58.7419 351.013 58.5754 350.946C58.4088 350.878 58.2297 350.847 58.0502 350.855C57.8706 350.862 57.6948 350.909 57.5346 350.99C56.5769 351.482 56.3308 353.397 56.489 354.338C56.489 354.426 56.858 355.673 56.8756 355.664C56.8317 355.972 56.7965 356.297 56.7526 356.649C56.6911 357.308 56.6208 358.046 56.6032 358.863C56.5764 359.742 56.5969 360.622 56.6647 361.499C56.7431 362.478 56.9078 363.448 57.1568 364.398C56.9898 364.135 56.489 363.405 56.4451 363.361C55.8212 362.632 54.1869 361.604 53.194 362.026C53.0328 362.101 52.889 362.208 52.7719 362.342C52.6548 362.476 52.5669 362.632 52.5139 362.802C52.461 362.972 52.4441 363.151 52.4644 363.327C52.4846 363.504 52.5416 363.674 52.6317 363.827C52.8658 364.146 53.1677 364.409 53.5156 364.598C53.8635 364.786 54.2488 364.895 54.6438 364.917Z" fill="#828282"/>
<path d="M73.0167 359.882C73.0167 359.882 73.3593 358.634 73.3769 358.555C73.5087 357.606 73.2012 355.691 72.2347 355.225C72.0708 355.146 71.8918 355.104 71.71 355.1C71.5281 355.096 71.3477 355.132 71.1809 355.205C71.0141 355.277 70.8649 355.385 70.7435 355.52C70.6221 355.656 70.5313 355.816 70.4773 355.99C70.3921 356.366 70.3888 356.756 70.4677 357.133C70.5465 357.511 70.7056 357.867 70.9342 358.177C71.5402 358.846 72.242 359.42 73.0167 359.882Z" fill="#828282"/>
<path d="M249.689 375.127C249.488 375.073 249.276 375.081 249.08 375.15C248.884 375.219 248.713 375.345 248.591 375.513C247.352 377.2 243.661 382.007 240.753 383.782C237.238 385.943 231.501 387.718 231.088 389.493C230.998 389.858 230.99 390.238 231.064 390.607C231.139 390.975 231.295 391.322 231.52 391.623C231.745 391.924 232.035 392.172 232.367 392.347C232.7 392.523 233.067 392.622 233.443 392.639C234.822 392.639 240.138 393.623 247.035 393.034C253.933 392.445 257.272 390.477 261.402 391.277C265.531 392.076 268.888 392.269 270.461 389.519C271.743 387.27 271.199 379.274 270.953 376.392C270.941 376.255 270.903 376.121 270.84 375.998C270.777 375.875 270.691 375.766 270.585 375.677C270.48 375.588 270.358 375.521 270.226 375.479C270.095 375.438 269.956 375.422 269.819 375.434C266.34 375.698 254.908 376.515 249.689 375.127Z" fill="white" stroke="#263238" stroke-width="0.878661" stroke-linecap="round" stroke-linejoin="round"/>
<path d="M261.428 391.259C265.567 392.05 268.914 392.252 270.487 389.502C270.658 389.177 270.788 388.831 270.874 388.474C270.917 388.295 270.912 388.107 270.86 387.931C270.808 387.754 270.71 387.594 270.576 387.468C270.443 387.341 270.278 387.252 270.099 387.21C269.919 387.167 269.732 387.173 269.556 387.226C265.933 388.132 262.209 388.566 258.476 388.518C253.362 388.518 252.571 389.106 243.319 390.679C239.29 391.423 235.161 391.45 231.123 390.758C231.258 391.284 231.559 391.753 231.982 392.093C232.405 392.434 232.926 392.628 233.469 392.647C234.849 392.647 240.164 393.631 247.062 393.043C253.959 392.454 257.298 390.477 261.428 391.259Z" fill="white" stroke="#263238" stroke-width="0.878661" stroke-linecap="round" stroke-linejoin="round"/>
<path d="M271.726 375.54C271.491 375.474 271.24 375.492 271.017 375.591C270.794 375.691 270.613 375.865 270.505 376.085C269.406 378.264 266.111 384.476 263.396 386.734C260.049 389.493 253.951 390.872 253.731 393.623C253.511 396.373 256.49 396.777 257.87 396.777C259.249 396.777 268.308 398.156 273.422 396.777C278.536 395.398 281.892 395.986 284.449 395.397C287.006 394.809 292.128 394.809 293.306 393.034C294.281 391.575 293.376 384.247 293.034 381.682C292.998 381.447 292.882 381.231 292.706 381.071C292.53 380.911 292.304 380.816 292.067 380.803C289.782 380.645 283.43 380.091 279.924 378.492C277.267 377.31 274.527 376.323 271.726 375.54Z" fill="white" stroke="#263238" stroke-width="0.878661" stroke-linecap="round" stroke-linejoin="round"/>
<path d="M293.323 393.034C293.728 392.436 293.807 390.846 293.745 389.001C292.447 389.209 291.175 389.554 289.949 390.029C283.342 392.524 275.697 395.028 266.006 394.879C259.521 394.782 255.682 393.833 253.836 393.21C253.798 393.345 253.769 393.483 253.749 393.623C253.555 396.382 256.508 396.777 257.887 396.777C259.267 396.777 268.326 398.156 273.439 396.777C278.553 395.397 281.91 395.986 284.467 395.397C287.023 394.809 292.146 394.809 293.323 393.034Z" fill="white" stroke="#263238" stroke-width="0.878661" stroke-linecap="round" stroke-linejoin="round"/>
<path d="M239.576 244.496C239.576 244.496 238.196 290.371 240.56 303.762C242.923 317.153 245.48 348.574 246.271 352.282C246.895 355.234 248.248 361.508 248.793 364.012C248.85 364.272 248.805 364.545 248.668 364.773C248.531 365.002 248.311 365.17 248.055 365.242C247.453 365.405 246.926 365.772 246.564 366.28C246.202 366.787 246.027 367.405 246.069 368.027C246.069 370.496 246.482 374.608 246.623 375.935C246.637 376.083 246.683 376.226 246.757 376.355C246.832 376.484 246.932 376.595 247.053 376.682C247.747 377.183 249.592 378.255 254.346 379.88C258.283 381.266 262.549 381.422 266.577 380.328C266.685 380.297 266.786 380.246 266.876 380.179C267.473 379.749 270.056 377.956 271.269 378.308C272.64 378.694 277.762 381.655 283.474 382.833C289.185 384.01 292.919 384.01 293.139 383.026C293.975 379.348 294.306 375.573 294.123 371.805C293.728 366.692 293.534 367.869 293.139 363.537C292.743 359.205 294.896 330.377 293.332 319.156C291.768 307.936 289.598 306.161 289.202 298.279C288.807 290.398 291.715 243.512 291.715 243.512C291.715 243.512 272.227 246.86 264.547 245.085C256.868 243.31 253.52 239.18 248.397 238.592C243.275 238.003 239.576 244.496 239.576 244.496Z" fill="#263238" stroke="#263238" stroke-width="0.878661" stroke-linecap="round" stroke-linejoin="round"/>
<path d="M245.401 141.746C245.401 141.746 237.493 143.397 235.481 146.877C233.469 150.356 230.016 167.086 230.016 167.086L221.229 186.109L232.968 201.495L236.94 197.031L239.092 225.315L236.456 244.997L242.414 248.969L246.552 241.526L248.204 249.795C255.99 252.818 264.412 253.83 272.692 252.738C286.426 250.919 295.028 244.303 295.028 244.303C295.028 244.303 295.353 221.809 295.52 221.308C295.687 220.808 297.172 196.003 297.172 196.003C297.172 196.003 291.021 151.833 290.064 147.677C289.106 143.52 289.73 142.879 286.426 141.526C283.122 140.173 268.853 135.375 268.853 135.375C268.853 135.375 258.309 134.716 255.673 135.551C253.037 136.386 245.401 141.746 245.401 141.746Z" fill="#FF3B3B" stroke="#263238" stroke-width="0.878661" stroke-linecap="round" stroke-linejoin="round"/>
<path d="M216.801 189.975C217.219 189.02 217.89 188.196 218.742 187.594C219.937 186.953 219.718 182.085 224.146 183.385C228.575 184.686 235.068 197.215 235.279 199.272C235.49 201.328 234.093 202.4 233.442 203.269C232.392 205.055 231.199 206.754 229.875 208.348C228.118 210.185 227.714 212.126 225.552 211.046C223.391 209.965 221.554 205 219.182 198.744C216.809 192.488 216.801 189.975 216.801 189.975Z" fill="#FF3B3B" stroke="#263238" stroke-width="0.878661" stroke-linecap="round" stroke-linejoin="round"/>
<path d="M240.112 146.086C240.112 146.086 238.987 152.834 239.866 152.711C240.744 152.588 244.11 150.075 244.259 149.337C244.408 148.599 240.112 146.086 240.112 146.086Z" fill="#FF3B3B" stroke="#263238" stroke-width="0.878661" stroke-linecap="round" stroke-linejoin="round"/>
<path d="M244.364 140.832C244.364 140.832 239.734 145.462 240.112 146.104C240.49 146.745 247.361 153.599 247.361 153.599C247.361 153.599 248.617 147.351 248.116 144.601C247.616 141.851 244.364 140.832 244.364 140.832Z" fill="#FF3B3B" stroke="#263238" stroke-width="0.878661" stroke-linecap="round" stroke-linejoin="round"/>
<path d="M235.112 99.4556C235.112 99.4556 231.36 108.075 231.597 109.833C231.835 111.59 232.845 114.832 232.476 115.702C232.107 116.572 227.477 120.21 227.6 121.079C227.723 121.949 230.35 124.594 230.35 124.594C230.35 124.594 232.353 135.718 233.223 137.344C234.093 138.969 240.252 137.089 240.252 137.089C240.252 137.089 244.382 141.719 244.505 142.844C244.628 143.969 247.633 158.721 248.134 157.219C248.635 155.716 254.003 144.838 254.003 144.838C254.003 144.838 264.741 134.207 264.477 133.583C264.213 132.959 259.609 126.079 259.609 125.077C259.609 124.076 266.981 112.829 266.735 108.708C266.489 104.587 263.484 97.2063 258.827 94.5791C254.17 91.9519 247.703 89.4477 240.823 91.205C233.943 92.9623 233.61 95.7038 235.112 99.4556Z" fill="white" stroke="#263238" stroke-width="0.878661" stroke-linecap="round" stroke-linejoin="round"/>
<path d="M240.235 137.089L244.487 142.835L246.174 134.233L240.235 137.089Z" fill="#263238" stroke="#263238" stroke-width="0.878661" stroke-linecap="round" stroke-linejoin="round"/>
<path d="M248.116 133.24C248.863 131.869 249.61 113.119 250.234 112.152C250.858 111.186 253.617 111.774 254.364 114.788C255.111 117.802 252.114 121.659 252.114 122.037C253.005 123.488 254.312 124.637 255.866 125.332C257.116 125.612 258.415 125.588 259.653 125.262C259.647 125.201 259.647 125.139 259.653 125.077C259.653 124.251 264.741 116.291 266.322 111.318C262.982 108.623 259.459 106.163 255.778 103.954C249.144 99.8247 245.902 101.318 245.902 101.318C245.902 101.318 241.149 105.448 242.15 106.942C243.152 108.436 247.027 111.572 247.027 111.572C247.027 111.572 245.902 124.322 245.401 125.069C245.031 125.577 244.562 126.004 244.022 126.325C244.022 126.325 241.772 121.932 240.024 121.932C238.275 121.932 230.359 124.568 230.359 124.568C230.359 124.568 232.362 135.692 233.232 137.317C234.102 138.943 240.261 137.062 240.261 137.062C240.261 137.062 247.361 134.584 248.116 133.24Z" fill="#808080" stroke="#263238" stroke-width="0.878661" stroke-linecap="round" stroke-linejoin="round"/>
<path d="M258.862 94.5791C254.241 91.9431 247.739 89.4477 240.859 91.205C233.979 92.9623 233.61 95.7037 235.112 99.4556C236.63 100.446 238.329 101.124 240.112 101.45C246.314 102.341 252.198 104.756 257.237 108.479L265.145 114.235C266.12 112.056 266.805 110.035 266.726 108.734C266.489 104.578 263.493 97.215 258.862 94.5791Z" fill="#263238" stroke="#263238" stroke-width="0.878661" stroke-linecap="round" stroke-linejoin="round"/>
<path d="M236.36 115.579C236.36 116.344 236.026 116.959 235.613 116.959C235.2 116.959 234.857 116.344 234.857 115.579C234.857 114.815 235.2 114.208 235.613 114.208C236.026 114.208 236.36 114.788 236.36 115.579Z" fill="#263238"/>
<path d="M233.724 112.205C233.724 112.205 235.349 109.701 238.117 112.451" stroke="#263238" stroke-width="0.878661" stroke-linecap="round" stroke-linejoin="round"/>
<path d="M233.987 126.835C233.987 126.835 238.486 126.958 240.138 123.953" stroke="#263238" stroke-width="0.878661" stroke-linecap="round" stroke-linejoin="round"/>
<path d="M249.61 145.331L253.485 152.834C253.485 152.834 261.112 145.708 263.361 143.081C265.323 140.634 267.158 138.088 268.861 135.454C268.861 135.454 265.118 131.94 263.994 131.579C262.869 131.219 262.614 132.08 261.99 132.836C261.366 133.592 249.61 145.331 249.61 145.331Z" fill="#FF3B3B" stroke="#263238" stroke-width="0.878661" stroke-linecap="round" stroke-linejoin="round"/>
<path d="M289.405 207.048C289.405 207.048 283.939 236.325 283.614 237.977C283.289 239.628 283.113 240.788 282.454 241.122C281.795 241.456 278.149 242.616 277.657 243.6C277.165 244.584 274.678 252.044 273.852 253.529C273.026 255.014 275.012 255.348 275.838 255.014C276.472 254.69 277.034 254.242 277.49 253.696C277.49 253.696 276.664 260.312 277.323 260.479C278.311 260.626 279.318 260.386 280.135 259.811C281.128 259.152 281.295 258.66 281.795 258.326C282.296 257.992 284.607 257.826 285.6 257.167C286.593 256.508 287.744 255.348 288.236 255.181C288.781 255.081 289.276 254.797 289.637 254.376C289.998 253.956 290.205 253.424 290.222 252.87C290.547 250.884 291.215 242.115 291.54 241.289C291.865 240.463 305.106 210.36 305.106 210.36L289.405 207.048Z" fill="white" stroke="#263238" stroke-width="0.878661" stroke-linecap="round" stroke-linejoin="round"/>
<path d="M285.433 145.717C285.433 145.717 276.172 156.63 277.165 163.747C278.157 170.864 288.411 189.879 288.411 189.879C288.411 189.879 286.751 194.351 287.585 195.502C288.32 196.764 288.929 198.094 289.404 199.474L305.941 203.612C305.941 203.612 308.26 202.452 307.927 197.462C307.672 194.025 306.948 190.64 305.774 187.401C305.449 186.575 296.346 153.133 293.367 148.028C290.388 142.923 287.911 142.756 287.216 142.756" fill="#FF3B3B"/>
<path d="M285.433 145.717C285.433 145.717 276.172 156.63 277.165 163.747C278.157 170.864 288.411 189.879 288.411 189.879C288.411 189.879 286.751 194.351 287.585 195.502C288.32 196.764 288.929 198.094 289.404 199.474L305.941 203.612C305.941 203.612 308.26 202.452 307.927 197.462C307.672 194.025 306.948 190.64 305.774 187.401C305.449 186.575 296.346 153.133 293.367 148.028C290.388 142.923 287.911 142.756 287.216 142.756" stroke="#263238" stroke-width="0.878661" stroke-linecap="round" stroke-linejoin="round"/>
<path d="M290.23 197.655C290.23 197.655 290.555 197.488 289.404 199.474C288.253 201.459 287.911 208.076 288.411 208.735C288.912 209.394 303.63 213.699 304.948 213.207C306.266 212.715 307.101 209.236 308.093 205.756C309.086 202.277 310.079 202.118 306.442 199.974C302.804 197.831 291.381 197.321 290.23 197.655Z" fill="#FF3B3B" stroke="#263238" stroke-width="0.878661" stroke-linecap="round" stroke-linejoin="round"/>
<path d="M256.481 273.36C258.239 286.804 261.208 309.016 262.017 312.821C263.856 320.027 266.091 327.125 268.712 334.085C269.591 336.035 270.979 365.558 271.234 370.725C271.244 370.949 271.182 371.17 271.057 371.357C270.932 371.543 270.751 371.685 270.54 371.762C270.193 371.859 269.886 372.065 269.664 372.35C269.443 372.635 269.319 372.983 269.31 373.343C269.31 374.925 269.108 378.272 269.108 378.272" stroke="white" stroke-width="0.878661" stroke-linecap="round" stroke-linejoin="round"/>
<path d="M255.128 263.01C255.128 263.01 255.462 265.602 256.007 269.617" stroke="white" stroke-width="0.878661" stroke-linecap="round" stroke-linejoin="round"/>
<path d="M199.728 179.598C199.728 179.598 205.449 184.141 209.455 185.977C213.462 187.814 215.72 188.244 220.588 193.112C225.456 197.98 228.689 206.723 227.503 208.928C226.317 211.133 224.472 211.74 221.018 210.334C217.565 208.928 212.908 209.903 207.505 202.769C202.101 195.634 191.618 185.591 191.618 185.591L199.728 179.598Z" fill="white" stroke="#263238" stroke-width="0.878661" stroke-linecap="round" stroke-linejoin="round"/>
<path d="M234.971 178.096C236.14 183.526 237.326 190.836 236.966 196.996" stroke="#263238" stroke-width="0.878661" stroke-linecap="round" stroke-linejoin="round"/>
<path d="M232.995 170.197C232.995 170.197 233.399 171.541 233.952 173.711" stroke="#263238" stroke-width="0.878661" stroke-linecap="round" stroke-linejoin="round"/>
<path d="M247.062 232.599C246.842 234.796 246.667 236.184 246.667 236.184" stroke="#263238" stroke-width="0.878661" stroke-linecap="round" stroke-linejoin="round"/>
<path d="M247.941 184.897C248.064 186.742 248.222 188.455 248.424 189.923C249.68 198.973 247.923 208.779 247.923 217.574C247.923 221.264 247.703 225.122 247.44 228.373" stroke="#263238" stroke-width="0.878661" stroke-linecap="round" stroke-linejoin="round"/>
<path d="M247.668 162.236C247.668 162.236 247.431 170.935 247.668 179.335" stroke="#263238" stroke-width="0.878661" stroke-linecap="round" stroke-linejoin="round"/>
<path d="M156.516 373.818C156.516 373.818 166.77 381.453 169.933 382.947C173.096 384.441 179.062 385.583 178.878 387.973C178.693 390.363 173.474 391.707 165.276 391.487C157.078 391.268 153.537 390.556 147.949 390.003C142.361 389.449 138.073 392.234 135.279 390.003C132.484 387.771 135.648 374.907 135.648 374.907L156.516 373.818Z" fill="white" stroke="#263238" stroke-width="0.878661" stroke-linecap="round" stroke-linejoin="round"/>
<path d="M145.524 388.166C141.666 388.045 137.834 387.488 134.101 386.505C134.18 388.122 134.506 389.44 135.235 390.02C138.029 392.252 142.317 389.458 147.905 390.02C153.493 390.582 157.034 391.321 165.232 391.505C173.43 391.69 178.649 390.389 178.834 387.99C174.159 388.669 169.438 388.983 164.714 388.931C155.962 388.931 152.237 388.351 145.524 388.166Z" fill="white" stroke="#263238" stroke-width="0.878661" stroke-linecap="round" stroke-linejoin="round"/>
<path d="M138.073 375.68C138.073 375.68 140.867 379.195 147.58 383.878C154.293 388.562 158.756 388.72 159.31 390.96C159.864 393.201 159.31 395.433 157.263 395.802C155.215 396.171 132.115 395.617 125.402 395.055C118.69 394.492 114.779 394.686 114.226 392.638C113.672 390.591 114.041 384.247 114.041 384.247C117.512 382.395 120.871 380.341 124.102 378.097C130.437 373.818 138.073 375.68 138.073 375.68Z" fill="white" stroke="#263238" stroke-width="0.878661" stroke-linecap="round" stroke-linejoin="round"/>
<path d="M151.49 393.57C144.821 393.57 121.615 392.015 114.041 391.496C114.074 391.881 114.135 392.263 114.226 392.639C114.779 394.686 118.698 394.501 125.402 395.055C132.107 395.608 155.215 396.18 157.263 395.802C157.876 395.68 158.429 395.352 158.83 394.872C159.231 394.393 159.456 393.791 159.468 393.166C156.817 393.435 154.154 393.57 151.49 393.57Z" fill="white" stroke="#263238" stroke-width="0.878661" stroke-linecap="round" stroke-linejoin="round"/>
<path d="M111.59 243.389C111.245 255.408 111.868 267.434 113.453 279.353C116.089 298.174 115.315 314.569 115.5 317.733C115.684 320.896 112.337 333.759 111.774 347.546C111.212 361.332 112.89 382.762 112.89 383.878C112.89 384.994 113.453 387.235 114.568 387.235C115.684 387.235 125.754 382.016 125.754 382.016L138.231 377.728C141.536 377.693 144.835 377.443 148.107 376.981C153.142 376.243 156.305 374.564 156.489 373.818C156.832 372.167 156.57 370.449 155.751 368.976C154.627 367.113 153.115 368.976 154.627 363.757C156.138 358.538 163.413 324.63 163.018 311.397C162.622 298.165 168.791 265.004 168.791 257.922C168.791 250.84 169.458 242.836 169.458 242.836L168.791 237.238C168.791 237.238 154.258 244.136 138.793 243.574C129.585 243.266 120.477 241.572 111.774 238.548L111.59 243.389Z" fill="#263238" stroke="#263238" stroke-width="0.878661" stroke-linecap="round" stroke-linejoin="round"/>
<path d="M138.89 365.593C138.982 368.035 139.208 370.469 139.566 372.886L140.867 377.174" stroke="white" stroke-width="0.878661" stroke-linecap="round" stroke-linejoin="round"/>
<path d="M155.4 261.648L148.88 266.867C148.88 266.867 148.318 291.839 144.777 305.247C141.236 318.655 138.626 342.704 138.626 355.181C138.626 356.341 138.626 357.439 138.626 358.476" stroke="white" stroke-width="0.878661" stroke-linecap="round" stroke-linejoin="round"/>
<path d="M132.291 133.539C132.291 133.539 116.853 141.508 113.198 144.961C109.543 148.415 106.722 159.635 106.889 172.745C107.174 182.359 108.008 191.949 109.385 201.468L110.878 244.804C110.878 244.804 129.805 250.612 143.389 250.278C151.52 250.094 159.553 248.464 167.113 245.463C167.113 245.463 169.441 244.47 169.441 242.827C169.441 241.184 168.94 224.234 169.599 217.926C170.258 211.617 168.272 170.381 165.285 160.259C163.771 154.808 161.711 149.524 159.134 144.487C157.974 141.851 159.468 142.326 151.332 137.51C143.195 132.695 137.273 131.544 132.291 133.539Z" fill="#FF3B3B" stroke="#263238" stroke-width="0.878661" stroke-linecap="round" stroke-linejoin="round"/>
<path d="M156.033 146.649C156.033 146.649 156.2 145.155 157.192 145.322C158.185 145.489 163.668 150.805 162.842 148.836C162.016 146.868 158.686 140.199 156.2 138.213C153.713 136.228 153.212 136.878 153.212 138.38C153.212 139.883 156.033 146.649 156.033 146.649Z" fill="white" stroke="#263238" stroke-width="0.878661" stroke-linecap="round" stroke-linejoin="round"/>
<path d="M160.347 129.884L154.706 138.512C154.706 138.512 157.193 152.79 155.365 152.79C153.537 152.79 152.211 146.482 151.552 145.656C150.893 144.83 135.78 128.082 135.78 128.082L140.928 113.47C140.928 113.47 144.742 112.143 147.404 116.458C150.067 120.772 160.347 129.884 160.347 129.884Z" fill="white" stroke="#263238" stroke-width="0.878661" stroke-linecap="round" stroke-linejoin="round"/>
<path d="M147.94 127.995L155.453 136.799L159.108 131.641L147.51 124.981L147.94 127.995Z" fill="#263238" stroke="#263238" stroke-width="0.878661" stroke-linecap="round" stroke-linejoin="round"/>
<path d="M136.439 125.895C136.439 125.895 149.557 140.832 150.559 142C151.56 143.169 153.713 144.821 152.878 145.823C152.044 146.824 145.076 154.126 145.076 154.126C145.076 154.126 137.774 148.81 134.286 142.334C130.798 135.859 130.464 134.866 130.464 134.866C130.464 134.866 132.458 127.09 136.439 125.895Z" fill="white" stroke="#263238" stroke-width="0.878661" stroke-linecap="round" stroke-linejoin="round"/>
<path d="M167.104 97.3205C167.104 97.3205 169.625 97.3205 169.309 93.5422C168.993 89.764 165.531 86.2933 165.056 87.0841C164.582 87.8749 166.164 90.3879 164.116 89.1314C162.069 87.8749 160.962 84.7381 158.765 85.0368C156.569 85.3355 156.243 87.5586 155.769 88.0243C155.295 88.4899 146.64 86.2669 140.34 88.1824C134.04 90.0979 130.578 96.969 131.202 99.8422C131.825 102.715 134.98 112.433 136.869 115.43C138.758 118.426 139.074 119.208 141.438 119.823C143.802 120.438 146.165 121.712 147.896 116.985C149.627 112.258 148.213 111.95 150.884 110.369C153.555 108.787 157.034 108.321 156.718 104.385C156.402 100.449 157.184 99.9916 158.475 99.5084C159.767 99.0251 166.322 98.7351 167.104 97.3205Z" fill="#263238" stroke="#263238" stroke-width="0.878661" stroke-linecap="round" stroke-linejoin="round"/>
<path d="M167.104 97.3205C167.104 97.3205 171.673 108.972 170.891 110.079C170.261 110.908 169.577 111.695 168.843 112.433C168.843 112.433 172.78 119.05 171.356 120.623C170.479 121.594 169.474 122.443 168.369 123.144C168.369 123.144 166.612 132.59 164.749 133.688C162.886 134.787 162.069 136.052 157.816 133.688C153.564 131.325 148.529 129.295 146.64 127.388C144.751 125.482 143.802 120.456 143.802 120.456C143.802 120.456 139.549 119.357 138.292 115.421C137.036 111.485 139.074 108.488 140.928 108.963C142.782 109.437 143.925 111.959 144.557 113.215C145.19 114.472 147.07 114.788 147.387 113.848C147.703 112.908 145.339 110.07 146.446 108.488C147.553 106.907 151.797 106.599 152.746 104.868C153.695 103.137 150.699 102.346 150.699 102.346C150.699 102.346 152.746 101.564 152.114 100.932C151.481 100.299 148.019 100.615 148.81 98.7263C149.601 96.8372 154.477 95.8971 158.73 96.5209C162.983 97.1448 167.104 97.3205 167.104 97.3205Z" fill="white" stroke="#263238" stroke-width="0.878661" stroke-linecap="round" stroke-linejoin="round"/>
<path d="M164.433 112.908C164.433 113.787 163.976 114.481 163.405 114.481C162.833 114.481 162.385 113.778 162.385 112.908C162.385 112.038 162.842 111.335 163.405 111.335C163.967 111.335 164.433 112.038 164.433 112.908Z" fill="#263238"/>
<path d="M160.338 109.13C161.208 108.573 162.219 108.277 163.251 108.277C164.283 108.277 165.294 108.573 166.164 109.13" stroke="#263238" stroke-width="0.878661" stroke-linecap="round" stroke-linejoin="round"/>
<path d="M164.116 123.935C163.095 123.803 162.135 123.375 161.354 122.704C160.573 122.032 160.006 121.147 159.723 120.157" stroke="#263238" stroke-width="0.878661" stroke-linecap="round" stroke-linejoin="round"/>
<path d="M113.945 148.608C113.945 148.608 105.923 162.183 106.915 172.771C107.908 183.359 144.417 220.843 145.577 219.665C146.736 218.488 204.131 178.219 204.131 178.219C204.131 178.219 208.779 176.128 209.183 174.414C209.587 172.701 209.183 171.998 209.183 170.987C209.183 169.977 209.78 168.773 209.578 167.473C209.376 166.172 208.577 165.865 207.865 165.056C207.153 164.248 207.469 163.844 207.364 162.333C207.259 160.821 206.257 160.821 204.851 160.022C203.445 159.222 202.628 158.713 202.03 158.405C201.433 158.097 202.426 158.001 200.616 158.308C198.534 158.781 196.38 158.849 194.272 158.51C192.058 158.001 191.451 160.32 191.249 161.533C191.049 162.459 190.981 163.409 191.047 164.354C191.144 165.056 191.249 172.209 190.845 172.912C190.441 173.615 184.598 179.458 174.151 183.693C163.703 187.928 150.383 193.762 150.383 193.762C150.383 193.762 144.434 183.79 142.624 179.66C140.814 175.53 131.14 161.208 130.841 160.971" fill="#FF3B3B"/>
<path d="M113.945 148.608C113.945 148.608 105.923 162.183 106.915 172.771C107.908 183.359 144.417 220.843 145.577 219.665C146.736 218.488 204.131 178.219 204.131 178.219C204.131 178.219 208.779 176.128 209.183 174.414C209.587 172.701 209.183 171.998 209.183 170.987C209.183 169.977 209.78 168.773 209.578 167.473C209.376 166.172 208.577 165.865 207.865 165.056C207.153 164.248 207.469 163.844 207.364 162.333C207.259 160.821 206.257 160.821 204.851 160.022C203.445 159.222 202.628 158.713 202.03 158.405C201.433 158.097 202.426 158.001 200.616 158.308C198.534 158.781 196.38 158.849 194.272 158.51C192.058 158.001 191.451 160.32 191.249 161.533C191.049 162.459 190.981 163.409 191.047 164.354C191.144 165.056 191.249 172.209 190.845 172.912C190.441 173.615 184.598 179.458 174.151 183.693C163.703 187.928 150.383 193.762 150.383 193.762C150.383 193.762 144.434 183.79 142.624 179.66C140.814 175.53 131.14 161.208 130.841 160.971" stroke="#263238" stroke-width="0.878661" stroke-linecap="round" stroke-linejoin="round"/>
<path d="M209.165 174.414C209.561 172.657 209.165 171.998 209.165 170.987C209.165 169.977 209.763 168.773 209.561 167.473C209.359 166.172 208.559 165.865 207.847 165.056C207.136 164.248 207.452 163.844 207.346 162.333C207.241 160.821 206.239 160.821 204.834 160.022C203.428 159.222 202.61 158.713 202.013 158.405C201.416 158.097 202.408 158.001 200.598 158.308C198.516 158.781 196.363 158.849 194.254 158.51C192.04 158.001 191.434 160.32 191.232 161.533C191.031 162.459 190.963 163.409 191.03 164.354C191.126 165.056 191.232 172.209 190.828 172.912C190.423 173.615 184.58 179.458 174.133 183.693C163.686 187.928 150.365 193.762 150.365 193.762C150.365 193.762 148.863 191.258 147.149 188.236L144.215 189.633C135.226 193.964 131.448 202.716 130.481 205.369C138.266 213.752 145.093 220.175 145.585 219.674C146.736 218.47 204.113 178.219 204.113 178.219C204.113 178.219 208.761 176.128 209.165 174.414Z" fill="white" stroke="#263238" stroke-width="0.878661" stroke-linecap="round" stroke-linejoin="round"/>
<path d="M199.052 156.446C199.052 156.446 196.714 156.621 196.416 157.491C196.117 158.361 196.6 162.104 197.242 162.333C197.883 162.561 199.878 162.438 200.212 161.533C200.435 160.328 200.482 159.097 200.352 157.878C200.329 157.527 200.188 157.195 199.952 156.935C199.716 156.675 199.398 156.502 199.052 156.446Z" fill="white" stroke="#263238" stroke-width="0.878661" stroke-linecap="round" stroke-linejoin="round"/>
<path d="M194.123 161.718C194.123 161.718 189.729 161.006 188.851 161.718C187.972 162.429 188.174 163.712 188.104 163.985C188.033 164.257 185.969 165.54 185.837 166.26C185.705 166.981 186.039 168.202 185.881 168.474C185.723 168.747 184.712 169.792 184.686 170.856C184.765 171.845 184.975 172.82 185.31 173.755C185.31 173.755 185.134 175.275 185.16 175.802C185.187 176.33 185.784 177.191 186.32 177.252C186.856 177.314 190.054 177.384 190.555 176.813L191.056 176.251C191.056 176.251 193.262 175.943 193.745 175.117C194.228 174.291 194.246 174.643 194.228 174.238C194.21 173.834 195.511 173.456 195.827 172.727C196.018 172.21 196.105 171.661 196.082 171.11C196.082 171.11 197.962 169.845 197.91 168.958C197.857 168.07 195.941 163.475 194.123 161.718Z" fill="white" stroke="#263238" stroke-width="0.878661" stroke-linecap="round" stroke-linejoin="round"/>
<path d="M188.859 164.345C188.859 164.345 190.617 163.528 191.355 164.459C192.093 165.39 196.108 171.11 196.108 171.11" stroke="#263238" stroke-width="0.878661" stroke-linecap="round" stroke-linejoin="round"/>
<path d="M186.944 167.921C186.944 167.921 187.462 167.719 188.402 168.545C189.343 169.371 194.043 173.632 194.043 173.632" stroke="#263238" stroke-width="0.878661" stroke-linecap="round" stroke-linejoin="round"/>
<path d="M185.986 172.701L191.082 176.215" stroke="#263238" stroke-width="0.878661" stroke-linecap="round" stroke-linejoin="round"/>
<path d="M172.92 155.725L177.516 159.811" stroke="#263238" stroke-width="0.878661" stroke-linecap="round" stroke-linejoin="round"/>
<path d="M195.388 140.41V145.77" stroke="#263238" stroke-width="0.878661" stroke-linecap="round" stroke-linejoin="round"/>
<path d="M220.667 151.13L215.052 156.498" stroke="#263238" stroke-width="0.878661" stroke-linecap="round" stroke-linejoin="round"/>
<path d="M184.668 149.856L186.962 153.177" stroke="#263238" stroke-width="0.878661" stroke-linecap="round" stroke-linejoin="round"/>
<path d="M207.39 148.836L205.861 151.648" stroke="#263238" stroke-width="0.878661" stroke-linecap="round" stroke-linejoin="round"/>
</g>
<defs>
<clipPath id="clip0_95_3250">
<rect width="420" height="408.815" fill="white"/>
</clipPath>
</defs>
</svg>
