<svg width="420" height="420" viewBox="0 0 420 420" fill="none" xmlns="http://www.w3.org/2000/svg">
<path d="M228.094 9.72719C228.094 9.72719 155.669 -3.05761 101.514 47.1072C47.3594 97.272 35.5658 180.037 24.2342 246.666C12.9026 313.295 45.965 373.212 103.026 393.12C160.087 413.028 182.247 364.972 250.866 350.742C319.486 336.512 340.956 343.56 387.391 292.757C433.827 241.954 418.245 144.001 353.724 80.85C289.204 17.6988 228.094 9.72719 228.094 9.72719Z" fill="#263238"/>
<path d="M212.285 268.59C271.797 268.59 320.04 220.346 320.04 160.835C320.04 101.323 271.797 53.0796 212.285 53.0796C152.773 53.0796 104.53 101.323 104.53 160.835C104.53 220.346 152.773 268.59 212.285 268.59Z" fill="white"/>
<path d="M284.161 232.711C323.857 193.015 323.857 128.654 284.161 88.9583C244.465 49.2621 180.105 49.2621 140.408 88.9583C100.712 128.654 100.712 193.015 140.408 232.711C180.105 272.407 244.465 272.407 284.161 232.711Z" fill="#DBDBDB"/>
<path d="M120.607 160.44C117.247 160.003 116.877 159.642 116.407 156.24C115.97 159.6 115.617 159.97 112.207 160.44C115.567 160.877 115.937 161.23 116.407 164.64C116.877 161.213 117.23 160.86 120.607 160.44Z" fill="#E5E5E5"/>
<path d="M365.064 237.392C368.905 237.392 372.019 234.278 372.019 230.437C372.019 226.596 368.905 223.482 365.064 223.482C361.223 223.482 358.109 226.596 358.109 230.437C358.109 234.278 361.223 237.392 365.064 237.392Z" fill="#E5E5E5"/>
<path d="M119.641 70.0056C123.482 70.0056 126.596 66.8917 126.596 63.0504C126.596 59.2092 123.482 56.0952 119.641 56.0952C115.8 56.0952 112.686 59.2092 112.686 63.0504C112.686 66.8917 115.8 70.0056 119.641 70.0056Z" fill="#E5E5E5"/>
<path d="M314.194 266.952C317.26 266.952 319.746 264.466 319.746 261.4C319.746 258.333 317.26 255.847 314.194 255.847C311.127 255.847 308.641 258.333 308.641 261.4C308.641 264.466 311.127 266.952 314.194 266.952Z" fill="#E5E5E5"/>
<path d="M327.309 225.74C328.55 222.936 327.283 219.656 324.479 218.415C321.675 217.173 318.396 218.44 317.154 221.244C315.913 224.048 317.18 227.328 319.984 228.569C322.788 229.81 326.067 228.544 327.309 225.74Z" fill="#E5E5E5"/>
<path d="M92.3747 238.165C95.4412 238.165 97.9271 235.679 97.9271 232.613C97.9271 229.546 95.4412 227.06 92.3747 227.06C89.3082 227.06 86.8223 229.546 86.8223 232.613C86.8223 235.679 89.3082 238.165 92.3747 238.165Z" fill="#E5E5E5"/>
<path d="M147.974 309.784C151.041 309.784 153.527 307.298 153.527 304.231C153.527 301.165 151.041 298.679 147.974 298.679C144.908 298.679 142.422 301.165 142.422 304.231C142.422 307.298 144.908 309.784 147.974 309.784Z" fill="#E5E5E5"/>
<path d="M78.0494 155.22C80.2178 153.052 80.2178 149.536 78.0494 147.368C75.8811 145.2 72.3655 145.2 70.1971 147.368C68.0288 149.536 68.0288 153.052 70.1971 155.22C72.3655 157.389 75.8811 157.389 78.0494 155.22Z" fill="#E5E5E5"/>
<path d="M35.1204 270.589C36.8462 270.589 38.2452 269.19 38.2452 267.464C38.2452 265.739 36.8462 264.34 35.1204 264.34C33.3946 264.34 31.9956 265.739 31.9956 267.464C31.9956 269.19 33.3946 270.589 35.1204 270.589Z" fill="#E5E5E5"/>
<path d="M337.168 276.394C338.894 276.394 340.293 274.995 340.293 273.269C340.293 271.543 338.894 270.144 337.168 270.144C335.442 270.144 334.043 271.543 334.043 273.269C334.043 274.995 335.442 276.394 337.168 276.394Z" fill="#E5E5E5"/>
<path d="M300.854 84.714C302.58 84.714 303.979 83.315 303.979 81.5892C303.979 79.8634 302.58 78.4644 300.854 78.4644C299.129 78.4644 297.729 79.8634 297.729 81.5892C297.729 83.315 299.129 84.714 300.854 84.714Z" fill="#E5E5E5"/>
<path d="M360.402 150.898C362.128 150.898 363.527 149.499 363.527 147.773C363.527 146.047 362.128 144.648 360.402 144.648C358.676 144.648 357.277 146.047 357.277 147.773C357.277 149.499 358.676 150.898 360.402 150.898Z" fill="#E5E5E5"/>
<path d="M137.188 302.954C138.914 302.954 140.313 301.555 140.313 299.83C140.313 298.104 138.914 296.705 137.188 296.705C135.462 296.705 134.063 298.104 134.063 299.83C134.063 301.555 135.462 302.954 137.188 302.954Z" fill="#E5E5E5"/>
<path d="M276.36 367.08H143.64V409.92H276.36V367.08Z" fill="#949494" stroke="#8C8C8C" stroke-width="0.84" stroke-linecap="round" stroke-linejoin="round"/>
<path d="M200.055 52.92H158.895V409.92H200.055V52.92Z" fill="#A3A3A3" stroke="#8C8C8C" stroke-width="0.84" stroke-linecap="round" stroke-linejoin="round"/>
<path d="M189.975 52.92H168.975V409.92H189.975V52.92Z" fill="#4F4F4F" stroke="#8C8C8C" stroke-width="0.84" stroke-linecap="round" stroke-linejoin="round"/>
<path d="M200.055 52.92H158.895V70.56H200.055V52.92Z" fill="#A3A3A3" stroke="#8C8C8C" stroke-width="0.84" stroke-linecap="round" stroke-linejoin="round"/>
<path d="M198.593 75.306H193.998V80.4384H198.593V75.306Z" fill="#949494" stroke="#8C8C8C" stroke-width="0.84" stroke-linecap="round" stroke-linejoin="round"/>
<path d="M198.593 86.436H193.998V91.5684H198.593V86.436Z" fill="#949494" stroke="#8C8C8C" stroke-width="0.84" stroke-linecap="round" stroke-linejoin="round"/>
<path d="M198.593 97.566H193.998V102.698H198.593V97.566Z" fill="#949494" stroke="#8C8C8C" stroke-width="0.84" stroke-linecap="round" stroke-linejoin="round"/>
<path d="M198.593 108.696H193.998V113.828H198.593V108.696Z" fill="#949494" stroke="#8C8C8C" stroke-width="0.84" stroke-linecap="round" stroke-linejoin="round"/>
<path d="M198.593 119.826H193.998V124.958H198.593V119.826Z" fill="#949494" stroke="#8C8C8C" stroke-width="0.84" stroke-linecap="round" stroke-linejoin="round"/>
<path d="M198.593 130.948H193.998V136.08H198.593V130.948Z" fill="#949494" stroke="#8C8C8C" stroke-width="0.84" stroke-linecap="round" stroke-linejoin="round"/>
<path d="M198.593 142.078H193.998V147.21H198.593V142.078Z" fill="#949494" stroke="#8C8C8C" stroke-width="0.84" stroke-linecap="round" stroke-linejoin="round"/>
<path d="M198.593 153.208H193.998V158.34H198.593V153.208Z" fill="#949494" stroke="#8C8C8C" stroke-width="0.84" stroke-linecap="round" stroke-linejoin="round"/>
<path d="M198.593 164.338H193.998V169.47H198.593V164.338Z" fill="#949494" stroke="#8C8C8C" stroke-width="0.84" stroke-linecap="round" stroke-linejoin="round"/>
<path d="M198.593 175.459H193.998V180.592H198.593V175.459Z" fill="#949494" stroke="#8C8C8C" stroke-width="0.84" stroke-linecap="round" stroke-linejoin="round"/>
<path d="M198.593 186.589H193.998V191.722H198.593V186.589Z" fill="#949494" stroke="#8C8C8C" stroke-width="0.84" stroke-linecap="round" stroke-linejoin="round"/>
<path d="M198.593 197.719H193.998V202.852H198.593V197.719Z" fill="#949494" stroke="#8C8C8C" stroke-width="0.84" stroke-linecap="round" stroke-linejoin="round"/>
<path d="M198.593 208.849H193.998V213.982H198.593V208.849Z" fill="#949494" stroke="#8C8C8C" stroke-width="0.84" stroke-linecap="round" stroke-linejoin="round"/>
<path d="M198.593 219.979H193.998V225.112H198.593V219.979Z" fill="#949494" stroke="#8C8C8C" stroke-width="0.84" stroke-linecap="round" stroke-linejoin="round"/>
<path d="M198.593 231.101H193.998V236.233H198.593V231.101Z" fill="#949494" stroke="#8C8C8C" stroke-width="0.84" stroke-linecap="round" stroke-linejoin="round"/>
<path d="M198.593 242.231H193.998V247.363H198.593V242.231Z" fill="#949494" stroke="#8C8C8C" stroke-width="0.84" stroke-linecap="round" stroke-linejoin="round"/>
<path d="M198.593 253.361H193.998V258.493H198.593V253.361Z" fill="#949494" stroke="#8C8C8C" stroke-width="0.84" stroke-linecap="round" stroke-linejoin="round"/>
<path d="M198.593 264.491H193.998V269.623H198.593V264.491Z" fill="#949494" stroke="#8C8C8C" stroke-width="0.84" stroke-linecap="round" stroke-linejoin="round"/>
<path d="M198.593 275.612H193.998V280.745H198.593V275.612Z" fill="#949494" stroke="#8C8C8C" stroke-width="0.84" stroke-linecap="round" stroke-linejoin="round"/>
<path d="M198.593 286.742H193.998V291.875H198.593V286.742Z" fill="#949494" stroke="#8C8C8C" stroke-width="0.84" stroke-linecap="round" stroke-linejoin="round"/>
<path d="M198.593 297.872H193.998V303.005H198.593V297.872Z" fill="#949494" stroke="#8C8C8C" stroke-width="0.84" stroke-linecap="round" stroke-linejoin="round"/>
<path d="M198.593 309.002H193.998V314.135H198.593V309.002Z" fill="#949494" stroke="#8C8C8C" stroke-width="0.84" stroke-linecap="round" stroke-linejoin="round"/>
<path d="M198.593 320.124H193.998V325.256H198.593V320.124Z" fill="#949494" stroke="#8C8C8C" stroke-width="0.84" stroke-linecap="round" stroke-linejoin="round"/>
<path d="M198.593 331.254H193.998V336.386H198.593V331.254Z" fill="#949494" stroke="#8C8C8C" stroke-width="0.84" stroke-linecap="round" stroke-linejoin="round"/>
<path d="M198.593 342.384H193.998V347.516H198.593V342.384Z" fill="#949494" stroke="#8C8C8C" stroke-width="0.84" stroke-linecap="round" stroke-linejoin="round"/>
<path d="M198.593 353.514H193.998V358.646H198.593V353.514Z" fill="#949494" stroke="#8C8C8C" stroke-width="0.84" stroke-linecap="round" stroke-linejoin="round"/>
<path d="M198.593 364.644H193.998V369.776H198.593V364.644Z" fill="#949494" stroke="#8C8C8C" stroke-width="0.84" stroke-linecap="round" stroke-linejoin="round"/>
<path d="M198.593 375.766H193.998V380.898H198.593V375.766Z" fill="#949494" stroke="#8C8C8C" stroke-width="0.84" stroke-linecap="round" stroke-linejoin="round"/>
<path d="M198.593 386.896H193.998V392.028H198.593V386.896Z" fill="#949494" stroke="#8C8C8C" stroke-width="0.84" stroke-linecap="round" stroke-linejoin="round"/>
<path d="M199.761 398.026H190.344V403.158H199.761V398.026Z" fill="#949494" stroke="#8C8C8C" stroke-width="0.84" stroke-linecap="round" stroke-linejoin="round"/>
<path d="M189.891 119.44H96.4238V130.721H189.891V119.44Z" fill="#FF3B3B"/>
<path d="M189.891 117.86H96.4238V129.142H189.891V117.86Z" fill="#949494" stroke="#8C8C8C" stroke-width="0.84" stroke-linecap="round" stroke-linejoin="round"/>
<path d="M189.891 108.998H96.4238V129.142H189.891V108.998Z" stroke="#8C8C8C" stroke-width="0.84" stroke-linecap="round" stroke-linejoin="round"/>
<path d="M189.89 117.86H160.138V129.142H189.89V117.86Z" fill="#707070" stroke="#8C8C8C" stroke-width="0.84" stroke-linecap="round" stroke-linejoin="round"/>
<path d="M96.4238 117.86L106.731 109.402" stroke="#8C8C8C" stroke-width="0.84" stroke-linecap="round" stroke-linejoin="round"/>
<path d="M106.731 117.86L96.4238 109.402" stroke="#8C8C8C" stroke-width="0.84" stroke-linecap="round" stroke-linejoin="round"/>
<path d="M107.193 117.86L117.5 109.402" stroke="#8C8C8C" stroke-width="0.84" stroke-linecap="round" stroke-linejoin="round"/>
<path d="M117.5 117.86L107.193 109.402" stroke="#8C8C8C" stroke-width="0.84" stroke-linecap="round" stroke-linejoin="round"/>
<path d="M117.961 117.86L128.268 109.402" stroke="#8C8C8C" stroke-width="0.84" stroke-linecap="round" stroke-linejoin="round"/>
<path d="M128.268 117.86L117.961 109.402" stroke="#8C8C8C" stroke-width="0.84" stroke-linecap="round" stroke-linejoin="round"/>
<path d="M128.739 117.86L139.046 109.402" stroke="#8C8C8C" stroke-width="0.84" stroke-linecap="round" stroke-linejoin="round"/>
<path d="M139.046 117.86L128.739 109.402" stroke="#8C8C8C" stroke-width="0.84" stroke-linecap="round" stroke-linejoin="round"/>
<path d="M139.507 117.86L149.814 109.402" stroke="#8C8C8C" stroke-width="0.84" stroke-linecap="round" stroke-linejoin="round"/>
<path d="M149.814 117.86L139.507 109.402" stroke="#8C8C8C" stroke-width="0.84" stroke-linecap="round" stroke-linejoin="round"/>
<path d="M150.276 117.86L160.583 109.402" stroke="#8C8C8C" stroke-width="0.84" stroke-linecap="round" stroke-linejoin="round"/>
<path d="M160.583 117.86L150.276 109.402" stroke="#8C8C8C" stroke-width="0.84" stroke-linecap="round" stroke-linejoin="round"/>
<path d="M161.053 117.86L171.36 109.402" stroke="#8C8C8C" stroke-width="0.84" stroke-linecap="round" stroke-linejoin="round"/>
<path d="M171.36 117.86L161.053 109.402" stroke="#8C8C8C" stroke-width="0.84" stroke-linecap="round" stroke-linejoin="round"/>
<path d="M171.822 117.86L182.129 109.402" stroke="#8C8C8C" stroke-width="0.84" stroke-linecap="round" stroke-linejoin="round"/>
<path d="M182.129 117.86L171.822 109.402" stroke="#8C8C8C" stroke-width="0.84" stroke-linecap="round" stroke-linejoin="round"/>
<path d="M189.891 184.296H96.4238V195.577H189.891V184.296Z" fill="#FF3B3B"/>
<path d="M189.891 182.717H96.4238V193.998H189.891V182.717Z" fill="#949494" stroke="#8C8C8C" stroke-width="0.84" stroke-linecap="round" stroke-linejoin="round"/>
<path d="M189.891 173.855H96.4238V193.998H189.891V173.855Z" stroke="#8C8C8C" stroke-width="0.84" stroke-linecap="round" stroke-linejoin="round"/>
<path d="M189.89 182.717H160.138V193.998H189.89V182.717Z" fill="#707070" stroke="#8C8C8C" stroke-width="0.84" stroke-linecap="round" stroke-linejoin="round"/>
<path d="M96.4238 182.717L106.731 174.258" stroke="#8C8C8C" stroke-width="0.84" stroke-linecap="round" stroke-linejoin="round"/>
<path d="M106.731 182.717L96.4238 174.258" stroke="#8C8C8C" stroke-width="0.84" stroke-linecap="round" stroke-linejoin="round"/>
<path d="M107.193 182.717L117.5 174.258" stroke="#8C8C8C" stroke-width="0.84" stroke-linecap="round" stroke-linejoin="round"/>
<path d="M117.5 182.717L107.193 174.258" stroke="#8C8C8C" stroke-width="0.84" stroke-linecap="round" stroke-linejoin="round"/>
<path d="M117.961 182.717L128.268 174.258" stroke="#8C8C8C" stroke-width="0.84" stroke-linecap="round" stroke-linejoin="round"/>
<path d="M128.268 182.717L117.961 174.258" stroke="#8C8C8C" stroke-width="0.84" stroke-linecap="round" stroke-linejoin="round"/>
<path d="M128.739 182.717L139.046 174.258" stroke="#8C8C8C" stroke-width="0.84" stroke-linecap="round" stroke-linejoin="round"/>
<path d="M139.046 182.717L128.739 174.258" stroke="#8C8C8C" stroke-width="0.84" stroke-linecap="round" stroke-linejoin="round"/>
<path d="M139.507 182.717L149.814 174.258" stroke="#8C8C8C" stroke-width="0.84" stroke-linecap="round" stroke-linejoin="round"/>
<path d="M149.814 182.717L139.507 174.258" stroke="#8C8C8C" stroke-width="0.84" stroke-linecap="round" stroke-linejoin="round"/>
<path d="M150.276 182.717L160.583 174.258" stroke="#8C8C8C" stroke-width="0.84" stroke-linecap="round" stroke-linejoin="round"/>
<path d="M160.583 182.717L150.276 174.258" stroke="#8C8C8C" stroke-width="0.84" stroke-linecap="round" stroke-linejoin="round"/>
<path d="M161.053 182.717L171.36 174.258" stroke="#8C8C8C" stroke-width="0.84" stroke-linecap="round" stroke-linejoin="round"/>
<path d="M171.36 182.717L161.053 174.258" stroke="#8C8C8C" stroke-width="0.84" stroke-linecap="round" stroke-linejoin="round"/>
<path d="M171.822 182.717L182.129 174.258" stroke="#8C8C8C" stroke-width="0.84" stroke-linecap="round" stroke-linejoin="round"/>
<path d="M182.129 182.717L171.822 174.258" stroke="#8C8C8C" stroke-width="0.84" stroke-linecap="round" stroke-linejoin="round"/>
<path d="M221.576 409.92H262.736L262.736 52.92H221.576L221.576 409.92Z" fill="#A3A3A3" stroke="#8C8C8C" stroke-width="0.84" stroke-linecap="round" stroke-linejoin="round"/>
<path d="M231.656 409.92H252.656L252.656 52.92H231.656L231.656 409.92Z" fill="#4F4F4F" stroke="#8C8C8C" stroke-width="0.84" stroke-linecap="round" stroke-linejoin="round"/>
<path d="M221.576 70.56H262.736V52.92H221.576V70.56Z" fill="#A3A3A3" stroke="#8C8C8C" stroke-width="0.84" stroke-linecap="round" stroke-linejoin="round"/>
<path d="M223.045 80.4468H227.64V75.3144H223.045V80.4468Z" fill="#949494" stroke="#8C8C8C" stroke-width="0.84" stroke-linecap="round" stroke-linejoin="round"/>
<path d="M223.045 91.5768H227.64V86.4444H223.045V91.5768Z" fill="#949494" stroke="#8C8C8C" stroke-width="0.84" stroke-linecap="round" stroke-linejoin="round"/>
<path d="M223.045 102.698H227.64V97.566H223.045V102.698Z" fill="#949494" stroke="#8C8C8C" stroke-width="0.84" stroke-linecap="round" stroke-linejoin="round"/>
<path d="M223.045 113.828H227.64V108.696H223.045V113.828Z" fill="#949494" stroke="#8C8C8C" stroke-width="0.84" stroke-linecap="round" stroke-linejoin="round"/>
<path d="M223.045 124.958H227.64V119.826H223.045V124.958Z" fill="#949494" stroke="#8C8C8C" stroke-width="0.84" stroke-linecap="round" stroke-linejoin="round"/>
<path d="M223.045 136.088H227.64V130.956H223.045V136.088Z" fill="#949494" stroke="#8C8C8C" stroke-width="0.84" stroke-linecap="round" stroke-linejoin="round"/>
<path d="M223.045 147.218H227.64V142.086H223.045V147.218Z" fill="#949494" stroke="#8C8C8C" stroke-width="0.84" stroke-linecap="round" stroke-linejoin="round"/>
<path d="M223.045 158.34H227.64V153.208H223.045V158.34Z" fill="#949494" stroke="#8C8C8C" stroke-width="0.84" stroke-linecap="round" stroke-linejoin="round"/>
<path d="M223.045 169.47H227.64V164.338H223.045V169.47Z" fill="#949494" stroke="#8C8C8C" stroke-width="0.84" stroke-linecap="round" stroke-linejoin="round"/>
<path d="M223.045 180.6H227.64V175.468H223.045V180.6Z" fill="#949494" stroke="#8C8C8C" stroke-width="0.84" stroke-linecap="round" stroke-linejoin="round"/>
<path d="M223.045 191.73H227.64V186.598H223.045V191.73Z" fill="#949494" stroke="#8C8C8C" stroke-width="0.84" stroke-linecap="round" stroke-linejoin="round"/>
<path d="M223.045 202.852H227.64V197.719H223.045V202.852Z" fill="#949494" stroke="#8C8C8C" stroke-width="0.84" stroke-linecap="round" stroke-linejoin="round"/>
<path d="M223.045 213.982H227.64V208.849H223.045V213.982Z" fill="#949494" stroke="#8C8C8C" stroke-width="0.84" stroke-linecap="round" stroke-linejoin="round"/>
<path d="M223.045 225.103H227.64V219.971H223.045V225.103Z" fill="#949494" stroke="#8C8C8C" stroke-width="0.84" stroke-linecap="round" stroke-linejoin="round"/>
<path d="M223.045 236.242H227.64V231.109H223.045V236.242Z" fill="#949494" stroke="#8C8C8C" stroke-width="0.84" stroke-linecap="round" stroke-linejoin="round"/>
<path d="M223.045 247.372H227.64V242.239H223.045V247.372Z" fill="#949494" stroke="#8C8C8C" stroke-width="0.84" stroke-linecap="round" stroke-linejoin="round"/>
<path d="M223.045 258.493H227.64V253.361H223.045V258.493Z" fill="#949494" stroke="#8C8C8C" stroke-width="0.84" stroke-linecap="round" stroke-linejoin="round"/>
<path d="M223.045 269.623H227.64V264.491H223.045V269.623Z" fill="#949494" stroke="#8C8C8C" stroke-width="0.84" stroke-linecap="round" stroke-linejoin="round"/>
<path d="M223.045 280.753H227.64V275.621H223.045V280.753Z" fill="#949494" stroke="#8C8C8C" stroke-width="0.84" stroke-linecap="round" stroke-linejoin="round"/>
<path d="M223.045 291.883H227.64V286.751H223.045V291.883Z" fill="#949494" stroke="#8C8C8C" stroke-width="0.84" stroke-linecap="round" stroke-linejoin="round"/>
<path d="M223.045 303.005H227.64V297.872H223.045V303.005Z" fill="#949494" stroke="#8C8C8C" stroke-width="0.84" stroke-linecap="round" stroke-linejoin="round"/>
<path d="M223.045 314.135H227.64V309.002H223.045V314.135Z" fill="#949494" stroke="#8C8C8C" stroke-width="0.84" stroke-linecap="round" stroke-linejoin="round"/>
<path d="M223.045 325.265H227.64V320.132H223.045V325.265Z" fill="#949494" stroke="#8C8C8C" stroke-width="0.84" stroke-linecap="round" stroke-linejoin="round"/>
<path d="M223.045 336.395H227.64V331.262H223.045V336.395Z" fill="#949494" stroke="#8C8C8C" stroke-width="0.84" stroke-linecap="round" stroke-linejoin="round"/>
<path d="M223.045 347.516H227.64V342.384H223.045V347.516Z" fill="#949494" stroke="#8C8C8C" stroke-width="0.84" stroke-linecap="round" stroke-linejoin="round"/>
<path d="M223.045 358.646H227.64V353.514H223.045V358.646Z" fill="#949494" stroke="#8C8C8C" stroke-width="0.84" stroke-linecap="round" stroke-linejoin="round"/>
<path d="M223.045 369.776H227.64V364.644H223.045V369.776Z" fill="#949494" stroke="#8C8C8C" stroke-width="0.84" stroke-linecap="round" stroke-linejoin="round"/>
<path d="M223.045 380.906H227.64V375.774H223.045V380.906Z" fill="#949494" stroke="#8C8C8C" stroke-width="0.84" stroke-linecap="round" stroke-linejoin="round"/>
<path d="M223.045 392.036H227.64V386.904H223.045V392.036Z" fill="#949494" stroke="#8C8C8C" stroke-width="0.84" stroke-linecap="round" stroke-linejoin="round"/>
<path d="M221.878 403.158H231.294V398.026H221.878V403.158Z" fill="#949494" stroke="#8C8C8C" stroke-width="0.84" stroke-linecap="round" stroke-linejoin="round"/>
<path d="M231.639 130.712H325.105V119.431L231.639 119.431V130.712Z" fill="#FF3B3B"/>
<path d="M231.639 129.15H325.105V117.869L231.639 117.869V129.15Z" fill="#949494" stroke="#8C8C8C" stroke-width="0.84" stroke-linecap="round" stroke-linejoin="round"/>
<path d="M231.639 129.15H325.105V109.007L231.639 109.007V129.15Z" stroke="#8C8C8C" stroke-width="0.84" stroke-linecap="round" stroke-linejoin="round"/>
<path d="M231.639 129.15H261.392V117.869H231.639V129.15Z" fill="#707070" stroke="#8C8C8C" stroke-width="0.84" stroke-linecap="round" stroke-linejoin="round"/>
<path d="M325.106 117.86L314.799 109.402" stroke="#8C8C8C" stroke-width="0.84" stroke-linecap="round" stroke-linejoin="round"/>
<path d="M314.799 117.86L325.106 109.402" stroke="#8C8C8C" stroke-width="0.84" stroke-linecap="round" stroke-linejoin="round"/>
<path d="M314.337 117.86L304.03 109.402" stroke="#8C8C8C" stroke-width="0.84" stroke-linecap="round" stroke-linejoin="round"/>
<path d="M304.03 117.86L314.337 109.402" stroke="#8C8C8C" stroke-width="0.84" stroke-linecap="round" stroke-linejoin="round"/>
<path d="M303.568 117.86L293.261 109.402" stroke="#8C8C8C" stroke-width="0.84" stroke-linecap="round" stroke-linejoin="round"/>
<path d="M293.261 117.86L303.568 109.402" stroke="#8C8C8C" stroke-width="0.84" stroke-linecap="round" stroke-linejoin="round"/>
<path d="M292.791 117.86L282.484 109.402" stroke="#8C8C8C" stroke-width="0.84" stroke-linecap="round" stroke-linejoin="round"/>
<path d="M282.484 117.86L292.791 109.402" stroke="#8C8C8C" stroke-width="0.84" stroke-linecap="round" stroke-linejoin="round"/>
<path d="M282.022 117.86L271.715 109.402" stroke="#8C8C8C" stroke-width="0.84" stroke-linecap="round" stroke-linejoin="round"/>
<path d="M271.715 117.86L282.022 109.402" stroke="#8C8C8C" stroke-width="0.84" stroke-linecap="round" stroke-linejoin="round"/>
<path d="M271.253 117.86L260.946 109.402" stroke="#8C8C8C" stroke-width="0.84" stroke-linecap="round" stroke-linejoin="round"/>
<path d="M260.946 117.86L271.253 109.402" stroke="#8C8C8C" stroke-width="0.84" stroke-linecap="round" stroke-linejoin="round"/>
<path d="M260.476 117.86L250.169 109.402" stroke="#8C8C8C" stroke-width="0.84" stroke-linecap="round" stroke-linejoin="round"/>
<path d="M250.169 117.86L260.476 109.402" stroke="#8C8C8C" stroke-width="0.84" stroke-linecap="round" stroke-linejoin="round"/>
<path d="M249.707 117.86L239.4 109.402" stroke="#8C8C8C" stroke-width="0.84" stroke-linecap="round" stroke-linejoin="round"/>
<path d="M239.4 117.86L249.707 109.402" stroke="#8C8C8C" stroke-width="0.84" stroke-linecap="round" stroke-linejoin="round"/>
<path d="M231.639 195.569H325.105V184.288H231.639V195.569Z" fill="#FF3B3B"/>
<path d="M231.639 194.006H325.105V182.725H231.639V194.006Z" fill="#949494" stroke="#8C8C8C" stroke-width="0.84" stroke-linecap="round" stroke-linejoin="round"/>
<path d="M231.639 194.006H325.105V173.863H231.639V194.006Z" stroke="#8C8C8C" stroke-width="0.84" stroke-linecap="round" stroke-linejoin="round"/>
<path d="M231.639 194.006H261.392V182.725H231.639V194.006Z" fill="#707070" stroke="#8C8C8C" stroke-width="0.84" stroke-linecap="round" stroke-linejoin="round"/>
<path d="M325.106 182.717L314.799 174.258" stroke="#8C8C8C" stroke-width="0.84" stroke-linecap="round" stroke-linejoin="round"/>
<path d="M314.799 182.717L325.106 174.258" stroke="#8C8C8C" stroke-width="0.84" stroke-linecap="round" stroke-linejoin="round"/>
<path d="M314.337 182.717L304.03 174.258" stroke="#8C8C8C" stroke-width="0.84" stroke-linecap="round" stroke-linejoin="round"/>
<path d="M304.03 182.717L314.337 174.258" stroke="#8C8C8C" stroke-width="0.84" stroke-linecap="round" stroke-linejoin="round"/>
<path d="M303.568 182.717L293.261 174.258" stroke="#8C8C8C" stroke-width="0.84" stroke-linecap="round" stroke-linejoin="round"/>
<path d="M293.261 182.717L303.568 174.258" stroke="#8C8C8C" stroke-width="0.84" stroke-linecap="round" stroke-linejoin="round"/>
<path d="M292.791 182.717L282.484 174.258" stroke="#8C8C8C" stroke-width="0.84" stroke-linecap="round" stroke-linejoin="round"/>
<path d="M282.484 182.717L292.791 174.258" stroke="#8C8C8C" stroke-width="0.84" stroke-linecap="round" stroke-linejoin="round"/>
<path d="M282.022 182.717L271.715 174.258" stroke="#8C8C8C" stroke-width="0.84" stroke-linecap="round" stroke-linejoin="round"/>
<path d="M271.715 182.717L282.022 174.258" stroke="#8C8C8C" stroke-width="0.84" stroke-linecap="round" stroke-linejoin="round"/>
<path d="M271.253 182.717L260.946 174.258" stroke="#8C8C8C" stroke-width="0.84" stroke-linecap="round" stroke-linejoin="round"/>
<path d="M260.946 182.717L271.253 174.258" stroke="#8C8C8C" stroke-width="0.84" stroke-linecap="round" stroke-linejoin="round"/>
<path d="M260.476 182.717L250.169 174.258" stroke="#8C8C8C" stroke-width="0.84" stroke-linecap="round" stroke-linejoin="round"/>
<path d="M250.169 182.717L260.476 174.258" stroke="#8C8C8C" stroke-width="0.84" stroke-linecap="round" stroke-linejoin="round"/>
<path d="M249.707 182.717L239.4 174.258" stroke="#8C8C8C" stroke-width="0.84" stroke-linecap="round" stroke-linejoin="round"/>
<path d="M239.4 182.717L249.707 174.258" stroke="#8C8C8C" stroke-width="0.84" stroke-linecap="round" stroke-linejoin="round"/>
<path d="M222.827 52.92H198.375V409.92H222.827V52.92Z" fill="#D9D9D9" stroke="#8C8C8C" stroke-width="0.84" stroke-linecap="round" stroke-linejoin="round"/>
<path d="M268.8 357.84H261.929H160.591H153.72V375.48H160.591V409.92H261.929V375.48H268.8V357.84Z" fill="white" stroke="#8C8C8C" stroke-width="0.84" stroke-linecap="round" stroke-linejoin="round"/>
<path d="M328.196 409.92C329.641 407.75 330.621 405.304 331.075 402.737C331.529 400.17 331.447 397.536 330.834 395.002C330.221 392.468 329.091 390.088 327.513 388.012C325.936 385.936 323.946 384.209 321.669 382.939C319.392 381.669 316.877 380.884 314.282 380.634C311.687 380.383 309.068 380.671 306.59 381.482C304.112 382.292 301.829 383.606 299.883 385.342C297.938 387.077 296.372 389.196 295.285 391.566C294.473 389.361 293.078 387.417 291.249 385.942C289.42 384.467 287.225 383.515 284.897 383.189C282.57 382.862 280.198 383.173 278.034 384.087C275.869 385.002 273.993 386.486 272.605 388.382C271.86 387.349 270.9 386.489 269.79 385.863C268.681 385.236 267.449 384.858 266.179 384.754C266.538 383.67 266.722 382.535 266.725 381.394C266.719 379.532 266.238 377.703 265.326 376.08C264.415 374.457 263.104 373.094 261.517 372.12C261.607 371.438 261.655 370.75 261.66 370.062C261.659 366.054 260.187 362.185 257.525 359.189C254.862 356.194 251.192 354.279 247.212 353.808L244.759 298.662H226.959L224.213 351.296L221.197 292.496H200.634L197.156 350.078L194.88 298.62H177.08L174.199 353.64H173.88C169.536 353.64 165.369 355.366 162.297 358.438C159.226 361.509 157.5 365.676 157.5 370.02C157.5 370.264 157.5 370.507 157.5 370.751C156.675 370.551 155.829 370.447 154.98 370.44C152.084 370.44 149.306 371.591 147.258 373.638C145.21 375.686 144.06 378.464 144.06 381.36C144.063 382.502 144.247 383.636 144.606 384.72C143.336 384.824 142.104 385.203 140.995 385.829C139.885 386.456 138.925 387.315 138.18 388.349C136.792 386.453 134.916 384.968 132.751 384.054C130.587 383.139 128.214 382.829 125.887 383.155C123.56 383.482 121.365 384.433 119.536 385.909C117.707 387.384 116.312 389.327 115.5 391.532C114.393 389.192 112.816 387.104 110.869 385.398C108.921 383.692 106.643 382.404 104.177 381.615C101.712 380.825 99.1097 380.551 96.5333 380.809C93.957 381.066 91.461 381.851 89.2004 383.113C86.9398 384.376 84.9626 386.089 83.3916 388.147C81.8206 390.205 80.6893 392.564 80.0677 395.078C79.4462 397.591 79.3478 400.206 79.7785 402.759C80.2093 405.312 81.16 407.75 82.5718 409.92H328.196Z" fill="#FF3B3B"/>
<path d="M316.411 409.92C315.479 408.085 314.149 406.481 312.519 405.226C310.889 403.97 308.999 403.093 306.987 402.66C304.975 402.228 302.892 402.249 300.889 402.723C298.887 403.197 297.015 404.112 295.411 405.401C294.949 404.012 294.157 402.757 293.103 401.743C292.048 400.729 290.763 399.986 289.357 399.58C287.952 399.173 286.469 399.114 285.036 399.408C283.602 399.702 282.262 400.341 281.131 401.268C280.671 399.005 279.652 396.893 278.167 395.124C276.683 393.356 274.779 391.987 272.63 391.142C270.481 390.297 268.155 390.003 265.863 390.287C263.571 390.571 261.387 391.423 259.509 392.767C259.314 390.054 258.445 387.433 256.982 385.14C255.519 382.847 253.508 380.955 251.129 379.635C248.751 378.315 246.082 377.609 243.362 377.58C240.642 377.551 237.958 378.201 235.552 379.47C233.105 375.544 229.726 372.282 225.716 369.973C221.706 367.664 217.189 366.38 212.564 366.235C207.939 366.09 203.35 367.087 199.203 369.14C195.056 371.192 191.479 374.235 188.79 378C187.421 376.121 185.668 374.554 183.647 373.405C181.627 372.256 179.384 371.55 177.069 371.335C174.755 371.12 172.42 371.4 170.222 372.157C168.024 372.914 166.013 374.131 164.322 375.726C162.63 377.321 161.298 379.258 160.414 381.408C159.529 383.558 159.113 385.872 159.192 388.195C159.272 390.519 159.845 392.798 160.874 394.883C161.903 396.968 163.364 398.809 165.16 400.285C164.861 401.053 164.631 401.846 164.472 402.654C162.79 401.503 160.876 400.738 158.864 400.412C156.853 400.086 154.795 400.209 152.836 400.77C150.878 401.332 149.067 402.319 147.534 403.661C146.001 405.003 144.783 406.667 143.967 408.534C143.154 407.419 142.095 406.505 140.873 405.864C139.651 405.223 138.298 404.871 136.918 404.835C135.538 404.799 134.169 405.081 132.915 405.658C131.661 406.235 130.557 407.093 129.687 408.164C128.306 406.232 126.45 404.687 124.299 403.68C122.148 402.672 119.773 402.236 117.404 402.412C115.035 402.588 112.751 403.372 110.773 404.687C108.795 406.002 107.188 407.804 106.108 409.92H316.411Z" fill="#FF3B3B"/>
<path opacity="0.3" d="M316.411 409.92C315.479 408.085 314.149 406.481 312.519 405.226C310.889 403.97 308.999 403.093 306.987 402.66C304.975 402.228 302.892 402.249 300.889 402.723C298.887 403.197 297.015 404.112 295.411 405.401C294.949 404.012 294.157 402.757 293.103 401.743C292.048 400.729 290.763 399.986 289.357 399.58C287.952 399.173 286.469 399.114 285.036 399.408C283.602 399.702 282.262 400.341 281.131 401.268C280.671 399.005 279.652 396.893 278.167 395.124C276.683 393.356 274.779 391.987 272.63 391.142C270.481 390.297 268.155 390.003 265.863 390.287C263.571 390.571 261.387 391.423 259.509 392.767C259.314 390.054 258.445 387.433 256.982 385.14C255.519 382.847 253.508 380.955 251.129 379.635C248.751 378.315 246.082 377.609 243.362 377.58C240.642 377.551 237.958 378.201 235.552 379.47C233.105 375.544 229.726 372.282 225.716 369.973C221.706 367.664 217.189 366.38 212.564 366.235C207.939 366.09 203.35 367.087 199.203 369.14C195.056 371.192 191.479 374.235 188.79 378C187.421 376.121 185.668 374.554 183.647 373.405C181.627 372.256 179.384 371.55 177.069 371.335C174.755 371.12 172.42 371.4 170.222 372.157C168.024 372.914 166.013 374.131 164.322 375.726C162.63 377.321 161.298 379.258 160.414 381.408C159.529 383.558 159.113 385.872 159.192 388.195C159.272 390.519 159.845 392.798 160.874 394.883C161.903 396.968 163.364 398.809 165.16 400.285C164.861 401.053 164.631 401.846 164.472 402.654C162.79 401.503 160.876 400.738 158.864 400.412C156.853 400.086 154.795 400.209 152.836 400.77C150.878 401.332 149.067 402.319 147.534 403.661C146.001 405.003 144.783 406.667 143.967 408.534C143.154 407.419 142.095 406.505 140.873 405.864C139.651 405.223 138.298 404.871 136.918 404.835C135.538 404.799 134.169 405.081 132.915 405.658C131.661 406.235 130.557 407.093 129.687 408.164C128.306 406.232 126.45 404.687 124.299 403.68C122.148 402.672 119.773 402.236 117.404 402.412C115.035 402.588 112.751 403.372 110.773 404.687C108.795 406.002 107.188 407.804 106.108 409.92H316.411Z" fill="black"/>
<path d="M195.283 278.636H176.669L174.342 285.886H197.61L195.283 278.636Z" fill="#D9D9D9" stroke="#263238" stroke-width="0.84" stroke-linecap="round" stroke-linejoin="round"/>
<path d="M193.099 291.379H178.861L177.08 298.62H194.88L193.099 291.379Z" fill="#263238" stroke="#263238" stroke-width="0.84" stroke-linecap="round" stroke-linejoin="round"/>
<path d="M195.224 291.556H176.727L174.417 285.886H197.543L195.224 291.556Z" fill="#FF3B3B" stroke="#263238" stroke-width="0.84" stroke-linecap="round" stroke-linejoin="round"/>
<path d="M195.611 156.156H176.35V279.586H195.611V156.156Z" fill="white" stroke="#263238" stroke-width="0.84" stroke-linecap="round" stroke-linejoin="round"/>
<path d="M189.739 162.809H181.675V165.564H189.739V162.809Z" fill="#263238"/>
<path d="M189.739 166.74H181.675V169.495H189.739V166.74Z" fill="#263238"/>
<path d="M185.976 133.123C185.088 133.123 184.225 133.412 183.517 133.947C182.809 134.482 182.295 135.234 182.053 136.088L176.35 156.248H195.611L189.899 136.088C189.657 135.234 189.143 134.482 188.435 133.947C187.727 133.412 186.864 133.123 185.976 133.123Z" fill="#D9D9D9" stroke="#263238" stroke-width="0.84" stroke-linecap="round" stroke-linejoin="round"/>
<path d="M245.356 278.636H226.75L224.423 285.886H247.682L245.356 278.636Z" fill="#D9D9D9" stroke="#263238" stroke-width="0.84" stroke-linecap="round" stroke-linejoin="round"/>
<path d="M243.172 291.379H228.934L227.153 298.62H244.952L243.172 291.379Z" fill="#263238" stroke="#263238" stroke-width="0.84" stroke-linecap="round" stroke-linejoin="round"/>
<path d="M245.305 291.556H226.8L224.49 285.886H247.615L245.305 291.556Z" fill="#FF3B3B" stroke="#263238" stroke-width="0.84" stroke-linecap="round" stroke-linejoin="round"/>
<path d="M245.683 156.156H226.422V279.586H245.683V156.156Z" fill="white" stroke="#263238" stroke-width="0.84" stroke-linecap="round" stroke-linejoin="round"/>
<path d="M234.78 168C234.78 166.925 235.317 166.228 236.393 166.228C237.468 166.228 238.014 166.925 238.014 168V171.637C238.014 172.712 237.485 173.418 236.393 173.418C235.301 173.418 234.78 172.712 234.78 171.637V168ZM235.553 171.688C235.553 172.326 235.83 172.704 236.393 172.704C236.955 172.704 237.233 172.326 237.233 171.688V168C237.233 167.362 236.964 166.975 236.393 166.975C235.821 166.975 235.553 167.362 235.553 168V171.688Z" fill="#263238"/>
<path d="M235.637 181.289C235.741 181.104 235.894 180.952 236.08 180.85C236.265 180.748 236.475 180.699 236.687 180.709C237.594 180.709 237.997 181.373 237.997 182.389V183.767C237.997 184.842 237.485 185.548 236.401 185.548C235.317 185.548 234.822 184.842 234.822 183.767V183.296H235.553V183.817C235.553 184.456 235.821 184.834 236.393 184.834C236.964 184.834 237.233 184.456 237.233 183.817V182.448C237.233 181.81 236.972 181.432 236.393 181.432C236.287 181.42 236.179 181.43 236.078 181.463C235.976 181.496 235.882 181.55 235.803 181.621C235.724 181.692 235.66 181.78 235.617 181.877C235.574 181.975 235.552 182.081 235.553 182.188V182.347H234.813L235.007 178.424H237.787V179.13H235.712L235.637 181.289Z" fill="#263238"/>
<path d="M238.006 192.209V192.36H237.266V192.175C237.266 191.537 237.006 191.167 236.426 191.167C235.847 191.167 235.586 191.554 235.586 192.301V193.889C235.667 193.656 235.821 193.456 236.026 193.32C236.231 193.183 236.475 193.117 236.72 193.133C237.628 193.133 238.031 193.788 238.031 194.813V195.88C238.031 196.955 237.502 197.66 236.418 197.66C235.334 197.66 234.797 196.955 234.797 195.88V192.284C234.797 191.167 235.301 190.47 236.418 190.47C237.535 190.47 238.006 191.134 238.006 192.209ZM235.578 194.88V195.938C235.578 196.577 235.838 196.955 236.418 196.955C236.998 196.955 237.258 196.577 237.258 195.938V194.88C237.258 194.25 236.989 193.864 236.418 193.864C235.847 193.864 235.578 194.216 235.578 194.88Z" fill="#263238"/>
<path d="M238.006 204.313V207.908C238.006 209.026 237.502 209.731 236.376 209.731C235.25 209.731 234.78 209.042 234.78 207.959V207.833H235.519V208.009C235.519 208.648 235.788 209.017 236.359 209.017C236.93 209.017 237.199 208.639 237.199 207.892V206.312C237.117 206.543 236.962 206.74 236.757 206.873C236.552 207.007 236.309 207.069 236.065 207.052C235.158 207.052 234.755 206.413 234.755 205.372V204.288C234.755 203.213 235.276 202.516 236.368 202.516C237.46 202.516 238.006 203.28 238.006 204.313ZM235.544 204.313V205.372C235.544 206.01 235.822 206.388 236.384 206.388C236.947 206.388 237.224 206.01 237.224 205.372V204.313C237.224 203.675 236.964 203.297 236.384 203.297C235.805 203.297 235.544 203.633 235.544 204.271V204.313Z" fill="#263238"/>
<path d="M236.359 218.719L235.2 221.76H234.452L235.872 218.123L234.545 214.704H235.385L236.477 217.526L237.577 214.704H238.308L236.989 218.123L238.4 221.76H237.56L236.359 218.719Z" fill="#263238"/>
<path d="M236.04 133.123C235.153 133.124 234.29 133.414 233.582 133.949C232.874 134.484 232.36 135.235 232.117 136.088L226.414 156.248H245.675L239.963 136.088C239.721 135.234 239.207 134.482 238.499 133.947C237.791 133.412 236.928 133.123 236.04 133.123Z" fill="#D9D9D9" stroke="#263238" stroke-width="0.84" stroke-linecap="round" stroke-linejoin="round"/>
<path d="M223.801 46.914H197.946V86.9232H223.801V46.914Z" fill="white" stroke="#263238" stroke-width="0.84" stroke-linecap="round" stroke-linejoin="round"/>
<path d="M221.222 92.358H200.533L197.946 86.9904H223.809L221.222 92.358Z" fill="#FF3B3B" stroke="#263238" stroke-width="0.84" stroke-linecap="round" stroke-linejoin="round"/>
<path d="M221.222 142.43H200.533L197.946 137.063H223.809L221.222 142.43Z" fill="#263238" stroke="#263238" stroke-width="0.84" stroke-linecap="round" stroke-linejoin="round"/>
<path d="M223.801 97.6332H197.946V137.642H223.801V97.6332Z" fill="white" stroke="#263238" stroke-width="0.84" stroke-linecap="round" stroke-linejoin="round"/>
<path d="M221.222 92.19H200.533L197.946 97.5576H223.809L221.222 92.19Z" fill="#D9D9D9" stroke="#263238" stroke-width="0.84" stroke-linecap="round" stroke-linejoin="round"/>
<path d="M223.801 147.706H197.946V277.192H223.801V147.706Z" fill="white" stroke="#263238" stroke-width="0.84" stroke-linecap="round" stroke-linejoin="round"/>
<path d="M197.971 159.6H223.818" stroke="#263238" stroke-width="0.84" stroke-linecap="round" stroke-linejoin="round"/>
<path d="M197.971 178.399H223.818" stroke="#263238" stroke-width="0.84" stroke-linecap="round" stroke-linejoin="round"/>
<path d="M197.971 197.198H223.818" stroke="#263238" stroke-width="0.84" stroke-linecap="round" stroke-linejoin="round"/>
<path d="M197.971 215.998H223.818" stroke="#263238" stroke-width="0.84" stroke-linecap="round" stroke-linejoin="round"/>
<path d="M197.971 234.788H223.818" stroke="#263238" stroke-width="0.84" stroke-linecap="round" stroke-linejoin="round"/>
<path d="M210.504 215.998V234.402" stroke="#263238" stroke-width="0.84" stroke-linecap="round" stroke-linejoin="round"/>
<path d="M219.483 285.499H202.583L200.474 292.74H221.6L219.483 285.499Z" fill="#263238" stroke="#263238" stroke-width="0.84" stroke-linecap="round" stroke-linejoin="round"/>
<path d="M221.147 286.028H200.601L198.039 277.2H223.717L221.147 286.028Z" fill="#FF3B3B" stroke="#263238" stroke-width="0.84" stroke-linecap="round" stroke-linejoin="round"/>
<path d="M210.84 260.114C208.174 260.126 205.621 261.192 203.739 263.082C201.858 264.971 200.802 267.528 200.802 270.194V285.558H220.92V270.161C220.911 267.493 219.845 264.938 217.956 263.055C216.066 261.172 213.507 260.114 210.84 260.114Z" stroke="#263238" stroke-width="0.84" stroke-linecap="round" stroke-linejoin="round"/>
<path d="M221.222 142.271H200.533L197.946 147.63H223.809L221.222 142.271Z" fill="#263238" stroke="#263238" stroke-width="0.84" stroke-linecap="round" stroke-linejoin="round"/>
<path d="M210.84 22.68C209.343 22.6838 207.886 23.1624 206.678 24.047C205.471 24.9315 204.575 26.1764 204.12 27.6024L197.929 46.9812H223.784L217.602 27.6024C217.145 26.1695 216.243 24.9198 215.027 24.0346C213.811 23.1494 212.344 22.6749 210.84 22.68Z" fill="#D9D9D9" stroke="#263238" stroke-width="0.84" stroke-linecap="round" stroke-linejoin="round"/>
<path d="M200.533 239.946H193.133V242.122H200.533V239.946Z" fill="white" stroke="#263238" stroke-width="0.84" stroke-linecap="round" stroke-linejoin="round"/>
<path d="M228.404 239.946H221.004V242.122H228.404V239.946Z" fill="white" stroke="#263238" stroke-width="0.84" stroke-linecap="round" stroke-linejoin="round"/>
<path d="M31.9199 409.92H390.6" stroke="#263238" stroke-width="0.84" stroke-linecap="round" stroke-linejoin="round"/>
</svg>
