<svg xmlns="http://www.w3.org/2000/svg" width="1069" height="390" viewBox="0 0 1069 390" fill="none">


<g clip-path="url(#clip1_262_11)">
<path fill-rule="evenodd" clip-rule="evenodd" d="M892.706 353.795C883.747 371.467 865.178 379.013 847.534 369.613C846.947 369.3 846.217 369.523 845.904 370.103C845.591 370.693 845.813 371.424 846.401 371.737C865.313 381.822 885.252 373.823 894.856 354.888C895.156 354.298 894.919 353.567 894.325 353.265C893.732 352.972 893.007 353.205 892.706 353.795Z" fill="#FF3B3B"/>
<path d="M862.001 361.777C863.939 361.73 865.472 360.121 865.425 358.183C865.378 356.245 863.769 354.712 861.831 354.759C859.893 354.806 858.36 356.415 858.407 358.353C858.454 360.291 860.063 361.824 862.001 361.777Z" fill="#FF3B3B"/>
<path d="M876.437 357.693C878.337 357.647 879.84 356.069 879.794 354.169C879.748 352.269 878.17 350.766 876.27 350.812C874.37 350.858 872.867 352.436 872.913 354.336C872.959 356.236 874.537 357.739 876.437 357.693Z" fill="#FF3B3B"/>
</g>
<path fill-rule="evenodd" clip-rule="evenodd" d="M244.618 263.52C241.771 261.181 239.465 258.395 237.732 255.148C237.385 254.502 236.579 254.255 235.926 254.602C235.279 254.949 235.032 255.755 235.379 256.408C237.285 259.961 239.805 263.014 242.925 265.58C243.491 266.047 244.338 265.967 244.804 265.4C245.271 264.827 245.184 263.987 244.618 263.52Z" fill="#FF3B3B"/>
<path fill-rule="evenodd" clip-rule="evenodd" d="M243.1 254.409C243.246 257.102 243.38 259.794 243.546 262.487C243.593 263.221 244.226 263.78 244.96 263.734C245.693 263.687 246.253 263.054 246.206 262.321C246.039 259.634 245.906 256.948 245.759 254.255C245.719 253.524 245.086 252.961 244.353 253.002C243.62 253.044 243.053 253.673 243.1 254.409Z" fill="#FF3B3B"/>
<path fill-rule="evenodd" clip-rule="evenodd" d="M252.996 254.955C251.289 257.528 249.356 259.901 247.41 262.301C246.943 262.874 247.03 263.714 247.603 264.174C248.176 264.64 249.016 264.554 249.476 263.98C251.476 261.521 253.462 259.075 255.222 256.428C255.629 255.815 255.455 254.989 254.842 254.582C254.235 254.175 253.402 254.342 252.996 254.955Z" fill="#FF3B3B"/>
<path fill-rule="evenodd" clip-rule="evenodd" d="M259.606 264.52C254.98 264.727 250.067 264.734 245.441 264.44C244.708 264.4 244.075 264.954 244.028 265.694C243.981 266.427 244.541 267.06 245.275 267.107C249.994 267.4 255.006 267.393 259.726 267.187C260.459 267.153 261.032 266.527 260.999 265.794C260.965 265.06 260.339 264.487 259.606 264.52Z" fill="#FF3B3B"/>
<path fill-rule="evenodd" clip-rule="evenodd" d="M242.921 265.367C245.774 268.86 248.727 272.286 251.373 275.938C251.806 276.532 252.64 276.665 253.239 276.232C253.833 275.798 253.966 274.965 253.533 274.372C250.853 270.679 247.867 267.213 244.981 263.68C244.514 263.114 243.674 263.027 243.108 263.494C242.534 263.96 242.454 264.8 242.921 265.367Z" fill="#FF3B3B"/>
<path fill-rule="evenodd" clip-rule="evenodd" d="M243.785 266.38C244.532 270.02 244.738 273.499 244.791 277.185C244.798 277.918 245.405 278.505 246.138 278.498C246.878 278.485 247.464 277.885 247.451 277.145C247.398 273.286 247.178 269.653 246.398 265.84C246.245 265.12 245.545 264.654 244.818 264.807C244.098 264.954 243.632 265.66 243.785 266.38Z" fill="#FF3B3B"/>
<path fill-rule="evenodd" clip-rule="evenodd" d="M243.905 266.087C241.746 270.406 240.632 275.206 238.32 279.432C237.966 280.072 238.206 280.885 238.853 281.238C239.499 281.591 240.306 281.351 240.659 280.711C242.985 276.459 244.112 271.633 246.292 267.28C246.618 266.62 246.352 265.82 245.698 265.487C245.038 265.161 244.239 265.427 243.905 266.087Z" fill="#FF3B3B"/>
<path fill-rule="evenodd" clip-rule="evenodd" d="M245.094 265.107C240.795 265.867 236.502 266.213 232.176 266.727C231.443 266.813 230.923 267.473 231.009 268.206C231.096 268.94 231.756 269.46 232.489 269.373C236.862 268.86 241.208 268.5 245.56 267.733C246.28 267.6 246.767 266.907 246.64 266.187C246.507 265.46 245.82 264.974 245.094 265.107Z" fill="#FF3B3B"/>
<path fill-rule="evenodd" clip-rule="evenodd" d="M248.085 263.081C247.199 263.041 246.359 262.981 245.492 262.854C244.759 262.748 244.086 263.254 243.979 263.981C243.873 264.707 244.379 265.387 245.106 265.494C246.066 265.634 246.992 265.7 247.965 265.74C248.699 265.774 249.325 265.207 249.352 264.467C249.385 263.734 248.819 263.114 248.085 263.081Z" fill="#FF3B3B"/>
<defs>
<clipPath id="clip0_262_11">
<rect width="107.979" height="107.979" fill="white" transform="translate(60.6896) rotate(34.1975)"/>
</clipPath>
<clipPath id="clip1_262_11">
<rect width="50" height="50" fill="white" transform="translate(845 339.21) rotate(-1.38712)"/>
</clipPath>
</defs>
</svg>