<svg width="245" height="88" viewBox="0 0 245 88" fill="none" xmlns="http://www.w3.org/2000/svg">
<path fill-rule="evenodd" clip-rule="evenodd" d="M4.79449 3.70406C3.79235 2.88028 2.98032 1.89926 2.37011 0.756305C2.24807 0.528652 1.9641 0.441813 1.7341 0.563854C1.50645 0.685895 1.41959 0.96988 1.54163 1.19988C2.21286 2.4508 3.10002 3.5257 4.19839 4.42927C4.39788 4.59356 4.69593 4.56539 4.86021 4.3659C5.0245 4.16406 4.99398 3.86835 4.79449 3.70406Z" fill="#FF3B3B"/>
<path fill-rule="evenodd" clip-rule="evenodd" d="M4.26071 0.495953C4.31234 1.44412 4.35929 2.39228 4.41797 3.34044C4.4344 3.5986 4.65735 3.79575 4.91552 3.77932C5.17368 3.76289 5.37082 3.53993 5.35439 3.28177C5.29572 2.33595 5.24877 1.39014 5.19714 0.441978C5.18306 0.184519 4.9601 -0.0137988 4.70194 0.000752251C4.44377 0.0153033 4.24428 0.237086 4.26071 0.495953Z" fill="#FF3B3B"/>
<path fill-rule="evenodd" clip-rule="evenodd" d="M7.74434 0.688219C7.14352 1.59414 6.46294 2.42964 5.77763 3.27454C5.61334 3.47637 5.64383 3.7721 5.84567 3.93404C6.04751 4.09832 6.34324 4.06781 6.50517 3.86597C7.20926 2.99995 7.90864 2.13862 8.52824 1.20688C8.6714 0.990965 8.61036 0.699955 8.39444 0.556791C8.18087 0.413628 7.8875 0.472301 7.74434 0.688219Z" fill="#FF3B3B"/>
<path fill-rule="evenodd" clip-rule="evenodd" d="M10.0727 4.05647C8.44389 4.12922 6.7142 4.13157 5.08542 4.02831C4.82726 4.01422 4.6043 4.20902 4.58787 4.46953C4.57144 4.72769 4.76858 4.95065 5.02675 4.96708C6.68838 5.07035 8.45329 5.068 10.1149 4.99524C10.3731 4.98351 10.5749 4.7629 10.5632 4.50474C10.5514 4.24658 10.3308 4.04473 10.0727 4.05647Z" fill="#FF3B3B"/>
<path fill-rule="evenodd" clip-rule="evenodd" d="M4.19653 4.3543C5.20102 5.58409 6.24073 6.79043 7.17247 8.07655C7.32502 8.28543 7.6184 8.33236 7.82962 8.1798C8.0385 8.02725 8.08542 7.73388 7.93287 7.525C6.9894 6.22479 5.93798 5.00439 4.92176 3.76051C4.75747 3.56102 4.46174 3.53052 4.26225 3.69481C4.06042 3.85909 4.03225 4.15481 4.19653 4.3543Z" fill="#FF3B3B"/>
<path fill-rule="evenodd" clip-rule="evenodd" d="M4.50246 4.71138C4.76532 5.9928 4.83807 7.21791 4.85685 8.51577C4.8592 8.77393 5.07277 8.98045 5.33094 8.97811C5.59145 8.97341 5.79797 8.76218 5.79328 8.50167C5.7745 7.1428 5.69706 5.86372 5.42247 4.52127C5.36849 4.2678 5.12206 4.10351 4.86625 4.15749C4.61278 4.20912 4.44848 4.45791 4.50246 4.71138Z" fill="#FF3B3B"/>
<path fill-rule="evenodd" clip-rule="evenodd" d="M4.5437 4.60795C3.78329 6.12877 3.39135 7.81857 2.57696 9.30653C2.45257 9.53183 2.53704 9.81815 2.7647 9.94254C2.99235 10.0669 3.27635 9.98243 3.40074 9.75712C4.21982 8.25977 4.61644 6.5606 5.38389 5.02805C5.49889 4.7957 5.40501 4.51407 5.17501 4.39672C4.94266 4.28172 4.66104 4.37561 4.5437 4.60795Z" fill="#FF3B3B"/>
<path fill-rule="evenodd" clip-rule="evenodd" d="M4.96241 4.26263C3.44863 4.53018 1.9372 4.65222 0.414036 4.83293C0.155872 4.86344 -0.027189 5.0958 0.00332125 5.35396C0.0338315 5.61212 0.2662 5.79519 0.524364 5.76467C2.06396 5.58396 3.59416 5.45722 5.12671 5.18732C5.38018 5.14038 5.55151 4.8963 5.50692 4.64283C5.45998 4.38702 5.21823 4.21569 4.96241 4.26263Z" fill="#FF3B3B"/>
<path fill-rule="evenodd" clip-rule="evenodd" d="M6.01615 3.54964C5.704 3.53556 5.40829 3.51443 5.10318 3.46984C4.84502 3.43229 4.60797 3.61065 4.57042 3.86647C4.53287 4.12229 4.71123 4.36168 4.96704 4.39923C5.305 4.44852 5.63124 4.47198 5.97389 4.48607C6.23205 4.4978 6.45265 4.2983 6.46204 4.03779C6.47378 3.77963 6.27431 3.56137 6.01615 3.54964Z" fill="#FF3B3B"/>
<g clip-path="url(#clip0_62_24)">
<path fill-rule="evenodd" clip-rule="evenodd" d="M241.488 57.4056C233.884 72.4047 218.124 78.8094 203.149 70.8316C202.651 70.5659 202.031 70.7545 201.765 71.247C201.5 71.7481 201.688 72.3684 202.187 72.6341C218.238 81.1934 235.162 74.4046 243.313 58.3335C243.568 57.8326 243.366 57.2125 242.863 56.9557C242.359 56.7075 241.744 56.9048 241.488 57.4056Z" fill="#FF3B3B"/>
<path d="M215.427 64.1804C217.072 64.1405 218.373 62.7749 218.333 61.1301C218.293 59.4853 216.927 58.1842 215.283 58.224C213.638 58.2639 212.337 59.6295 212.377 61.2743C212.416 62.9191 213.782 64.2202 215.427 64.1804Z" fill="#FF3B3B"/>
<path d="M227.681 60.7135C229.294 60.6745 230.57 59.3355 230.531 57.7229C230.492 56.1102 229.153 54.8346 227.54 54.8736C225.927 54.9127 224.652 56.2516 224.691 57.8643C224.73 59.477 226.069 60.7526 227.681 60.7135Z" fill="#FF3B3B"/>
</g>
<defs>
<clipPath id="clip0_62_24">
<rect width="42.4372" height="42.4372" fill="white" transform="translate(201 45.0273) rotate(-1.38712)"/>
</clipPath>
</defs>
</svg>
