<svg width="71" height="59" viewBox="0 0 71 59" fill="none" xmlns="http://www.w3.org/2000/svg">
<path d="M70.0312 28.1719L54.0938 1.60938C53.2969 0.8125 52.5 0.28125 51.7031 0.28125H19.5625C18.7656 0.28125 17.7031 0.8125 17.4375 1.60938L1.5 28.1719C0.96875 28.9688 0.96875 30.0312 1.5 30.8281L17.4375 57.3906C17.7031 58.1875 18.7656 58.7188 19.5625 58.7188H51.4375C52.5 58.7188 53.2969 58.1875 53.8281 57.3906L69.7656 30.8281C70.2969 30.0312 70.2969 28.9688 70.0312 28.1719Z" fill="#F2CD30"/>
<path d="M51.7031 58.7188H19.5625C18.5 58.7188 17.7031 58.1875 17.1719 57.3906L1.23438 30.8281C0.703125 30.0312 0.703125 28.9688 1.23438 28.1719L17.1719 1.60938C17.7031 0.8125 18.7656 0.28125 19.5625 0.28125H51.4375C52.5 0.28125 53.2969 0.8125 53.8281 1.60938L69.7656 28.1719C70.2969 28.9688 70.2969 30.0312 69.7656 30.8281L53.8281 57.3906C53.2969 58.1875 52.5 58.7188 51.7031 58.7188ZM21.1563 53.4062H50.1094L64.4531 29.5L50.1094 5.59375H21.1563L6.8125 29.5L21.1563 53.4062Z" fill="#DB4958"/>
<path d="M35.5 37.4688C33.9062 37.4688 32.8438 36.4062 32.8438 34.8125V13.5625C32.8438 11.9687 33.9062 10.9062 35.5 10.9062C37.0938 10.9062 38.1562 11.9687 38.1562 13.5625V34.8125C38.1562 36.4062 37.0938 37.4688 35.5 37.4688ZM35.5 48.0938C33.9062 48.0938 32.8438 47.0312 32.8438 45.4375V42.7812C32.8438 41.1875 33.9062 40.125 35.5 40.125C37.0938 40.125 38.1562 41.1875 38.1562 42.7812V45.4375C38.1562 47.0312 37.0938 48.0938 35.5 48.0938Z" fill="white"/>
</svg>
