<svg width="984" height="785" viewBox="0 0 984 785" fill="none" xmlns="http://www.w3.org/2000/svg">
<rect width="984" height="785" fill="#1D1D1D"/>
<path d="M530.99 552.755C530.99 536.176 537.576 520.277 549.299 508.554C561.022 496.831 576.921 490.245 593.5 490.245C610.079 490.245 625.978 496.831 637.701 508.554C649.424 520.277 656.01 536.176 656.01 552.755" stroke="#FF3B3B" stroke-width="7.98" stroke-linecap="round" stroke-linejoin="round"/>
<g clip-path="url(#clip0_261_10)">
<path d="M890.771 252.148C886.282 266.393 878.422 279.344 867.858 289.902C857.294 300.459 844.338 308.311 830.091 312.791L890.771 252.148Z" fill="#FF3B3B"/>
<path d="M895 224.5C895.001 228.785 894.702 233.065 894.105 237.308L815.226 316.127C811.009 316.705 806.757 316.997 802.5 317C799.877 317 797.276 316.898 794.713 316.674L894.674 216.693C894.898 219.276 895 221.877 895 224.5Z" fill="#FF3B3B"/>
<path d="M893.252 206.631L784.631 315.252C779.344 314.226 774.159 312.729 769.139 310.779L888.758 191.098C890.724 196.129 892.228 201.328 893.252 206.631Z" fill="#FF3B3B"/>
<path d="M885.241 183.128L761.169 307.263C756.836 305.077 752.677 302.563 748.728 299.741L877.678 170.665C880.52 174.616 883.049 178.783 885.241 183.128Z" fill="#FF3B3B"/>
<path d="M872.615 164.223L742.305 294.678C738.724 291.609 735.384 288.269 732.315 284.688L862.777 154.385C866.297 157.415 869.585 160.704 872.615 164.223Z" fill="#FF3B3B"/>
<path d="M856.335 149.321L727.261 278.272C724.439 274.323 721.924 270.164 719.738 265.831L843.873 141.759C848.218 143.951 852.385 146.48 856.335 149.321Z" fill="#FF3B3B"/>
<path d="M835.902 138.242L716.221 257.861C714.271 252.841 712.774 247.656 711.748 242.369L820.369 133.748C825.672 134.772 830.871 136.276 835.902 138.242Z" fill="#FF3B3B"/>
<path d="M810.307 132.326L710.326 232.287C710.102 229.724 710 227.123 710 224.5C710.003 220.243 710.295 215.991 710.875 211.774L789.692 132.894C793.936 132.298 798.215 131.999 802.5 132C805.123 132 807.724 132.102 810.307 132.326Z" fill="#FF3B3B"/>
<path d="M774.872 136.229L714.209 196.935C718.685 182.68 726.539 169.716 737.1 159.147C747.662 148.578 760.62 140.716 774.872 136.229Z" fill="#FF3B3B"/>
</g>
<defs>
<clipPath id="clip0_261_10">
<rect width="185" height="185" fill="white" transform="translate(710 132)"/>
</clipPath>
</defs>
</svg>
