<svg width="318" height="23" viewBox="0 0 318 23" fill="none" xmlns="http://www.w3.org/2000/svg">
<path d="M17.2978 5.97936C5.17298 12.6476 2.66953 13.6844 0.856742 16.0534C0.856739 16.9963 0.73027 17.1452 1.6788 18.0881C9.48776 13.9074 19.5743 8.01402 23.6213 9.5028C27.6684 10.9916 29.6919 23.8281 38.5448 22.9018C44.6786 22.2599 43.0345 18.1377 55.9344 10.3464C59.6653 18.3362 66.2417 19.0744 70.2887 15.9045C71.5559 14.912 74.707 12.9356 77.2446 10.7931C78.6501 16.7986 84.5166 18.8324 87.9313 16.7978C91.0347 14.9486 93.8121 12.3811 98.1121 10.3464C109.368 21.5122 106.965 14.8128 122.963 9.10579C133.524 25.3831 141.491 13.4232 153.822 9.35392C165.774 25.8297 172.793 15.1601 184.934 9.35392C191.447 22.3063 197.328 13.5721 209.026 8.06365C223.444 20.0731 226.1 11.3886 238.81 7.66664C249.117 22.9018 253.733 8.01402 267.392 8.46066C272.767 16.3512 279.118 14.846 290.094 8.65916C290.094 8.65916 292.327 11.3899 295.279 11.7856C299.705 12.379 299.705 10.8923 307.483 8.01402C310.392 6.93758 312.31 6.04293 317.032 5.73124V2.25741C312.977 2.76502 309.507 2.56535 306.408 3.94471C298.659 7.39446 296.395 6.14281 294.899 4.29209C294.347 3.60856 294.501 2.92665 294.014 2.25741C290.726 -2.25847 282.252 5.78084 274.601 7.21999C270.111 -1.2164 257.844 1.31455 246.778 7.46813C246.778 7.46813 243.742 2.30305 240.075 1.31455C233.814 -0.372702 228.06 3.79582 220.661 7.46813C217.307 9.1332 212.062 1.51304 208.457 1.51304C203.019 1.51304 191.953 8.95691 191.953 8.95691C191.953 8.95691 191.78 4.62529 188.285 3.00182C181.266 -0.258845 171.275 9.65167 165.774 11.4382C160.09 13.2838 162.296 5.87434 156.668 3.10107C151.04 0.327792 136.243 10.7931 132.512 10.9916C130.297 11.1094 129.034 3.79583 124.544 3.00182C117.034 1.67367 105.384 9.65167 105.384 9.65167C105.384 9.65167 102.792 4.73872 98.1121 3.79583C92.5427 2.6736 84.5166 10.1479 84.5166 10.1479C84.5166 10.1479 85.3387 3.79583 79.9005 2.55518C76.6192 1.80663 63.5858 11.2397 63.5858 11.2397C63.5858 11.2397 61.1663 6.01504 56.9462 4.24246C51.8241 2.09108 41.2006 13.6217 36.711 17.0459C34.0621 19.0662 29.4227 -0.688861 17.2978 5.97936Z" fill="#FF3B3B"/>
</svg>
