<svg width="87" height="93" viewBox="0 0 87 93" fill="none" xmlns="http://www.w3.org/2000/svg">
<path fill-rule="evenodd" clip-rule="evenodd" d="M57.106 16.6395C57.8313 15.0576 58.6047 13.5318 59.442 12.0492C60.6971 9.82486 62.247 7.77729 63.6154 5.62985C64.1952 4.71832 65.6705 2.31729 65.9412 2.01163C68.3152 -0.641383 70.9742 0.512692 71.7174 0.901128C72.0832 1.07979 75.7657 3.0229 73.9248 7.32037C71.6769 12.5769 68.7919 17.4469 65.361 21.8062C63.4646 26.2059 62.1103 30.9504 61.4149 35.6067C58.6528 54.1284 70.538 64.1864 84.4997 73.4874C86.6553 74.9056 87.2893 77.7842 85.9595 79.9812C84.619 82.1941 81.7734 82.9647 79.519 81.7125C71.254 77.1919 53.2671 74.0612 44.1097 77.3034C42.1934 77.9827 39.3928 80.8588 36.4489 83.5442C32.3567 87.2677 28.0946 90.8056 25.4133 91.6878C25.0045 91.8297 20.4123 92.9988 19.3446 92.9027C16.7883 92.6575 15.6982 91.0541 15.2199 89.9364C14.7415 88.8187 14.5091 87.0988 15.3293 85.0684C16.1861 82.9464 19.1036 79.3804 19.5941 78.5248C21.3725 75.4204 24.7165 69.2303 26.8936 63.4362C28.0652 60.3158 29.0529 57.3735 28.7423 55.3673C27.5919 47.9415 20.3586 44.0055 14.1414 40.8763C13.4317 40.5106 12.7112 40.161 12.0031 39.7964C9.21345 38.9031 6.39946 37.7368 3.58601 36.2679C-0.665911 34.0546 1.14674 29.9944 1.27421 29.7313C1.55849 29.1552 3.12806 26.2587 6.83298 27.1911C7.23259 27.2994 9.97934 28.3965 11.0404 28.8145C12.5178 29.3988 13.966 30.0567 15.4083 30.7337C31.6905 35.6901 46.9681 28.9134 57.106 16.6395ZM51.8686 34.2719C49.8123 48.2144 54.0674 58.5192 61.6356 67.0191L61.6341 67.0181C53.9076 66.1271 46.1867 66.3358 40.892 68.2163C38.8845 68.927 35.9877 71.1314 32.9466 73.7507C34.5059 70.4508 36.0311 66.8479 37.0394 63.5699C38.1929 59.8311 38.6601 56.3955 38.2747 53.8956C37.527 49.0746 35.1889 45.0845 32.0272 41.7471C39.1504 40.8294 45.8599 38.2084 51.8686 34.2719Z" fill="black"/>
</svg>
