<svg   viewBox="0 0 75 75" fill="none" xmlns="http://www.w3.org/2000/svg">
<path d="M43.75 29.0625V38.125H51.875C52.5 38.125 52.8125 38.75 52.8125 39.375L51.5625 45.3125C51.5625 45.625 50.9375 45.9375 50.625 45.9375H43.75V68.75H34.375V46.25H29.0625C28.4375 46.25 28.125 45.9375 28.125 45.3125V39.375C28.125 38.75 28.4375 38.4375 29.0625 38.4375H34.375V28.125C34.375 22.8125 38.4375 18.75 43.75 18.75H52.1875C52.8125 18.75 53.125 19.0625 53.125 19.6875V27.1875C53.125 27.8125 52.8125 28.125 52.1875 28.125H44.6875C44.0625 28.125 43.75 28.4375 43.75 29.0625Z" stroke="black" stroke-width="3" stroke-miterlimit="10" stroke-linecap="round"/>
<path d="M46.875 68.75H28.125C12.5 68.75 6.25 62.5 6.25 46.875V28.125C6.25 12.5 12.5 6.25 28.125 6.25H46.875C62.5 6.25 68.75 12.5 68.75 28.125V46.875C68.75 62.5 62.5 68.75 46.875 68.75Z" stroke="black" stroke-width="3" stroke-linecap="round" stroke-linejoin="round"/>
</svg>
