<svg width="75" height="75" viewBox="0 0 75 75" fill="none" xmlns="http://www.w3.org/2000/svg">
<path d="M28.125 68.75H46.875C62.5 68.75 68.75 62.5 68.75 46.875V28.125C68.75 12.5 62.5 6.25 46.875 6.25H28.125C12.5 6.25 6.25 12.5 6.25 28.125V46.875C6.25 62.5 12.5 68.75 28.125 68.75Z" stroke="black" stroke-width="3" stroke-linecap="round" stroke-linejoin="round"/>
<path d="M37.5 48.4375C38.9363 48.4375 40.3586 48.1546 41.6856 47.6049C43.0126 47.0553 44.2183 46.2496 45.234 45.234C46.2496 44.2183 47.0553 43.0126 47.6049 41.6856C48.1546 40.3586 48.4375 38.9363 48.4375 37.5C48.4375 36.0637 48.1546 34.6414 47.6049 33.3144C47.0553 31.9874 46.2496 30.7817 45.234 29.766C44.2183 28.7504 43.0126 27.9447 41.6856 27.3951C40.3586 26.8454 38.9363 26.5625 37.5 26.5625C34.5992 26.5625 31.8172 27.7148 29.766 29.766C27.7148 31.8172 26.5625 34.5992 26.5625 37.5C26.5625 40.4008 27.7148 43.1828 29.766 45.234C31.8172 47.2852 34.5992 48.4375 37.5 48.4375Z" stroke="black" stroke-width="3" stroke-linecap="round" stroke-linejoin="round"/>
<path d="M55.1125 21.875H55.15" stroke="black" stroke-width="5" stroke-linecap="round" stroke-linejoin="round"/>
</svg>
