<svg width="550" height="550" viewBox="0 0 550 550" fill="none" xmlns="http://www.w3.org/2000/svg">
<path opacity="0.7" d="M74.7227 183.799C74.7227 183.799 44.0547 262.999 87.1528 342.749C130.251 422.499 219.021 464.629 290.07 500.654C361.119 536.679 434.896 519.134 469.953 460.13C505.01 401.126 456.929 359.007 456.863 274.868C456.797 190.729 469.458 168.454 423.863 97.372C378.268 26.29 266.497 10.549 181.973 63.272C97.4487 115.995 74.7227 183.799 74.7227 183.799Z" fill="white"/>
<path d="M45.1879 322.883C40.0462 299.125 42.2679 274.364 51.5569 251.9C64.2619 220.484 91.5639 198.165 122.144 185.141C166.595 166.21 210.221 165.858 246.356 128.766C257.499 117.326 266.849 104.225 278.256 93.027C311.828 60.027 360.965 63.987 397.661 90.189C474.199 144.848 501.732 253.11 497.475 342.606C495.539 382.8 476.366 420.2 446.017 446.534C377.377 506.132 260.832 496.1 182.017 464.992C123.2 441.793 58.9929 387.673 45.1879 322.883Z" fill="white"/>
<path opacity="0.7" d="M45.1879 322.883C40.0462 299.125 42.2679 274.364 51.5569 251.9C64.2619 220.484 91.5639 198.165 122.144 185.141C166.595 166.21 210.221 165.858 246.356 128.766C257.499 117.326 266.849 104.225 278.256 93.027C311.828 60.027 360.965 63.987 397.661 90.189C474.199 144.848 501.732 253.11 497.475 342.606C495.539 382.8 476.366 420.2 446.017 446.534C377.377 506.132 260.832 496.1 182.017 464.992C123.2 441.793 58.9929 387.673 45.1879 322.883Z" fill="white"/>
<path d="M117.499 211.321C125.227 203.593 125.227 191.063 117.499 183.335C109.771 175.607 97.2415 175.607 89.5134 183.335C81.7854 191.063 81.7854 203.593 89.5134 211.321C97.2415 219.049 109.771 219.049 117.499 211.321Z" stroke="#263238" stroke-width="1.1" stroke-linecap="round" stroke-linejoin="round"/>
<path d="M443.685 140.976C452.232 139.733 462.748 143.693 463.771 153.34C464.706 162.041 458.744 170.94 453.464 177.331C448.47 183.326 441.606 190.091 434.016 192.731C425.359 195.69 422.576 186.725 427.9 180.939C438.515 169.4 463.617 163.669 476.828 173.448C491.7 184.448 481.657 207.768 467.753 214.753C463.232 217.03 459.25 214.148 462.506 209.374C464.97 205.755 469.667 204.094 473.781 203.346C481.998 201.85 494.78 203.676 497.882 212.883" stroke="#263238" stroke-width="1.1" stroke-linecap="round" stroke-linejoin="round"/>
<path d="M425.7 148.555C429.776 145.786 434.219 143.602 438.9 142.065" stroke="#263238" stroke-width="1.1" stroke-linecap="round" stroke-linejoin="round"/>
<path d="M417.351 155.023C418.737 153.747 420.189 152.559 421.685 151.426" stroke="#263238" stroke-width="1.1" stroke-linecap="round" stroke-linejoin="round"/>
<path d="M280.489 68.9479L284.02 65.2739L240.966 69.4209L265.54 79.9479" stroke="#263238" stroke-width="1.1" stroke-linecap="round" stroke-linejoin="round"/>
<path d="M267.509 80.7949L284.02 87.8569L274.604 75.0639L279.103 70.3889" stroke="#263238" stroke-width="1.1" stroke-linecap="round" stroke-linejoin="round"/>
<path d="M360.8 70.884V56.496" stroke="#263238" stroke-width="1.1" stroke-linecap="round" stroke-linejoin="round"/>
<path d="M360.8 81.466V75.218" stroke="#263238" stroke-width="1.1" stroke-linecap="round" stroke-linejoin="round"/>
<path d="M376.123 83.457L386.474 61.7209" stroke="#263238" stroke-width="1.1" stroke-linecap="round" stroke-linejoin="round"/>
<path d="M405.273 84.0179L410.036 80.2999" stroke="#263238" stroke-width="1.1" stroke-linecap="round" stroke-linejoin="round"/>
<path d="M388.916 96.6129L401.302 87.0759" stroke="#263238" stroke-width="1.1" stroke-linecap="round" stroke-linejoin="round"/>
<path d="M55.8582 300.597L33.8252 294.844L37.3012 324.907L72.1162 304.832L57.8052 301.103" stroke="#263238" stroke-width="1.1" stroke-linecap="round" stroke-linejoin="round"/>
<path d="M487.553 289.564L511.918 297.99" stroke="#263238" stroke-width="1.1" stroke-linecap="round" stroke-linejoin="round"/>
<path d="M474.342 410.41C475.328 411.489 476.525 412.354 477.859 412.95C479.194 413.546 480.637 413.86 482.098 413.874C483.56 413.887 485.008 413.6 486.353 413.029C487.699 412.458 488.912 411.616 489.917 410.555C490.923 409.494 491.699 408.238 492.197 406.864C492.695 405.49 492.905 404.028 492.813 402.569C492.721 401.111 492.33 399.687 491.664 398.386C490.997 397.086 490.07 395.936 488.939 395.01" stroke="#263238" stroke-width="1.1" stroke-linecap="round" stroke-linejoin="round"/>
<path d="M487.091 393.8C485.021 392.707 482.647 392.327 480.339 392.721C478.03 393.114 475.916 394.258 474.324 395.975C472.733 397.692 471.752 399.887 471.534 402.218C471.317 404.55 471.875 406.888 473.121 408.87" stroke="#263238" stroke-width="1.1" stroke-linecap="round" stroke-linejoin="round"/>
<path d="M72.512 370.018L63.041 394.449" stroke="#263238" stroke-width="1.1" stroke-linecap="round" stroke-linejoin="round"/>
<path d="M75.6033 362.032L74.2173 365.596" stroke="#263238" stroke-width="1.1" stroke-linecap="round" stroke-linejoin="round"/>
<path d="M149.215 222.442L175.351 237.567" stroke="#263238" stroke-width="1.1" stroke-linecap="round" stroke-linejoin="round"/>
<path d="M120.274 132L99.0664 145.706" stroke="#263238" stroke-width="1.1" stroke-linecap="round" stroke-linejoin="round"/>
<path d="M127.82 127.094L124.52 129.184" stroke="#263238" stroke-width="1.1" stroke-linecap="round" stroke-linejoin="round"/>
<path d="M492.778 140.723V149.952L499.741 148.137L492.778 140.723Z" stroke="#263238" stroke-width="1.1" stroke-linecap="round" stroke-linejoin="round"/>
<path d="M196.977 153.912C195.8 150.414 209 134.893 209 134.893L216.15 142.494C216.15 142.494 199.364 160.765 196.977 153.912Z" fill="white" stroke="#263238" stroke-width="1.1" stroke-linecap="round" stroke-linejoin="round"/>
<path d="M178.904 131.417C182.743 134.827 185.35 132.198 185.35 132.198C185.263 132.539 185.246 132.894 185.298 133.242C185.351 133.59 185.472 133.924 185.656 134.224C185.839 134.524 186.081 134.785 186.366 134.991C186.652 135.196 186.976 135.342 187.319 135.421C189.101 135.96 196.042 132.627 200.717 132.627C202.226 140.25 202.905 148.013 202.741 155.782C202.741 155.782 218.801 157.421 220.979 145.882C220.979 145.882 217.932 138.622 215.831 131.956C212.993 122.947 212.608 120.472 211.123 118.569C208.769 115.577 189.266 110.418 184.041 110.198C178.816 109.978 175.989 129.888 169.466 139.106C170.22 139.452 171.054 139.584 171.879 139.489C172.703 139.394 173.485 139.075 174.141 138.567C175.934 137.423 178.904 131.417 178.904 131.417Z" fill="#BFBFBF" stroke="#263238" stroke-width="1.1" stroke-linecap="round" stroke-linejoin="round"/>
<path d="M178.904 131.417C182.083 123.42 186.109 120.131 186.109 120.131C186.109 120.131 187.209 117.293 186.109 116.424" stroke="#263238" stroke-width="1.1" stroke-linecap="round" stroke-linejoin="round"/>
<path d="M185.35 132.198C185.559 129.811 193.941 127.303 194.92 125.895C195.899 124.487 194.92 118.492 194.92 118.492" stroke="#263238" stroke-width="1.1" stroke-linecap="round" stroke-linejoin="round"/>
<path d="M200.716 132.627C202.227 132.497 203.675 131.962 204.907 131.08C206.14 130.197 207.113 128.999 207.723 127.611" stroke="#263238" stroke-width="1.1" stroke-linecap="round" stroke-linejoin="round"/>
<path d="M186.109 120.131C186.109 120.131 188.826 122.089 191.114 122.089C191.949 122.535 192.645 123.202 193.126 124.016C193.607 124.831 193.855 125.763 193.842 126.709" stroke="#263238" stroke-width="1.1" stroke-linecap="round" stroke-linejoin="round"/>
<path d="M187.198 124.377C186.547 125.114 186.049 125.973 185.732 126.904C185.414 127.835 185.285 128.819 185.35 129.8" stroke="#263238" stroke-width="1.1" stroke-linecap="round" stroke-linejoin="round"/>
<path d="M182.743 126.027C182.743 126.027 184.723 124.718 185.581 126.027" stroke="#263238" stroke-width="1.1" stroke-linecap="round" stroke-linejoin="round"/>
<path d="M326.7 204.138C326.7 204.138 313.137 194.238 301.532 196.02C301.532 196.02 239.745 202.983 238.293 202.983C238.293 202.983 221.793 140.206 218.559 134.893C218.559 134.893 217.987 130.493 216.238 129.877C216.238 129.877 208.945 149.886 196.955 153.912C196.955 153.912 198.055 157.718 200.695 157.718C200.695 157.718 200.288 225.918 209.858 234.025C219.428 242.132 300.3 248.82 300.3 248.82L326.7 204.138Z" fill="white"/>
<mask id="mask0_82_107" style="mask-type:luminance" maskUnits="userSpaceOnUse" x="196" y="129" width="131" height="120">
<path d="M326.7 204.138C326.7 204.138 313.137 194.238 301.532 196.02C301.532 196.02 239.745 202.983 238.293 202.983C238.293 202.983 221.793 140.206 218.559 134.893C218.559 134.893 217.987 130.493 216.238 129.877C216.238 129.877 208.945 149.886 196.955 153.912C196.955 153.912 198.055 157.718 200.695 157.718C200.695 157.718 200.288 225.918 209.858 234.025C219.428 242.132 300.3 248.82 300.3 248.82L326.7 204.138Z" fill="white"/>
</mask>
<g mask="url(#mask0_82_107)">
<path opacity="0.2" d="M282.446 242.363L278.41 246.763C253.737 244.178 216.216 239.437 209.88 234.069C200.31 225.94 200.717 157.762 200.717 157.762C199.023 157.762 197.956 156.167 197.417 155.034C206.327 154.671 217.217 145.75 217.217 145.75C218.911 155.287 206.514 166.232 206.514 166.232C206.514 166.232 205.864 205.37 211.089 225.082C216.314 244.794 282.446 242.363 282.446 242.363Z" fill="black"/>
</g>
<path d="M326.7 204.138C326.7 204.138 313.137 194.238 301.532 196.02C301.532 196.02 239.745 202.983 238.293 202.983C238.293 202.983 221.793 140.206 218.559 134.893C218.559 134.893 217.987 130.493 216.238 129.877C216.238 129.877 208.945 149.886 196.955 153.912C196.955 153.912 198.055 157.718 200.695 157.718C200.695 157.718 200.288 225.918 209.858 234.025C219.428 242.132 300.3 248.82 300.3 248.82L326.7 204.138Z" stroke="#263238" stroke-width="1.1" stroke-linecap="round" stroke-linejoin="round"/>
<path d="M306.328 207.625C306.328 207.625 308.825 199.21 319.924 201.146C331.023 203.082 358.633 203.852 372.559 199.496C372.559 199.496 336.908 245.63 315.898 237.358C294.888 229.086 306.328 207.625 306.328 207.625Z" fill="#BFBFBF" stroke="#263238" stroke-width="1.1" stroke-linecap="round" stroke-linejoin="round"/>
<path d="M365.87 106.601C365.87 106.601 362.648 95.601 354.64 97.966C346.632 100.331 347.721 100.001 343.299 97.636C338.877 95.271 336.149 97.295 334.642 100.672C333.135 104.049 330.077 103.213 325.358 101.607C320.639 100.001 316.558 102.069 316.723 106.601C316.888 111.133 310.86 106.414 307.483 111.474C304.106 116.534 306.13 116.193 305.459 120.274C304.788 124.355 297.693 126.687 299.046 130.405C300.399 134.123 305.789 140.525 300.729 143.231C295.669 145.937 293.975 154.374 298.87 156.904C303.765 159.434 294.8 167.024 298.034 173.943C300.982 180.235 309.166 181.698 305.459 188.111C304.795 189.083 304.439 190.234 304.439 191.411C304.439 192.589 304.795 193.739 305.459 194.711C305.651 194.996 305.928 195.214 306.25 195.334C306.572 195.454 306.924 195.471 307.256 195.381C307.588 195.291 307.884 195.1 308.102 194.834C308.32 194.568 308.45 194.24 308.473 193.897C308.505 193.03 308.758 192.185 309.21 191.444C310.893 188.749 313.214 191.444 315.931 186.384C315.931 186.384 314.182 192.126 319.957 194.15C322.971 195.25 323.51 196.988 323.323 198.462C323.282 198.718 323.323 198.98 323.438 199.212C323.554 199.444 323.74 199.634 323.969 199.755C324.198 199.876 324.459 199.923 324.716 199.888C324.973 199.854 325.213 199.74 325.402 199.562C325.992 198.944 326.424 198.191 326.66 197.369C326.895 196.547 326.928 195.68 326.755 194.843C326.755 194.843 336.204 202.609 342.958 200.915C349.712 199.221 358.479 196.867 358.82 191.807C359.888 193.267 360.569 194.974 360.8 196.768C360.82 197.087 360.936 197.392 361.133 197.644C361.33 197.895 361.598 198.081 361.902 198.178C362.207 198.274 362.534 198.276 362.839 198.183C363.145 198.091 363.416 197.908 363.616 197.659C364.937 196.112 365.738 194.187 365.904 192.159C366.501 193.836 367.669 195.249 369.204 196.152C369.541 196.317 369.919 196.382 370.292 196.339C370.665 196.296 371.018 196.147 371.31 195.91C371.601 195.673 371.819 195.357 371.937 195.001C372.055 194.644 372.068 194.261 371.976 193.897C371.739 193.207 371.745 192.457 371.993 191.77C372.241 191.084 372.716 190.503 373.34 190.124C376.717 188.1 379.071 184.393 377.047 179.663C377.047 179.663 382.129 183.04 380.435 188.1C380.092 188.871 379.96 189.718 380.051 190.557C380.142 191.395 380.452 192.194 380.952 192.874C381.128 193.03 381.35 193.125 381.585 193.145C381.819 193.166 382.054 193.11 382.255 192.987C382.456 192.864 382.611 192.68 382.7 192.461C382.788 192.243 382.803 192.002 382.745 191.774C382.483 191.175 382.382 190.519 382.449 189.87C382.516 189.22 382.751 188.599 383.13 188.067C385.484 184.36 391.578 179.85 386.848 174.625C382.118 169.4 385.44 166.1 385.44 166.1C385.44 166.1 384.769 169.477 390.511 171.666C396.253 173.855 392.711 177.023 393.283 179.366C393.498 180.198 393.931 180.957 394.537 181.566C394.744 181.779 395.021 181.91 395.317 181.935C395.613 181.96 395.908 181.877 396.147 181.701C396.387 181.526 396.555 181.27 396.621 180.98C396.687 180.69 396.646 180.387 396.506 180.125C396.156 179.607 395.947 179.007 395.901 178.384C395.855 177.76 395.972 177.136 396.242 176.572C399.135 171.358 391.523 168.971 390.742 164.417C389.961 159.863 391.072 154.726 391.523 150.271C391.93 146.41 392.238 143.462 389.796 140.14C388.212 137.94 386.199 135.982 385.396 133.397C384.957 131.391 384.898 129.32 385.22 127.292C385.545 125.259 385.425 123.18 384.868 121.198C383.471 117.271 378.807 117.898 376.75 114.598C374.814 111.518 376.475 107.393 372.757 105.292C371.618 104.752 370.338 104.587 369.1 104.823C367.862 105.058 366.731 105.681 365.87 106.601Z" fill="#263238"/>
<path d="M328.031 208.56C333.333 205.194 330.825 194.139 328.669 187.407C327.657 184.228 326.722 182.006 326.722 182.006H326.81L354.64 167.706C351.12 182.512 354.64 202.741 354.64 202.741" fill="#BFBFBF"/>
<path d="M328.031 208.56C333.333 205.194 330.825 194.139 328.669 187.407C327.657 184.228 326.722 182.006 326.722 182.006H326.81L354.64 167.706C351.12 182.512 354.64 202.741 354.64 202.741" stroke="#263238" stroke-width="1.1" stroke-linecap="round" stroke-linejoin="round"/>
<path d="M338.459 181.962C337.339 183.549 335.879 184.867 334.185 185.818C332.492 186.77 330.607 187.331 328.669 187.462C327.657 184.283 326.722 182.061 326.722 182.061H326.81L338.459 181.962Z" fill="#263238"/>
<path d="M351.23 176.066C359.832 170.654 367.059 162.437 368.83 150.623C372.13 129.019 371.943 109.285 334.829 111.672C318.571 112.772 312.268 128.733 312.4 133.771C312.697 145.442 303.391 165.979 314.919 183.029C316.635 185.559 327.844 185.658 339.647 181.555" fill="#BFBFBF"/>
<path d="M351.23 176.066C359.832 170.654 367.059 162.437 368.83 150.623C372.13 129.019 371.943 109.285 334.829 111.672C318.571 112.772 312.268 128.733 312.4 133.771C312.697 145.442 303.391 165.979 314.919 183.029C316.635 185.559 327.844 185.658 339.647 181.555" stroke="#263238" stroke-width="1.1" stroke-linecap="round" stroke-linejoin="round"/>
<path d="M331.463 137.038C331.463 137.038 337.315 134.838 340.681 143.495" stroke="#263238" stroke-width="1.1" stroke-linecap="round" stroke-linejoin="round"/>
<path d="M319.352 136.059C317.404 134.481 314.948 133.667 312.444 133.771" stroke="#263238" stroke-width="1.1" stroke-linecap="round" stroke-linejoin="round"/>
<path d="M320.1 148.588C317.064 153.571 313.368 151.096 313.5 153.571C313.643 155.628 318.395 159.236 318.395 159.236" stroke="#263238" stroke-width="1.1" stroke-linecap="round" stroke-linejoin="round"/>
<path d="M335.984 148.665C335.665 150.018 334.642 150.942 333.718 150.711C332.794 150.48 332.299 149.215 332.618 147.851C332.937 146.487 333.96 145.585 334.895 145.805C335.83 146.025 336.314 147.312 335.984 148.665Z" fill="#263238"/>
<path d="M318.098 145.332C317.878 146.707 316.932 147.697 315.986 147.532C315.04 147.367 314.457 146.146 314.677 144.76C314.897 143.374 315.843 142.395 316.778 142.56C317.713 142.725 318.318 143.957 318.098 145.332Z" fill="#263238"/>
<path d="M328.372 164.098C328.01 164.913 327.595 165.703 327.129 166.463C325.71 168.773 323.191 171.82 320.122 170.863C319.187 170.577 318.758 169.246 318.582 167.816C318.433 166.483 318.411 165.138 318.516 163.801C320.127 164.133 321.766 164.317 323.411 164.351C325.068 164.515 326.74 164.429 328.372 164.098Z" fill="white"/>
<mask id="mask1_82_107" style="mask-type:luminance" maskUnits="userSpaceOnUse" x="318" y="163" width="11" height="9">
<path d="M328.372 164.098C328.01 164.913 327.595 165.703 327.129 166.463C325.71 168.773 323.191 171.82 320.122 170.863C319.187 170.577 318.758 169.246 318.582 167.816C318.433 166.483 318.411 165.138 318.516 163.801C320.127 164.133 321.766 164.317 323.411 164.351C325.068 164.515 326.74 164.429 328.372 164.098Z" fill="white"/>
</mask>
<g mask="url(#mask1_82_107)">
<path opacity="0.4" d="M328.372 164.098C328.01 164.913 327.595 165.703 327.129 166.463C324.17 165.935 320.826 166.925 318.582 167.827C318.433 166.494 318.411 165.149 318.516 163.812L328.372 164.098Z" fill="black"/>
</g>
<path d="M328.372 164.098C328.01 164.913 327.595 165.703 327.129 166.463C325.71 168.773 323.191 171.82 320.122 170.863C319.187 170.577 318.758 169.246 318.582 167.816C318.433 166.483 318.411 165.138 318.516 163.801C320.127 164.133 321.766 164.317 323.411 164.351C325.068 164.515 326.74 164.429 328.372 164.098Z" stroke="#263238" stroke-width="1.1" stroke-linecap="round" stroke-linejoin="round"/>
<path d="M334.642 120.582C334.642 120.582 335.555 118.558 337.381 122.606C339.207 126.654 331.507 130.68 337.381 133.727C343.255 136.774 343.497 143.99 340.681 146.795C337.865 149.6 345.279 150.953 346.291 153.659C347.303 156.365 344.267 158.554 344.949 161.843C345.631 165.132 349.855 168.366 349.756 170.126C349.657 171.886 345.972 174.68 348.491 177.672C351.01 180.664 358.105 178.772 358.787 184.811C358.787 184.811 380.05 161.172 380.38 139.183C380.71 117.194 364.859 108.097 348.7 106.7C332.541 105.303 307.527 113.157 305.503 141.317C305.503 141.317 306.262 139.535 309.221 139.117C312.18 138.699 313.621 134.717 313.258 130.317C312.895 125.917 315.887 128.623 319.968 127.611C324.049 126.599 322.696 120.868 325.402 119.911C328.108 118.954 330.077 124.3 334.642 120.582Z" fill="#263238"/>
<path d="M319.924 111.1C319.759 113.795 311.487 111.43 307.274 113.795C303.061 116.16 304.062 120.208 304.403 122.595C304.744 124.982 300.916 127.996 297.803 129.844C294.69 131.692 294.646 135.487 298.694 139.084C302.742 142.681 299.299 143.682 295.537 146.894C291.775 150.106 291.907 154.022 295.537 156.343" stroke="#263238" stroke-width="1.1" stroke-linecap="round" stroke-linejoin="round"/>
<path d="M331.463 118.723C331.463 118.723 338.36 120.076 336.336 123.959C334.312 127.842 331.463 132.66 337.381 137.016C343.299 141.372 334.818 146.234 338.536 150.117C342.254 154 346.038 153.824 343.299 160.237C340.56 166.65 345.499 168.267 345.499 168.267" stroke="#263238" stroke-width="1.1" stroke-linecap="round" stroke-linejoin="round"/>
<path d="M317.085 163.383C317.085 163.383 323.85 165.132 329.086 163.955" stroke="#263238" stroke-width="1.1" stroke-linecap="round" stroke-linejoin="round"/>
<path d="M364.363 173.943C364.042 174.424 363.923 175.013 364.032 175.581C364.141 176.149 364.469 176.651 364.946 176.979" stroke="white" stroke-width="1.1" stroke-linecap="round" stroke-linejoin="round"/>
<path d="M364.98 163.977C367.95 165.561 368.819 168.069 366.905 170.995" stroke="white" stroke-width="1.1" stroke-linecap="round" stroke-linejoin="round"/>
<path d="M346.335 122.342C346.335 125.162 347.058 127.935 348.435 130.396C349.812 132.857 351.797 134.924 354.2 136.4C356.4 138.6 355.3 140.8 354.2 144.1C354.2 148.5 360.8 148.5 361.9 151.8C361.9 155.1 356.4 158.4 361.779 162.316" stroke="white" stroke-width="1.1" stroke-linecap="round" stroke-linejoin="round"/>
<path d="M343.629 113.168C345.004 114.78 345.859 116.77 346.082 118.877" stroke="white" stroke-width="1.1" stroke-linecap="round" stroke-linejoin="round"/>
<path d="M379.137 166.188C378.926 167.322 379.04 168.493 379.467 169.565" stroke="white" stroke-width="1.1" stroke-linecap="round" stroke-linejoin="round"/>
<path d="M372.383 153.505C371.206 156.695 374.132 156.409 376.2 156.651C379.632 157.047 380.666 159.115 379.896 162.569" stroke="white" stroke-width="1.1" stroke-linecap="round" stroke-linejoin="round"/>
<path d="M359.183 123.662C359.777 130.031 369.853 129.162 368.093 136.554C367.268 139.975 367.411 142.054 370.095 144.936C371.481 146.454 374.407 147.466 373.329 149.952" stroke="white" stroke-width="1.1" stroke-linecap="round" stroke-linejoin="round"/>
<path d="M385 151.976C384.671 153.115 384.592 154.312 384.769 155.485" stroke="white" stroke-width="1.1" stroke-linecap="round" stroke-linejoin="round"/>
<path d="M367.741 115.39C369.941 115.544 369.292 118.36 369.941 119.79C370.832 121.792 372.57 122.298 374.341 123.365C377.872 125.565 377.52 127.567 377.113 131.307C376.64 135.641 378.037 137.434 381.667 139.557C385.297 141.68 387.409 143.561 386.067 148.126" stroke="white" stroke-width="1.1" stroke-linecap="round" stroke-linejoin="round"/>
<path d="M314.6 120.582C311.377 122.133 305.877 122.485 306.801 127.182C307.725 131.879 311.74 134.035 307.021 138.116C303.039 141.57 303.479 143.385 306.075 147.455C308.275 150.865 308.88 153.945 306.163 157.355" stroke="white" stroke-width="1.1" stroke-linecap="round" stroke-linejoin="round"/>
<path d="M326.7 113.674C321.2 108.9 320.1 115.5 317.757 118.525" stroke="white" stroke-width="1.1" stroke-linecap="round" stroke-linejoin="round"/>
<path d="M311.421 200.2C311.421 200.2 301.367 211.288 312.719 219.857C324.071 228.426 365.321 199.529 365.321 199.529C365.321 199.529 380.193 195.745 388.003 200.728C395.813 205.711 388.498 265.793 372.603 291.775C367.884 299.475 362.23 311.003 362.23 311.003C362.23 311.003 363.825 321.057 354.684 324.104C337.315 329.89 292.776 329.604 279.785 322.377C264.539 313.885 279.84 316.514 280.742 270.27C280.742 270.27 274.065 253.198 276.606 240.977C277.552 236.434 280.313 229.834 284.207 223.19" fill="white"/>
<mask id="mask2_82_107" style="mask-type:luminance" maskUnits="userSpaceOnUse" x="273" y="198" width="119" height="131">
<path d="M311.421 200.2C311.421 200.2 301.367 211.288 312.719 219.857C324.071 228.426 365.321 199.529 365.321 199.529C365.321 199.529 380.193 195.745 388.003 200.728C395.813 205.711 388.498 265.793 372.603 291.775C367.884 299.475 362.23 311.003 362.23 311.003C362.23 311.003 363.825 321.057 354.684 324.104C337.315 329.89 292.776 329.604 279.785 322.377C264.539 313.885 279.84 316.514 280.742 270.27C280.742 270.27 274.065 253.198 276.606 240.977C277.552 236.434 280.313 229.834 284.207 223.19" fill="white"/>
</mask>
<g mask="url(#mask2_82_107)">
<path opacity="0.2" d="M372.559 291.797C367.84 299.497 362.186 311.025 362.186 311.025C362.186 311.025 363.781 321.079 354.64 324.126C337.271 329.912 292.732 329.626 279.741 322.399C264.495 313.907 279.796 316.536 280.698 270.292C279.064 265.887 277.813 261.349 276.958 256.729C287.012 262.526 298.705 261.965 298.705 261.965C308.726 241.197 323.081 245.069 323.081 245.069C323.081 245.069 326.975 241.593 331.463 238.348C335.951 235.103 350.042 237.567 350.042 237.567L366.454 234.267C366.146 228.173 372.108 228.767 372.108 228.767L374.385 230.901C373.054 225.863 374.385 222.794 374.385 222.794L388.795 240.9C385.825 259.16 380.182 279.4 372.559 291.797Z" fill="black"/>
</g>
<path d="M311.421 200.2C311.421 200.2 301.367 211.288 312.719 219.857C324.071 228.426 365.321 199.529 365.321 199.529C365.321 199.529 380.193 195.745 388.003 200.728C395.813 205.711 388.498 265.793 372.603 291.775C367.884 299.475 362.23 311.003 362.23 311.003C362.23 311.003 363.825 321.057 354.684 324.104C337.315 329.89 292.776 329.604 279.785 322.377C264.539 313.885 279.84 316.514 280.742 270.27C280.742 270.27 274.065 253.198 276.606 240.977C277.552 236.434 280.313 229.834 284.207 223.19" stroke="#263238" stroke-width="1.1" stroke-linecap="round" stroke-linejoin="round"/>
<path d="M275.253 231.572C275.608 233.69 276.354 235.723 277.453 237.567" stroke="#263238" stroke-width="1.1" stroke-linecap="round" stroke-linejoin="round"/>
<path d="M274.648 222.783C274.565 224.592 274.609 226.404 274.78 228.206" stroke="#263238" stroke-width="1.1" stroke-linecap="round" stroke-linejoin="round"/>
<path d="M238.315 202.983C238.315 202.983 230.263 211.035 231.781 217.118" stroke="#263238" stroke-width="1.1" stroke-linecap="round" stroke-linejoin="round"/>
<path d="M233.013 204.6C234.74 203.624 236.356 202.463 237.831 201.135" stroke="#263238" stroke-width="1.1" stroke-linecap="round" stroke-linejoin="round"/>
<path d="M226.6 207.548C227.721 207.168 228.823 206.731 229.9 206.239" stroke="#263238" stroke-width="1.1" stroke-linecap="round" stroke-linejoin="round"/>
<path d="M200.716 157.718C200.716 157.718 212.42 155.331 217.216 145.706" stroke="#263238" stroke-width="1.1" stroke-linecap="round" stroke-linejoin="round"/>
<path d="M327.8 224.048C329.244 223.715 330.665 223.293 332.057 222.783" stroke="#263238" stroke-width="1.1" stroke-linecap="round" stroke-linejoin="round"/>
<path d="M307.505 199.287C304.524 204.006 302.555 210.386 304.48 215.842C307.384 224.114 316.778 225.808 324.445 224.697" stroke="#263238" stroke-width="1.1" stroke-linecap="round" stroke-linejoin="round"/>
<path d="M307.45 208.56C307.45 208.56 315.986 215.16 320.991 217.118" stroke="#263238" stroke-width="1.1" stroke-linecap="round" stroke-linejoin="round"/>
<path d="M367.928 247.929C367.928 247.929 342.408 249.084 332.354 248.05C325.897 247.379 323.84 250.591 315.018 252.274C311.718 252.912 304.766 263.164 304.766 263.164L305.866 276.595C305.866 276.595 313.566 282.15 314.556 280.588C315.546 279.026 311.861 275.418 311.861 275.418L318.659 276.518C318.742 275.626 318.593 274.728 318.227 273.911C317.861 273.094 317.29 272.385 316.569 271.854L320.518 267.454C320.518 267.454 325.589 268.983 331.144 264.077L369.27 265.54L367.928 247.929Z" fill="#BFBFBF"/>
<mask id="mask3_82_107" style="mask-type:luminance" maskUnits="userSpaceOnUse" x="304" y="247" width="66" height="34">
<path d="M367.928 247.929C367.928 247.929 342.408 249.084 332.354 248.05C325.897 247.379 323.84 250.591 315.018 252.274C311.718 252.912 304.766 263.164 304.766 263.164L305.866 276.595C305.866 276.595 313.566 282.15 314.556 280.588C315.546 279.026 311.861 275.418 311.861 275.418L318.659 276.518C318.743 275.626 318.594 274.728 318.228 273.911C317.862 273.094 317.29 272.385 316.569 271.854L320.518 267.454C320.518 267.454 325.589 268.983 331.144 264.077L369.27 265.54L367.928 247.929Z" fill="white"/>
</mask>
<g mask="url(#mask3_82_107)">
<path opacity="0.2" d="M369.292 265.485L331.166 264C325.611 268.906 320.54 267.377 320.54 267.377L316.591 271.777C317.312 272.308 317.884 273.017 318.25 273.834C318.616 274.651 318.765 275.549 318.681 276.441L311.883 275.341C311.883 275.341 315.568 278.949 314.578 280.511C313.588 282.073 305.888 276.518 305.888 276.518L304.788 263.087C306.391 260.747 308.121 258.496 309.969 256.344C317.185 260.744 335.918 257.444 335.918 257.444C336.039 254.199 337.964 250.756 339.581 248.391C351.274 248.655 367.95 247.896 367.95 247.896L369.292 265.485Z" fill="black"/>
</g>
<path d="M367.928 247.929C367.928 247.929 342.408 249.084 332.354 248.05C325.897 247.379 323.84 250.591 315.018 252.274C311.718 252.912 304.766 263.164 304.766 263.164L305.866 276.595C305.866 276.595 313.566 282.15 314.556 280.588C315.546 279.026 311.861 275.418 311.861 275.418L318.659 276.518C318.742 275.626 318.593 274.728 318.227 273.911C317.861 273.094 317.29 272.385 316.569 271.854L320.518 267.454C320.518 267.454 325.589 268.983 331.144 264.077L369.27 265.54L367.928 247.929Z" stroke="#263238" stroke-width="1.1" stroke-linecap="round" stroke-linejoin="round"/>
<path d="M320.54 267.399C320.54 267.399 316.415 267.069 314.578 261.965" stroke="#263238" stroke-width="1.1" stroke-linecap="round" stroke-linejoin="round"/>
<path d="M319.132 267.025C319.132 267.025 312.367 272.525 308.638 268.741" stroke="#263238" stroke-width="1.1" stroke-linecap="round" stroke-linejoin="round"/>
<path d="M311.454 270.039C311.454 270.039 312.554 273.713 311.883 275.418" stroke="#263238" stroke-width="1.1" stroke-linecap="round" stroke-linejoin="round"/>
<path d="M316.591 271.843C315.535 272.232 314.416 272.418 313.291 272.393" stroke="#263238" stroke-width="1.1" stroke-linecap="round" stroke-linejoin="round"/>
<path d="M454.938 266.552V502.315C454.938 502.69 454.864 503.061 454.72 503.408C454.576 503.754 454.365 504.069 454.1 504.333C453.834 504.598 453.518 504.808 453.171 504.95C452.825 505.093 452.453 505.165 452.078 505.164H95.6998C95.3248 505.165 94.9531 505.093 94.6062 504.95C94.2593 504.808 93.9439 504.598 93.6782 504.333C93.4125 504.069 93.2016 503.754 93.0578 503.408C92.9139 503.061 92.8398 502.69 92.8398 502.315V266.552C92.8398 266.177 92.9139 265.806 93.0578 265.459C93.2016 265.113 93.4125 264.798 93.6782 264.534C93.9439 264.269 94.2593 264.059 94.6062 263.917C94.9531 263.774 95.3248 263.702 95.6998 263.703H452.1C452.854 263.706 453.575 264.007 454.107 264.541C454.639 265.075 454.938 265.798 454.938 266.552Z" fill="white"/>
<mask id="mask4_82_107" style="mask-type:luminance" maskUnits="userSpaceOnUse" x="92" y="263" width="363" height="243">
<path d="M454.938 266.552V502.315C454.938 502.69 454.864 503.061 454.72 503.408C454.576 503.754 454.365 504.069 454.1 504.333C453.834 504.598 453.518 504.808 453.171 504.95C452.825 505.093 452.453 505.165 452.078 505.164H95.6998C95.3248 505.165 94.9531 505.093 94.6062 504.95C94.2593 504.808 93.9439 504.598 93.6782 504.333C93.4125 504.069 93.2016 503.754 93.0578 503.408C92.9139 503.061 92.8398 502.69 92.8398 502.315V266.552C92.8398 266.177 92.9139 265.806 93.0578 265.459C93.2016 265.113 93.4125 264.798 93.6782 264.534C93.9439 264.269 94.2593 264.059 94.6062 263.917C94.9531 263.774 95.3248 263.702 95.6998 263.703H452.1C452.854 263.706 453.575 264.007 454.107 264.541C454.639 265.075 454.938 265.798 454.938 266.552Z" fill="white"/>
</mask>
<g mask="url(#mask4_82_107)">
<path opacity="0.2" d="M454.938 266.552V277.2C444.972 280.676 430.342 283.349 418.506 282.777C402.611 282.007 343.189 268.609 322.08 263.758H452.1C452.844 263.761 453.558 264.055 454.088 264.577C454.619 265.099 454.924 265.808 454.938 266.552Z" fill="black"/>
</g>
<path d="M454.938 266.552V502.315C454.938 502.69 454.864 503.061 454.72 503.408C454.576 503.754 454.365 504.069 454.1 504.333C453.834 504.598 453.518 504.808 453.171 504.95C452.825 505.093 452.453 505.165 452.078 505.164H95.6998C95.3248 505.165 94.9531 505.093 94.6062 504.95C94.2593 504.808 93.9439 504.598 93.6782 504.333C93.4125 504.069 93.2016 503.754 93.0578 503.408C92.9139 503.061 92.8398 502.69 92.8398 502.315V266.552C92.8398 266.177 92.9139 265.806 93.0578 265.459C93.2016 265.113 93.4125 264.798 93.6782 264.534C93.9439 264.269 94.2593 264.059 94.6062 263.917C94.9531 263.774 95.3248 263.702 95.6998 263.703H452.1C452.854 263.706 453.575 264.007 454.107 264.541C454.639 265.075 454.938 265.798 454.938 266.552Z" stroke="#263238" stroke-width="1.1" stroke-miterlimit="10"/>
<path d="M121.143 263.703V505.164H95.6998C95.3248 505.165 94.9531 505.093 94.6062 504.95C94.2593 504.808 93.9439 504.598 93.6782 504.333C93.4125 504.069 93.2016 503.754 93.0578 503.408C92.9139 503.061 92.8398 502.69 92.8398 502.315V266.552C92.8398 266.177 92.9139 265.806 93.0578 265.459C93.2016 265.113 93.4125 264.798 93.6782 264.534C93.9439 264.269 94.2593 264.059 94.6062 263.917C94.9531 263.774 95.3248 263.702 95.6998 263.703H121.143Z" fill="#263238"/>
<path d="M107.008 274.89L99.0659 279.345L107.008 283.811L114.939 279.345L107.008 274.89Z" fill="white"/>
<path d="M107.008 285.604L101.442 282.48L99.0659 283.811L107.008 288.266L114.939 283.811L112.563 282.48L107.008 285.604Z" fill="white"/>
<path d="M107.008 290.07L101.442 286.935L99.0659 288.266L107.008 292.732L114.939 288.266L112.563 286.935L107.008 290.07Z" fill="white"/>
<path d="M193.82 308.891C193.818 312.777 193.051 316.624 191.563 320.214C190.075 323.803 187.894 327.064 185.145 329.811C182.396 332.558 179.134 334.736 175.543 336.222C171.953 337.708 168.104 338.472 164.219 338.47C163.038 338.472 161.859 338.403 160.688 338.261C155.027 337.579 149.684 335.275 145.302 331.628C140.919 327.981 137.684 323.145 135.984 317.703C134.285 312.261 134.194 306.443 135.723 300.95C137.252 295.458 140.335 290.523 144.601 286.741C148.868 282.959 154.136 280.49 159.773 279.631C165.409 278.773 171.174 279.561 176.373 281.9C181.572 284.24 185.985 288.032 189.08 292.821C192.175 297.609 193.821 303.19 193.82 308.891Z" fill="white"/>
<mask id="mask5_82_107" style="mask-type:luminance" maskUnits="userSpaceOnUse" x="134" y="279" width="60" height="60">
<path d="M193.82 308.891C193.819 312.777 193.052 316.624 191.564 320.214C190.075 323.803 187.894 327.064 185.146 329.811C182.397 332.558 179.134 334.736 175.544 336.222C171.953 337.707 168.105 338.471 164.219 338.47C163.039 338.472 161.86 338.402 160.688 338.261C155.028 337.578 149.685 335.275 145.302 331.628C140.92 327.981 137.684 323.145 135.985 317.703C134.286 312.26 134.195 306.443 135.724 300.95C137.252 295.457 140.335 290.523 144.602 286.741C148.868 282.959 154.137 280.49 159.773 279.631C165.41 278.773 171.174 279.56 176.374 281.9C181.573 284.24 185.985 288.032 189.081 292.821C192.176 297.609 193.822 303.189 193.82 308.891Z" fill="white"/>
</mask>
<g mask="url(#mask5_82_107)">
<path opacity="0.6" d="M193.82 308.891C193.819 312.777 193.052 316.624 191.564 320.214C190.075 323.803 187.894 327.064 185.146 329.811C182.397 332.558 179.134 334.736 175.544 336.222C171.953 337.707 168.105 338.471 164.219 338.47C163.039 338.472 161.86 338.402 160.688 338.261C155.028 337.578 149.685 335.275 145.302 331.628C140.92 327.981 137.684 323.145 135.985 317.703C134.286 312.26 134.195 306.443 135.724 300.95C137.252 295.457 140.335 290.523 144.602 286.741C148.868 282.959 154.137 280.49 159.773 279.631C165.41 278.773 171.174 279.56 176.374 281.9C181.573 284.24 185.985 288.032 189.081 292.821C192.176 297.609 193.822 303.189 193.82 308.891Z" fill="white"/>
</g>
<path d="M193.82 308.891C193.818 312.777 193.051 316.624 191.563 320.214C190.075 323.803 187.894 327.064 185.145 329.811C182.396 332.558 179.134 334.736 175.543 336.222C171.953 337.708 168.104 338.472 164.219 338.47C163.038 338.472 161.859 338.403 160.688 338.261C155.027 337.579 149.684 335.275 145.302 331.628C140.919 327.981 137.684 323.145 135.984 317.703C134.285 312.261 134.194 306.443 135.723 300.95C137.252 295.458 140.335 290.523 144.601 286.741C148.868 282.959 154.136 280.49 159.773 279.631C165.409 278.773 171.174 279.561 176.373 281.9C181.572 284.24 185.985 288.032 189.08 292.821C192.175 297.609 193.821 303.19 193.82 308.891Z" stroke="#263238" stroke-width="1.1" stroke-linecap="round" stroke-linejoin="round"/>
<path d="M176.495 335.808C172.641 337.567 168.454 338.475 164.219 338.47C163.039 338.472 161.859 338.403 160.688 338.261C154.176 333.575 148.258 325.919 148.258 325.919C149.628 326.323 151.03 326.61 152.449 326.777C153.45 326.909 154.517 326.997 155.606 327.074C158.808 327.267 162.018 327.267 165.22 327.074C167.035 326.953 168.641 326.788 169.785 326.59C170.54 326.388 171.332 326.368 172.097 326.53C172.862 326.693 173.577 327.034 174.185 327.525C174.726 327.977 175.137 328.566 175.373 329.23C176.388 331.264 176.779 333.553 176.495 335.808Z" fill="#BFBFBF" stroke="#263238" stroke-width="1.1" stroke-linecap="round" stroke-linejoin="round"/>
<path d="M150.997 287.914C150.997 287.914 152.317 283.415 155.584 284.383C158.851 285.351 158.411 285.219 160.226 284.251C160.524 284.033 160.87 283.89 161.235 283.835C161.599 283.781 161.972 283.815 162.321 283.937C162.669 284.058 162.983 284.262 163.235 284.531C163.487 284.801 163.67 285.127 163.768 285.483C164.384 286.869 165.638 286.583 167.563 285.868C169.488 285.153 171.182 286.055 171.094 287.914C171.006 289.773 173.492 287.837 174.878 289.905C176.264 291.973 175.428 291.841 175.703 293.491C175.978 295.141 178.882 296.12 178.332 297.638C177.782 299.156 175.571 301.774 177.639 302.885C179.707 303.996 180.4 307.439 178.398 308.473C176.396 309.507 180.07 312.62 178.739 315.447C177.54 318.021 174.185 318.626 175.703 321.244C175.981 321.643 176.13 322.117 176.13 322.603C176.13 323.088 175.981 323.562 175.703 323.961C175.626 324.08 175.513 324.171 175.381 324.221C175.249 324.272 175.104 324.279 174.967 324.243C174.831 324.206 174.709 324.127 174.62 324.017C174.531 323.907 174.479 323.772 174.471 323.631C174.459 323.277 174.357 322.933 174.174 322.63C173.481 321.53 172.535 322.63 171.424 320.551C171.624 321.191 171.563 321.885 171.254 322.481C170.945 323.076 170.413 323.525 169.774 323.73C168.542 324.159 168.322 324.896 168.399 325.501C168.414 325.605 168.396 325.71 168.348 325.804C168.3 325.897 168.224 325.973 168.131 326.021C168.038 326.069 167.933 326.087 167.829 326.073C167.725 326.059 167.628 326.013 167.552 325.941C167.313 325.685 167.138 325.376 167.043 325.04C166.947 324.703 166.933 324.348 167.002 324.005C167.002 324.005 163.13 327.184 160.402 326.491C157.674 325.798 154.055 324.83 153.912 322.762C153.473 323.361 153.193 324.061 153.098 324.797C153.08 324.916 153.03 325.027 152.952 325.119C152.875 325.211 152.774 325.279 152.66 325.317C152.546 325.354 152.423 325.36 152.307 325.332C152.19 325.304 152.083 325.245 151.998 325.16C151.46 324.523 151.134 323.735 151.063 322.905C150.783 323.595 150.263 324.161 149.6 324.5C149.463 324.559 149.312 324.579 149.165 324.558C149.017 324.536 148.879 324.474 148.764 324.378C148.65 324.282 148.565 324.156 148.518 324.015C148.472 323.873 148.465 323.721 148.5 323.576C148.599 323.295 148.598 322.989 148.498 322.709C148.398 322.428 148.204 322.191 147.95 322.036C147.197 321.653 146.621 320.995 146.338 320.199C146.056 319.403 146.089 318.529 146.432 317.757C146.432 317.757 144.353 319.143 145.046 321.211C145.185 321.525 145.239 321.871 145.202 322.213C145.166 322.554 145.04 322.88 144.837 323.158C144.774 323.243 144.682 323.302 144.579 323.323C144.475 323.344 144.368 323.327 144.276 323.273C144.185 323.22 144.117 323.135 144.084 323.035C144.052 322.934 144.057 322.826 144.1 322.729C144.205 322.484 144.246 322.216 144.219 321.95C144.192 321.685 144.098 321.43 143.946 321.211C142.978 319.693 140.481 317.845 142.417 315.711C144.353 313.577 142.978 312.235 142.978 312.235C142.978 312.235 143.253 313.621 140.91 314.512C138.567 315.403 140.019 316.712 139.81 317.647C139.726 317.991 139.551 318.306 139.304 318.56C139.221 318.655 139.105 318.715 138.979 318.728C138.854 318.742 138.728 318.708 138.626 318.634C138.524 318.56 138.454 318.45 138.429 318.326C138.404 318.203 138.425 318.074 138.49 317.966C138.634 317.755 138.719 317.509 138.738 317.255C138.758 317 138.71 316.745 138.6 316.514C137.423 314.391 140.536 313.401 140.855 311.542C140.992 309.607 140.881 307.663 140.525 305.756C140.36 304.183 140.239 302.973 141.229 301.62C141.98 300.811 142.583 299.877 143.011 298.859C143.195 298.039 143.222 297.192 143.088 296.362C142.953 295.529 143.002 294.677 143.231 293.865C143.803 292.259 145.717 292.534 146.531 291.181C147.345 289.828 146.641 288.222 148.17 287.375C148.637 287.15 149.163 287.082 149.672 287.179C150.181 287.276 150.646 287.533 150.997 287.914Z" fill="#263238"/>
<path d="M166.474 329.626C164.274 328.24 165.374 323.719 166.21 320.969C166.628 319.671 167.002 318.769 167.002 318.769L155.617 312.906C157.058 318.956 155.617 327.206 155.617 327.206" fill="#BFBFBF"/>
<path d="M166.474 329.626C164.274 328.24 165.374 323.719 166.21 320.969C166.628 319.671 167.002 318.769 167.002 318.769L155.617 312.906C157.058 318.956 155.617 327.206 155.617 327.206" stroke="#263238" stroke-width="1.1" stroke-linecap="round" stroke-linejoin="round"/>
<path d="M162.206 318.736C162.668 319.378 163.267 319.908 163.959 320.288C164.652 320.669 165.421 320.89 166.21 320.936C166.628 319.638 167.002 318.736 167.002 318.736H162.206Z" fill="#263238"/>
<path d="M156.981 316.327C155.085 315.232 153.455 313.731 152.208 311.932C150.96 310.133 150.126 308.08 149.765 305.921C148.401 297.121 148.489 289.014 163.669 289.993C170.324 290.411 172.898 296.967 172.843 299.024C172.722 303.798 176.539 312.224 171.82 319.176C171.116 320.21 166.529 320.276 161.7 318.571" fill="#BFBFBF"/>
<path d="M156.981 316.327C155.085 315.232 153.455 313.731 152.208 311.932C150.96 310.133 150.126 308.08 149.765 305.921C148.401 297.121 148.489 289.014 163.669 289.993C170.324 290.411 172.898 296.967 172.843 299.024C172.722 303.798 176.539 312.224 171.82 319.176C171.116 320.21 166.529 320.276 161.7 318.571" stroke="#263238" stroke-width="1.1" stroke-linecap="round" stroke-linejoin="round"/>
<path d="M165.066 300.366C165.066 300.366 162.679 299.486 161.293 303.006" stroke="#263238" stroke-width="1.1" stroke-linecap="round" stroke-linejoin="round"/>
<path d="M170.027 299.959C170.821 299.315 171.822 298.983 172.843 299.024" stroke="#263238" stroke-width="1.1" stroke-linecap="round" stroke-linejoin="round"/>
<path d="M169.708 305.096C170.951 307.131 172.458 306.119 172.392 307.131C172.337 307.967 170.39 309.441 170.39 309.441" stroke="#263238" stroke-width="1.1" stroke-linecap="round" stroke-linejoin="round"/>
<path d="M163.218 305.118C163.35 305.679 163.768 306.053 164.142 305.965C164.516 305.877 164.725 305.349 164.593 304.788C164.461 304.227 164.043 303.864 163.669 303.952C163.295 304.04 163.086 304.568 163.218 305.118Z" fill="#263238"/>
<path d="M170.5 303.754C170.588 304.326 170.984 304.722 171.369 304.667C171.754 304.612 171.996 304.095 171.897 303.567C171.798 303.039 171.424 302.599 171.039 302.654C170.654 302.709 170.5 303.193 170.5 303.754Z" fill="#263238"/>
<path d="M166.331 311.432C166.331 311.432 167.75 314.809 169.708 314.204C170.599 313.929 170.368 311.311 170.368 311.311" fill="white"/>
<path d="M166.331 311.432C166.331 311.432 167.75 314.809 169.708 314.204C170.599 313.929 170.368 311.311 170.368 311.311" stroke="#263238" stroke-width="1.1" stroke-linecap="round" stroke-linejoin="round"/>
<path d="M163.768 293.634C163.768 293.634 163.394 292.809 162.668 294.459C161.942 296.109 165.066 297.759 162.668 299.013C160.27 300.267 160.16 303.204 161.315 304.359C162.47 305.514 159.434 306.053 159.027 307.164C158.62 308.275 159.852 309.166 159.577 310.464C159.302 311.762 157.564 313.137 157.608 313.852C157.652 314.567 159.159 315.722 158.125 316.943C157.091 318.164 154.187 317.416 153.912 319.858C153.912 319.858 145.222 310.189 145.112 301.158C145.002 292.127 151.459 288.442 158.092 287.881C164.725 287.32 174.933 290.532 175.758 302.049C175.602 301.783 175.381 301.562 175.115 301.406C174.849 301.25 174.548 301.165 174.24 301.158C173.03 300.993 172.447 299.343 172.59 297.55C172.733 295.757 171.49 296.857 169.84 296.45C168.19 296.043 168.74 293.689 167.64 293.271C166.54 292.853 165.638 295.152 163.768 293.634Z" fill="#263238"/>
<path d="M169.785 289.762C169.851 290.862 173.239 289.905 174.966 290.862C176.693 291.819 176.275 293.491 176.132 294.459C175.989 295.427 177.562 296.659 178.849 297.429C180.136 298.199 180.136 299.728 178.486 301.202C176.836 302.676 178.233 303.083 179.773 304.392C181.313 305.701 181.258 307.307 179.773 308.264" stroke="#263238" stroke-width="1.1" stroke-linecap="round" stroke-linejoin="round"/>
<path d="M165.066 292.875C165.066 292.875 162.25 293.425 163.075 295.009C163.9 296.593 165.066 298.573 162.646 300.355C160.226 302.137 163.691 304.128 162.173 305.712C160.655 307.296 159.104 307.23 160.226 309.859C161.348 312.488 159.346 313.159 159.346 313.159" stroke="#263238" stroke-width="1.1" stroke-linecap="round" stroke-linejoin="round"/>
<path d="M170.95 311.135C169.348 311.542 167.68 311.625 166.044 311.377" stroke="#263238" stroke-width="1.1" stroke-linecap="round" stroke-linejoin="round"/>
<path d="M184.701 330.231C179.197 335.524 171.855 338.477 164.219 338.47C163.039 338.472 161.86 338.403 160.688 338.261C153.049 337.343 146.069 333.484 141.229 327.503C141.338 327.067 141.59 326.68 141.944 326.403C145.145 324.368 151.217 325.919 151.217 325.919L152.449 326.755C156.42 329.373 168.85 337.161 172.733 334.224C173.273 333.881 173.738 333.433 174.103 332.907C174.467 332.381 174.723 331.788 174.855 331.162C174.987 330.536 174.993 329.89 174.872 329.262C174.752 328.633 174.507 328.035 174.152 327.503C173.906 327.037 173.611 326.598 173.272 326.194C173.272 326.194 178.53 324.082 184.701 330.231Z" fill="white" stroke="#263238" stroke-width="1.1" stroke-linecap="round" stroke-linejoin="round"/>
<path d="M197.131 335.459C201.144 331.447 201.144 324.942 197.131 320.93C193.119 316.918 186.614 316.918 182.602 320.93C178.589 324.942 178.589 331.447 182.602 335.459C186.614 339.472 193.119 339.472 197.131 335.459Z" fill="#263238"/>
<path d="M191.422 322.795H188.309C186.183 322.795 184.459 324.519 184.459 326.645V329.758C184.459 331.884 186.183 333.608 188.309 333.608H191.422C193.548 333.608 195.272 331.884 195.272 329.758V326.645C195.272 324.519 193.548 322.795 191.422 322.795Z" stroke="white" stroke-width="1.1" stroke-miterlimit="10"/>
<path d="M191.851 328.196C191.853 328.591 191.738 328.977 191.52 329.306C191.302 329.635 190.991 329.892 190.627 330.044C190.262 330.196 189.861 330.237 189.474 330.16C189.087 330.084 188.731 329.894 188.452 329.615C188.173 329.336 187.983 328.98 187.906 328.593C187.83 328.206 187.87 327.804 188.022 327.44C188.174 327.076 188.431 326.765 188.76 326.547C189.089 326.329 189.476 326.214 189.871 326.216C190.396 326.216 190.899 326.425 191.271 326.796C191.642 327.167 191.851 327.671 191.851 328.196Z" stroke="white" stroke-width="1.1" stroke-miterlimit="10"/>
<path d="M193.479 325.6C193.491 325.693 193.483 325.788 193.456 325.877C193.429 325.967 193.382 326.05 193.32 326.121C193.258 326.191 193.182 326.248 193.097 326.286C193.011 326.325 192.918 326.345 192.825 326.345C192.731 326.345 192.638 326.325 192.552 326.286C192.467 326.248 192.391 326.191 192.329 326.121C192.267 326.05 192.221 325.967 192.193 325.877C192.166 325.788 192.158 325.693 192.17 325.6C192.191 325.441 192.269 325.295 192.389 325.189C192.509 325.083 192.664 325.025 192.825 325.025C192.985 325.025 193.14 325.083 193.26 325.189C193.381 325.295 193.458 325.441 193.479 325.6Z" fill="white"/>
<path d="M242.836 304.931H205.436C204.388 304.931 203.384 305.347 202.643 306.088C201.903 306.828 201.487 307.833 201.487 308.88C201.487 309.927 201.903 310.932 202.643 311.672C203.384 312.413 204.388 312.829 205.436 312.829H242.836C243.883 312.829 244.888 312.413 245.628 311.672C246.369 310.932 246.785 309.927 246.785 308.88C246.785 307.833 246.369 306.828 245.628 306.088C244.888 305.347 243.883 304.931 242.836 304.931Z" fill="#263238"/>
<path opacity="0.6" d="M297.143 277.024H270.171C269.415 277.024 268.691 277.324 268.156 277.858C267.622 278.393 267.322 279.117 267.322 279.873C267.322 280.629 267.622 281.353 268.156 281.888C268.691 282.422 269.415 282.722 270.171 282.722H297.143C297.898 282.722 298.623 282.422 299.157 281.888C299.692 281.353 299.992 280.629 299.992 279.873C299.992 279.117 299.692 278.393 299.157 277.858C298.623 277.324 297.898 277.024 297.143 277.024Z" fill="#263238"/>
<path d="M256.993 270.039V498.971" stroke="#263238" stroke-width="1.1" stroke-miterlimit="10"/>
<path d="M151.866 390.17C159.356 390.17 165.429 384.098 165.429 376.607C165.429 369.116 159.356 363.044 151.866 363.044C144.375 363.044 138.303 369.116 138.303 376.607C138.303 384.098 144.375 390.17 151.866 390.17Z" fill="#BFBFBF" stroke="#263238" stroke-width="1.1" stroke-miterlimit="10"/>
<path d="M170.214 385.385C170.214 386.331 169.933 387.257 169.408 388.043C168.882 388.83 168.135 389.444 167.26 389.806C166.386 390.168 165.424 390.263 164.496 390.078C163.567 389.894 162.715 389.438 162.046 388.769C161.376 388.099 160.921 387.247 160.736 386.319C160.551 385.39 160.646 384.428 161.008 383.554C161.37 382.68 161.984 381.932 162.771 381.407C163.558 380.881 164.483 380.6 165.429 380.6C166.698 380.6 167.915 381.104 168.813 382.002C169.71 382.899 170.214 384.116 170.214 385.385Z" fill="white" stroke="#263238" stroke-width="1.1" stroke-linecap="round" stroke-linejoin="round"/>
<path d="M151.866 434.709C159.356 434.709 165.429 428.637 165.429 421.146C165.429 413.655 159.356 407.583 151.866 407.583C144.375 407.583 138.303 413.655 138.303 421.146C138.303 428.637 144.375 434.709 151.866 434.709Z" fill="#BFBFBF" stroke="#263238" stroke-width="1.1" stroke-miterlimit="10"/>
<path d="M170.214 429.913C170.214 430.859 169.933 431.785 169.408 432.571C168.882 433.358 168.135 433.972 167.26 434.334C166.386 434.696 165.424 434.791 164.496 434.606C163.567 434.421 162.715 433.966 162.046 433.297C161.376 432.627 160.921 431.775 160.736 430.847C160.551 429.918 160.646 428.956 161.008 428.082C161.37 427.208 161.984 426.46 162.771 425.934C163.558 425.409 164.483 425.128 165.429 425.128C166.697 425.131 167.913 425.636 168.809 426.533C169.706 427.429 170.211 428.645 170.214 429.913Z" fill="white" stroke="#263238" stroke-width="1.1" stroke-linecap="round" stroke-linejoin="round"/>
<path d="M161.456 475.257C166.753 469.961 166.753 461.373 161.456 456.076C156.159 450.78 147.572 450.78 142.275 456.076C136.978 461.373 136.978 469.961 142.275 475.257C147.572 480.554 156.159 480.554 161.456 475.257Z" fill="#BFBFBF" stroke="#263238" stroke-width="1.1" stroke-miterlimit="10"/>
<path d="M170.214 474.452C170.212 475.398 169.929 476.322 169.402 477.107C168.875 477.893 168.127 478.504 167.253 478.865C166.378 479.225 165.416 479.319 164.489 479.133C163.561 478.947 162.71 478.49 162.042 477.821C161.374 477.151 160.919 476.298 160.735 475.37C160.551 474.443 160.647 473.481 161.009 472.607C161.372 471.734 161.985 470.987 162.772 470.462C163.558 469.936 164.483 469.656 165.429 469.656C166.058 469.656 166.681 469.78 167.263 470.021C167.844 470.262 168.372 470.616 168.816 471.061C169.261 471.507 169.613 472.036 169.853 472.617C170.093 473.199 170.215 473.823 170.214 474.452Z" fill="white" stroke="#263238" stroke-width="1.1" stroke-linecap="round" stroke-linejoin="round"/>
<g opacity="0.3">
<path opacity="0.4" d="M446.457 291.764H270.655V344.168H446.457V291.764Z" fill="black"/>
<path opacity="0.4" d="M446.457 430.364H270.655V482.768H446.457V430.364Z" fill="black"/>
<path opacity="0.4" d="M446.457 348.964H270.655V401.368H446.457V348.964Z" fill="black"/>
</g>
<path d="M443.157 289.564H267.355V341.968H443.157V289.564Z" fill="white"/>
<mask id="mask6_82_107" style="mask-type:luminance" maskUnits="userSpaceOnUse" x="267" y="289" width="177" height="53">
<path d="M443.157 289.564H267.355V341.968H443.157V289.564Z" fill="white"/>
</mask>
<g mask="url(#mask6_82_107)">
<path opacity="0.6" d="M443.157 289.564H267.355V341.968H443.157V289.564Z" fill="white"/>
</g>
<path d="M443.157 289.564H267.355V341.968H443.157V289.564Z" stroke="#263238" stroke-width="1.1" stroke-miterlimit="10"/>
<path d="M319.638 294.844H273.449V330.088H319.638V294.844Z" fill="#263238"/>
<path opacity="0.3" d="M319.638 321.552V330.088H273.449V322.146L288.046 311.333L303.061 322.146L311.542 316.734L319.638 321.552Z" fill="white"/>
<path opacity="0.3" d="M308 304.832C308.002 305.753 307.731 306.654 307.22 307.421C306.71 308.188 305.983 308.786 305.133 309.14C304.282 309.493 303.345 309.586 302.442 309.407C301.538 309.228 300.708 308.785 300.057 308.133C299.405 307.482 298.962 306.652 298.783 305.748C298.604 304.845 298.697 303.908 299.05 303.057C299.404 302.207 300.002 301.48 300.769 300.97C301.536 300.459 302.437 300.188 303.358 300.19C304.589 300.19 305.77 300.679 306.64 301.55C307.511 302.42 308 303.601 308 304.832Z" fill="white"/>
<path opacity="0.4" d="M293.117 333.41H274.912C274.647 333.39 274.382 333.425 274.132 333.512C273.881 333.6 273.652 333.738 273.458 333.918C273.263 334.098 273.108 334.316 273.002 334.559C272.896 334.802 272.841 335.064 272.841 335.33C272.841 335.595 272.896 335.857 273.002 336.1C273.108 336.343 273.263 336.561 273.458 336.741C273.652 336.921 273.881 337.06 274.132 337.147C274.382 337.234 274.647 337.269 274.912 337.249H293.117C293.381 337.269 293.647 337.234 293.897 337.147C294.147 337.06 294.377 336.921 294.571 336.741C294.765 336.561 294.92 336.343 295.026 336.1C295.132 335.857 295.187 335.595 295.187 335.33C295.187 335.064 295.132 334.802 295.026 334.559C294.92 334.316 294.765 334.098 294.571 333.918C294.377 333.738 294.147 333.6 293.897 333.512C293.647 333.425 293.381 333.39 293.117 333.41Z" fill="#263238"/>
<path opacity="0.4" d="M434.819 296.065H328.625C328.114 296.065 327.625 296.268 327.264 296.629C326.903 296.99 326.7 297.48 326.7 297.99C326.7 298.501 326.903 298.99 327.264 299.351C327.625 299.712 328.114 299.915 328.625 299.915H434.819C435.329 299.915 435.819 299.712 436.18 299.351C436.541 298.99 436.744 298.501 436.744 297.99C436.744 297.48 436.541 296.99 436.18 296.629C435.819 296.268 435.329 296.065 434.819 296.065Z" fill="#263238"/>
<path opacity="0.4" d="M434.819 307.065H328.625C328.114 307.065 327.625 307.268 327.264 307.629C326.903 307.99 326.7 308.48 326.7 308.99C326.7 309.501 326.903 309.99 327.264 310.351C327.625 310.712 328.114 310.915 328.625 310.915H434.819C435.329 310.915 435.819 310.712 436.18 310.351C436.541 309.99 436.744 309.501 436.744 308.99C436.744 308.48 436.541 307.99 436.18 307.629C435.819 307.268 435.329 307.065 434.819 307.065Z" fill="#263238"/>
<path opacity="0.4" d="M412.819 318.065H328.625C328.114 318.065 327.625 318.268 327.264 318.629C326.903 318.99 326.7 319.48 326.7 319.99C326.7 320.501 326.903 320.99 327.264 321.351C327.625 321.712 328.114 321.915 328.625 321.915H412.819C413.329 321.915 413.819 321.712 414.18 321.351C414.541 320.99 414.744 320.501 414.744 319.99C414.744 319.48 414.541 318.99 414.18 318.629C413.819 318.268 413.329 318.065 412.819 318.065Z" fill="#263238"/>
<path opacity="0.6" d="M297.143 415.624H270.171C269.415 415.624 268.691 415.924 268.156 416.458C267.622 416.993 267.322 417.717 267.322 418.473C267.322 419.229 267.622 419.953 268.156 420.488C268.691 421.022 269.415 421.322 270.171 421.322H297.143C297.898 421.322 298.623 421.022 299.157 420.488C299.692 419.953 299.992 419.229 299.992 418.473C299.992 417.717 299.692 416.993 299.157 416.458C298.623 415.924 297.898 415.624 297.143 415.624Z" fill="#263238"/>
<path d="M443.157 428.164H267.355V480.568H443.157V428.164Z" fill="white"/>
<mask id="mask7_82_107" style="mask-type:luminance" maskUnits="userSpaceOnUse" x="267" y="428" width="177" height="53">
<path d="M443.157 428.164H267.355V480.568H443.157V428.164Z" fill="white"/>
</mask>
<g mask="url(#mask7_82_107)">
<path opacity="0.6" d="M443.157 428.164H267.355V480.568H443.157V428.164Z" fill="white"/>
</g>
<path d="M443.157 428.164H267.355V480.568H443.157V428.164Z" stroke="#263238" stroke-width="1.1" stroke-miterlimit="10"/>
<path d="M319.638 433.444H273.449V468.688H319.638V433.444Z" fill="#263238"/>
<path opacity="0.3" d="M319.638 460.152V468.688H273.449V460.746L288.046 449.933L303.061 460.746L311.542 455.334L319.638 460.152Z" fill="white"/>
<path opacity="0.3" d="M308 443.432C308.002 444.353 307.731 445.254 307.22 446.021C306.71 446.788 305.983 447.386 305.133 447.74C304.282 448.093 303.345 448.186 302.442 448.007C301.538 447.828 300.708 447.385 300.057 446.733C299.405 446.082 298.962 445.252 298.783 444.348C298.604 443.444 298.697 442.508 299.05 441.657C299.404 440.807 300.002 440.08 300.769 439.57C301.536 439.059 302.437 438.788 303.358 438.79C303.967 438.79 304.571 438.91 305.134 439.143C305.697 439.377 306.209 439.719 306.64 440.15C307.071 440.581 307.413 441.092 307.646 441.656C307.88 442.219 308 442.822 308 443.432Z" fill="white"/>
<path opacity="0.4" d="M293.117 472.01H274.912C274.647 471.99 274.382 472.025 274.132 472.112C273.881 472.2 273.652 472.338 273.458 472.518C273.263 472.698 273.108 472.916 273.002 473.159C272.896 473.402 272.841 473.664 272.841 473.93C272.841 474.195 272.896 474.457 273.002 474.7C273.108 474.943 273.263 475.161 273.458 475.341C273.652 475.521 273.881 475.66 274.132 475.747C274.382 475.834 274.647 475.869 274.912 475.849H293.117C293.381 475.869 293.647 475.834 293.897 475.747C294.147 475.66 294.377 475.521 294.571 475.341C294.765 475.161 294.92 474.943 295.026 474.7C295.132 474.457 295.187 474.195 295.187 473.93C295.187 473.664 295.132 473.402 295.026 473.159C294.92 472.916 294.765 472.698 294.571 472.518C294.377 472.338 294.147 472.2 293.897 472.112C293.647 472.025 293.381 471.99 293.117 472.01Z" fill="#263238"/>
<path opacity="0.4" d="M434.819 434.665H328.625C328.114 434.665 327.625 434.868 327.264 435.229C326.903 435.59 326.7 436.079 326.7 436.59C326.7 437.101 326.903 437.59 327.264 437.951C327.625 438.312 328.114 438.515 328.625 438.515H434.819C435.329 438.515 435.819 438.312 436.18 437.951C436.541 437.59 436.744 437.101 436.744 436.59C436.744 436.079 436.541 435.59 436.18 435.229C435.819 434.868 435.329 434.665 434.819 434.665Z" fill="#263238"/>
<path opacity="0.4" d="M434.819 445.665H328.625C328.114 445.665 327.625 445.868 327.264 446.229C326.903 446.59 326.7 447.079 326.7 447.59C326.7 448.101 326.903 448.59 327.264 448.951C327.625 449.312 328.114 449.515 328.625 449.515H434.819C435.329 449.515 435.819 449.312 436.18 448.951C436.541 448.59 436.744 448.101 436.744 447.59C436.744 447.079 436.541 446.59 436.18 446.229C435.819 445.868 435.329 445.665 434.819 445.665Z" fill="#263238"/>
<path opacity="0.4" d="M412.819 456.665H328.625C328.114 456.665 327.625 456.868 327.264 457.229C326.903 457.59 326.7 458.079 326.7 458.59C326.7 459.101 326.903 459.59 327.264 459.951C327.625 460.312 328.114 460.515 328.625 460.515H412.819C413.329 460.515 413.819 460.312 414.18 459.951C414.541 459.59 414.744 459.101 414.744 458.59C414.744 458.079 414.541 457.59 414.18 457.229C413.819 456.868 413.329 456.665 412.819 456.665Z" fill="#263238"/>
<path d="M443.157 346.764H267.355V399.168H443.157V346.764Z" fill="white"/>
<mask id="mask8_82_107" style="mask-type:luminance" maskUnits="userSpaceOnUse" x="267" y="346" width="177" height="54">
<path d="M443.157 346.764H267.355V399.168H443.157V346.764Z" fill="white"/>
</mask>
<g mask="url(#mask8_82_107)">
<path opacity="0.6" d="M443.157 346.764H267.355V399.168H443.157V346.764Z" fill="white"/>
</g>
<path d="M443.157 346.764H267.355V399.168H443.157V346.764Z" stroke="#263238" stroke-width="1.1" stroke-miterlimit="10"/>
<path d="M319.638 352.044H273.449V387.288H319.638V352.044Z" fill="#263238"/>
<path opacity="0.3" d="M319.638 378.752V387.288H273.449V379.346L288.046 368.533L303.061 379.346L311.542 373.934L319.638 378.752Z" fill="white"/>
<path opacity="0.3" d="M308 362.032C308.002 362.953 307.731 363.854 307.22 364.621C306.71 365.388 305.983 365.986 305.133 366.34C304.282 366.693 303.345 366.786 302.442 366.607C301.538 366.428 300.708 365.985 300.057 365.333C299.405 364.682 298.962 363.852 298.783 362.948C298.604 362.044 298.697 361.108 299.05 360.257C299.404 359.407 300.002 358.68 300.769 358.17C301.536 357.659 302.437 357.388 303.358 357.39C304.589 357.39 305.77 357.879 306.64 358.75C307.511 359.62 308 360.801 308 362.032Z" fill="white"/>
<path opacity="0.4" d="M293.117 390.61H274.912C274.647 390.59 274.382 390.625 274.132 390.712C273.881 390.799 273.652 390.938 273.458 391.118C273.263 391.298 273.108 391.516 273.002 391.759C272.896 392.002 272.841 392.264 272.841 392.529C272.841 392.795 272.896 393.057 273.002 393.3C273.108 393.543 273.263 393.761 273.458 393.941C273.652 394.121 273.881 394.259 274.132 394.347C274.382 394.434 274.647 394.469 274.912 394.449H293.117C293.381 394.469 293.647 394.434 293.897 394.347C294.147 394.259 294.377 394.121 294.571 393.941C294.765 393.761 294.92 393.543 295.026 393.3C295.132 393.057 295.187 392.795 295.187 392.529C295.187 392.264 295.132 392.002 295.026 391.759C294.92 391.516 294.765 391.298 294.571 391.118C294.377 390.938 294.147 390.799 293.897 390.712C293.647 390.625 293.381 390.59 293.117 390.61Z" fill="#263238"/>
<path opacity="0.4" d="M434.819 353.265H328.625C328.114 353.265 327.625 353.468 327.264 353.829C326.903 354.19 326.7 354.679 326.7 355.19C326.7 355.701 326.903 356.19 327.264 356.551C327.625 356.912 328.114 357.115 328.625 357.115H434.819C435.329 357.115 435.819 356.912 436.18 356.551C436.541 356.19 436.744 355.701 436.744 355.19C436.744 354.679 436.541 354.19 436.18 353.829C435.819 353.468 435.329 353.265 434.819 353.265Z" fill="#263238"/>
<path opacity="0.4" d="M434.819 364.265H328.625C328.114 364.265 327.625 364.468 327.264 364.829C326.903 365.19 326.7 365.679 326.7 366.19C326.7 366.701 326.903 367.19 327.264 367.551C327.625 367.912 328.114 368.115 328.625 368.115H434.819C435.329 368.115 435.819 367.912 436.18 367.551C436.541 367.19 436.744 366.701 436.744 366.19C436.744 365.679 436.541 365.19 436.18 364.829C435.819 364.468 435.329 364.265 434.819 364.265Z" fill="#263238"/>
<path opacity="0.4" d="M412.819 375.265H328.625C328.114 375.265 327.625 375.468 327.264 375.829C326.903 376.19 326.7 376.679 326.7 377.19C326.7 377.701 326.903 378.19 327.264 378.551C327.625 378.912 328.114 379.115 328.625 379.115H412.819C413.329 379.115 413.819 378.912 414.18 378.551C414.541 378.19 414.744 377.701 414.744 377.19C414.744 376.679 414.541 376.19 414.18 375.829C413.819 375.468 413.329 375.265 412.819 375.265Z" fill="#263238"/>
<path opacity="0.4" d="M231.088 374.682H178.783C178.272 374.682 177.783 374.885 177.422 375.246C177.061 375.607 176.858 376.096 176.858 376.607C176.858 377.118 177.061 377.607 177.422 377.968C177.783 378.329 178.272 378.532 178.783 378.532H231.088C231.598 378.532 232.088 378.329 232.449 377.968C232.81 377.607 233.013 377.118 233.013 376.607C233.013 376.096 232.81 375.607 232.449 375.246C232.088 374.885 231.598 374.682 231.088 374.682Z" fill="#263238"/>
<path opacity="0.4" d="M231.088 463.749H178.783C178.272 463.749 177.783 463.952 177.422 464.313C177.061 464.674 176.858 465.163 176.858 465.674C176.858 466.185 177.061 466.674 177.422 467.035C177.783 467.396 178.272 467.599 178.783 467.599H231.088C231.598 467.599 232.088 467.396 232.449 467.035C232.81 466.674 233.013 466.185 233.013 465.674C233.013 465.163 232.81 464.674 232.449 464.313C232.088 463.952 231.598 463.749 231.088 463.749Z" fill="#263238"/>
<path opacity="0.4" d="M231.088 419.221H178.783C178.519 419.201 178.253 419.236 178.003 419.323C177.752 419.411 177.523 419.549 177.329 419.729C177.134 419.909 176.979 420.128 176.873 420.37C176.767 420.613 176.712 420.876 176.712 421.141C176.712 421.406 176.767 421.668 176.873 421.911C176.979 422.154 177.134 422.372 177.329 422.552C177.523 422.732 177.752 422.871 178.003 422.958C178.253 423.045 178.519 423.08 178.783 423.06H231.088C231.352 423.08 231.618 423.045 231.868 422.958C232.118 422.871 232.348 422.732 232.542 422.552C232.736 422.372 232.891 422.154 232.997 421.911C233.103 421.668 233.158 421.406 233.158 421.141C233.158 420.876 233.103 420.613 232.997 420.37C232.891 420.128 232.736 419.909 232.542 419.729C232.348 419.549 232.118 419.411 231.868 419.323C231.618 419.236 231.352 419.201 231.088 419.221Z" fill="#263238"/>
<path d="M384.835 199.287C400.488 204.435 438.537 224.741 445.038 233.442C451.539 242.143 446.897 260.249 432.399 264.836C417.901 269.423 350.009 264.836 350.009 264.836C350.009 264.836 344.509 268.378 342.925 266.871C341.341 265.364 340.725 240.471 346.423 240.625C351.054 240.779 352.891 243.012 352.891 243.012L382.503 237.402C382.503 237.402 372.603 225.753 372.603 213.84" fill="white"/>
<mask id="mask9_82_107" style="mask-type:luminance" maskUnits="userSpaceOnUse" x="341" y="199" width="107" height="69">
<path d="M384.835 199.287C400.488 204.435 438.537 224.741 445.038 233.442C451.539 242.143 446.897 260.249 432.399 264.836C417.901 269.423 350.009 264.836 350.009 264.836C350.009 264.836 344.509 268.378 342.925 266.871C341.341 265.364 340.725 240.471 346.423 240.625C351.054 240.779 352.891 243.012 352.891 243.012L382.503 237.402C382.503 237.402 372.603 225.753 372.603 213.84" fill="white"/>
</mask>
<g mask="url(#mask9_82_107)">
<path opacity="0.2" d="M432.399 264.836C417.89 269.412 350.009 264.836 350.009 264.836C350.009 264.836 344.509 268.378 342.925 266.871C342.001 266.013 341.407 257.653 342.111 250.591C342.969 254.254 344.058 258.368 344.817 259.578C346.269 261.899 351.769 259.578 351.769 259.578C351.255 254.7 351.628 249.77 352.869 245.025L358.6 257.257C358.6 257.257 413.028 260.447 433.048 252.032C441.375 248.534 444.939 241.901 446.248 235.356C450.857 244.563 445.907 260.568 432.399 264.836Z" fill="black"/>
<path opacity="0.2" d="M398.717 234.069L382.47 237.369C381.255 235.866 380.127 234.294 379.093 232.661C379.28 228.338 379.885 222.629 381.722 220.418C384.857 216.656 384.274 226.501 387.222 232.023C387.222 232.023 398.387 223.003 402.809 225.049C407.231 227.095 401.5 227.513 398.717 234.069Z" fill="black"/>
</g>
<path d="M384.835 199.287C400.488 204.435 438.537 224.741 445.038 233.442C451.539 242.143 446.897 260.249 432.399 264.836C417.901 269.423 350.009 264.836 350.009 264.836C350.009 264.836 344.509 268.378 342.925 266.871C341.341 265.364 340.725 240.471 346.423 240.625C351.054 240.779 352.891 243.012 352.891 243.012L382.503 237.402C382.503 237.402 372.603 225.753 372.603 213.84" stroke="#263238" stroke-width="1.1" stroke-linecap="round" stroke-linejoin="round"/>
<path d="M419.65 237.853C421.199 238.99 422.377 240.559 423.038 242.363" stroke="#263238" stroke-width="1.1" stroke-linecap="round" stroke-linejoin="round"/>
<path d="M382.503 237.402C394.009 235.532 405.141 230.021 416.328 235.741" stroke="#263238" stroke-width="1.1" stroke-linecap="round" stroke-linejoin="round"/>
<path d="M419.155 230.571C420.254 230.821 421.284 231.314 422.169 232.012" stroke="#263238" stroke-width="1.1" stroke-linecap="round" stroke-linejoin="round"/>
<path d="M398.2 233.959C402.061 229.119 409.915 229.361 415.437 229.911" stroke="#263238" stroke-width="1.1" stroke-linecap="round" stroke-linejoin="round"/>
<path d="M354.002 242.803C352.044 245.988 351.357 249.793 352.077 253.462" stroke="#263238" stroke-width="1.1" stroke-linecap="round" stroke-linejoin="round"/>
<path d="M374.759 231.187C376.129 232.263 377.748 232.978 379.467 233.266" stroke="#263238" stroke-width="1.1" stroke-linecap="round" stroke-linejoin="round"/>
<path d="M369.303 225.038C370.108 226.348 371.036 227.578 372.075 228.712" stroke="#263238" stroke-width="1.1" stroke-linecap="round" stroke-linejoin="round"/>
</svg>
