<svg width="450" height="450" viewBox="0 0 450 450" fill="none" xmlns="http://www.w3.org/2000/svg">
<path d="M339.328 339.328C314.93 363.797 284.695 378.703 253.125 384.188C234.562 387.562 215.438 387.562 196.875 384.188C165.305 378.703 135.07 363.797 110.672 339.328C47.4609 276.187 47.4609 173.812 110.672 110.672C173.812 47.4609 276.187 47.4609 339.328 110.672C402.539 173.812 402.539 276.187 339.328 339.328Z" fill="#008AA9"/>
<path opacity="0.3" d="M225 450C298.782 450 358.594 440.556 358.594 428.906C358.594 417.256 298.782 407.812 225 407.812C151.218 407.812 91.4062 417.256 91.4062 428.906C91.4062 440.556 151.218 450 225 450Z" fill="black"/>
<path d="M253.125 196.875V225H287.205C291.488 225 294.771 228.79 294.166 233.023L290.004 262.139C289.02 269.072 283.085 274.219 276.082 274.219H253.125V384.188C234.562 387.563 215.438 387.563 196.875 384.188V274.219H168.75C160.98 274.219 154.688 267.926 154.688 260.156V239.063C154.688 231.293 160.98 225 168.75 225H196.875V196.875C196.875 150.448 221.899 116.536 283.739 127.589C290.426 128.784 295.312 134.677 295.312 141.469V155.384C295.312 162.513 289.955 168.595 282.867 169.327C263.039 171.366 253.125 179.163 253.125 196.875Z" fill="white"/>
<path opacity="0.3" d="M225 98.4375C243.12 98.4375 257.864 84.6773 259.777 67.0711C248.569 64.6172 236.946 63.2812 225 63.2812C135.682 63.2812 63.2812 135.682 63.2812 225C63.2812 236.946 64.6172 248.569 67.0711 259.777C84.6844 257.864 98.4375 243.12 98.4375 225C98.4375 155.215 155.215 98.4375 225 98.4375Z" fill="white"/>
<path opacity="0.15" d="M382.929 190.223C365.316 192.136 351.563 206.88 351.563 225C351.563 294.785 294.785 351.562 225 351.562C206.881 351.562 192.136 365.323 190.224 382.929C201.431 385.383 213.054 386.719 225 386.719C314.318 386.719 386.719 314.318 386.719 225C386.719 213.054 385.383 201.431 382.929 190.223Z" fill="black"/>
<path d="M105.785 175.268C104.175 175.268 102.551 174.895 101.018 174.122C95.8219 171.485 93.7547 165.136 96.3915 159.94C110.588 131.977 133.931 109.027 162.113 95.3086C167.337 92.7492 173.658 94.9359 176.21 100.174C178.763 105.412 176.583 111.727 171.345 114.272C147.27 125.993 127.329 145.603 115.2 169.488C113.337 173.159 109.631 175.268 105.785 175.268Z" fill="white"/>
</svg>
