<svg width="550" height="550" viewBox="0 0 550 550" fill="none" xmlns="http://www.w3.org/2000/svg">
<path d="M107.987 344.993C158.851 403.293 210.21 410.674 282.403 424.49C354.596 438.306 407.605 428.758 446.666 393.547C491.766 352.847 489.984 259.611 420.97 226.413C399.41 216.018 373.736 212.872 354.849 198.253C318.78 170.357 289.608 126.951 231.704 118.8C173.8 110.649 134.761 149.49 134.761 149.49C87.208 201.564 57.123 286.649 107.987 344.993Z" fill="white"/>
<path opacity="0.7" d="M107.987 344.993C158.851 403.293 210.21 410.674 282.403 424.49C354.596 438.306 407.605 428.758 446.666 393.547C491.766 352.847 489.984 259.611 420.97 226.413C399.41 216.018 373.736 212.872 354.849 198.253C318.78 170.357 289.608 126.951 231.704 118.8C173.8 110.649 134.761 149.49 134.761 149.49C87.208 201.564 57.123 286.649 107.987 344.993Z" fill="white"/>
<path d="M496.045 438.218H67.0449V455.818H496.045V438.218Z" fill="white"/>
<path opacity="0.5" d="M496.045 438.218H67.0449V455.818H496.045V438.218Z" fill="white"/>
<path d="M168.212 248.919C166.114 249.603 164.054 250.4 162.041 251.306C163.141 250.503 164.241 249.667 165.341 248.82C170.238 244.881 174.9 240.657 179.3 236.17C174.136 241.186 168.622 245.829 162.8 250.063C163.603 248.668 164.308 247.22 164.912 245.729C166.012 242.99 166.21 240.229 163.603 238.766C160.38 236.962 156.486 239.657 157.509 244.266C158.133 246.839 159.35 249.231 161.062 251.251C157.262 253.881 153.294 256.259 149.182 258.368L148.797 258.566C149.666 257.06 150.434 255.499 151.096 253.891C152.13 251.163 152.394 248.391 149.776 246.939C146.553 245.124 142.659 247.83 143.693 252.439C144.307 254.978 145.496 257.341 147.169 259.347C142.23 261.778 137.126 263.846 132.044 266.09L131.307 266.42C132.299 265.355 133.221 264.227 134.068 263.043C135.718 260.623 136.609 258.005 134.409 255.97C131.703 253.462 127.27 255.178 127.204 259.93C127.207 262.553 127.817 265.139 128.986 267.487C124.23 269.709 119.712 272.407 115.5 275.539L115.368 275.649C115.938 274.746 116.459 273.813 116.93 272.855C118.173 270.204 118.635 267.476 116.127 265.815C115.617 265.464 115.035 265.234 114.423 265.141C113.812 265.048 113.187 265.095 112.597 265.278C112.006 265.461 111.464 265.776 111.013 266.199C110.561 266.621 110.211 267.141 109.989 267.718C109.658 267.202 109.21 266.772 108.68 266.464C106.161 265.012 103.686 266.585 101.563 268.807C101.013 269.39 100.463 270.017 99.9901 270.633C101.628 266.088 103.686 261.705 106.139 257.543C108.475 258.563 110.993 259.098 113.542 259.116C118.558 259.116 120.67 254.936 118.206 252.34C116.204 250.239 113.388 251.042 110.726 252.582C109.85 253.093 109.001 253.651 108.185 254.254C110.735 250.413 113.629 246.812 116.831 243.496C118.929 245.193 121.368 246.42 123.981 247.093C128.854 248.292 131.912 244.761 130.152 241.648C128.722 239.118 125.752 239.217 122.837 240.064C121.442 240.481 120.075 240.988 118.745 241.582C120.076 240.284 121.451 239.041 122.848 237.809C124.674 236.247 126.566 234.74 128.491 233.266C130.561 234.918 132.956 236.113 135.52 236.775C140.393 237.974 143.451 234.443 141.691 231.33C140.261 228.8 137.291 228.899 134.365 229.746C133.683 229.944 132.99 230.186 132.319 230.439C134.86 228.624 137.434 226.853 140.019 225.093L142.406 223.454C144.557 225.256 147.082 226.556 149.798 227.26C154.671 228.459 157.74 224.928 155.98 221.815C154.539 219.285 151.58 219.384 148.654 220.231C147.503 220.583 146.37 220.99 145.255 221.452L146.729 220.352C147.631 219.703 148.533 219.043 149.413 218.35C150.513 217.525 151.558 216.612 152.625 215.732C153.241 215.248 153.824 214.731 154.407 214.203C156.567 216.024 159.108 217.336 161.843 218.042C166.716 219.241 169.774 215.71 168.014 212.597C166.584 210.067 163.614 210.166 160.699 211.013C159.064 211.518 157.463 212.124 155.903 212.828C157.894 210.98 159.819 209.055 161.645 207.053C161.766 206.91 161.876 206.767 162.008 206.635C162.789 205.766 163.559 204.886 164.307 203.973C165.055 203.06 166.023 201.861 166.837 200.761C170.18 196.373 172.931 191.566 175.021 186.461C172.831 191.505 169.987 196.239 166.562 200.541C163.175 204.861 159.393 208.857 155.265 212.476L154.814 212.861C155.752 211.264 156.582 209.607 157.3 207.9C158.345 205.172 158.598 202.4 155.98 200.948C152.768 199.133 148.863 201.839 149.897 206.448C150.561 209.177 151.887 211.701 153.758 213.796L152.79 214.632L151.69 215.578C151.052 216.095 150.392 216.59 149.732 217.085C149.38 217.349 149.039 217.624 148.632 217.888C147.697 218.581 146.751 219.252 145.794 219.912L144.419 220.847L142.857 221.947C143.77 220.389 144.571 218.768 145.255 217.096C146.3 214.357 146.553 211.596 143.946 210.144C140.723 208.329 136.818 211.035 137.852 215.644C138.49 218.291 139.753 220.747 141.537 222.805L140.437 223.553L136.158 226.358L135.311 226.908L132.924 228.503L131.89 229.196C130.79 229.955 129.69 230.725 128.59 231.517C129.474 229.934 130.246 228.291 130.9 226.6C132 223.872 132.198 221.1 129.591 219.648C126.368 217.833 122.474 220.539 123.508 225.148C124.154 227.831 125.446 230.315 127.27 232.386C125.4 233.761 123.552 235.169 121.77 236.643C120.461 237.743 119.174 238.843 117.909 240.031C118.46 239.011 118.952 237.961 119.383 236.885C120.417 234.146 120.681 231.385 118.063 229.933C114.84 228.118 110.946 230.824 111.98 235.433C112.594 237.972 113.783 240.335 115.456 242.341C111.893 245.881 108.685 249.761 105.875 253.924C106.194 252.723 106.437 251.503 106.601 250.272C106.953 247.368 106.535 244.64 103.642 243.848C100.078 242.869 96.9541 246.433 99.0771 250.679C100.298 253.016 102.046 255.038 104.181 256.586C101.41 261.112 99.0961 265.902 97.2731 270.886C97.2255 269.844 97.1227 268.804 96.9651 267.773C96.4701 264.88 95.3041 262.383 92.3011 262.438C88.6051 262.515 86.6141 266.838 89.8591 270.292C91.5896 272.096 93.7019 273.491 96.041 274.373C94.79 278.22 93.7725 282.14 92.9941 286.11C92.8621 286.737 92.7631 287.364 92.6421 287.991C92.5101 288.112 92.3781 288.233 92.2571 288.365C92.1251 287.826 91.9711 287.265 91.7951 286.748C90.8711 283.976 89.3311 281.677 86.3721 282.205C82.7421 282.843 81.4331 287.397 85.1731 290.334C87.0738 291.785 89.2649 292.809 91.597 293.337C91.597 293.447 91.6851 293.546 91.7401 293.656C91.3331 296.637 91.0251 299.64 90.8381 302.654C90.6951 304.854 90.618 307.153 90.5741 309.408C87.4281 309.408 85.2061 312.862 87.3731 316.602C88.2875 318.153 89.4592 319.536 90.8381 320.694C91.1021 324.929 91.5201 329.164 92.0811 333.366C91.6362 332.955 91.0918 332.666 90.5016 332.529C89.9114 332.392 89.2956 332.411 88.7151 332.585C86.7351 333.124 85.8441 334.719 85.5251 336.677C84.8205 337.406 84.4262 338.38 84.4251 339.394C82.9511 337.194 81.5541 334.994 80.2011 332.673C82.2664 331.09 83.9786 329.093 85.2281 326.81C87.5931 322.41 84.9201 318.549 81.4771 319.484C78.6611 320.254 78.0451 323.114 78.1771 326.183C78.221 327.347 78.3312 328.507 78.5071 329.659L77.0551 327.107C75.8451 324.907 74.8551 322.707 73.6671 320.507C73.3811 319.968 73.1281 319.407 72.8971 318.857C75.2145 317.689 77.2636 316.052 78.9141 314.05C82.0711 310.156 80.1681 305.877 76.6041 306.152C73.7001 306.383 72.5451 309.078 72.0611 312.114C71.8724 313.438 71.7549 314.771 71.7091 316.107L70.6751 313.72C68.4728 308.305 66.6605 302.739 65.2521 297.066C67.8752 296.136 70.2578 294.633 72.2261 292.666C75.7571 289.091 74.2941 284.658 70.7191 284.57C67.8151 284.504 66.3961 287.067 65.6041 290.07C65.2159 291.664 64.9257 293.28 64.7351 294.91C63.9651 291.654 63.3051 288.354 62.7551 285.01C62.3811 282.964 62.1391 280.885 61.8861 278.817C64.7055 278.258 67.3611 277.066 69.6521 275.33C73.6121 272.25 72.7431 267.63 69.2011 267.113C66.3301 266.662 64.5921 269.027 63.4261 271.876C62.7434 273.673 62.1703 275.51 61.7101 277.376C61.4901 274.978 61.2371 272.569 61.1271 270.16C60.7971 265.186 60.7971 260.196 61.1271 255.222C60.6249 260.192 60.4522 265.189 60.6101 270.182C60.6101 272.481 60.8081 274.769 60.9511 277.068C60.3226 275.505 59.5876 273.987 58.7511 272.525C57.2551 270.006 55.2531 268.125 52.4811 269.225C49.0601 270.633 48.7631 275.363 53.0531 277.431C55.5692 278.587 58.3293 279.112 61.0941 278.96C61.2921 281.017 61.4681 283.063 61.7761 285.098C62.2051 288.398 62.7551 291.566 63.4041 294.767C62.7001 293.541 61.9175 292.361 61.0611 291.236C59.2461 288.937 57.0241 287.309 54.4611 288.794C51.2601 290.631 51.5681 295.394 56.0891 296.857C58.6473 297.652 61.3569 297.833 63.9981 297.385C65.2531 303.12 66.9033 308.762 68.9371 314.27L69.5861 315.92C69.0041 315.149 68.3759 314.415 67.7051 313.72C65.6701 311.608 63.3051 310.211 60.8521 311.96C57.8491 314.16 58.6521 318.78 63.2721 319.814C65.8218 320.33 68.4559 320.255 70.9721 319.594C71.2031 320.155 71.4341 320.694 71.7091 321.266C72.8091 323.532 73.7881 325.853 74.9431 328.075L75.9001 330C75.3281 329.505 74.7341 329.032 74.1181 328.592C71.7201 326.909 69.1241 325.985 67.0561 328.152C64.5041 330.825 66.1541 335.269 70.9061 335.412C73.38 335.47 75.8362 334.981 78.1001 333.982C79.4641 336.446 80.8611 338.877 82.3791 341.264C82.9401 342.177 83.4791 343.079 84.1171 343.981C83.2541 343.192 82.343 342.457 81.3891 341.781C78.9911 340.098 76.3951 339.174 74.3161 341.341C71.7751 344.014 73.4251 348.458 78.1771 348.601C80.8931 348.634 83.5778 348.019 86.0091 346.808C86.8011 347.908 87.6151 349.008 88.4511 350.108C86.6801 352.165 87.2631 355.608 90.8601 357.181C92.607 357.909 94.4691 358.322 96.3601 358.402C96.5801 358.578 96.8001 358.754 97.0421 358.919L97.1521 359.007C99.4254 367.499 102.12 375.866 105.237 384.109C106.557 387.618 107.976 391.094 109.439 394.548H96.2391V446.6H136.576V394.504H115.104C113.267 390.489 111.496 386.43 109.846 382.327C107.151 375.595 104.709 368.753 102.586 361.812C102.947 361.918 103.315 362.003 103.686 362.065C104.175 362.164 104.676 362.186 105.171 362.131L104.599 358.512H104.214C103.985 358.48 103.757 358.436 103.532 358.38C103.024 358.234 102.527 358.05 102.047 357.83L101.475 357.566C103.598 356.826 105.569 355.708 107.294 354.266C111.111 350.966 110.033 346.456 106.469 346.071C103.587 345.752 101.959 348.194 100.969 351.087C100.672 351.912 100.43 352.77 100.221 353.606C100.012 352.836 99.8031 352.066 99.6051 351.296C99.0221 349.019 98.5051 346.72 97.9771 344.421C100.281 343.702 102.422 342.54 104.28 341C108.097 337.7 107.008 333.201 103.455 332.816C100.562 332.497 98.9451 334.939 97.9551 337.832C97.6581 338.668 97.4051 339.537 97.1851 340.395C96.8551 338.723 96.5361 337.04 96.2391 335.357C96.0301 334.114 95.8321 332.86 95.6451 331.606C95.5791 329.824 95.5461 328.042 95.5681 326.249C95.5681 325.27 95.5681 324.291 95.6561 323.312C97.8127 323.993 100.075 324.28 102.333 324.159C107.349 323.829 109.197 319.539 106.579 317.108C104.445 315.117 101.684 316.107 99.1211 317.801C97.9717 318.582 96.8698 319.43 95.8211 320.342C96.1299 316.155 96.7662 311.999 97.724 307.912C98.2854 305.504 98.9869 303.132 99.8251 300.806C102.125 301.599 104.557 301.939 106.986 301.807C112.002 301.488 113.85 297.198 111.232 294.756C109.109 292.776 106.337 293.755 103.774 295.46C102.879 296.075 102.02 296.74 101.2 297.451C102.167 295.175 103.292 292.97 104.566 290.851C107.093 286.576 110.261 282.713 113.96 279.4C115.877 281.168 118.144 282.514 120.615 283.349C125.389 284.911 128.7 281.611 127.215 278.377C125.972 275.748 123.046 275.627 120.032 276.254C118.871 276.502 117.725 276.818 116.6 277.2L116.677 277.134C120.782 273.931 125.205 271.159 129.877 268.862C131.525 271.02 133.619 272.798 136.015 274.076C140.481 276.375 144.276 273.647 143.286 270.215C142.483 267.421 139.612 266.838 136.543 266.915C135.338 266.98 134.137 267.113 132.946 267.311C137.907 264.968 142.967 262.757 147.851 260.172H147.961C150.148 262.06 152.742 263.415 155.54 264.132C160.413 265.342 163.471 261.8 161.711 258.632C160.281 256.102 157.311 256.212 154.396 257.048C153.571 257.29 152.746 257.587 151.943 257.895C155.205 255.999 158.366 253.936 161.414 251.713L161.667 251.988V251.845C163.875 253.749 166.491 255.123 169.312 255.86C174.174 257.059 177.243 253.528 175.483 250.36C174.097 247.973 171.171 248.072 168.212 248.919ZM91.3001 348.59C90.2991 347.424 89.3531 346.203 88.4291 344.971C88.6491 344.773 88.8911 344.553 89.1331 344.311C90.5076 344.739 91.9303 344.994 93.3681 345.07V345.301L94.0391 345.158C94.3911 346.896 94.7541 348.623 95.1391 350.35C94.692 349.765 94.1082 349.298 93.4389 348.992C92.7696 348.685 92.0351 348.547 91.3001 348.59ZM94.8861 307.175C94.5451 308.473 94.2591 309.771 93.9841 311.08L93.8191 310.849C93.8191 308.165 93.8594 305.488 93.9401 302.819C94.0171 300.949 94.1491 299.09 94.3141 297.22C95.2191 298.142 96.214 298.971 97.2841 299.695C96.353 302.143 95.5562 304.64 94.897 307.175H94.8861ZM99.3961 294.855C99.4621 294.371 99.5171 293.876 99.5391 293.392V292.655C99.9351 292.534 100.342 292.391 100.738 292.226C100.298 293.095 99.8361 293.975 99.4071 294.855H99.3961ZM105.127 285.56C104.937 285.125 104.661 284.733 104.315 284.408C103.969 284.082 103.56 283.831 103.114 283.668C100.397 282.568 98.1971 284.548 96.4481 287.078L96.3601 287.199H96.1841C95.9996 287.157 95.8119 287.131 95.6231 287.122C95.61 286.967 95.6365 286.812 95.7001 286.671C96.3965 282.697 97.3369 278.77 98.5161 274.912C101.041 275.232 103.605 275.034 106.051 274.329C107.562 273.932 108.876 272.997 109.747 271.7C110.231 273.918 111.155 276.016 112.464 277.871C109.758 280.173 107.302 282.754 105.138 285.571L105.127 285.56Z" fill="white"/>
<path opacity="0.3" d="M168.212 248.919C166.114 249.603 164.054 250.4 162.041 251.306C163.141 250.503 164.241 249.667 165.341 248.82C170.238 244.881 174.9 240.657 179.3 236.17C174.136 241.186 168.622 245.829 162.8 250.063C163.603 248.668 164.308 247.22 164.912 245.729C166.012 242.99 166.21 240.229 163.603 238.766C160.38 236.962 156.486 239.657 157.509 244.266C158.133 246.839 159.35 249.231 161.062 251.251C157.262 253.881 153.294 256.259 149.182 258.368L148.797 258.566C149.666 257.06 150.434 255.499 151.096 253.891C152.13 251.163 152.394 248.391 149.776 246.939C146.553 245.124 142.659 247.83 143.693 252.439C144.307 254.978 145.496 257.341 147.169 259.347C142.23 261.778 137.126 263.846 132.044 266.09L131.307 266.42C132.299 265.355 133.221 264.227 134.068 263.043C135.718 260.623 136.609 258.005 134.409 255.97C131.703 253.462 127.27 255.178 127.204 259.93C127.207 262.553 127.817 265.139 128.986 267.487C124.23 269.709 119.712 272.407 115.5 275.539L115.368 275.649C115.938 274.746 116.459 273.813 116.93 272.855C118.173 270.204 118.635 267.476 116.127 265.815C115.617 265.464 115.035 265.234 114.423 265.141C113.812 265.048 113.187 265.095 112.597 265.278C112.006 265.461 111.464 265.776 111.013 266.199C110.561 266.621 110.211 267.141 109.989 267.718C109.658 267.202 109.21 266.772 108.68 266.464C106.161 265.012 103.686 266.585 101.563 268.807C101.013 269.39 100.463 270.017 99.9901 270.633C101.628 266.088 103.686 261.705 106.139 257.543C108.475 258.563 110.993 259.098 113.542 259.116C118.558 259.116 120.67 254.936 118.206 252.34C116.204 250.239 113.388 251.042 110.726 252.582C109.85 253.093 109.001 253.651 108.185 254.254C110.735 250.413 113.629 246.812 116.831 243.496C118.929 245.193 121.368 246.42 123.981 247.093C128.854 248.292 131.912 244.761 130.152 241.648C128.722 239.118 125.752 239.217 122.837 240.064C121.442 240.481 120.075 240.988 118.745 241.582C120.076 240.284 121.451 239.041 122.848 237.809C124.674 236.247 126.566 234.74 128.491 233.266C130.561 234.918 132.956 236.113 135.52 236.775C140.393 237.974 143.451 234.443 141.691 231.33C140.261 228.8 137.291 228.899 134.365 229.746C133.683 229.944 132.99 230.186 132.319 230.439C134.86 228.624 137.434 226.853 140.019 225.093L142.406 223.454C144.557 225.256 147.082 226.556 149.798 227.26C154.671 228.459 157.74 224.928 155.98 221.815C154.539 219.285 151.58 219.384 148.654 220.231C147.503 220.583 146.37 220.99 145.255 221.452L146.729 220.352C147.631 219.703 148.533 219.043 149.413 218.35C150.513 217.525 151.558 216.612 152.625 215.732C153.241 215.248 153.824 214.731 154.407 214.203C156.567 216.024 159.108 217.336 161.843 218.042C166.716 219.241 169.774 215.71 168.014 212.597C166.584 210.067 163.614 210.166 160.699 211.013C159.064 211.518 157.463 212.124 155.903 212.828C157.894 210.98 159.819 209.055 161.645 207.053C161.766 206.91 161.876 206.767 162.008 206.635C162.789 205.766 163.559 204.886 164.307 203.973C165.055 203.06 166.023 201.861 166.837 200.761C170.18 196.373 172.931 191.566 175.021 186.461C172.831 191.505 169.987 196.239 166.562 200.541C163.175 204.861 159.393 208.857 155.265 212.476L154.814 212.861C155.752 211.264 156.582 209.607 157.3 207.9C158.345 205.172 158.598 202.4 155.98 200.948C152.768 199.133 148.863 201.839 149.897 206.448C150.561 209.177 151.887 211.701 153.758 213.796L152.79 214.632L151.69 215.578C151.052 216.095 150.392 216.59 149.732 217.085C149.38 217.349 149.039 217.624 148.632 217.888C147.697 218.581 146.751 219.252 145.794 219.912L144.419 220.847L142.857 221.947C143.77 220.389 144.571 218.768 145.255 217.096C146.3 214.357 146.553 211.596 143.946 210.144C140.723 208.329 136.818 211.035 137.852 215.644C138.49 218.291 139.753 220.747 141.537 222.805L140.437 223.553L136.158 226.358L135.311 226.908L132.924 228.503L131.89 229.196C130.79 229.955 129.69 230.725 128.59 231.517C129.474 229.934 130.246 228.291 130.9 226.6C132 223.872 132.198 221.1 129.591 219.648C126.368 217.833 122.474 220.539 123.508 225.148C124.154 227.831 125.446 230.315 127.27 232.386C125.4 233.761 123.552 235.169 121.77 236.643C120.461 237.743 119.174 238.843 117.909 240.031C118.46 239.011 118.952 237.961 119.383 236.885C120.417 234.146 120.681 231.385 118.063 229.933C114.84 228.118 110.946 230.824 111.98 235.433C112.594 237.972 113.783 240.335 115.456 242.341C111.893 245.881 108.685 249.761 105.875 253.924C106.194 252.723 106.437 251.503 106.601 250.272C106.953 247.368 106.535 244.64 103.642 243.848C100.078 242.869 96.9541 246.433 99.0771 250.679C100.298 253.016 102.046 255.038 104.181 256.586C101.41 261.112 99.0961 265.902 97.2731 270.886C97.2255 269.844 97.1227 268.804 96.9651 267.773C96.4701 264.88 95.3041 262.383 92.3011 262.438C88.6051 262.515 86.6141 266.838 89.8591 270.292C91.5896 272.096 93.7019 273.491 96.041 274.373C94.79 278.22 93.7725 282.14 92.9941 286.11C92.8621 286.737 92.7631 287.364 92.6421 287.991C92.5101 288.112 92.3781 288.233 92.2571 288.365C92.1251 287.826 91.9711 287.265 91.7951 286.748C90.8711 283.976 89.3311 281.677 86.3721 282.205C82.7421 282.843 81.4331 287.397 85.1731 290.334C87.0738 291.785 89.2649 292.809 91.597 293.337C91.597 293.447 91.6851 293.546 91.7401 293.656C91.3331 296.637 91.0251 299.64 90.8381 302.654C90.6951 304.854 90.618 307.153 90.5741 309.408C87.4281 309.408 85.2061 312.862 87.3731 316.602C88.2875 318.153 89.4592 319.536 90.8381 320.694C91.1021 324.929 91.5201 329.164 92.0811 333.366C91.6362 332.955 91.0918 332.666 90.5016 332.529C89.9114 332.392 89.2956 332.411 88.7151 332.585C86.7351 333.124 85.8441 334.719 85.5251 336.677C84.8205 337.406 84.4262 338.38 84.4251 339.394C82.9511 337.194 81.5541 334.994 80.2011 332.673C82.2664 331.09 83.9786 329.093 85.2281 326.81C87.5931 322.41 84.9201 318.549 81.4771 319.484C78.6611 320.254 78.0451 323.114 78.1771 326.183C78.221 327.347 78.3312 328.507 78.5071 329.659L77.0551 327.107C75.8451 324.907 74.8551 322.707 73.6671 320.507C73.3811 319.968 73.1281 319.407 72.8971 318.857C75.2145 317.689 77.2636 316.052 78.9141 314.05C82.0711 310.156 80.1681 305.877 76.6041 306.152C73.7001 306.383 72.5451 309.078 72.0611 312.114C71.8724 313.438 71.7549 314.771 71.7091 316.107L70.6751 313.72C68.4728 308.305 66.6605 302.739 65.2521 297.066C67.8752 296.136 70.2578 294.633 72.2261 292.666C75.7571 289.091 74.2941 284.658 70.7191 284.57C67.8151 284.504 66.3961 287.067 65.6041 290.07C65.2159 291.664 64.9257 293.28 64.7351 294.91C63.9651 291.654 63.3051 288.354 62.7551 285.01C62.3811 282.964 62.1391 280.885 61.8861 278.817C64.7055 278.258 67.3611 277.066 69.6521 275.33C73.6121 272.25 72.7431 267.63 69.2011 267.113C66.3301 266.662 64.5921 269.027 63.4261 271.876C62.7434 273.673 62.1703 275.51 61.7101 277.376C61.4901 274.978 61.2371 272.569 61.1271 270.16C60.7971 265.186 60.7971 260.196 61.1271 255.222C60.6249 260.192 60.4522 265.189 60.6101 270.182C60.6101 272.481 60.8081 274.769 60.9511 277.068C60.3226 275.505 59.5876 273.987 58.7511 272.525C57.2551 270.006 55.2531 268.125 52.4811 269.225C49.0601 270.633 48.7631 275.363 53.0531 277.431C55.5692 278.587 58.3293 279.112 61.0941 278.96C61.2921 281.017 61.4681 283.063 61.7761 285.098C62.2051 288.398 62.7551 291.566 63.4041 294.767C62.7001 293.541 61.9175 292.361 61.0611 291.236C59.2461 288.937 57.0241 287.309 54.4611 288.794C51.2601 290.631 51.5681 295.394 56.0891 296.857C58.6473 297.652 61.3569 297.833 63.9981 297.385C65.2531 303.12 66.9033 308.762 68.9371 314.27L69.5861 315.92C69.0041 315.149 68.3759 314.415 67.7051 313.72C65.6701 311.608 63.3051 310.211 60.8521 311.96C57.8491 314.16 58.6521 318.78 63.2721 319.814C65.8218 320.33 68.4559 320.255 70.9721 319.594C71.2031 320.155 71.4341 320.694 71.7091 321.266C72.8091 323.532 73.7881 325.853 74.9431 328.075L75.9001 330C75.3281 329.505 74.7341 329.032 74.1181 328.592C71.7201 326.909 69.1241 325.985 67.0561 328.152C64.5041 330.825 66.1541 335.269 70.9061 335.412C73.38 335.47 75.8362 334.981 78.1001 333.982C79.4641 336.446 80.8611 338.877 82.3791 341.264C82.9401 342.177 83.4791 343.079 84.1171 343.981C83.2541 343.192 82.343 342.457 81.3891 341.781C78.9911 340.098 76.3951 339.174 74.3161 341.341C71.7751 344.014 73.4251 348.458 78.1771 348.601C80.8931 348.634 83.5778 348.019 86.0091 346.808C86.8011 347.908 87.6151 349.008 88.4511 350.108C86.6801 352.165 87.2631 355.608 90.8601 357.181C92.607 357.909 94.4691 358.322 96.3601 358.402C96.5801 358.578 96.8001 358.754 97.0421 358.919L97.1521 359.007C99.4254 367.499 102.12 375.866 105.237 384.109C106.557 387.618 107.976 391.094 109.439 394.548H96.2391V446.6H136.576V394.504H115.104C113.267 390.489 111.496 386.43 109.846 382.327C107.151 375.595 104.709 368.753 102.586 361.812C102.947 361.918 103.315 362.003 103.686 362.065C104.175 362.164 104.676 362.186 105.171 362.131L104.599 358.512H104.214C103.985 358.48 103.757 358.436 103.532 358.38C103.024 358.234 102.527 358.05 102.047 357.83L101.475 357.566C103.598 356.826 105.569 355.708 107.294 354.266C111.111 350.966 110.033 346.456 106.469 346.071C103.587 345.752 101.959 348.194 100.969 351.087C100.672 351.912 100.43 352.77 100.221 353.606C100.012 352.836 99.8031 352.066 99.6051 351.296C99.0221 349.019 98.5051 346.72 97.9771 344.421C100.281 343.702 102.422 342.54 104.28 341C108.097 337.7 107.008 333.201 103.455 332.816C100.562 332.497 98.9451 334.939 97.9551 337.832C97.6581 338.668 97.4051 339.537 97.1851 340.395C96.8551 338.723 96.5361 337.04 96.2391 335.357C96.0301 334.114 95.8321 332.86 95.6451 331.606C95.5791 329.824 95.5461 328.042 95.5681 326.249C95.5681 325.27 95.5681 324.291 95.6561 323.312C97.8127 323.993 100.075 324.28 102.333 324.159C107.349 323.829 109.197 319.539 106.579 317.108C104.445 315.117 101.684 316.107 99.1211 317.801C97.9717 318.582 96.8698 319.43 95.8211 320.342C96.1299 316.155 96.7662 311.999 97.724 307.912C98.2854 305.504 98.9869 303.132 99.8251 300.806C102.125 301.599 104.557 301.939 106.986 301.807C112.002 301.488 113.85 297.198 111.232 294.756C109.109 292.776 106.337 293.755 103.774 295.46C102.879 296.075 102.02 296.74 101.2 297.451C102.167 295.175 103.292 292.97 104.566 290.851C107.093 286.576 110.261 282.713 113.96 279.4C115.877 281.168 118.144 282.514 120.615 283.349C125.389 284.911 128.7 281.611 127.215 278.377C125.972 275.748 123.046 275.627 120.032 276.254C118.871 276.502 117.725 276.818 116.6 277.2L116.677 277.134C120.782 273.931 125.205 271.159 129.877 268.862C131.525 271.02 133.619 272.798 136.015 274.076C140.481 276.375 144.276 273.647 143.286 270.215C142.483 267.421 139.612 266.838 136.543 266.915C135.338 266.98 134.137 267.113 132.946 267.311C137.907 264.968 142.967 262.757 147.851 260.172H147.961C150.148 262.06 152.742 263.415 155.54 264.132C160.413 265.342 163.471 261.8 161.711 258.632C160.281 256.102 157.311 256.212 154.396 257.048C153.571 257.29 152.746 257.587 151.943 257.895C155.205 255.999 158.366 253.936 161.414 251.713L161.667 251.988V251.845C163.875 253.749 166.491 255.123 169.312 255.86C174.174 257.059 177.243 253.528 175.483 250.36C174.097 247.973 171.171 248.072 168.212 248.919ZM91.3001 348.59C90.2991 347.424 89.3531 346.203 88.4291 344.971C88.6491 344.773 88.8911 344.553 89.1331 344.311C90.5076 344.739 91.9303 344.994 93.3681 345.07V345.301L94.0391 345.158C94.3911 346.896 94.7541 348.623 95.1391 350.35C94.692 349.765 94.1082 349.298 93.4389 348.992C92.7696 348.685 92.0351 348.547 91.3001 348.59ZM94.8861 307.175C94.5451 308.473 94.2591 309.771 93.9841 311.08L93.8191 310.849C93.8191 308.165 93.8594 305.488 93.9401 302.819C94.0171 300.949 94.1491 299.09 94.3141 297.22C95.2191 298.142 96.214 298.971 97.2841 299.695C96.353 302.143 95.5562 304.64 94.897 307.175H94.8861ZM99.3961 294.855C99.4621 294.371 99.5171 293.876 99.5391 293.392V292.655C99.9351 292.534 100.342 292.391 100.738 292.226C100.298 293.095 99.8361 293.975 99.4071 294.855H99.3961ZM105.127 285.56C104.937 285.125 104.661 284.733 104.315 284.408C103.969 284.082 103.56 283.831 103.114 283.668C100.397 282.568 98.1971 284.548 96.4481 287.078L96.3601 287.199H96.1841C95.9996 287.157 95.8119 287.131 95.6231 287.122C95.61 286.967 95.6365 286.812 95.7001 286.671C96.3965 282.697 97.3369 278.77 98.5161 274.912C101.041 275.232 103.605 275.034 106.051 274.329C107.562 273.932 108.876 272.997 109.747 271.7C110.231 273.918 111.155 276.016 112.464 277.871C109.758 280.173 107.302 282.754 105.138 285.571L105.127 285.56Z" fill="white"/>
<path d="M439.439 398.607C439.439 398.607 434.115 386.716 432.839 385.495C431.563 384.274 421.366 380.578 418.539 371.195C415.712 361.812 410.344 336.765 423.874 338.404C437.404 340.043 434.115 366.278 439.032 365.453C443.949 364.628 434.94 322.839 443.542 317.053C452.144 311.267 466.081 316.646 464.442 338.778C462.803 360.91 459.525 373.604 462.396 372.383C465.267 371.162 473.462 366.641 473.462 376.068C473.462 385.495 465.674 392.051 461.164 392.458C456.654 392.865 454.564 393.283 454.564 393.283V399.421L439.439 398.607Z" fill="#2E353A" stroke="#2E353A" stroke-width="1.1" stroke-linecap="round" stroke-linejoin="round"/>
<path d="M435.105 375.562C432.014 372.636 429.176 369.798 427.867 367.191C425.271 361.988 423.313 347.391 423.313 347.391" stroke="white" stroke-width="0.55" stroke-linecap="round" stroke-linejoin="round"/>
<path d="M418.704 354.519C420.75 363.044 421.036 369.468 427.218 376.948C430.518 380.996 439.252 384.428 440.231 388.003C441.107 392.305 441.764 396.648 442.2 401.016L447.084 401.346C447.084 401.346 448.074 392.876 445.28 386.837" stroke="white" stroke-width="0.55" stroke-linecap="round" stroke-linejoin="round"/>
<path d="M420.068 340.846C420.068 340.846 416.416 343.651 417.714 350.559" stroke="white" stroke-width="0.55" stroke-linecap="round" stroke-linejoin="round"/>
<path d="M443.465 366.003L441.529 369.138" stroke="white" stroke-width="0.55" stroke-linecap="round" stroke-linejoin="round"/>
<path d="M444.136 364.914L443.465 366.003" stroke="white" stroke-width="0.55" stroke-linecap="round" stroke-linejoin="round"/>
<path d="M450.637 318.076C450.637 318.076 443.157 317.757 443.157 324.907C443.157 330.946 445.005 351.56 444.609 360.987" stroke="white" stroke-width="0.55" stroke-linecap="round" stroke-linejoin="round"/>
<path d="M456.5 376.651C456.324 379.104 456.214 380.842 456.214 381.502C456.214 385.077 465.311 371.415 469.546 371.096C469.546 371.096 473.77 370.766 472.142 378.576C471.55 381.475 470.177 384.158 468.173 386.334C466.169 388.511 463.608 390.1 460.768 390.929C457.182 391.908 454.256 390.28 453.607 391.908C453.089 393.822 452.761 395.782 452.628 397.76" stroke="white" stroke-width="0.55" stroke-linecap="round" stroke-linejoin="round"/>
<path d="M458.623 324.863C459.189 327.222 459.455 329.643 459.415 332.068C459.415 339.68 457.963 357.632 456.995 369.754" stroke="white" stroke-width="0.55" stroke-linecap="round" stroke-linejoin="round"/>
<path d="M454.861 318.736C455.838 319.296 456.629 320.129 457.138 321.134" stroke="white" stroke-width="0.55" stroke-linecap="round" stroke-linejoin="round"/>
<path d="M449.57 374.671L449.339 379.225" stroke="white" stroke-width="0.55" stroke-linecap="round" stroke-linejoin="round"/>
<path d="M451.286 322.63C451.286 322.63 449.339 323.279 449.988 330.11C450.527 335.753 449.988 361.372 449.735 370.117" stroke="white" stroke-width="0.55" stroke-linecap="round" stroke-linejoin="round"/>
<path d="M471.779 373.043C468.99 378.263 464.521 382.391 459.096 384.758C450.296 388.333 449.988 386.705 449.988 390.258C449.988 393.811 449.658 400.345 449.658 400.345" stroke="white" stroke-width="0.55" stroke-linecap="round" stroke-linejoin="round"/>
<path d="M459.58 446.567H431.156L425.073 405.394H465.663L459.58 446.567Z" fill="white" stroke="#2E353A" stroke-width="1.1" stroke-linecap="round" stroke-linejoin="round"/>
<path d="M469.15 398.904H421.586V409.926H469.15V398.904Z" fill="white" stroke="#2E353A" stroke-width="1.1" stroke-linecap="round" stroke-linejoin="round"/>
<path d="M303.512 418.847V396.495H237.688V418.847C237.677 426.128 235.213 433.193 230.692 438.9L227.81 442.53H313.39L310.508 438.9C305.987 433.193 303.523 426.128 303.512 418.847Z" fill="white" stroke="#2E353A" stroke-width="1.1" stroke-linecap="round" stroke-linejoin="round"/>
<path d="M233.64 434.5H307.56C304.906 429.71 303.513 424.323 303.512 418.847V396.495H237.688V418.847C237.687 424.323 236.294 429.71 233.64 434.5Z" fill="white"/>
<path d="M393.547 205.117H147.642C142.49 205.117 138.314 209.293 138.314 214.445V394.218C138.314 399.37 142.49 403.546 147.642 403.546H393.547C398.699 403.546 402.875 399.37 402.875 394.218V214.445C402.875 209.293 398.699 205.117 393.547 205.117Z" fill="#2E353A" stroke="#2E353A" stroke-width="1.1" stroke-linecap="round" stroke-linejoin="round"/>
<path d="M138.314 372.702H402.886V394.207C402.886 396.681 401.903 399.053 400.154 400.803C398.405 402.552 396.032 403.535 393.558 403.535H147.653C145.179 403.535 142.806 402.552 141.057 400.803C139.308 399.053 138.325 396.681 138.325 394.207V372.702H138.314Z" fill="white" stroke="#2E353A" stroke-width="1.1" stroke-linecap="round" stroke-linejoin="round"/>
<path d="M389.576 217.47H151.624V357.654H389.576V217.47Z" fill="white" stroke="#2E353A" stroke-width="1.1" stroke-linecap="round" stroke-linejoin="round"/>
<path d="M275.484 388.124C275.484 387.158 275.197 386.214 274.661 385.411C274.124 384.607 273.361 383.981 272.469 383.612C271.576 383.242 270.594 383.145 269.647 383.334C268.7 383.522 267.829 383.987 267.146 384.67C266.463 385.354 265.998 386.224 265.81 387.171C265.621 388.119 265.718 389.101 266.088 389.993C266.457 390.885 267.083 391.648 267.886 392.185C268.69 392.722 269.634 393.008 270.6 393.008C271.895 393.008 273.137 392.493 274.053 391.577C274.969 390.662 275.484 389.419 275.484 388.124Z" fill="#2E353A" stroke="#2E353A" stroke-width="1.1" stroke-linecap="round" stroke-linejoin="round"/>
<path d="M313.401 442.574H227.81V446.567H313.401V442.574Z" fill="white" stroke="#2E353A" stroke-width="1.1" stroke-linecap="round" stroke-linejoin="round"/>
<path d="M387.343 227.348H153.494V239.635H387.343V227.348Z" fill="white" stroke="#2E353A" stroke-width="1.1" stroke-linecap="round" stroke-linejoin="round"/>
<path d="M192.082 239.635L189.277 232.045H153.494V239.635V249.7V351.681H387.343V239.635H192.082Z" fill="white" stroke="#2E353A" stroke-width="1.1" stroke-linecap="round" stroke-linejoin="round"/>
<path d="M216.436 295.196H326.084" stroke="#2E353A" stroke-width="2.2" stroke-linecap="round" stroke-linejoin="round"/>
<path d="M216.436 305.976H326.084" stroke="#2E353A" stroke-width="2.2" stroke-linecap="round" stroke-linejoin="round"/>
<path d="M216.436 316.756H326.084" stroke="#2E353A" stroke-width="2.2" stroke-linecap="round" stroke-linejoin="round"/>
<path d="M216.436 327.547H326.084" stroke="#2E353A" stroke-width="2.2" stroke-linecap="round" stroke-linejoin="round"/>
<path d="M320.287 266.453H220.924C219.901 266.454 218.888 266.254 217.943 265.864C216.997 265.474 216.138 264.902 215.414 264.18C214.69 263.458 214.115 262.6 213.722 261.655C213.329 260.711 213.126 259.699 213.125 258.676C213.124 257.653 213.324 256.64 213.714 255.695C214.104 254.749 214.676 253.89 215.398 253.166C216.12 252.442 216.978 251.867 217.923 251.474C218.867 251.081 219.879 250.878 220.902 250.877H320.287C321.312 250.876 322.326 251.076 323.273 251.468C324.22 251.859 325.08 252.434 325.805 253.158C326.529 253.882 327.104 254.743 327.495 255.69C327.887 256.637 328.087 257.651 328.086 258.676C328.085 259.699 327.882 260.711 327.489 261.655C327.096 262.6 326.521 263.458 325.797 264.18C325.073 264.902 324.214 265.474 323.268 265.864C322.323 266.254 321.31 266.454 320.287 266.453Z" fill="white" stroke="#2E353A" stroke-width="1.1" stroke-linecap="round" stroke-linejoin="round"/>
<path d="M320.287 266.453H306.713V250.855H320.287C321.312 250.854 322.326 251.054 323.273 251.446C324.22 251.837 325.08 252.412 325.805 253.136C326.529 253.861 327.104 254.721 327.495 255.668C327.887 256.615 328.087 257.629 328.086 258.654C328.087 259.679 327.887 260.693 327.495 261.64C327.104 262.587 326.529 263.447 325.805 264.172C325.08 264.896 324.22 265.471 323.273 265.862C322.326 266.254 321.312 266.454 320.287 266.453Z" fill="#2E353A" stroke="#2E353A" stroke-width="1.1" stroke-linecap="round" stroke-linejoin="round"/>
<path d="M317.262 252.835C316.616 252.229 315.804 251.829 314.931 251.685C314.057 251.541 313.16 251.659 312.353 252.024C311.546 252.39 310.866 252.986 310.399 253.739C309.931 254.491 309.697 255.365 309.727 256.25C309.756 257.135 310.047 257.992 310.563 258.711C311.079 259.431 311.797 259.981 312.626 260.293C313.455 260.604 314.358 260.663 315.221 260.461C316.083 260.26 316.866 259.807 317.471 259.16C317.874 258.733 318.189 258.231 318.397 257.682C318.605 257.133 318.703 256.548 318.685 255.962C318.666 255.375 318.532 254.798 318.29 254.263C318.048 253.728 317.702 253.247 317.273 252.846L317.262 252.835ZM316.822 258.555C316.336 259.071 315.709 259.431 315.018 259.59C314.328 259.749 313.606 259.701 312.943 259.45C312.281 259.2 311.707 258.758 311.295 258.182C310.883 257.606 310.651 256.92 310.628 256.212C310.605 255.504 310.792 254.805 311.166 254.203C311.54 253.602 312.084 253.124 312.729 252.831C313.374 252.538 314.091 252.443 314.79 252.557C315.489 252.671 316.139 252.99 316.657 253.473C317.353 254.125 317.761 255.027 317.791 255.98C317.822 256.933 317.474 257.859 316.822 258.555Z" fill="white"/>
<path d="M320.628 260.788C320.529 260.692 320.406 260.627 320.271 260.599C320.136 260.572 319.997 260.584 319.869 260.634L318.252 259.116C318.17 259.035 318.059 258.99 317.944 258.99C317.829 258.99 317.718 259.035 317.636 259.116L317.493 259.27C317.414 259.355 317.37 259.467 317.37 259.583C317.37 259.7 317.414 259.812 317.493 259.897L319.088 261.393C319.041 261.529 319.033 261.676 319.066 261.816C319.099 261.956 319.172 262.084 319.275 262.185L322.025 264.88C322.206 265.06 322.451 265.161 322.707 265.161C322.962 265.161 323.207 265.06 323.389 264.88C323.569 264.699 323.67 264.453 323.67 264.198C323.67 263.942 323.569 263.697 323.389 263.516L320.628 260.788Z" fill="white"/>
<path d="M349.03 313.5C349.352 314.297 349.83 315.021 350.436 315.629C351.043 316.238 351.765 316.718 352.561 317.042C353.804 317.548 355.465 317.438 357.379 318.516C361.702 320.947 372.493 318.78 380.314 319.616C388.135 320.452 398.673 311.795 398.673 311.795L429.704 313.5V282.7C429.704 282.7 397.32 284.053 390.302 281.347C383.284 278.641 375.463 272.987 371.954 273.251C368.445 273.515 339.57 276.76 339.57 276.76L349.019 313.5H349.03Z" fill="white" stroke="#2E353A" stroke-width="1.1" stroke-linecap="round" stroke-linejoin="round"/>
<path d="M341 189.31C334.593 190.019 328.54 192.612 323.607 196.762C318.673 200.911 315.081 206.43 313.285 212.621C311.488 218.812 311.567 225.397 313.513 231.542C315.459 237.688 319.183 243.119 324.215 247.148C329.247 251.177 335.361 253.623 341.783 254.177C348.206 254.732 354.648 253.369 360.296 250.262C365.944 247.155 370.544 242.443 373.514 236.721C376.484 231 377.691 224.526 376.981 218.119C376.513 213.864 375.211 209.742 373.148 205.991C371.086 202.239 368.305 198.931 364.963 196.256C361.621 193.58 357.785 191.589 353.673 190.397C349.561 189.206 345.255 188.836 341 189.31ZM347.468 247.698C342.329 248.269 337.135 247.303 332.544 244.922C327.953 242.542 324.172 238.853 321.677 234.323C319.183 229.793 318.088 224.625 318.53 219.473C318.973 214.321 320.933 209.415 324.164 205.377C327.394 201.339 331.75 198.349 336.679 196.787C341.609 195.224 346.891 195.158 351.858 196.597C356.825 198.036 361.254 200.916 364.584 204.872C367.915 208.828 369.997 213.683 370.568 218.823C370.948 222.236 370.651 225.69 369.695 228.988C368.74 232.286 367.144 235.363 364.999 238.045C362.854 240.726 360.201 242.959 357.194 244.615C354.186 246.271 350.881 247.319 347.468 247.698Z" fill="white" stroke="#2E353A" stroke-width="1.1" stroke-linecap="round" stroke-linejoin="round"/>
<path d="M340.824 187.451C334.417 188.16 328.364 190.753 323.431 194.903C318.497 199.052 314.905 204.571 313.108 210.762C311.312 216.953 311.391 223.537 313.337 229.683C315.282 235.829 319.007 241.26 324.039 245.289C329.071 249.318 335.185 251.764 341.607 252.318C348.029 252.873 354.472 251.51 360.12 248.403C365.768 245.296 370.368 240.584 373.338 234.862C376.308 229.141 377.514 222.667 376.805 216.26C375.851 207.67 371.525 199.809 364.778 194.407C358.031 189.005 349.415 186.503 340.824 187.451ZM347.292 245.839C342.152 246.41 336.959 245.444 332.368 243.063C327.777 240.683 323.995 236.994 321.501 232.464C319.006 227.934 317.911 222.766 318.354 217.614C318.797 212.462 320.757 207.556 323.988 203.518C327.218 199.48 331.574 196.49 336.503 194.927C341.433 193.365 346.715 193.299 351.682 194.738C356.649 196.177 361.078 199.057 364.408 203.013C367.738 206.969 369.821 211.824 370.392 216.964C370.771 220.377 370.475 223.831 369.519 227.129C368.563 230.427 366.967 233.504 364.822 236.186C362.677 238.867 360.025 241.1 357.017 242.756C354.009 244.412 350.705 245.46 347.292 245.839Z" fill="white" stroke="#2E353A" stroke-width="1.1" stroke-linecap="round" stroke-linejoin="round"/>
<path d="M349.07 252.846L347.528 253.017C345.789 253.21 344.536 254.775 344.728 256.514L347.23 279.102C347.422 280.841 348.988 282.095 350.727 281.902L352.269 281.732C354.008 281.539 355.262 279.973 355.069 278.234L352.567 255.646C352.375 253.907 350.809 252.654 349.07 252.846Z" fill="white" stroke="#2E353A" stroke-width="1.1" stroke-linecap="round" stroke-linejoin="round"/>
<path d="M348.568 271.7L351.868 271.348C353.287 271.196 354.709 271.61 355.825 272.499C356.941 273.389 357.662 274.683 357.83 276.1L362.769 320.771C362.97 322.597 362.437 324.428 361.288 325.862C360.139 327.295 358.468 328.214 356.642 328.416H356.422C355.518 328.517 354.602 328.438 353.728 328.185C352.854 327.931 352.039 327.508 351.328 326.939C350.618 326.369 350.027 325.666 349.59 324.868C349.152 324.07 348.876 323.194 348.777 322.289L343.838 277.629C343.759 276.922 343.819 276.206 344.017 275.522C344.214 274.838 344.545 274.2 344.989 273.644C345.434 273.089 345.984 272.626 346.607 272.283C347.231 271.94 347.916 271.723 348.623 271.645L348.568 271.7Z" fill="#2E353A" stroke="#2E353A" stroke-width="1.1" stroke-linecap="round" stroke-linejoin="round"/>
<path d="M353.364 308.924C353.364 308.924 345.543 309.21 344.443 310.563C343.343 311.916 343.541 316.624 345.664 317.163C351.076 318.582 362.582 317.757 363.033 316.789C363.484 315.821 364.408 310.189 362.032 309.584C359.164 309.144 356.266 308.924 353.364 308.924Z" fill="white" stroke="#2E353A" stroke-width="1.1" stroke-linecap="round" stroke-linejoin="round"/>
<path d="M351.109 298.012C351.109 298.012 342.012 297.671 340.593 299.31C339.174 300.949 338.899 307.076 341.297 308C347.413 310.343 361.174 309.43 361.801 308.22C362.428 307.01 363.792 300.729 361.097 299.717C358.402 298.705 351.109 298.012 351.109 298.012Z" fill="white" stroke="#2E353A" stroke-width="1.1" stroke-linecap="round" stroke-linejoin="round"/>
<path d="M349.8 285.692C349.8 285.692 340.076 285.318 338.558 287.078C337.04 288.838 336.743 295.372 339.306 296.362C345.906 298.87 360.206 298.87 360.877 297.572C361.548 296.274 363.352 288.596 360.47 287.507C357.588 286.418 349.8 285.692 349.8 285.692Z" fill="white" stroke="#2E353A" stroke-width="1.1" stroke-linecap="round" stroke-linejoin="round"/>
<path d="M344.19 274.164C344.19 274.164 334.466 273.801 332.948 275.55C331.43 277.299 331.067 284.042 333.696 284.834C336.325 285.626 354.596 287.342 355.267 286.055C355.938 284.768 357.742 277.068 354.86 275.979C351.978 274.89 344.19 274.164 344.19 274.164Z" fill="white" stroke="#2E353A" stroke-width="1.1" stroke-linecap="round" stroke-linejoin="round"/>
<path d="M376.035 306.515C374.29 306.035 372.636 305.269 371.14 304.249C363.319 298.848 363.583 286.44 363.583 286.44L361.702 285.901C360.149 285.31 358.692 284.49 357.379 283.47C358.009 286.033 358.378 288.653 358.479 291.291C358.451 292.74 357.885 294.128 356.891 295.183C355.897 296.238 354.546 296.886 353.1 297C350.669 297.275 349.591 297.539 348.777 294.305C347.963 291.071 343.926 278.113 343.651 276.221C343.409 274.505 346.291 271.447 350.878 270.721C357.929 271.293 364.881 273.262 371.987 273.262C374.46 273.494 376.829 274.366 378.862 275.792" fill="white"/>
<path d="M376.035 306.515C374.29 306.035 372.636 305.269 371.14 304.249C363.319 298.848 363.583 286.44 363.583 286.44L361.702 285.901C360.149 285.31 358.692 284.49 357.379 283.47C358.009 286.033 358.378 288.653 358.479 291.291C358.451 292.74 357.885 294.128 356.891 295.183C355.897 296.238 354.546 296.886 353.1 297C350.669 297.275 349.591 297.539 348.777 294.305C347.963 291.071 343.926 278.113 343.651 276.221C343.409 274.505 346.291 271.447 350.878 270.721C357.929 271.293 364.881 273.262 371.987 273.262C374.46 273.494 376.829 274.366 378.862 275.792" stroke="#2E353A" stroke-width="1.1" stroke-linecap="round" stroke-linejoin="round"/>
<path d="M383.471 307.197C382.614 307.241 381.754 307.241 380.897 307.197H383.471Z" fill="white"/>
<path d="M383.471 307.197C382.614 307.241 381.754 307.241 380.897 307.197" stroke="#2E353A" stroke-width="1.1" stroke-linecap="round" stroke-linejoin="round"/>
<path d="M389.224 306.13C387.356 306.721 385.425 307.09 383.471 307.23L389.224 306.13Z" fill="white"/>
<path d="M389.224 306.13C387.356 306.721 385.425 307.09 383.471 307.23" stroke="#2E353A" stroke-width="1.1" stroke-linecap="round" stroke-linejoin="round"/>
<path d="M398.937 302.632H408.65" stroke="#2E353A" stroke-width="1.1" stroke-linecap="round" stroke-linejoin="round"/>
<path d="M399.751 305.327H403.799" stroke="#2E353A" stroke-width="1.1" stroke-linecap="round" stroke-linejoin="round"/>
<path d="M363.583 286.44C363.583 286.44 368.951 286.44 372.471 283.239" stroke="#2E353A" stroke-width="1.1" stroke-linecap="round" stroke-linejoin="round"/>
<path d="M357.258 283.118C357.104 281.653 356.798 280.208 356.345 278.806" stroke="#2E353A" stroke-width="1.1" stroke-linecap="round" stroke-linejoin="round"/>
<path d="M348.7 292.886C348.7 292.886 347.677 290.048 348.92 289.025C350.163 288.002 353.463 286.528 354.035 287.661C354.607 288.794 355.85 294.019 355.509 295.042L355.168 296.065" stroke="#2E353A" stroke-width="0.55" stroke-linecap="round" stroke-linejoin="round"/>
<path d="M497.805 327.305H404.8V281.589H497.805" fill="white"/>
<path d="M497.805 327.305H404.8V281.589H497.805" stroke="#2E353A" stroke-width="1.1" stroke-linecap="round" stroke-linejoin="round"/>
<path d="M411.62 324.247C412.775 324.247 413.71 323.311 413.71 322.157C413.71 321.003 412.775 320.067 411.62 320.067C410.466 320.067 409.53 321.003 409.53 322.157C409.53 323.311 410.466 324.247 411.62 324.247Z" fill="white" stroke="#2E353A" stroke-width="1.1" stroke-linecap="round" stroke-linejoin="round"/>
<path d="M263.813 238.051C264.61 237.73 265.334 237.252 265.943 236.645C266.551 236.038 267.032 235.316 267.355 234.52C267.861 233.277 267.74 231.627 268.829 229.702C271.249 225.39 269.093 214.599 269.929 206.767C270.765 198.935 262.097 188.419 262.097 188.419L263.78 157.388H232.98C232.98 157.388 234.322 189.772 231.627 196.779C228.932 203.786 223.267 211.629 223.531 215.138C223.795 218.647 227.062 247.5 227.062 247.5L263.758 238.051H263.813Z" fill="white" stroke="#2E353A" stroke-width="1.1" stroke-linecap="round" stroke-linejoin="round"/>
<path d="M139.7 246.059C140.405 252.467 142.994 258.522 147.139 263.458C151.285 268.395 156.802 271.991 162.992 273.792C169.181 275.593 175.766 275.518 181.914 273.577C188.061 271.636 193.494 267.915 197.527 262.885C201.559 257.856 204.01 251.743 204.568 245.321C205.127 238.899 203.768 232.455 200.665 226.805C197.561 221.155 192.852 216.552 187.132 213.579C181.412 210.605 174.939 209.394 168.531 210.1H168.454C159.877 211.065 152.032 215.392 146.642 222.134C141.251 228.875 138.755 237.479 139.7 246.059ZM198 239.58C198.573 244.722 197.608 249.918 195.228 254.511C192.848 259.104 189.16 262.889 184.629 265.386C180.098 267.883 174.928 268.98 169.774 268.54C164.619 268.099 159.711 266.139 155.67 262.909C151.629 259.678 148.637 255.322 147.071 250.391C145.506 245.461 145.438 240.176 146.876 235.207C148.314 230.237 151.193 225.805 155.149 222.472C159.106 219.139 163.962 217.053 169.103 216.48C175.998 215.714 182.915 217.717 188.333 222.048C193.752 226.38 197.229 232.686 198 239.58Z" fill="white" stroke="#2E353A" stroke-width="1.1" stroke-linecap="round" stroke-linejoin="round"/>
<path d="M137.797 246.257C138.508 252.661 141.102 258.71 145.251 263.64C149.399 268.57 154.916 272.159 161.104 273.954C167.293 275.749 173.874 275.668 180.017 273.723C186.159 271.778 191.587 268.055 195.614 263.026C199.641 257.996 202.087 251.885 202.641 245.466C203.196 239.047 201.835 232.607 198.73 226.961C195.625 221.315 190.916 216.717 185.198 213.747C179.481 210.777 173.01 209.569 166.606 210.276C162.351 210.746 158.231 212.049 154.48 214.111C150.729 216.174 147.422 218.956 144.746 222.297C142.071 225.639 140.08 229.474 138.888 233.586C137.695 237.697 137.325 242.003 137.797 246.257ZM196.185 239.8C196.756 244.94 195.79 250.133 193.41 254.724C191.029 259.315 187.34 263.097 182.81 265.591C178.28 268.086 173.112 269.181 167.96 268.738C162.808 268.295 157.902 266.335 153.864 263.104C149.826 259.874 146.836 255.518 145.274 250.589C143.711 245.659 143.645 240.377 145.084 235.41C146.523 230.443 149.403 226.014 153.359 222.684C157.316 219.354 162.17 217.271 167.31 216.7C170.723 216.321 174.177 216.617 177.475 217.573C180.773 218.529 183.851 220.125 186.532 222.27C189.213 224.415 191.446 227.067 193.102 230.075C194.758 233.083 195.806 236.387 196.185 239.8Z" fill="white" stroke="#2E353A" stroke-width="1.1" stroke-linecap="round" stroke-linejoin="round"/>
<path d="M228.588 232.029L206 234.531C204.261 234.724 203.007 236.289 203.2 238.028L203.371 239.57C203.563 241.309 205.129 242.563 206.868 242.37L229.456 239.868C231.195 239.676 232.449 238.11 232.256 236.371L232.085 234.829C231.893 233.09 230.327 231.837 228.588 232.029Z" fill="white" stroke="#2E353A" stroke-width="1.1" stroke-linecap="round" stroke-linejoin="round"/>
<path d="M222.046 238.524L221.683 235.224C221.526 233.794 221.942 232.361 222.842 231.239C223.741 230.117 225.05 229.398 226.479 229.24L271.139 224.301C272.047 224.195 272.967 224.27 273.847 224.521C274.726 224.772 275.547 225.195 276.262 225.764C276.978 226.333 277.574 227.039 278.016 227.839C278.458 228.639 278.738 229.519 278.839 230.428V230.648C278.945 231.556 278.87 232.476 278.619 233.356C278.367 234.235 277.945 235.056 277.376 235.771C276.806 236.487 276.101 237.083 275.301 237.525C274.501 237.967 273.621 238.247 272.712 238.348L228.052 243.287C226.625 243.448 225.192 243.037 224.066 242.145C222.941 241.252 222.214 239.95 222.046 238.524Z" fill="#2E353A" stroke="#2E353A" stroke-width="1.1" stroke-linecap="round" stroke-linejoin="round"/>
<path d="M259.259 233.728C259.259 233.728 259.556 241.538 260.898 242.638C262.24 243.738 266.97 243.54 267.498 241.417C268.928 236.016 268.092 224.499 267.124 224.059C266.156 223.619 260.524 222.673 259.93 225.06C259.487 227.928 259.263 230.826 259.259 233.728Z" fill="white" stroke="#2E353A" stroke-width="1.1" stroke-linecap="round" stroke-linejoin="round"/>
<path d="M248.358 235.972C248.358 235.972 248.006 245.069 249.645 246.488C251.284 247.907 257.411 248.193 258.335 245.784C260.689 239.668 259.765 225.907 258.555 225.291C257.345 224.675 251.064 223.3 250.052 225.995C249.04 228.69 248.358 235.972 248.358 235.972Z" fill="white" stroke="#2E353A" stroke-width="1.1" stroke-linecap="round" stroke-linejoin="round"/>
<path d="M236.038 237.303C236.038 237.303 235.664 247.027 237.413 248.545C239.162 250.063 245.718 250.36 246.708 247.786C249.216 241.252 249.216 226.886 247.918 226.226C246.62 225.566 238.931 223.751 237.853 226.633C236.775 229.515 236.038 237.303 236.038 237.303Z" fill="white" stroke="#2E353A" stroke-width="1.1" stroke-linecap="round" stroke-linejoin="round"/>
<path d="M224.51 242.902C224.51 242.902 224.136 252.626 225.896 254.144C227.656 255.662 234.388 256.025 235.18 253.385C235.972 250.745 237.688 232.485 236.39 231.814C235.092 231.143 227.414 229.35 226.325 232.232C225.236 235.114 224.51 242.902 224.51 242.902Z" fill="white" stroke="#2E353A" stroke-width="1.1" stroke-linecap="round" stroke-linejoin="round"/>
<path d="M257.532 203.588C257.98 207.921 256.941 212.277 254.584 215.941C249.194 223.773 236.775 223.498 236.775 223.498L236.236 225.39C235.649 226.942 234.829 228.396 233.805 229.702C236.372 229.072 238.996 228.704 241.637 228.602C243.081 228.644 244.459 229.219 245.505 230.216C246.551 231.213 247.191 232.562 247.302 234.003C247.577 236.434 247.841 237.512 244.607 238.315C241.373 239.118 228.415 243.177 226.523 243.452C224.807 243.694 221.749 240.812 221.023 236.225C221.606 229.174 223.575 222.211 223.575 215.116C223.805 212.64 224.677 210.266 226.105 208.23" fill="white"/>
<path d="M257.532 203.588C257.98 207.921 256.941 212.277 254.584 215.941C249.194 223.773 236.775 223.498 236.775 223.498L236.236 225.39C235.649 226.942 234.829 228.396 233.805 229.702C236.372 229.072 238.996 228.704 241.637 228.602C243.081 228.644 244.459 229.219 245.505 230.216C246.551 231.213 247.191 232.562 247.302 234.003C247.577 236.434 247.841 237.512 244.607 238.315C241.373 239.118 228.415 243.177 226.523 243.452C224.807 243.694 221.749 240.812 221.023 236.225C221.606 229.174 223.575 222.211 223.575 215.116C223.805 212.64 224.677 210.266 226.105 208.23" stroke="#2E353A" stroke-width="1.1" stroke-linecap="round" stroke-linejoin="round"/>
<path d="M256.476 197.868C256.802 198.897 257.052 199.949 257.224 201.014L256.476 197.868Z" fill="white"/>
<path d="M256.476 197.868C256.802 198.897 257.052 199.949 257.224 201.014" stroke="#2E353A" stroke-width="1.1" stroke-linecap="round" stroke-linejoin="round"/>
<path d="M252.967 188.144V178.431" stroke="#2E353A" stroke-width="1.1" stroke-linecap="round" stroke-linejoin="round"/>
<path d="M255.662 187.341V183.293" stroke="#2E353A" stroke-width="1.1" stroke-linecap="round" stroke-linejoin="round"/>
<path d="M236.775 223.498C236.775 223.498 236.775 218.13 233.574 214.61" stroke="#2E353A" stroke-width="1.1" stroke-linecap="round" stroke-linejoin="round"/>
<path d="M233.464 229.834C232 229.985 230.555 230.287 229.152 230.736" stroke="#2E353A" stroke-width="1.1" stroke-linecap="round" stroke-linejoin="round"/>
<path d="M243.232 238.348C243.232 238.348 240.394 239.371 239.371 238.117C238.348 236.863 236.874 233.574 238.007 233.013C239.14 232.452 244.365 231.198 245.388 231.539L246.411 231.869" stroke="#2E353A" stroke-width="0.55" stroke-linecap="round" stroke-linejoin="round"/>
<path d="M277.651 89.276V182.281H231.924V89.276" fill="white"/>
<path d="M277.651 89.276V182.281H231.924V89.276" stroke="#2E353A" stroke-width="1.1" stroke-linecap="round" stroke-linejoin="round"/>
<path d="M272.492 177.551C273.647 177.551 274.582 176.615 274.582 175.461C274.582 174.307 273.647 173.371 272.492 173.371C271.338 173.371 270.402 174.307 270.402 175.461C270.402 176.615 271.338 177.551 272.492 177.551Z" fill="white" stroke="#2E353A" stroke-width="1.1" stroke-linecap="round" stroke-linejoin="round"/>
<path d="M217.8 403.7C217.48 404.498 217.003 405.223 216.396 405.831C215.789 406.44 215.066 406.92 214.269 407.242C213.026 407.759 211.376 407.638 209.451 408.716C205.139 411.147 194.348 408.991 186.516 409.816C178.684 410.641 168.168 401.995 168.168 401.995L137.104 403.7V372.9C137.104 372.9 169.488 374.253 176.506 371.558C183.524 368.863 191.345 363.187 194.854 363.462C198.363 363.737 227.238 366.971 227.238 366.971L217.8 403.7Z" fill="white" stroke="#2E353A" stroke-width="1.1" stroke-linecap="round" stroke-linejoin="round"/>
<path d="M225.775 279.576C232.182 280.285 238.235 282.878 243.169 287.028C248.102 291.177 251.694 296.696 253.491 302.887C255.287 309.078 255.208 315.662 253.262 321.808C251.317 327.954 247.592 333.385 242.56 337.414C237.528 341.443 231.414 343.889 224.992 344.443C218.57 344.998 212.127 343.635 206.479 340.528C200.831 337.421 196.231 332.709 193.261 326.987C190.291 321.266 189.085 314.792 189.794 308.385C190.745 299.796 195.069 291.937 201.815 286.536C208.561 281.136 217.175 278.636 225.764 279.587L225.775 279.576ZM219.307 337.964C224.449 338.537 229.645 337.572 234.238 335.192C238.832 332.812 242.616 329.123 245.113 324.592C247.61 320.062 248.708 314.892 248.267 309.737C247.826 304.583 245.866 299.675 242.636 295.634C239.406 291.593 235.05 288.6 230.119 287.035C225.188 285.47 219.903 285.402 214.934 286.839C209.964 288.277 205.532 291.157 202.199 295.113C198.866 299.069 196.781 303.925 196.207 309.067C195.441 315.962 197.444 322.879 201.775 328.297C206.107 333.716 212.413 337.193 219.307 337.964Z" fill="white" stroke="#2E353A" stroke-width="1.1" stroke-linecap="round" stroke-linejoin="round"/>
<path d="M225.973 277.717C232.377 278.428 238.427 281.023 243.357 285.172C248.287 289.321 251.876 294.839 253.67 301.028C255.464 307.216 255.383 313.798 253.437 319.941C251.491 326.083 247.767 331.511 242.736 335.538C237.705 339.564 231.594 342.008 225.174 342.562C218.754 343.115 212.314 341.752 206.669 338.646C201.024 335.539 196.426 330.829 193.458 325.109C190.489 319.39 189.283 312.919 189.992 306.515C190.463 302.261 191.767 298.142 193.831 294.392C195.894 290.643 198.676 287.336 202.017 284.662C205.358 281.988 209.194 279.998 213.304 278.806C217.415 277.615 221.72 277.245 225.973 277.717ZM219.505 336.105C224.647 336.678 229.843 335.713 234.436 333.333C239.03 330.953 242.814 327.264 245.311 322.733C247.808 318.203 248.906 313.033 248.465 307.878C248.024 302.724 246.064 297.816 242.834 293.775C239.604 289.734 235.248 286.741 230.317 285.176C225.386 283.611 220.101 283.543 215.132 284.98C210.162 286.418 205.731 289.298 202.397 293.254C199.064 297.21 196.979 302.066 196.405 307.208C195.642 314.1 197.647 321.012 201.978 326.427C206.31 331.841 212.614 335.314 219.505 336.083V336.105Z" fill="white" stroke="#2E353A" stroke-width="1.1" stroke-linecap="round" stroke-linejoin="round"/>
<path d="M214.223 345.913L211.721 368.501C211.528 370.24 212.782 371.806 214.521 371.999L216.062 372.169C217.801 372.362 219.367 371.108 219.56 369.369L222.062 346.781C222.254 345.042 221.001 343.477 219.262 343.284L217.72 343.113C215.981 342.921 214.415 344.174 214.223 345.913Z" fill="white" stroke="#2E353A" stroke-width="1.1" stroke-linecap="round" stroke-linejoin="round"/>
<path d="M210.397 418.726H210.177C209.268 418.626 208.387 418.348 207.586 417.906C206.785 417.464 206.079 416.868 205.51 416.152C204.94 415.436 204.518 414.615 204.267 413.735C204.017 412.855 203.943 411.935 204.05 411.026L208.989 366.366C209.066 365.658 209.282 364.971 209.624 364.347C209.967 363.722 210.429 363.171 210.985 362.725C211.541 362.28 212.18 361.948 212.864 361.75C213.548 361.552 214.265 361.491 214.973 361.57L218.273 361.933C219.703 362.091 221.011 362.81 221.91 363.932C222.81 365.054 223.227 366.487 223.069 367.917L218.13 412.632C218.028 413.54 217.747 414.419 217.304 415.219C216.862 416.019 216.266 416.723 215.551 417.292C214.835 417.861 214.015 418.284 213.136 418.535C212.258 418.787 211.338 418.863 210.43 418.759L210.397 418.726Z" fill="#2E353A" stroke="#2E353A" stroke-width="1.1" stroke-linecap="round" stroke-linejoin="round"/>
<path d="M213.4 399.179C213.4 399.179 221.21 399.476 222.31 400.818C223.41 402.16 223.212 406.879 221.089 407.418C215.688 408.848 204.171 408.012 203.731 407.044C203.291 406.076 202.345 400.444 204.732 399.839C207.601 399.399 210.498 399.179 213.4 399.179Z" fill="white" stroke="#2E353A" stroke-width="1.1" stroke-linecap="round" stroke-linejoin="round"/>
<path d="M215.688 388.3C215.688 388.3 224.785 387.948 226.204 389.587C227.623 391.226 227.909 397.353 225.5 398.277C219.384 400.62 205.623 399.707 205.007 398.497C204.391 397.287 203.016 391.006 205.711 389.994C208.406 388.982 215.688 388.3 215.688 388.3Z" fill="white" stroke="#2E353A" stroke-width="1.1" stroke-linecap="round" stroke-linejoin="round"/>
<path d="M217.019 375.947C217.019 375.947 226.743 375.584 228.261 377.333C229.779 379.082 230.076 385.638 227.513 386.617C220.913 389.136 206.613 389.125 205.942 387.838C205.271 386.551 203.467 378.851 206.349 377.762C209.231 376.673 217.019 375.947 217.019 375.947Z" fill="white" stroke="#2E353A" stroke-width="1.1" stroke-linecap="round" stroke-linejoin="round"/>
<path d="M222.618 364.43C222.618 364.43 232.342 364.056 233.86 365.805C235.378 367.554 235.741 374.308 233.101 375.1C230.461 375.892 212.201 377.597 211.53 376.31C210.859 375.023 209.066 367.323 211.948 366.245C214.83 365.167 222.618 364.43 222.618 364.43Z" fill="white" stroke="#2E353A" stroke-width="1.1" stroke-linecap="round" stroke-linejoin="round"/>
<path d="M184.8 397.507C188.636 397.658 192.424 396.608 195.635 394.504C203.467 389.103 203.192 376.695 203.192 376.695L205.084 376.156C206.637 375.569 208.091 374.749 209.396 373.725C208.766 376.288 208.398 378.909 208.296 381.546C208.338 382.992 208.913 384.371 209.909 385.419C210.906 386.466 212.255 387.109 213.697 387.222C216.128 387.486 217.206 387.761 218.02 384.516C218.834 381.271 222.871 368.324 223.146 366.443C223.421 364.562 220.506 361.658 215.919 360.943C208.868 361.526 201.905 363.495 194.81 363.495C192.336 363.726 189.964 364.594 187.924 366.014" fill="white"/>
<path d="M184.8 397.507C188.636 397.658 192.424 396.608 195.635 394.504C203.467 389.103 203.192 376.695 203.192 376.695L205.084 376.156C206.637 375.569 208.091 374.749 209.396 373.725C208.766 376.288 208.398 378.909 208.296 381.546C208.338 382.992 208.913 384.371 209.909 385.419C210.906 386.466 212.255 387.109 213.697 387.222C216.128 387.486 217.206 387.761 218.02 384.516C218.834 381.271 222.871 368.324 223.146 366.443C223.421 364.562 220.506 361.658 215.919 360.943C208.868 361.526 201.905 363.495 194.81 363.495C192.336 363.726 189.964 364.594 187.924 366.014" stroke="#2E353A" stroke-width="1.1" stroke-linecap="round" stroke-linejoin="round"/>
<path d="M177.584 396.396C179.122 396.869 180.702 397.189 182.303 397.353L177.584 396.396Z" fill="white"/>
<path d="M177.584 396.396C179.122 396.869 180.702 397.189 182.303 397.353" stroke="#2E353A" stroke-width="1.1" stroke-linecap="round" stroke-linejoin="round"/>
<path d="M167.86 392.887H158.147" stroke="#2E353A" stroke-width="1.1" stroke-linecap="round" stroke-linejoin="round"/>
<path d="M167.057 395.582H163.009" stroke="#2E353A" stroke-width="1.1" stroke-linecap="round" stroke-linejoin="round"/>
<path d="M203.214 376.695C203.214 376.695 197.846 376.695 194.326 373.494" stroke="#2E353A" stroke-width="1.1" stroke-linecap="round" stroke-linejoin="round"/>
<path d="M209.55 373.373C209.701 371.908 210.004 370.463 210.452 369.061" stroke="#2E353A" stroke-width="1.1" stroke-linecap="round" stroke-linejoin="round"/>
<path d="M218.064 383.141C218.064 383.141 219.087 380.303 217.833 379.28C216.579 378.257 213.29 376.783 212.729 377.916C212.168 379.049 210.914 384.285 211.255 385.297L211.596 386.32" stroke="#2E353A" stroke-width="0.55" stroke-linecap="round" stroke-linejoin="round"/>
<path d="M68.9922 417.571H161.997V371.844H68.9922" fill="white"/>
<path d="M68.9922 417.571H161.997V371.844H68.9922" stroke="#2E353A" stroke-width="1.1" stroke-linecap="round" stroke-linejoin="round"/>
<path d="M153.087 412.412C153.087 412.825 153.21 413.229 153.44 413.573C153.669 413.917 153.996 414.185 154.378 414.343C154.759 414.501 155.18 414.543 155.585 414.462C155.991 414.381 156.363 414.182 156.655 413.89C156.948 413.598 157.147 413.225 157.227 412.82C157.308 412.414 157.267 411.994 157.108 411.612C156.95 411.23 156.682 410.904 156.339 410.674C155.995 410.445 155.591 410.322 155.177 410.322C154.623 410.322 154.092 410.542 153.7 410.934C153.308 411.326 153.087 411.858 153.087 412.412Z" fill="white" stroke="#2E353A" stroke-width="1.1" stroke-linecap="round" stroke-linejoin="round"/>
</svg>
