<svg width="450" height="450" viewBox="0 0 450 450" fill="none" xmlns="http://www.w3.org/2000/svg">
<path opacity="0.3" d="M225 449.993C298.782 449.993 358.594 440.549 358.594 428.899C358.594 417.249 298.782 407.805 225 407.805C151.218 407.805 91.4062 417.249 91.4062 428.899C91.4062 440.549 151.218 449.993 225 449.993Z" fill="black"/>
<path d="M225 127.969C241.172 127.969 256.387 131.963 269.782 138.98C282.558 145.673 298.083 143.845 308.285 133.643C323.571 118.364 319.929 92.4891 300.86 82.2797C278.255 70.1719 252.443 63.2812 225 63.2812C162.949 63.2812 109.111 98.2758 81.9912 149.59L135.372 187.805C149.976 152.677 184.584 127.969 225 127.969Z" fill="#FD3C4F"/>
<path d="M133.657 257.534C130.036 247.345 127.969 236.433 127.969 225C127.969 211.816 130.62 199.273 135.373 187.805L81.9914 149.59C70.0875 172.118 63.2812 197.754 63.2812 225C63.2812 251.557 69.7992 276.539 81.1336 298.645L81.1547 298.631L133.657 257.534Z" fill="#FFCE29"/>
<path d="M225 322.031C182.841 322.031 147.066 295.087 133.678 257.52L133.664 257.534L81.1548 298.631C107.951 350.88 162.239 386.719 225 386.719C266.709 386.719 304.601 370.807 333.267 344.883L282.959 302.611C266.787 314.74 246.783 322.031 225 322.031Z" fill="#98C900"/>
<path d="M133.657 257.534L81.1548 298.631L133.664 257.541L133.657 257.534Z" fill="#68E5FD"/>
<path d="M386.613 219.684C386.016 204.384 373.669 192.171 358.355 192.234L257.344 192.656C239.47 192.656 225 207.134 225 225C225 242.866 239.47 257.344 257.344 257.344H316.385C309.93 275.569 298.125 291.22 282.959 302.611L333.267 344.883C366.019 315.288 386.719 272.609 386.719 225C386.719 223.249 386.684 221.477 386.613 219.684Z" fill="#9C34C2"/>
<path opacity="0.3" d="M225 98.4375C243.098 98.4375 257.822 84.7125 259.769 67.1344C248.569 64.6594 236.953 63.2812 225 63.2812C162.949 63.2812 109.111 98.2758 81.9913 149.59C76.5562 159.877 72.246 170.831 69.103 182.271C73.2937 183.93 77.653 184.753 81.9702 184.753C94.5843 184.753 106.769 177.947 113.083 166.015C135.105 124.334 177.989 98.4375 225 98.4375Z" fill="white"/>
<path opacity="0.15" d="M386.613 219.684C386.171 208.35 379.259 198.738 369.492 194.527C358.833 200.573 351.563 211.88 351.563 225C351.563 260.564 336.305 294.75 309.692 318.804C286.327 339.926 256.247 351.562 225 351.562C206.874 351.562 192.129 365.33 190.224 382.943C201.424 385.404 213.054 386.719 225 386.719C266.71 386.719 304.601 370.807 333.267 344.883C366.019 315.288 386.719 272.609 386.719 225C386.719 223.249 386.684 221.477 386.613 219.684Z" fill="black"/>
<path d="M136.976 119.89C145.062 113.105 153.893 107.283 163.287 102.544C172.68 97.8047 182.644 94.1414 192.987 91.6594" stroke="white" stroke-width="21.0938" stroke-miterlimit="10" stroke-linecap="round" stroke-linejoin="round"/>
</svg>
