<svg width="450" height="450" viewBox="0 0 450 450" fill="none" xmlns="http://www.w3.org/2000/svg">
<path d="M379.688 140.625V309.375C379.688 325.195 374.484 339.75 365.625 351.492V351.562C353.742 367.312 335.461 377.93 314.648 379.477C312.961 379.617 311.133 379.688 309.375 379.688H140.625C101.812 379.688 70.3125 348.188 70.3125 309.375V140.625C70.3125 138.867 70.3828 137.039 70.5234 135.352C72.0703 114.539 82.6875 96.2578 98.4375 84.375H98.5078C110.25 75.5156 124.805 70.3125 140.625 70.3125H309.375C348.188 70.3125 379.688 101.812 379.688 140.625Z" fill="#9C34C2"/>
<path d="M379.688 206.438V309.375C379.688 325.195 374.484 339.75 365.625 351.492V351.562C353.742 367.312 335.461 377.93 314.648 379.477C312.961 379.617 311.133 379.688 309.375 379.688H140.625C101.812 379.688 70.3125 348.188 70.3125 309.375V140.625C70.3125 138.867 70.3828 137.039 70.5234 135.352C72.0703 114.539 82.6875 96.2578 98.4375 84.375H98.5078C110.25 75.5156 124.805 70.3125 140.625 70.3125H243.562C301.852 100.477 349.523 148.148 379.688 206.438Z" fill="#BC379C"/>
<path d="M365.625 351.492V351.562C353.742 367.312 335.461 377.93 314.648 379.477C312.961 379.617 311.133 379.688 309.375 379.688H140.625C101.812 379.688 70.3125 348.188 70.3125 309.375V140.625C70.3125 138.867 70.3828 137.039 70.5234 135.352C72.0703 114.539 82.6875 96.2578 98.4375 84.375H98.5078C246.023 84.4453 365.555 203.977 365.625 351.492Z" fill="#DD3975"/>
<path d="M316.406 351.562C316.406 360.984 315.773 370.336 314.648 379.477C312.961 379.617 311.133 379.688 309.375 379.688H140.625C101.812 379.688 70.3125 348.188 70.3125 309.375V140.625C70.3125 138.867 70.3828 137.039 70.5234 135.352C79.6641 134.227 89.0156 133.594 98.4375 133.594C218.812 133.594 316.406 231.187 316.406 351.562Z" fill="#FD3C4F"/>
<path d="M267.188 351.562C267.188 361.125 266.414 370.547 264.797 379.688H140.625C101.812 379.688 70.3125 348.188 70.3125 309.375V185.203C79.4531 183.586 88.875 182.812 98.4375 182.812C191.602 182.812 267.188 258.398 267.188 351.562Z" fill="#FE6D42"/>
<path d="M225 351.562C225 361.195 223.945 370.617 221.766 379.688H140.625C101.812 379.688 70.3125 348.188 70.3125 309.375V228.234C79.3828 226.055 88.8047 225 98.4375 225C168.328 225 225 281.672 225 351.562Z" fill="#FE9D36"/>
<path d="M175.781 351.562C175.781 361.477 173.883 370.969 170.508 379.688H140.625C101.812 379.688 70.3125 348.188 70.3125 309.375V279.492C79.0312 276.117 88.5234 274.219 98.4375 274.219C141.188 274.219 175.781 308.812 175.781 351.562Z" fill="#FFCE29"/>
<path opacity="0.3" d="M225 450C302.665 450 365.625 440.556 365.625 428.906C365.625 417.256 302.665 407.812 225 407.812C147.335 407.812 84.375 417.256 84.375 428.906C84.375 440.556 147.335 450 225 450Z" fill="black"/>
<path opacity="0.3" d="M217.969 105.469C237.382 105.469 253.125 89.7328 253.125 70.3125H140.625C101.791 70.3125 70.3125 101.791 70.3125 140.625V295.312C89.7258 295.312 105.469 279.577 105.469 260.156V140.625C105.469 121.24 121.24 105.469 140.625 105.469H217.969Z" fill="white"/>
<path opacity="0.15" d="M379.688 309.375V154.688C360.274 154.688 344.531 170.423 344.531 189.844V309.375C344.531 328.76 328.76 344.531 309.375 344.531H232.031C212.618 344.531 196.875 360.267 196.875 379.688H309.375C348.209 379.688 379.688 348.209 379.688 309.375Z" fill="black"/>
<path d="M98.4375 151.172C92.6086 151.172 87.8906 146.454 87.8906 140.625C87.8906 111.544 111.544 87.8906 140.625 87.8906C146.454 87.8906 151.172 92.6086 151.172 98.4375C151.172 104.266 146.454 108.984 140.625 108.984C123.18 108.984 108.984 123.18 108.984 140.625C108.984 146.454 104.266 151.172 98.4375 151.172Z" fill="white"/>
<path d="M277.734 337.5H172.266C139.31 337.5 112.5 310.69 112.5 277.734V172.266C112.5 139.31 139.31 112.5 172.266 112.5H277.734C310.69 112.5 337.5 139.31 337.5 172.266V277.734C337.5 310.69 310.69 337.5 277.734 337.5ZM172.266 133.594C150.94 133.594 133.594 150.94 133.594 172.266V277.734C133.594 299.06 150.94 316.406 172.266 316.406H277.734C299.06 316.406 316.406 299.06 316.406 277.734V172.266C316.406 150.94 299.06 133.594 277.734 133.594H172.266Z" fill="white"/>
<path d="M225 281.25C193.985 281.25 168.75 256.015 168.75 225C168.75 193.985 193.985 168.75 225 168.75C256.015 168.75 281.25 193.985 281.25 225C281.25 256.015 256.015 281.25 225 281.25ZM225 189.844C205.615 189.844 189.844 205.615 189.844 225C189.844 244.385 205.615 260.156 225 260.156C244.385 260.156 260.156 244.385 260.156 225C260.156 205.615 244.385 189.844 225 189.844Z" fill="white"/>
<path d="M284.766 179.297C292.532 179.297 298.828 173.001 298.828 165.234C298.828 157.468 292.532 151.172 284.766 151.172C276.999 151.172 270.703 157.468 270.703 165.234C270.703 173.001 276.999 179.297 284.766 179.297Z" fill="white"/>
</svg>
