<svg width="550" height="519" viewBox="0 0 550 519" fill="none" xmlns="http://www.w3.org/2000/svg">
<path d="M465.172 78.1097C444.867 57.3073 421.603 40.0074 396.884 27.8904C359.231 9.4782 317.757 0.556098 276.27 0.0117786C155.064 -1.52651 145.835 147.7 108.56 168.443C71.2865 189.186 3.74354 191.636 1.41243 274.621C-0.0548639 326.816 11.577 380.491 44.2717 421.161C74.221 458.411 118.216 477.285 161.572 491.236C210.242 506.891 261.869 522.262 313.035 511.696C365.586 500.845 402.505 457.264 445.66 427.788C472.876 409.233 497.216 389.709 513.984 359.937C515.995 356.387 517.877 352.754 519.664 349.074C542.146 302.819 546.525 249.464 534.135 199.41C523.06 154.492 497.974 111.716 465.172 78.1097Z" fill="white"/>
<path opacity="0.7" d="M465.172 78.1097C444.867 57.3073 421.603 40.0074 396.884 27.8904C359.231 9.4782 317.757 0.556098 276.27 0.0117786C155.064 -1.52651 145.835 147.7 108.56 168.443C71.2865 189.186 3.74354 191.636 1.41243 274.621C-0.0548639 326.816 11.577 380.491 44.2717 421.161C74.221 458.411 118.216 477.285 161.572 491.236C210.242 506.891 261.869 522.262 313.035 511.696C365.586 500.845 402.505 457.264 445.66 427.788C472.876 409.233 497.216 389.709 513.984 359.937C515.995 356.387 517.877 352.754 519.664 349.074C542.146 302.819 546.525 249.464 534.135 199.41C523.06 154.492 497.974 111.716 465.172 78.1097Z" fill="white"/>
<path d="M365.136 82.062C363.908 83.048 362.478 83.751 360.947 84.121C356.746 85.0558 345.564 84.5824 343.671 89.718C343.065 91.259 342.123 92.6452 340.913 93.7753C339.703 94.9054 338.256 95.7509 336.678 96.2498C336.678 96.2498 327.815 96.7231 327.341 98.6164C326.868 100.51 323.614 103.752 323.614 103.752H476.248C476.248 103.752 481.384 95.8238 472.982 88.369C465.634 81.8372 452.203 91.7296 450.499 83.6358" stroke="#263238" stroke-width="1.1833" stroke-linecap="round" stroke-linejoin="round"/>
<path d="M449.115 71.7554C447.411 65.6141 443.826 57.331 436.548 54.2544C424.408 49.1189 414.148 56.124 411.344 63.1173C408.539 70.1107 406.682 74.7847 395.961 68.7144C385.24 62.644 375.845 63.1173 372.626 71.081C371.698 73.3865 370.536 75.591 369.159 77.6601" stroke="#263238" stroke-width="1.1833" stroke-linecap="round" stroke-linejoin="round"/>
<path d="M105.934 163.426H158.934C158.934 163.426 162.034 158.693 156.958 154.113C151.881 149.534 141.989 158.066 143.409 148.469C143.409 148.469 142.225 136.636 134.936 133.512C133.06 132.653 130.992 132.299 128.937 132.486C126.882 132.673 124.912 133.393 123.222 134.577" stroke="#263238" stroke-width="1.1833" stroke-linecap="round" stroke-linejoin="round"/>
<path d="M119.695 138.872C118.003 143.109 116.867 145.972 110.383 142.257C103.898 138.541 98.2421 138.872 96.266 143.677C94.2898 148.481 91.7457 151.013 89.1661 151.569C86.5865 152.125 79.8536 151.853 78.7176 154.965C78.3487 155.897 77.7773 156.735 77.0446 157.418C76.3119 158.102 75.4364 158.614 74.4814 158.918C74.4814 158.918 69.121 159.19 68.837 160.326C68.2725 161.484 67.5073 162.534 66.5769 163.426H97.5913" stroke="#263238" stroke-width="1.1833" stroke-linecap="round" stroke-linejoin="round"/>
<path d="M371.23 163.426H396.257C396.257 163.426 399.357 158.693 394.281 154.113C389.204 149.534 379.324 158.066 380.732 148.469C380.732 148.469 379.608 136.636 372.259 133.512C364.911 130.388 358.722 134.695 357.018 138.872C355.315 143.049 354.202 145.972 347.706 142.257C341.21 138.541 335.565 138.872 333.601 143.677C331.637 148.481 329.081 151.013 326.501 151.569C323.922 152.125 317.189 151.853 316.064 154.965C315.694 155.896 315.122 156.733 314.39 157.417C313.657 158.1 312.782 158.613 311.828 158.917C311.828 158.917 306.468 159.19 306.184 160.326C305.619 161.484 304.854 162.534 303.924 163.426H362.876" stroke="#263238" stroke-width="1.1833" stroke-linecap="round" stroke-linejoin="round"/>
<g opacity="0.1">
<path d="M11.4823 241.607C16.1446 242.53 26.4984 240.033 26.4984 240.033C26.4984 240.033 22.7829 233.702 22.4989 233.335C19.1738 229.052 10.228 222.686 4.53636 224.816C3.59993 225.188 2.75217 225.753 2.04799 226.474C1.34381 227.195 0.798924 228.055 0.448635 229C0.0983452 229.945 -0.0495351 230.953 0.0145741 231.959C0.0786833 232.964 0.353352 233.945 0.820785 234.838C2.67857 238.696 7.51828 240.814 11.4823 241.607Z" fill="black"/>
<path d="M21.647 270.988C26.1908 270.669 34.8881 265.959 35.5863 265.58C38.2742 270.56 41.2904 275.355 44.6149 279.934C46.5318 282.608 48.5553 285.247 50.6142 287.862C49.4901 286.809 48.4843 285.874 48.3304 285.756C43.9996 282.513 33.7048 278.786 28.7586 282.289C27.9536 282.895 27.2851 283.664 26.7963 284.546C26.3075 285.427 26.0094 286.401 25.9212 287.405C25.8331 288.41 25.9569 289.421 26.2847 290.374C26.6124 291.327 27.1368 292.201 27.8238 292.938C30.6401 296.157 35.8584 296.926 39.8935 296.642C43.9286 296.358 51.4899 292.477 53.4541 291.436C54.2588 292.43 55.0398 293.435 55.8208 294.429C59.6783 299.163 63.5477 303.896 67.2041 308.7C68.4939 310.38 69.6891 312.084 70.9079 313.776C69.9139 312.842 69.0737 312.061 68.9317 311.954C64.589 308.7 54.3061 304.973 49.3599 308.487C48.5518 309.091 47.8803 309.859 47.3894 310.741C46.8984 311.622 46.599 312.598 46.5108 313.603C46.4226 314.608 46.5475 315.62 46.8774 316.574C47.2072 317.528 47.7346 318.401 48.4251 319.137C51.2414 322.367 56.4597 323.124 60.4948 322.84C64.5299 322.556 71.3575 319.054 73.7005 317.823C74.8838 319.598 76.0671 321.373 77.1557 323.148C77.8657 324.331 78.623 325.515 79.262 326.781L81.2263 330.485C82.4096 332.851 83.5929 335.36 84.6697 337.726C85.427 339.371 86.1251 340.945 86.8233 342.542C85.5572 340.85 83.0249 337.596 82.7764 337.348C78.9898 333.49 69.3814 328.248 63.95 330.958C63.0626 331.435 62.2854 332.093 61.6689 332.89C61.0524 333.686 60.6104 334.604 60.3716 335.582C60.1328 336.561 60.1025 337.579 60.2828 338.57C60.463 339.561 60.8497 340.504 61.4178 341.335C63.7134 344.956 68.7542 346.495 72.7893 346.826C77.2267 347.193 86.1961 344.022 87.3084 343.619C88.4917 346.258 89.5567 348.826 90.5507 351.275C91.3001 353.074 91.9983 354.813 92.6451 356.494L96.337 355.689C95.5482 353.835 94.7238 351.894 93.8639 349.867C92.6806 347.193 91.4145 344.353 90.0537 341.454C92.5896 339.74 95.0198 337.875 97.331 335.869C101.082 338.495 109.697 340.602 110.809 340.921C110.312 343.749 109.815 346.495 109.294 349.086C109.022 350.459 108.75 351.748 108.478 353.038L112.383 352.186C112.536 351.382 112.678 350.589 112.82 349.749C113.341 346.873 113.826 343.832 114.3 340.625C115.483 340.625 124.949 340.472 129.032 338.59C132.7 336.874 136.889 333.679 137.788 329.491C138.032 328.513 138.067 327.494 137.891 326.502C137.715 325.509 137.332 324.565 136.768 323.73C136.203 322.895 135.469 322.189 134.613 321.656C133.757 321.124 132.799 320.777 131.801 320.639C125.778 319.977 118.583 328.224 116.418 333.171C116.288 333.466 115.234 336.792 114.595 338.898C114.773 337.596 114.974 336.342 115.14 335.005C115.507 332.366 115.791 329.727 116.11 326.875C116.217 325.503 116.323 324.107 116.43 322.698C116.536 321.29 116.536 319.823 116.595 318.368C116.595 314.983 116.595 311.564 116.382 308.12C118.749 308.428 126.925 309.422 130.818 308.286C134.712 307.15 139.338 304.618 140.853 300.618C141.244 299.689 141.435 298.688 141.413 297.68C141.391 296.673 141.157 295.681 140.726 294.77C140.295 293.859 139.677 293.049 138.911 292.393C138.146 291.737 137.252 291.249 136.285 290.962C130.369 289.388 122.086 296.453 119.127 301.008C118.95 301.292 117.21 304.795 116.288 306.736C116.169 304.665 116.051 302.606 115.862 300.512C115.305 294.477 114.56 288.383 113.85 282.3C113.625 280.431 113.424 278.573 113.223 276.715C114.039 276.834 123.801 278.23 128.168 276.952C132.049 275.769 136.676 273.284 138.202 269.284C138.591 268.354 138.78 267.353 138.756 266.345C138.733 265.337 138.497 264.346 138.065 263.435C137.634 262.525 137.015 261.715 136.249 261.059C135.484 260.403 134.589 259.916 133.623 259.628C127.706 258.055 119.423 265.131 116.477 269.675C116.252 270.018 113.755 275.07 113.187 276.384C112.738 272.278 112.323 268.196 112.087 264.149C111.732 258.688 111.732 253.209 112.087 247.748C112.465 247.807 122.642 249.31 127.115 247.997C130.996 246.813 135.635 244.34 137.149 240.329C137.538 239.4 137.727 238.399 137.705 237.392C137.682 236.385 137.447 235.394 137.017 234.483C136.586 233.573 135.968 232.763 135.204 232.106C134.44 231.45 133.547 230.962 132.582 230.673C126.665 229.111 118.382 236.175 115.424 240.731C115.199 241.086 112.513 246.506 112.099 247.535C112.099 247.216 112.099 246.884 112.099 246.565C112.606 241.099 113.6 235.69 115.069 230.401C115.838 227.466 116.749 224.709 117.684 222.047C119.553 222.52 128.109 224.591 132.262 223.857C136.415 223.124 141.125 221.147 143.077 217.337C143.565 216.456 143.862 215.482 143.948 214.478C144.035 213.475 143.91 212.465 143.581 211.513C143.251 210.561 142.726 209.689 142.038 208.953C141.35 208.218 140.515 207.635 139.587 207.244C133.931 205.031 124.855 211.148 121.435 215.349C121.257 215.574 119.624 218.106 118.453 219.964C118.903 218.781 119.329 217.526 119.778 216.414C121.447 212.142 123.233 208.332 124.843 204.96C125.778 203.055 126.653 201.41 127.493 199.765C129.564 199.28 137.906 197.197 141.196 194.677C144.486 192.156 147.811 188.192 147.787 183.909C147.815 182.901 147.631 181.899 147.246 180.967C146.861 180.035 146.284 179.194 145.553 178.5C144.822 177.806 143.953 177.273 143.003 176.937C142.052 176.601 141.041 176.469 140.036 176.549C134.002 177.2 128.76 186.796 127.671 192.109C127.576 192.559 126.914 199.907 127.02 199.883H127.138C126.298 201.398 125.423 203.019 124.488 204.818C122.808 208.155 120.938 211.918 119.163 216.189C117.226 220.719 115.555 225.357 114.158 230.081C112.553 235.405 111.428 240.862 110.797 246.387C110.791 246.454 110.791 246.521 110.797 246.588C110.442 244.849 109.306 240.009 109.176 239.642C107.354 234.542 100.834 225.762 94.7632 225.952C93.7592 226.014 92.7796 226.287 91.8876 226.752C90.9957 227.217 90.2115 227.864 89.5856 228.652C88.9598 229.439 88.5064 230.35 88.2548 231.324C88.0032 232.298 87.9589 233.314 88.1249 234.306C88.6929 238.542 92.6215 242.056 96.1477 244.056C100.124 246.293 109.981 247.156 110.761 247.227C110.256 252.865 110.126 258.529 110.371 264.184C110.501 267.474 110.726 270.787 110.998 274.112C110.655 272.609 110.324 271.272 110.265 271.095C108.442 265.995 101.91 257.214 95.8519 257.404C94.8462 257.463 93.8642 257.733 92.97 258.197C92.0757 258.661 91.2893 259.308 90.6618 260.096C90.0344 260.884 89.5801 261.796 89.3285 262.772C89.077 263.747 89.0338 264.765 89.2017 265.758C89.7697 270.006 93.6983 273.52 97.2245 275.508C100.751 277.496 109.188 278.443 111.424 278.656C111.542 279.922 111.637 281.2 111.767 282.466C112.347 288.572 112.951 294.654 113.377 300.654C113.53 302.76 113.59 304.842 113.672 306.925C113.353 305.6 113.081 304.487 113.022 304.322C111.199 299.21 104.738 290.43 98.609 290.619C97.6028 290.68 96.6206 290.952 95.7263 291.417C94.8321 291.882 94.0458 292.53 93.4185 293.319C92.7912 294.108 92.3371 295.021 92.0856 295.997C91.8341 296.973 91.7909 297.991 91.9588 298.985C92.5268 303.233 96.4672 306.747 99.9816 308.735C103.496 310.723 111.128 311.575 113.767 311.836C113.767 313.966 113.767 316.107 113.767 318.178C113.672 319.598 113.684 320.959 113.519 322.379C113.353 323.799 113.246 325.172 113.116 326.544C112.749 329.195 112.406 331.916 111.933 334.484C111.661 336.271 111.365 337.975 111.069 339.691C110.951 337.584 110.619 333.466 110.56 333.135C109.464 328.49 107.195 324.204 103.969 320.687C103.876 320.164 103.729 319.653 103.532 319.16C103.197 318.21 102.666 317.341 101.973 316.609C101.279 315.878 100.44 315.301 99.5087 314.915C98.5776 314.53 97.5757 314.346 96.5684 314.374C95.5612 314.402 94.5711 314.642 93.6628 315.078C88.2669 317.847 86.8233 328.698 87.7463 334.011C87.7463 334.318 88.7521 337.679 89.3792 339.785C88.8231 338.602 88.2906 337.419 87.6989 336.235C86.5156 333.869 85.3323 331.502 84.0189 328.923L81.9836 325.266C81.3209 324.083 80.4808 322.805 79.7235 321.562C77.913 318.711 75.9369 315.906 73.8898 313.137C75.9961 312.12 83.3562 308.404 86.0305 305.304C88.7047 302.204 91.1068 297.553 90.172 293.376C89.9787 292.389 89.5805 291.453 89.0032 290.63C88.4258 289.806 87.6822 289.113 86.8203 288.594C85.9583 288.076 84.9972 287.744 83.999 287.62C83.0008 287.495 81.9877 287.582 81.0251 287.874C75.2742 289.803 72.2095 300.31 72.2687 305.718C72.2687 306.061 72.7538 309.942 73.0496 312.072C71.8663 310.416 70.5765 308.747 69.2631 307.102C65.4765 302.369 61.4888 297.707 57.5365 293.033C56.3532 291.601 55.1699 290.158 53.9866 288.726C54.7321 288.371 63.6424 284.146 66.577 280.668C69.1921 277.579 71.6533 272.917 70.7185 268.74C70.5314 267.749 70.1374 266.808 69.5622 265.98C68.9869 265.152 68.2434 264.454 67.3802 263.932C66.517 263.411 65.5535 263.077 64.5526 262.953C63.5517 262.83 62.5359 262.918 61.5716 263.214C55.8207 265.131 52.756 275.638 52.8152 281.058C52.8152 281.46 53.5251 287.046 53.7618 288.454C51.1349 285.294 48.5316 282.111 46.1058 278.869C42.802 274.508 39.7823 269.939 37.0654 265.19C37.4086 265.024 46.7212 260.658 49.7267 257.096C52.3418 254.008 54.8149 249.345 53.8683 245.168C53.681 244.179 53.2872 243.24 52.7128 242.412C52.1383 241.585 51.396 240.888 50.5341 240.367C49.6723 239.845 48.7103 239.511 47.7108 239.386C46.7113 239.262 45.6968 239.349 44.7332 239.642C38.9705 241.559 35.9058 252.067 35.9649 257.487C35.9649 257.913 36.7341 263.924 36.9471 265.001C36.7932 264.717 36.5921 264.456 36.4383 264.172C33.8542 259.329 31.7002 254.269 30.0011 249.05C29.0308 246.186 28.2616 243.382 27.6345 240.636C29.4568 240.009 37.7281 237.015 40.7928 234.105C43.8576 231.194 46.7093 227.005 46.2123 222.709C46.1365 221.704 45.8494 220.726 45.37 219.839C44.8907 218.952 44.2296 218.177 43.4301 217.562C42.6306 216.948 41.7106 216.51 40.7302 216.275C39.7497 216.041 38.7307 216.015 37.7399 216.201C31.8234 217.479 27.6108 227.585 27.0902 232.98C27.0902 233.276 27.0902 236.282 27.1612 238.483C26.8653 237.24 26.5458 235.962 26.2855 234.767C25.3152 230.282 24.6999 226.117 24.1911 222.425C23.9189 220.319 23.7177 218.414 23.5403 216.627C24.9957 215.077 30.7939 208.735 32.1547 204.794C33.5155 200.854 34.0953 195.73 31.7169 192.18C31.1837 191.324 30.4764 190.59 29.641 190.024C28.8055 189.459 27.8606 189.076 26.8676 188.9C25.8745 188.724 24.8554 188.758 23.8765 189.001C22.8977 189.244 21.9808 189.69 21.1855 190.311C16.5233 194.18 17.4462 205.09 19.4579 210.119C19.6235 210.557 23.1261 217.041 23.1971 216.958L23.2918 216.864C23.4219 218.591 23.5876 220.414 23.8006 222.449C24.2384 226.153 24.7591 230.342 25.6347 234.874C26.5368 239.758 27.7221 244.587 29.1846 249.334C30.7833 254.655 32.8545 259.823 35.3733 264.776C35.3733 264.776 35.4443 264.894 35.4679 264.953C34.2846 263.687 30.6046 260.279 30.2969 260.054C25.9542 256.8 15.6713 253.073 10.7251 256.587C9.91698 257.192 9.2455 257.96 8.75455 258.841C8.26359 259.723 7.96421 260.698 7.87598 261.703C7.78775 262.708 7.91265 263.721 8.24252 264.674C8.57239 265.628 9.0998 266.501 9.79028 267.237C12.3935 270.479 17.6119 271.237 21.647 270.988Z" fill="black"/>
<path d="M117.21 220.946C117.317 220.946 117.601 213.622 117.565 213.16C117.151 207.752 113.175 197.564 107.282 196.144C106.296 195.937 105.277 195.939 104.292 196.151C103.307 196.363 102.377 196.78 101.563 197.375C100.75 197.969 100.07 198.729 99.5695 199.604C99.0686 200.478 98.7574 201.448 98.6562 202.451C98.0882 206.699 100.952 211.125 103.815 213.977C107.188 217.325 117.21 220.946 117.21 220.946Z" fill="black"/>
</g>
<g opacity="0.1">
<path d="M539.034 343.513C535.035 343.655 526.763 340.199 526.763 340.199C526.763 340.199 530.692 335.466 530.988 335.17C534.313 332.058 542.584 328.011 547.045 330.437C547.774 330.872 548.403 331.455 548.892 332.148C549.381 332.841 549.719 333.629 549.884 334.461C550.049 335.294 550.038 336.151 549.85 336.979C549.663 337.806 549.304 338.585 548.796 339.265C546.726 342.27 542.43 343.383 539.034 343.513Z" fill="black"/>
<path d="M526.669 366.54C522.929 365.676 516.338 360.623 515.806 360.185C512.896 363.969 509.733 367.55 506.339 370.906C504.387 372.882 502.364 374.799 500.305 376.704C501.37 375.971 502.328 375.332 502.482 375.261C506.517 373.131 515.557 371.415 519.202 374.989C519.791 375.599 520.244 376.326 520.534 377.124C520.823 377.921 520.941 378.77 520.881 379.616C520.821 380.462 520.583 381.285 520.184 382.033C519.784 382.781 519.232 383.437 518.563 383.958C515.794 386.265 511.357 386.194 508.043 385.425C504.73 384.656 498.956 380.42 497.465 379.284C496.66 380.006 495.879 380.739 495.098 381.449C491.264 384.905 487.418 388.324 483.738 391.803C482.449 392.987 481.218 394.276 479.987 395.519C480.934 394.88 481.739 394.336 481.869 394.265C485.904 392.146 494.956 390.431 498.601 394.004C499.189 394.614 499.643 395.34 499.932 396.136C500.221 396.932 500.339 397.781 500.279 398.626C500.219 399.47 499.981 400.293 499.582 401.04C499.183 401.787 498.631 402.442 497.962 402.962C495.193 405.328 490.755 405.21 487.43 404.441C484.105 403.672 478.91 399.838 477.124 398.524C475.94 399.838 474.674 401.163 473.574 402.489C472.816 403.411 472.036 404.252 471.337 405.234L469.207 408.05C467.929 409.884 466.592 411.777 465.385 413.6C464.533 414.866 463.752 416.085 462.948 417.315C464.226 416.073 466.77 413.765 467.006 413.541C470.675 410.831 479.348 407.766 483.502 410.736C484.175 411.252 484.733 411.903 485.139 412.648C485.544 413.393 485.789 414.215 485.857 415.06C485.925 415.906 485.815 416.756 485.534 417.556C485.252 418.357 484.806 419.089 484.224 419.706C481.857 422.403 477.431 423.019 474.035 422.747C470.308 422.463 463.279 418.629 462.403 418.144C461.09 420.179 459.836 422.167 458.688 424.06C457.836 425.456 457.019 426.817 456.25 428.119L453.292 426.936C454.179 425.492 455.126 424.001 456.12 422.427C457.445 420.356 458.901 418.179 460.415 415.943C458.536 414.182 456.766 412.309 455.114 410.334C451.647 412.014 444.204 412.7 443.281 412.7C443.281 415.067 443.364 417.434 443.459 419.682C443.459 420.865 443.553 421.978 443.601 423.078L440.477 421.895C440.477 421.197 440.477 420.522 440.477 419.8C440.477 417.339 440.477 414.712 440.477 412.026C439.507 411.86 431.602 410.476 428.502 408.37C425.686 406.453 422.585 403.234 422.443 399.637C422.37 398.792 422.475 397.94 422.753 397.139C423.031 396.337 423.475 395.603 424.055 394.984C424.636 394.366 425.341 393.877 426.123 393.549C426.905 393.221 427.748 393.061 428.596 393.081C433.685 393.342 438.56 401.151 439.743 405.553C439.814 405.814 440.252 408.713 440.501 410.559C440.501 409.446 440.5 408.381 440.56 407.245C440.56 405.009 440.725 402.772 440.832 400.37C440.938 399.187 441.033 398.004 441.128 396.82C441.222 395.637 441.423 394.454 441.577 393.2C441.968 390.383 442.512 387.555 443.116 384.715C441.151 384.715 434.182 384.396 431.093 382.929C428.005 381.461 424.514 378.751 423.78 375.213C423.582 374.389 423.56 373.533 423.714 372.7C423.868 371.867 424.196 371.075 424.676 370.377C425.155 369.679 425.777 369.089 426.499 368.646C427.221 368.203 428.029 367.917 428.869 367.806C433.945 367.285 439.944 374.267 441.778 378.456C441.897 378.716 442.879 381.864 443.376 383.591C443.755 381.887 444.121 380.183 444.559 378.479C445.825 373.533 447.257 368.575 448.665 363.617C449.103 362.091 449.505 360.576 449.931 359.061C449.233 359.061 440.938 358.907 437.483 357.263C434.406 355.795 430.892 353.074 430.17 349.548C429.968 348.723 429.943 347.866 430.096 347.031C430.248 346.197 430.575 345.404 431.056 344.704C431.536 344.005 432.159 343.415 432.883 342.973C433.607 342.531 434.417 342.247 435.258 342.14C440.335 341.619 446.334 348.601 448.168 352.79C448.298 353.097 449.707 357.63 450.002 358.789C450.925 355.452 451.813 352.103 452.547 348.778C453.572 344.291 454.303 339.741 454.736 335.159C454.404 335.159 445.754 335.04 442.216 333.348C439.14 331.893 435.625 329.171 434.892 325.645C434.692 324.82 434.668 323.963 434.821 323.128C434.974 322.293 435.302 321.501 435.782 320.801C436.261 320.101 436.883 319.51 437.607 319.066C438.33 318.623 439.139 318.336 439.98 318.226C445.068 317.705 451.056 324.698 452.89 328.875C453.044 329.207 454.546 334.082 454.759 334.981C454.759 334.709 454.83 334.437 454.854 334.176C455.161 329.565 455.054 324.936 454.534 320.344C454.286 317.811 453.907 315.397 453.481 313.054C451.872 313.196 444.488 313.776 441.128 312.617C437.767 311.457 434.122 309.185 433.01 305.754C432.722 304.956 432.605 304.106 432.666 303.26C432.728 302.414 432.966 301.59 433.367 300.843C433.768 300.095 434.321 299.44 434.992 298.92C435.662 298.4 436.434 298.027 437.258 297.825C442.24 296.749 448.973 303.032 451.257 306.984C451.375 307.197 452.44 309.516 453.115 311.22C452.913 310.167 452.712 309.079 452.499 308.073C451.683 304.298 450.701 300.89 449.813 297.885C449.292 296.181 448.784 294.642 448.298 293.151C446.642 292.465 440.015 289.601 437.649 287.093C435.282 284.584 433.01 280.821 433.602 277.271C433.711 276.429 433.996 275.62 434.439 274.895C434.882 274.171 435.473 273.548 436.174 273.068C436.874 272.588 437.668 272.261 438.503 272.108C439.338 271.956 440.196 271.981 441.021 272.183C445.944 273.532 449.02 282.206 449.233 286.761C449.233 287.164 448.819 293.341 448.736 293.305H448.63C449.127 294.678 449.647 296.145 450.18 297.766C451.138 300.76 452.192 304.156 453.091 307.919C454.116 311.972 454.906 316.081 455.457 320.225C456.078 324.864 456.288 329.548 456.085 334.224C456.078 334.279 456.078 334.334 456.085 334.389C456.605 332.981 458.203 329.112 458.357 328.828C460.546 324.84 467.137 318.403 472.154 319.361C472.981 319.546 473.761 319.903 474.442 320.408C475.123 320.913 475.69 321.556 476.106 322.295C476.522 323.034 476.778 323.852 476.858 324.696C476.937 325.54 476.838 326.391 476.568 327.195C475.526 330.65 471.834 333.111 468.604 334.295C464.995 335.632 456.688 335.028 456.037 334.981C455.631 339.725 454.911 344.437 453.884 349.086C453.339 351.808 452.7 354.529 452.038 357.251C452.523 356.068 452.973 354.991 453.055 354.884C455.256 350.885 461.847 344.459 466.853 345.418C467.681 345.601 468.462 345.956 469.144 346.461C469.826 346.966 470.393 347.609 470.81 348.348C471.226 349.088 471.482 349.906 471.561 350.751C471.64 351.596 471.539 352.448 471.266 353.251C470.225 356.695 466.533 359.097 463.303 360.28C460.072 361.463 452.972 361.12 451.091 360.99C450.831 362.031 450.57 363.085 450.298 364.114C448.997 369.108 447.683 374.089 446.535 379.012C446.133 380.751 445.79 382.467 445.459 384.195C445.896 383.13 446.263 382.242 446.334 382.112C448.535 378.112 455.126 371.687 460.143 372.646C460.971 372.83 461.75 373.187 462.431 373.692C463.112 374.197 463.679 374.84 464.095 375.579C464.511 376.318 464.768 377.136 464.847 377.98C464.927 378.824 464.828 379.676 464.557 380.479C463.516 383.922 459.824 386.325 456.582 387.508C453.339 388.691 446.95 388.372 444.749 388.242C444.453 390.016 444.157 391.791 443.944 393.531C443.837 394.714 443.648 395.898 443.589 397.081L443.376 400.631C443.317 402.879 443.246 405.186 443.246 407.376C443.246 408.902 443.246 410.357 443.246 411.813C443.624 410.085 444.429 406.713 444.547 406.441C446.066 402.73 448.51 399.471 451.647 396.974C451.797 396.562 451.988 396.166 452.215 395.791C452.622 395.048 453.18 394.398 453.854 393.884C454.528 393.371 455.302 393.004 456.127 392.809C456.951 392.614 457.807 392.594 458.64 392.751C459.473 392.908 460.263 393.238 460.96 393.72C465.078 396.749 464.829 405.956 463.326 410.286C463.244 410.535 462.013 413.209 461.208 414.878C461.835 413.967 462.392 413.079 463.078 412.144C464.356 410.31 465.681 408.5 467.113 406.559L469.29 403.79C470 402.855 470.864 401.944 471.657 401.009C473.55 398.891 475.562 396.82 477.633 394.785C476.011 393.661 470.355 389.591 468.592 386.668C466.829 383.745 465.397 379.568 466.746 376.196C467.035 375.404 467.486 374.682 468.07 374.075C468.655 373.469 469.36 372.991 470.14 372.673C470.92 372.356 471.759 372.205 472.601 372.231C473.443 372.257 474.27 372.458 475.029 372.823C479.549 375.19 480.697 384.325 479.928 388.821C479.928 389.093 478.958 392.265 478.425 393.981C479.68 392.797 480.922 391.555 482.236 390.371C486.022 386.94 489.951 383.591 493.856 380.242L497.406 377.13C496.826 376.74 489.986 372.042 488.01 368.764C486.247 365.853 484.827 361.665 486.164 358.304C486.453 357.513 486.904 356.79 487.488 356.183C488.073 355.577 488.777 355.099 489.557 354.78C490.337 354.461 491.175 354.309 492.017 354.333C492.859 354.357 493.687 354.557 494.447 354.92C498.967 357.286 500.115 366.421 499.346 370.918C499.346 371.261 497.962 375.805 497.571 376.941C500.186 374.669 502.766 372.362 505.215 369.995C508.603 366.79 511.773 363.362 514.705 359.736C514.433 359.546 507.286 354.683 505.239 351.323C503.476 348.4 502.044 344.223 503.381 340.85C503.672 340.053 504.126 339.326 504.716 338.716C505.305 338.106 506.016 337.627 506.802 337.309C507.589 336.991 508.433 336.842 509.281 336.871C510.129 336.9 510.961 337.107 511.723 337.478C516.244 339.844 517.391 348.98 516.622 353.476C516.563 353.831 515.131 358.718 514.812 359.582C514.978 359.381 515.167 359.18 515.333 358.967C518.131 355.291 520.598 351.375 522.705 347.264C523.888 345.004 524.905 342.779 525.84 340.602C524.408 339.833 517.936 336.235 515.782 333.419C513.629 330.603 511.83 326.686 512.788 323.219C512.986 322.393 513.356 321.619 513.873 320.946C514.391 320.273 515.044 319.716 515.792 319.313C516.539 318.91 517.362 318.669 518.209 318.606C519.056 318.543 519.906 318.659 520.705 318.947C525.438 320.805 527.603 329.751 527.331 334.33C527.331 334.579 526.882 337.076 526.55 338.886C526.953 337.904 527.39 336.886 527.734 335.928C529.13 332.378 530.195 328.946 531.118 325.941C531.627 324.237 532.053 322.675 532.431 321.207C531.425 319.716 527.45 313.682 526.846 310.25C526.243 306.818 526.444 302.452 528.893 299.825C529.449 299.185 530.134 298.668 530.903 298.31C531.672 297.951 532.507 297.758 533.355 297.744C534.204 297.729 535.045 297.893 535.826 298.226C536.607 298.558 537.309 299.05 537.886 299.671C541.259 303.517 539.07 312.451 536.703 316.356C536.502 316.699 532.727 321.622 532.68 321.551L532.609 321.456C532.277 322.876 531.887 324.379 531.425 326.023C530.68 328.97 529.639 332.425 528.313 336.07C526.923 340.011 525.303 343.867 523.462 347.619C521.424 351.83 519.013 355.85 516.256 359.629C516.224 359.676 516.188 359.719 516.149 359.759C517.332 358.884 520.823 356.529 521.107 356.375C525.142 354.257 534.194 352.529 537.839 356.103C538.428 356.713 538.881 357.441 539.171 358.238C539.46 359.035 539.578 359.884 539.518 360.73C539.458 361.576 539.22 362.4 538.821 363.148C538.421 363.896 537.869 364.552 537.2 365.072C534.431 367.38 529.982 367.321 526.669 366.54Z" fill="black"/>
<path d="M453.931 312.25C453.836 312.25 454.582 306.109 454.676 305.718C455.741 301.292 460.404 293.353 465.492 292.962C466.339 292.921 467.185 293.058 467.975 293.365C468.765 293.673 469.482 294.143 470.078 294.746C470.674 295.349 471.136 296.071 471.435 296.864C471.734 297.658 471.862 298.506 471.811 299.352C471.728 302.902 468.758 306.251 465.989 308.238C462.735 310.57 453.931 312.238 453.931 312.25Z" fill="black"/>
</g>
<path d="M230.89 6.35431L245.682 146.919" stroke="#263238" stroke-width="1.1833" stroke-linecap="round" stroke-linejoin="round"/>
<path d="M275.252 36.2209L264.224 38.7531L254.13 58.7154L238.144 54.1479L237.694 58.5024L257.574 66.7501L264.685 56.8813V74.0984L286.032 75.0214L290.399 55.5087L298.196 62.3955V80.5237H302.788L305.545 57.8043L293.38 38.0668L275.252 36.2209Z" fill="white" stroke="#263238" stroke-width="1.1833" stroke-linecap="round" stroke-linejoin="round"/>
<path d="M264.685 56.8813L264.52 47.1664" stroke="#263238" stroke-width="1.1833" stroke-linecap="round" stroke-linejoin="round"/>
<path d="M275.087 42.6107L278.08 48.2314C278.08 48.2314 286.364 50.8583 287.831 51.2251C289.298 51.592 293.83 50.101 297.569 49.3555C301.309 48.61 313.319 54.5975 313.319 54.5975L323.815 54.9762L318.194 48.2314L297.948 45.2258L287.452 48.61L280.352 46.7286L281.867 43.794L278.495 38.5401L275.087 42.6107Z" fill="white" stroke="#263238" stroke-width="1.1833" stroke-linecap="round" stroke-linejoin="round"/>
<path d="M276.163 34.6116C275.554 34.4963 274.923 34.6252 274.407 34.9705C273.891 35.3158 273.532 35.8498 273.406 36.4575C272.957 38.7531 272.495 44.4922 272.495 44.4922L277.997 42.8829L284.435 45.64C284.435 45.64 286.494 39.6643 285.346 37.6053C284.198 35.5464 278.92 32.7775 276.163 34.6116Z" fill="white" stroke="#263238" stroke-width="1.1833" stroke-linecap="round" stroke-linejoin="round"/>
<path d="M275.016 31.4048C275.016 31.4048 275.702 37.8302 275.939 40.1258C276.175 42.4214 277.548 45.8648 278.459 45.1785C279.37 44.4921 282.589 38.0786 282.589 38.0786L284.198 33.7241L275.016 31.4048Z" fill="white" stroke="#263238" stroke-width="1.1833" stroke-linecap="round" stroke-linejoin="round"/>
<path d="M275.087 22.0212C275.087 22.0212 273.075 21.8437 273.075 25.1333C273.075 28.4229 274.53 28.6004 274.53 28.6004L275.087 22.0212Z" fill="white" stroke="#263238" stroke-width="1.1833" stroke-linecap="round" stroke-linejoin="round"/>
<path d="M288.541 24.7665C288.801 24.7804 289.056 24.8513 289.286 24.9741C289.516 25.097 289.717 25.2687 289.874 25.4774C290.031 25.6861 290.14 25.9265 290.194 26.1819C290.247 26.4373 290.245 26.7014 290.186 26.9556C289.819 28.9672 286.352 31.6888 286.352 31.6888L288.541 24.7665Z" fill="white" stroke="#263238" stroke-width="1.1833" stroke-linecap="round" stroke-linejoin="round"/>
<path d="M281.902 15.3948C281.902 15.3948 278.234 14.4718 276.163 18.8382C274.093 23.2046 274.554 28.4821 274.98 31.464C275.406 34.4459 278.199 35.8186 280.956 35.8186C283.713 35.8186 287.831 30.0914 288.754 25.725C289.677 21.3586 289.014 15.3948 281.902 15.3948Z" fill="white" stroke="#263238" stroke-width="1.1833" stroke-linecap="round" stroke-linejoin="round"/>
<path d="M233.707 51.6038L234.618 58.4906L238.747 58.9521L238.061 51.1423L233.707 51.6038Z" fill="white" stroke="#263238" stroke-width="1.1833" stroke-linecap="round" stroke-linejoin="round"/>
<path d="M238.144 51.4973L239.812 51.2725L240.144 54.9407L238.475 55.1655L238.144 51.4973Z" fill="white" stroke="#263238" stroke-width="1.1833" stroke-linecap="round" stroke-linejoin="round"/>
<path d="M298.196 80.5237L295.688 84.4523L296.339 88.3927L298.528 88.1797L302.255 86.8662L302.788 80.5237H298.196Z" fill="white" stroke="#263238" stroke-width="1.1833" stroke-linecap="round" stroke-linejoin="round"/>
<path d="M264.685 74.0984L263.064 81.1745L245.102 104.817L257.148 138.766L260.212 138.103L257.586 105.693L272.258 90.144L274.01 91.2444L274.057 108.592L290.872 137.015L294.374 136.127L286.494 108.757L286.931 79.6362L286.032 75.0214L264.685 74.0984Z" fill="#263238" stroke="#263238" stroke-width="1.1833" stroke-linecap="round" stroke-linejoin="round"/>
<path d="M257.148 138.766L254.521 142.481C254.521 142.481 250.356 144.458 249.705 145.546C249.054 146.635 253.255 146.422 253.255 146.422L258.071 145.984L263.112 142.706L260.26 138.103L257.148 138.766Z" fill="white" stroke="#263238" stroke-width="1.1833" stroke-linecap="round" stroke-linejoin="round"/>
<path d="M231.517 11.3597C231.517 11.3597 229.316 16.3769 220.229 19.8203C211.141 23.2637 197.983 25.1452 194.539 32.3515C191.096 39.5578 191.096 38.9425 190.469 43.0012C190.134 45.3737 189.032 47.5718 187.333 49.2609C187.333 49.2609 190.469 49.5804 192.066 47.3913C193.664 45.2021 194.267 38.9306 196.799 37.984C199.332 37.0373 203.935 35.5109 203.935 35.5109C203.935 35.5109 199.556 39.2738 199.201 41.1552C198.846 43.0367 198.574 47.4267 197.947 50.243C197.674 51.7827 196.925 53.198 195.805 54.2899C195.805 54.2899 199.876 54.2899 201.13 51.4736C202.384 48.6574 201.13 44.8945 205.201 42.0664C209.271 39.2383 213.661 40.5044 220.584 40.8121C227.506 41.1197 234.062 37.061 234.062 37.061L231.517 11.3597Z" fill="white" stroke="#263238" stroke-width="1.1833" stroke-linecap="round" stroke-linejoin="round"/>
<path d="M290.872 137.015L287.854 147.037L295.345 146.741L294.374 136.127L290.872 137.015Z" fill="white" stroke="#263238" stroke-width="1.1833" stroke-linecap="round" stroke-linejoin="round"/>
<path d="M279.394 24.1867C279.264 24.7783 278.849 25.1925 278.447 25.1097C278.045 25.0268 277.832 24.4707 277.962 23.9264C278.092 23.382 278.506 22.9205 278.909 23.0034C279.311 23.0862 279.512 23.595 279.394 24.1867Z" fill="#263238"/>
<path d="M284.873 25.4646C284.742 26.0563 284.328 26.4704 283.926 26.3876C283.524 26.3048 283.311 25.7486 283.441 25.2043C283.571 24.66 283.985 24.1985 284.387 24.2813C284.79 24.3642 284.991 24.8612 284.873 25.4646Z" fill="#263238"/>
<path d="M281.228 24.944L279.772 29.334H282.151" stroke="#263238" stroke-width="1.1833" stroke-linecap="round" stroke-linejoin="round"/>
<path d="M277.95 30.612C277.95 30.612 279.228 32.8011 282.518 31.5231" stroke="#263238" stroke-width="1.1833" stroke-linecap="round" stroke-linejoin="round"/>
<path d="M277.761 21.1101C278.237 20.8531 278.787 20.767 279.318 20.866C279.85 20.965 280.332 21.2433 280.684 21.6544" stroke="#263238" stroke-width="1.1833" stroke-linecap="round" stroke-linejoin="round"/>
<path d="M283.429 22.3881C283.749 22.2125 284.102 22.1065 284.466 22.0771C284.83 22.0476 285.196 22.0953 285.54 22.2171C285.884 22.3388 286.199 22.5319 286.463 22.7837C286.727 23.0354 286.935 23.3401 287.074 23.6779" stroke="#263238" stroke-width="1.1833" stroke-linecap="round" stroke-linejoin="round"/>
<path d="M274.294 20.5658L287.44 18.9446C287.44 18.9446 286.896 21.1338 287.63 21.6781C288.363 22.2224 288.541 24.7902 288.541 24.7902L287.996 27.7129L290.919 22.601C290.919 22.601 291.83 18.5778 291.097 17.2999C290.857 16.9142 290.537 16.5839 290.16 16.3309C289.782 16.078 289.356 15.9081 288.908 15.8326C288.125 14.6487 287.022 13.7119 285.727 13.1315C284.432 12.5511 282.999 12.3511 281.595 12.5548C276.483 13.0991 274.294 15.6551 274.294 17.6667V20.5658Z" fill="#263238" stroke="#263238" stroke-width="1.1833" stroke-linecap="round" stroke-linejoin="round"/>
<path d="M264.591 517.352L287.783 384.266L200.243 303.931L232.014 195.683L198.006 196.44L183.641 209.291L153.621 208.557L149.562 223.195L141.326 222.165L138.486 227.301L124.44 255.345L117.139 283.354L89.9234 317.374L86.9415 397.649L43.0646 460.979L29.2673 517.352H264.591Z" fill="#808080" stroke="#263238" stroke-width="1.1833" stroke-linecap="round" stroke-linejoin="round"/>
<path d="M462.119 517.352L433.069 453.655L480.401 485.19V434.722L452.582 401.767L456.7 364.694L414.456 284.359L412.35 256.552L397.937 243.157L323.957 248.505L318.679 222.532L271.347 195.754L242.948 264.515L216.785 276.088L235.221 301.364L232.239 321.397L238.404 352.328L135.457 374.989C135.457 374.989 134.427 424.427 134.427 428.545C134.427 432.663 113.826 456.352 113.826 456.352L112.868 517.352H462.119Z" fill="#ABABAB" stroke="#263238" stroke-width="1.1833" stroke-linecap="round" stroke-linejoin="round"/>
<path d="M519.45 517.352L507.156 511.968L491.702 479.013L473.16 465.63L464.924 446.058L456.688 430.604L412.669 409.103L419.497 517.352H519.45Z" fill="#CCCCCC" stroke="#263238" stroke-width="1.1833" stroke-linecap="round" stroke-linejoin="round"/>
<path d="M58.7197 517.222H113.755L114.749 485.19L109.602 466.659V417.221L97.248 415.162L86.9415 426.486L70.4699 435.763L34.7697 517.352H58.7197V517.222Z" fill="#CCCCCC" stroke="#263238" stroke-width="1.1833" stroke-linecap="round" stroke-linejoin="round"/>
<path d="M77.759 463.594L78.966 458.459" stroke="#263238" stroke-width="1.1833" stroke-miterlimit="10"/>
<path d="M58.7197 517.352L66.0562 488.373L72.9785 483.971L77.0254 466.718" stroke="#263238" stroke-width="1.1833" stroke-miterlimit="10"/>
<path d="M46.8394 517.659L58.4949 484.598" stroke="#263238" stroke-width="1.1833" stroke-miterlimit="10"/>
<path d="M97.4138 428.841L96.2778 434.213" stroke="#263238" stroke-width="1.1833" stroke-miterlimit="10"/>
<path d="M100.053 416.274L97.8989 426.533" stroke="#263238" stroke-width="1.1833" stroke-miterlimit="10"/>
<path d="M113.755 517.222L114.749 485.19L109.602 466.659V417.221L99.307 483.131L90.0299 486.219L86.9415 504.761L85.0245 517.222H113.755Z" fill="white" stroke="#263238" stroke-width="1.1833" stroke-linecap="round" stroke-linejoin="round"/>
<path d="M290.008 480.693C295.863 479.9 301.588 478.341 307.036 476.054C311.385 474.28 315.213 471.43 318.159 467.771C318.502 467.31 318.822 466.825 319.129 466.34L311 429.657L294.966 415.671L292.292 403.672L276.909 391.673L271.584 410.346L262.91 422.344L262.248 466.351L270.531 482.184C277.05 482.129 283.557 481.631 290.008 480.693Z" fill="white" stroke="#263238" stroke-width="1.1833" stroke-linecap="round" stroke-linejoin="round"/>
<path d="M290.008 480.693L288.375 466.99L293.191 454.01V446.318L292.221 434.296" stroke="#263238" stroke-width="1.1833" stroke-miterlimit="10"/>
<path d="M299.77 439.041L302.326 453.524L307.13 454.483L306.172 466.505L308.089 472.765" stroke="#263238" stroke-width="1.1833" stroke-miterlimit="10"/>
<path d="M297.995 429.006L298.847 433.834" stroke="#263238" stroke-width="1.1833" stroke-miterlimit="10"/>
<path d="M282.127 398.229L285.973 437.656" stroke="#263238" stroke-width="1.1833" stroke-miterlimit="10"/>
<path d="M235.15 479.711C246.213 481.392 257.389 482.223 268.579 482.196C270.827 482.196 273.028 482.137 275.193 482.054L274.957 469.676L270.957 464.352V426.344L277.631 419.67L276.956 391.685L268.957 406.358L258.307 415.682L251.634 435.018L240.984 447.691L238.31 461.027L225.648 471.676L220.596 477.06C225.368 478.078 230.22 478.961 235.15 479.711Z" fill="#CCCCCC" stroke="#263238" stroke-width="1.1833" stroke-linecap="round" stroke-linejoin="round"/>
<path d="M427.851 517.352L483.762 517.245L411.368 473.865L393.866 431.633L379.442 429.574L367.088 413.103L360.9 419.28L365.018 455.323L349.575 481.072V497.555L342.369 516.086L377.206 517.352H427.851Z" fill="white" stroke="#263238" stroke-width="1.1833" stroke-linecap="round" stroke-linejoin="round"/>
<path d="M399.807 517.281L397.168 502.549L401.321 493.851L400.185 476.847L403.593 480.255L426.644 517.281H399.807Z" fill="#CCCCCC" stroke="#263238" stroke-width="1.1833" stroke-linecap="round" stroke-linejoin="round"/>
<path d="M400.185 476.847L416.444 484.787L422.858 492.715L441.376 502.17L454.227 510.11L462.119 517.352L426.644 517.281L400.185 476.847Z" fill="white" stroke="#263238" stroke-width="1.1833" stroke-linecap="round" stroke-linejoin="round"/>
<path d="M349.576 481.072V497.555L341.813 517.02L371.218 517.399L365.018 482.101L377.383 470.777L360.9 419.28L365.018 455.323L349.576 481.072Z" fill="#CCCCCC" stroke="#263238" stroke-width="1.1833" stroke-linecap="round" stroke-linejoin="round"/>
<path d="M379.442 429.574L390.317 452.566L395.121 453.051L398.967 464.588" stroke="#263238" stroke-width="1.1833" stroke-miterlimit="10"/>
<path d="M386.743 499.129L388.4 504.501" stroke="#263238" stroke-width="1.1833" stroke-miterlimit="10"/>
<path d="M380.223 457.37L383.584 470.363L389.358 479.971L382.625 485.746L385.536 495.2" stroke="#263238" stroke-width="1.1833" stroke-miterlimit="10"/>
<path d="M242.83 193.186L218.69 219.585L217.862 171.188L241.895 142.008L242.83 193.186Z" fill="#CCCCCC" stroke="#263238" stroke-width="1.1833" stroke-linecap="round" stroke-linejoin="round"/>
<path d="M226.074 298.879L250.758 277.094C252.529 275.558 254.499 274.269 256.615 273.26C259.271 272 262.046 271.009 264.898 270.302C268.555 269.412 272.273 268.795 276.021 268.456C280.741 268.021 285.482 267.847 290.221 267.935C301.68 268.087 313.111 269.096 324.419 270.953C333.817 272.509 343.109 274.655 352.238 277.378C360.45 279.827 367.621 282.454 373.81 284.88C379.998 287.306 385.11 289.53 389.252 291.163L357.22 311.93C353.303 310.392 348.44 308.298 342.606 306.014C336.772 303.73 329.968 301.281 322.194 298.914C313.559 296.349 304.769 294.338 295.877 292.891C285.171 291.151 274.349 290.218 263.502 290.098C259.007 290.021 254.512 290.195 250.036 290.619C246.491 290.946 242.975 291.535 239.517 292.382C236.797 293.05 234.152 293.994 231.624 295.198C229.617 296.17 227.75 297.408 226.074 298.879Z" fill="#CCCCCC" stroke="#263238" stroke-width="1.1833" stroke-linecap="round" stroke-linejoin="round"/>
<path d="M304.669 477.013L276.814 487.663C279.248 486.758 281.58 485.6 283.772 484.207C285.713 482.969 287.46 481.45 288.955 479.699C290.366 478.04 291.457 476.135 292.174 474.078C292.911 471.888 293.256 469.585 293.191 467.274C293.171 463.244 291.934 459.313 289.641 455.998C286.701 452.098 282.946 448.888 278.637 446.59C272.43 443.2 265.907 440.425 259.159 438.307C251.113 435.597 241.41 432.923 229.991 430.142C214.439 426.521 199.21 421.629 184.458 415.517C171.134 410.057 158.627 402.786 147.29 393.91C136.877 385.775 128.3 375.533 122.121 363.854C115.856 351.442 112.612 337.726 112.655 323.823C112.595 318.175 112.991 312.532 113.838 306.949C114.647 301.581 115.913 296.292 117.625 291.14C119.31 286.091 121.436 281.201 123.979 276.526C126.541 271.847 129.507 267.401 132.842 263.237L152.023 239.181C144.95 247.981 139.508 257.976 135.954 268.693C134.125 274.139 132.771 279.733 131.907 285.413C131.03 291.327 130.634 297.302 130.724 303.28C130.714 318.02 134.18 332.553 140.841 345.702C147.395 358.083 156.482 368.945 167.513 377.58C178.73 386.609 192.066 394.146 206.893 400.453C222.502 406.944 238.618 412.144 255.077 416.002C267.206 418.96 277.418 421.812 285.926 424.687C293.068 426.956 299.968 429.925 306.527 433.55C311.828 436.639 315.627 439.905 318.135 443.502C320.58 447.006 321.905 451.169 321.934 455.441C322.013 457.888 321.652 460.329 320.869 462.648C320.114 464.811 318.967 466.817 317.484 468.564C315.903 470.405 314.056 472 312.006 473.297C309.698 474.791 307.239 476.036 304.669 477.013Z" fill="#CCCCCC" stroke="#263238" stroke-width="1.1833" stroke-linecap="round" stroke-linejoin="round"/>
<path d="M167.513 377.58C178.73 386.609 192.066 394.146 206.893 400.453C222.502 406.944 238.618 412.144 255.077 416.002C267.206 418.96 277.418 421.812 285.926 424.687C293.068 426.956 299.968 429.925 306.527 433.55C311.828 436.639 315.627 439.905 318.135 443.502C320.58 447.006 321.905 451.169 321.934 455.441C322.129 459.876 320.783 464.241 318.123 467.795C315.177 471.454 311.35 474.304 307 476.078C301.564 478.361 295.851 479.921 290.008 480.717C282.911 481.744 275.749 482.246 268.578 482.22C257.389 482.247 246.213 481.416 235.15 479.735C224.527 478.124 214.011 475.867 203.662 472.978C193.604 470.173 184.031 466.931 175.109 463.512C166.187 460.092 157.904 456.412 150.437 452.862L135.315 517.115H407.108C415.577 507.682 422.203 496.744 426.644 484.87C431.298 472.218 433.46 458.785 433.01 445.312C432.608 430.911 430.419 418.096 426.123 406.606C421.85 395.121 415.196 384.668 406.599 375.935C397.76 366.871 386.483 358.884 372.449 351.76C358.415 344.637 341.517 338.33 321.567 332.638C308.724 328.899 297.494 325.31 287.878 321.87C279.668 319.029 271.658 315.637 263.904 311.717C257.515 308.369 252.722 305.044 249.527 301.636C246.332 298.228 244.699 294.761 244.628 291.116C244.538 288.135 245.18 285.177 246.498 282.502C248.141 279.391 250.594 276.783 253.598 274.952C257.913 272.351 262.67 270.566 267.632 269.686C275.108 268.288 282.713 267.696 290.316 267.923C301.774 268.075 313.205 269.084 324.513 270.941C333.912 272.497 343.203 274.643 352.333 277.366C360.545 279.816 367.716 282.443 373.904 284.868C380.093 287.294 385.205 289.519 389.346 291.152L406.954 211.87C401.416 209.504 395.464 207.137 388.944 204.889C382.424 202.641 375.324 200.534 367.526 198.629C359.728 196.724 351.208 195.079 341.837 193.647C332.465 192.216 322.206 191.198 310.964 190.535L309.935 143.653L241.954 142.008L242.889 193.186C226.357 195.467 210.226 200.052 194.965 206.806C181.825 212.612 169.831 220.723 159.549 230.756C150.142 240.045 142.747 251.17 137.823 263.439C132.857 276.122 130.444 289.662 130.724 303.28C130.714 318.02 134.18 332.553 140.841 345.702C147.394 358.083 156.482 368.945 167.513 377.58Z" fill="white" stroke="#263238" stroke-width="1.1833" stroke-linecap="round" stroke-linejoin="round"/>
<path d="M135.315 517.115L150.437 452.826L131.067 464.943L118.737 517.115H135.315Z" fill="#CCCCCC" stroke="#263238" stroke-width="1.1833" stroke-linecap="round" stroke-linejoin="round"/>
<path d="M462.226 501.602C461.034 501.377 459.801 501.619 458.782 502.276L464.084 505.46C464.225 505.085 464.288 504.686 464.271 504.286C464.253 503.886 464.154 503.494 463.981 503.133C463.807 502.772 463.562 502.451 463.26 502.188C462.959 501.924 462.607 501.725 462.226 501.602Z" fill="#263238"/>
<path d="M463.717 459.713C463.717 459.713 464.427 456.731 464.451 456.542C464.687 454.305 463.823 449.832 461.516 448.803C461.128 448.644 460.71 448.568 460.291 448.581C459.872 448.594 459.46 448.696 459.082 448.879C458.705 449.062 458.37 449.323 458.1 449.644C457.831 449.965 457.632 450.34 457.516 450.744C456.96 452.436 457.8 454.459 458.759 455.844C459.895 457.477 463.717 459.701 463.717 459.713Z" fill="#263238"/>
<path d="M498.802 477.912C500.245 476.173 501.985 471.996 500.624 469.842C500.39 469.494 500.084 469.2 499.728 468.978C499.371 468.757 498.972 468.613 498.556 468.557C498.14 468.501 497.717 468.534 497.315 468.654C496.913 468.773 496.54 468.977 496.222 469.25C495.582 469.895 495.092 470.672 494.785 471.526C494.478 472.381 494.363 473.293 494.447 474.197C494.447 476.173 496.447 480.113 496.459 480.113C496.471 480.113 498.731 478.066 498.802 477.912Z" fill="#263238"/>
<path d="M450.05 494.36C451.721 495.428 453.55 496.227 455.469 496.727C455.315 497.602 455.162 498.478 454.972 499.318C454.972 499.531 454.866 499.744 454.818 499.969L455.931 500.632C456.002 500.289 456.073 499.934 456.156 499.59C456.428 498.206 456.653 496.798 456.83 495.378C458.729 496.078 460.725 496.477 462.747 496.561C463.661 496.537 464.558 496.313 465.376 495.904C466.194 495.495 466.912 494.911 467.48 494.195C467.707 493.84 467.857 493.441 467.92 493.025C467.983 492.609 467.958 492.184 467.847 491.778C467.735 491.371 467.54 490.993 467.273 490.668C467.005 490.342 466.673 490.076 466.296 489.887C464.013 488.81 460.06 491.071 458.51 492.715C458.416 492.822 457.445 494.124 456.925 494.857C457.031 493.993 457.138 493.141 457.221 492.266C457.445 489.757 457.599 487.201 457.753 484.657C457.753 483.888 457.86 483.107 457.919 482.291C458.25 482.409 462.131 483.71 464.025 483.474C465.693 483.296 467.787 482.61 468.758 481.107C468.985 480.753 469.135 480.356 469.198 479.94C469.261 479.525 469.236 479.101 469.124 478.696C469.013 478.29 468.817 477.913 468.55 477.589C468.283 477.264 467.951 476.999 467.574 476.812C465.291 475.735 461.338 477.995 459.788 479.64C459.682 479.77 458.274 481.652 457.942 482.137C458.061 480.433 458.203 478.729 458.404 477.048C458.658 474.79 459.054 472.549 459.587 470.339C459.741 470.339 463.8 471.771 465.728 471.522C467.409 471.345 469.491 470.659 470.462 469.156C470.689 468.802 470.839 468.405 470.902 467.989C470.965 467.574 470.94 467.149 470.828 466.744C470.717 466.339 470.521 465.962 470.254 465.637C469.987 465.313 469.654 465.048 469.278 464.86C466.995 463.772 463.042 466.044 461.504 467.689C461.374 467.819 459.871 469.842 459.623 470.221C459.623 470.091 459.682 469.96 459.717 469.83C460.337 467.633 461.148 465.495 462.143 463.44C462.676 462.257 463.255 461.228 463.835 460.21C464.569 460.541 467.918 462.032 469.669 462.044C471.42 462.056 473.503 461.606 474.591 460.186C474.858 459.862 475.053 459.484 475.164 459.079C475.274 458.674 475.299 458.25 475.235 457.835C475.172 457.42 475.021 457.023 474.794 456.67C474.567 456.316 474.268 456.015 473.917 455.785C471.775 454.459 467.598 456.281 465.882 457.749C465.788 457.832 464.924 458.743 464.309 459.417C464.581 458.956 464.853 458.482 465.125 458.045C466.131 456.423 467.148 455.004 468.06 453.737C468.58 453.027 469.065 452.4 469.527 451.809C471.569 451.769 473.593 451.413 475.526 450.755C477.017 449.986 478.721 448.59 479.076 446.839C479.156 446.432 479.15 446.013 479.059 445.609C478.968 445.204 478.794 444.823 478.548 444.489C478.302 444.156 477.99 443.877 477.631 443.67C477.271 443.463 476.873 443.334 476.461 443.289C473.941 443.111 471.077 446.649 470.225 448.732C470.154 448.921 469.326 451.868 469.373 451.868H469.432C468.971 452.424 468.486 453.051 467.977 453.69C467.03 454.933 465.977 456.341 464.936 457.95C463.8 459.674 462.761 461.459 461.824 463.298C460.766 465.358 459.894 467.509 459.22 469.724C459.22 469.724 459.22 469.783 459.22 469.807C459.22 469.061 459.114 467.002 459.09 466.837C458.723 464.612 456.724 460.53 454.215 460.151C453.798 460.101 453.376 460.139 452.975 460.263C452.574 460.386 452.203 460.592 451.887 460.868C451.57 461.143 451.315 461.481 451.137 461.861C450.959 462.241 450.863 462.654 450.854 463.074C450.772 464.86 452.121 466.624 453.41 467.677C454.878 468.86 458.842 470.043 459.161 470.043C458.533 472.313 458.055 474.621 457.729 476.954C457.528 478.315 457.374 479.687 457.244 481.072C457.244 480.433 457.173 479.888 457.161 479.782C456.795 477.557 454.795 473.463 452.286 473.096C451.87 473.045 451.447 473.081 451.046 473.204C450.645 473.327 450.274 473.533 449.958 473.809C449.642 474.085 449.388 474.424 449.212 474.805C449.036 475.186 448.943 475.6 448.937 476.019C448.855 477.794 450.204 479.569 451.493 480.61C453.219 481.679 455.099 482.477 457.067 482.977C457.067 483.497 456.96 484.03 456.925 484.562C456.7 487.107 456.499 489.639 456.215 492.124C456.12 492.999 455.99 493.863 455.86 494.715C455.86 494.147 455.86 493.674 455.86 493.603C455.493 491.378 453.493 487.296 450.985 486.917C450.568 486.866 450.146 486.902 449.745 487.025C449.343 487.148 448.973 487.354 448.657 487.63C448.341 487.906 448.086 488.245 447.91 488.626C447.735 489.007 447.641 489.421 447.636 489.84C447.411 491.544 448.76 493.283 450.05 494.36Z" fill="#263238"/>
<path d="M516.137 473.392C514.137 471.842 509.795 473.215 507.937 474.493C507.771 474.599 505.452 476.611 505.499 476.634C504.813 476.835 504.079 477.072 503.275 477.344C501.807 477.865 500.151 478.457 498.4 479.226C496.495 480.025 494.641 480.942 492.85 481.971C490.832 483.105 488.92 484.415 487.135 485.888L487.075 485.947C487.466 485.32 488.531 483.58 488.59 483.403C489.513 481.344 490.093 476.824 488.211 475.12C487.893 474.848 487.52 474.646 487.118 474.527C486.716 474.409 486.294 474.377 485.878 474.432C485.463 474.488 485.064 474.631 484.707 474.851C484.351 475.072 484.045 475.365 483.809 475.711C482.756 477.143 482.922 479.332 483.395 480.953C483.951 482.776 486.649 485.876 486.874 486.124C485.09 487.66 483.417 489.321 481.869 491.094C480.946 492.124 480.058 493.177 479.183 494.254C479.514 493.709 479.798 493.212 479.834 493.141C480.756 491.082 481.336 486.562 479.455 484.858C479.136 484.586 478.764 484.384 478.362 484.266C477.96 484.148 477.537 484.115 477.122 484.171C476.706 484.227 476.308 484.37 475.951 484.59C475.595 484.81 475.289 485.103 475.053 485.45C474 486.882 474.165 489.083 474.651 490.692C475.502 492.531 476.631 494.227 477.999 495.721L477.005 496.904C475.42 498.916 473.846 500.916 472.272 502.821C471.716 503.495 471.089 504.146 470.556 504.785L471.113 503.815C472.036 501.768 472.615 497.247 470.734 495.532C470.415 495.26 470.043 495.058 469.641 494.939C469.239 494.821 468.816 494.789 468.401 494.844C467.986 494.9 467.587 495.043 467.23 495.263C466.874 495.484 466.568 495.777 466.332 496.123C465.279 497.555 465.445 499.744 465.93 501.365C466.72 503.228 467.807 504.95 469.148 506.465L467.965 507.743L469.006 508.37C469.728 507.625 470.426 506.844 471.124 506.004C472.327 507.62 473.772 509.041 475.408 510.216C476.184 510.69 477.054 510.989 477.958 511.091C478.861 511.193 479.776 511.097 480.638 510.808C481.023 510.642 481.368 510.396 481.652 510.088C481.935 509.779 482.15 509.414 482.283 509.016C482.416 508.619 482.464 508.198 482.423 507.781C482.382 507.364 482.254 506.96 482.046 506.596C480.733 504.43 476.13 504.146 474 504.667C473.858 504.667 472.331 505.247 471.491 505.566C472.047 504.903 472.615 504.253 473.16 503.566C474.733 501.602 476.272 499.555 477.81 497.52L479.23 495.674C479.443 495.946 481.975 499.224 483.656 500.052C484.43 500.523 485.298 500.82 486.2 500.923C487.101 501.025 488.013 500.93 488.874 500.644C489.259 500.477 489.604 500.232 489.887 499.923C490.171 499.614 490.386 499.249 490.519 498.852C490.652 498.454 490.699 498.033 490.659 497.616C490.618 497.199 490.489 496.795 490.282 496.431C488.98 494.266 484.437 493.97 482.236 494.49C482.07 494.49 479.869 495.331 479.325 495.555C480.366 494.195 481.419 492.857 482.52 491.568C483.985 489.822 485.566 488.177 487.253 486.645C487.347 486.775 489.963 490.195 491.69 491.059C493.181 491.84 495.299 492.42 496.909 491.65C497.294 491.485 497.641 491.241 497.925 490.932C498.21 490.624 498.427 490.259 498.561 489.862C498.695 489.464 498.743 489.043 498.703 488.625C498.663 488.207 498.536 487.803 498.329 487.438C497.015 485.272 492.471 484.988 490.282 485.497C490.105 485.497 487.738 486.397 487.312 486.586L487.608 486.302C489.336 484.811 491.193 483.477 493.158 482.314C494.234 481.652 495.299 481.131 496.352 480.563C496.778 481.237 498.719 484.326 500.21 485.296C501.701 486.266 503.653 487.036 505.334 486.479C505.734 486.356 506.104 486.149 506.42 485.873C506.736 485.597 506.99 485.258 507.166 484.878C507.342 484.497 507.437 484.084 507.443 483.665C507.45 483.246 507.368 482.83 507.203 482.444C506.138 480.149 501.654 479.368 499.417 479.64C499.287 479.64 498.068 479.948 497.181 480.172C497.666 479.936 498.151 479.687 498.613 479.474C500.352 478.67 501.985 478.042 503.44 477.498L505.736 476.705C507.46 477.792 509.339 478.609 511.309 479.131C512.204 479.293 513.123 479.258 514.002 479.027C514.881 478.796 515.699 478.375 516.398 477.794C516.689 477.498 516.915 477.144 517.061 476.755C517.207 476.365 517.27 475.95 517.246 475.535C517.221 475.12 517.11 474.715 516.919 474.346C516.728 473.977 516.462 473.652 516.137 473.392Z" fill="#263238"/>
<path d="M455.801 517.304L457.161 518.145L458.001 517.529L458.321 517.293L455.801 517.304Z" fill="#263238"/>
<path d="M63.7605 439.017C63.4092 439.245 63.1098 439.545 62.8816 439.896C62.6533 440.248 62.5014 440.643 62.4356 441.057C62.3698 441.471 62.3916 441.894 62.4995 442.299C62.6075 442.703 62.7993 443.081 63.0624 443.407C63.9082 444.386 65.0907 445.011 66.3756 445.158L68.9197 439.348C67.1329 438.544 65.074 438.165 63.7605 439.017Z" fill="#263238"/>
<path d="M75.5345 431.385C74.7342 431.983 74.1656 432.841 73.9252 433.811L78.3862 431.314C77.9469 431.073 77.4516 430.953 76.9508 430.965C76.4499 430.978 75.9613 431.122 75.5345 431.385Z" fill="#263238"/>
<path d="M76.2917 389.094C77.8064 390.372 82.0781 391.531 82.0781 391.531C82.0781 391.531 81.9953 388.478 81.9598 388.289C81.6048 386.064 79.5932 381.97 77.12 381.58C76.7035 381.524 76.2799 381.558 75.8774 381.679C75.4748 381.799 75.1024 382.004 74.7848 382.279C74.4671 382.554 74.2115 382.893 74.0348 383.275C73.858 383.656 73.7642 384.07 73.7595 384.491C73.7121 386.265 75.1084 388.005 76.2917 389.094Z" fill="#263238"/>
<path d="M45.1354 402.512C45.1354 402.512 43.3723 400.015 43.2421 399.873C41.7275 398.217 37.7989 395.898 35.5033 396.951C35.1276 397.137 34.7954 397.401 34.5285 397.724C34.2616 398.048 34.0659 398.424 33.9542 398.828C33.8425 399.232 33.8174 399.655 33.8804 400.07C33.9435 400.485 34.0932 400.881 34.32 401.234C35.2193 402.773 37.2901 403.483 38.9704 403.684C40.9228 403.909 45.1354 402.524 45.1354 402.512Z" fill="#263238"/>
<path d="M42.9108 393.069C43.0291 393.779 43.1593 394.537 43.3131 395.365C43.6208 396.892 43.9758 398.607 44.4964 400.453C45.0236 402.463 45.6717 404.439 46.4371 406.37C47.2819 408.524 48.3154 410.598 49.5255 412.57V412.641C48.9693 412.168 47.3482 410.866 47.1589 410.784C45.2537 409.6 40.8519 408.417 38.8757 410.003C38.5624 410.282 38.3116 410.625 38.1399 411.008C37.9683 411.392 37.8795 411.807 37.8795 412.227C37.8795 412.647 37.9683 413.063 38.1399 413.446C38.3116 413.829 38.5624 414.172 38.8757 414.452C40.1537 415.694 42.3428 415.836 44.0113 415.635C45.8927 415.351 49.3361 413.091 49.6083 412.913C50.8986 414.887 52.3136 416.776 53.8445 418.57C54.732 419.611 55.655 420.64 56.6016 421.658L55.584 420.853C53.6789 419.67 49.277 418.487 47.3009 420.084C46.9891 420.365 46.7399 420.708 46.5693 421.091C46.3987 421.475 46.3105 421.889 46.3105 422.309C46.3105 422.728 46.3987 423.143 46.5693 423.526C46.7399 423.91 46.9891 424.253 47.3009 424.534C48.0234 425.083 48.8573 425.469 49.7444 425.663C50.6314 425.857 51.5502 425.855 52.4364 425.658C54.3766 425.067 56.2158 424.185 57.8914 423.043C58.2582 423.421 58.6132 423.812 58.9801 424.226C60.7432 426.072 62.53 427.906 64.1866 429.764C64.7782 430.414 65.3699 431.077 65.9024 431.74L65.0149 431.053C63.1098 429.87 58.7079 428.687 56.7318 430.272C56.4201 430.553 56.1708 430.896 56.0002 431.28C55.8296 431.663 55.7415 432.078 55.7415 432.497C55.7415 432.917 55.8296 433.331 56.0002 433.715C56.1708 434.098 56.4201 434.441 56.7318 434.722C58.0098 435.964 60.2107 436.106 61.8673 435.905C63.7583 435.34 65.5505 434.486 67.1804 433.373C67.7365 434.059 68.2927 434.757 68.8015 435.467C69.1328 435.952 69.4878 436.39 69.7955 436.899V436.97L70.2451 435.952L70.5054 435.799L69.7363 434.757C68.8843 433.633 67.9732 432.533 67.0265 431.456C68.7805 430.484 70.3765 429.251 71.7597 427.799C72.336 427.096 72.7521 426.275 72.9789 425.394C73.2057 424.513 73.2379 423.594 73.0732 422.699C72.9616 422.296 72.7661 421.92 72.4996 421.597C72.2331 421.274 71.9014 421.01 71.5263 420.824C71.1512 420.637 70.7411 420.532 70.3225 420.515C69.904 420.497 69.4865 420.568 69.0973 420.723C66.7307 421.717 65.8551 426.178 66.068 428.415C66.068 428.557 66.4112 430.154 66.6124 431.03C66.0325 430.379 65.4291 429.728 64.8729 429.089C63.1335 427.255 61.323 425.456 59.5244 423.646L57.8914 421.989C58.1872 421.812 61.7372 419.765 62.8376 418.215C63.488 417.524 63.972 416.693 64.253 415.787C64.5339 414.881 64.6043 413.922 64.4588 412.984C64.3468 412.581 64.1513 412.205 63.885 411.882C63.6187 411.558 63.2875 411.294 62.9127 411.107C62.5379 410.919 62.128 410.813 61.7095 410.794C61.2909 410.775 60.873 410.844 60.4829 410.997C58.1162 411.99 57.2406 416.452 57.4536 418.7C57.4536 418.865 57.9388 421.161 58.0926 421.741C56.9093 420.558 55.726 419.28 54.5427 418.025C53.0218 416.329 51.6145 414.535 50.3301 412.653C50.4721 412.57 54.1877 410.44 55.3118 408.867C55.8879 408.165 56.3038 407.346 56.5307 406.468C56.7576 405.589 56.7898 404.671 56.6253 403.778C56.5192 403.367 56.3269 402.984 56.0613 402.653C55.7956 402.322 55.4626 402.051 55.0844 401.859C54.7062 401.666 54.2914 401.557 53.8675 401.537C53.4436 401.517 53.0203 401.587 52.6257 401.743C50.2591 402.737 49.3835 407.198 49.5965 409.446C49.5965 409.624 50.129 412.085 50.2473 412.523L50.0106 412.203C48.7751 410.281 47.71 408.253 46.8275 406.145C46.3306 404.962 45.9164 403.849 45.5377 402.737C47.4379 401.961 49.2062 400.895 50.7798 399.578C51.4264 398.943 51.9266 398.174 52.2454 397.326C52.5643 396.478 52.694 395.57 52.6257 394.667C52.5533 394.257 52.3961 393.866 52.1641 393.52C51.9322 393.174 51.6306 392.881 51.2787 392.658C50.9267 392.435 50.5322 392.288 50.1203 392.227C49.7084 392.165 49.2882 392.19 48.8865 392.3C46.5199 393.034 45.0763 397.365 45.0289 399.625C45.0289 399.743 45.1472 400.998 45.2419 401.909C45.0881 401.4 44.9106 400.879 44.7568 400.394C44.2006 398.572 43.8101 396.844 43.4788 395.341C43.2895 394.478 43.1356 393.697 43.0055 392.975C44.3245 391.417 45.3942 389.665 46.1767 387.78C46.4642 386.919 46.5592 386.006 46.4549 385.104C46.3506 384.202 46.0497 383.334 45.5732 382.562C45.3239 382.224 45.0062 381.943 44.6408 381.737C44.2755 381.531 43.8707 381.404 43.4531 381.365C43.0354 381.326 42.6141 381.376 42.2169 381.51C41.8196 381.645 41.4553 381.862 41.1477 382.148C39.3372 383.911 40.0827 388.395 41.1477 390.431C41.2187 390.502 42.8871 393.105 42.9108 393.069Z" fill="#263238"/>
<path d="M74.15 401.838C75.8776 402.631 79.9955 402.654 80.3268 402.666C80.3013 405.039 80.4357 407.411 80.7291 409.766C80.8948 411.127 81.1078 412.499 81.3326 413.86C81.1315 413.257 80.954 412.677 80.9185 412.677C79.9955 410.618 76.9899 407.198 74.4813 407.482C74.0658 407.541 73.6673 407.686 73.3116 407.909C72.956 408.132 72.6511 408.427 72.4168 408.775C72.1825 409.123 72.0239 409.516 71.9515 409.93C71.8791 410.343 71.8944 410.767 71.9964 411.174C72.375 412.913 74.1263 414.239 75.6646 414.949C77.6057 415.532 79.6255 415.811 81.6521 415.777C81.7468 416.298 81.8296 416.818 81.9243 417.339C82.3739 419.859 82.8354 422.356 83.2141 424.829C83.3442 425.705 83.4389 426.569 83.5454 427.433L83.1904 426.368C82.2556 424.309 79.25 420.889 76.7414 421.173C76.3312 421.232 75.938 421.376 75.5867 421.596C75.2354 421.816 74.9337 422.107 74.701 422.45C74.4683 422.793 74.3096 423.18 74.2351 423.588C74.1606 423.996 74.1719 424.414 74.2683 424.817C74.647 426.557 76.3982 427.882 77.9247 428.592C79.2267 429.05 80.5921 429.301 81.9716 429.338L84.7287 427.788L86.906 426.604L92.858 420.084C92.7233 420.034 92.5848 419.994 92.4438 419.966C89.9589 419.516 86.7285 422.723 85.6635 424.699C85.6635 424.829 85.0009 426.344 84.6814 427.172C84.563 426.32 84.4447 425.468 84.2909 424.604C83.8649 422.12 83.3442 419.623 82.8472 417.114C82.6816 416.357 82.5396 415.588 82.3976 414.819C82.7408 414.819 86.835 415.091 88.5981 414.416C90.1719 413.813 92.0178 412.606 92.503 410.866C92.6252 410.467 92.6623 410.047 92.612 409.633C92.5616 409.219 92.425 408.82 92.2109 408.462C91.9968 408.104 91.7099 407.795 91.3689 407.555C91.0279 407.315 90.6402 407.149 90.2311 407.068C87.7461 406.618 84.5275 409.825 83.4626 411.801C83.3797 411.955 82.5159 414.168 82.2793 414.7C81.9598 413.008 81.6521 411.328 81.4155 409.659C81.0808 407.406 80.895 405.133 80.8593 402.855C81.025 402.855 85.2967 403.139 87.1071 402.453C87.9772 402.181 88.7775 401.723 89.452 401.11C90.1264 400.497 90.6589 399.743 91.012 398.903C91.1423 398.505 91.1872 398.083 91.1435 397.666C91.0999 397.249 90.9689 396.846 90.759 396.483C90.549 396.12 90.265 395.806 89.9252 395.56C89.5855 395.314 89.1978 395.143 88.7874 395.057C86.3025 394.596 83.0721 397.815 82.0071 399.791C81.9243 399.944 81.0013 402.287 80.8238 402.725C80.8238 402.595 80.8238 402.453 80.8238 402.323C80.8591 400.04 81.0887 397.763 81.5101 395.519C81.7349 394.276 82.0189 393.152 82.3148 391.969C83.1076 392.099 86.7285 392.667 88.4206 392.217C90.1127 391.768 91.9705 390.797 92.6923 389.153C92.8644 388.771 92.9543 388.357 92.9563 387.938C92.9583 387.519 92.8723 387.104 92.7038 386.72C92.5354 386.337 92.2883 385.992 91.9786 385.71C91.6688 385.428 91.3032 385.214 90.9055 385.082C88.5389 384.36 84.989 387.2 83.6519 389.058C83.5809 389.153 82.9892 390.241 82.5633 391.07C82.7053 390.561 82.8472 390.028 82.9892 389.543C83.5454 387.721 84.1725 386.076 84.705 384.621C85.0364 383.804 85.344 383.071 85.628 382.384C86.48 382.1 89.8642 380.964 91.1422 379.805C92.4202 378.645 93.6745 376.882 93.5088 375.071C93.486 374.652 93.3752 374.242 93.1838 373.869C92.9923 373.495 92.7244 373.166 92.3974 372.903C92.0705 372.639 91.6918 372.448 91.2859 372.34C90.8801 372.233 90.4562 372.212 90.0417 372.279C87.5568 372.752 85.7108 376.917 85.4268 379.154C85.4268 379.355 85.4268 382.42 85.4268 382.408C85.131 383.071 84.8234 383.769 84.492 384.55C83.9122 385.993 83.3087 387.626 82.6697 389.449C82.0162 391.408 81.4749 393.403 81.0486 395.424C80.6019 397.702 80.3565 400.014 80.315 402.335V402.418C80.1138 401.708 79.4748 399.731 79.4157 399.589C78.4809 397.53 75.4753 394.111 72.9667 394.395C72.5514 394.453 72.1531 394.599 71.7979 394.821C71.4426 395.044 71.1384 395.34 70.905 395.688C70.6716 396.036 70.5143 396.43 70.4434 396.843C70.3725 397.257 70.3896 397.68 70.4936 398.087C70.8722 399.802 72.6235 401.151 74.15 401.838Z" fill="#263238"/>
<path d="M245.764 428.083C245.349 428.142 244.951 428.287 244.596 428.51C244.24 428.733 243.936 429.028 243.703 429.377C243.469 429.725 243.312 430.119 243.241 430.532C243.17 430.945 243.187 431.369 243.291 431.775C243.587 432.634 244.068 433.417 244.7 434.069C245.332 434.721 246.099 435.227 246.948 435.55C248.112 435.969 249.333 436.208 250.569 436.26L251.622 435.006L252.213 433.29C251.279 431.219 248.273 427.799 245.764 428.083Z" fill="#263238"/>
<path d="M232.783 445.963C232.432 446.191 232.133 446.491 231.904 446.842C231.676 447.194 231.524 447.589 231.459 448.003C231.393 448.417 231.415 448.84 231.522 449.245C231.63 449.649 231.822 450.027 232.085 450.353C233.15 451.785 235.304 452.246 236.984 452.246C238.084 452.166 239.165 451.919 240.191 451.513L240.877 448.058L240.806 447.987C239.102 446.507 234.937 444.661 232.783 445.963Z" fill="#263238"/>
<path d="M244.557 438.39C242.629 439.573 242.25 443.384 242.593 445.726L248.261 438.993C247.814 438.472 247.197 438.126 246.52 438.015C245.842 437.905 245.147 438.038 244.557 438.39Z" fill="#263238"/>
<path d="M227.08 429.929C227.447 430.308 227.802 430.699 228.169 431.113C229.932 432.959 231.718 434.793 233.375 436.651C233.967 437.301 234.558 437.964 235.091 438.627L234.203 437.94C232.298 436.757 227.896 435.574 225.92 437.159C225.609 437.44 225.359 437.783 225.189 438.166C225.018 438.55 224.93 438.964 224.93 439.384C224.93 439.803 225.018 440.218 225.189 440.601C225.359 440.985 225.609 441.328 225.92 441.609C227.198 442.851 229.399 442.993 231.056 442.792C232.947 442.227 234.739 441.373 236.369 440.26C236.925 440.958 237.481 441.644 237.99 442.354C238.321 442.839 238.676 443.277 238.984 443.786L239.919 445.253C240.345 445.987 240.783 446.72 241.197 447.442L242.108 446.365C241.753 445.774 241.386 445.182 240.996 444.555L240.025 443.1C239.718 442.614 239.327 442.129 238.972 441.644C238.12 440.461 237.209 439.419 236.262 438.343C238.016 437.371 239.612 436.138 240.996 434.686C241.572 433.983 241.988 433.162 242.215 432.281C242.442 431.4 242.474 430.481 242.309 429.586C242.204 429.185 242.016 428.81 241.758 428.485C241.5 428.16 241.176 427.893 240.809 427.7C240.441 427.507 240.038 427.394 239.623 427.366C239.209 427.338 238.794 427.397 238.404 427.539C236.038 428.533 235.162 432.994 235.375 435.231C235.375 435.373 235.718 436.97 235.919 437.846C235.339 437.195 234.736 436.544 234.18 435.917C232.44 434.083 230.63 432.272 228.831 430.462L227.198 428.805C227.494 428.628 231.044 426.581 232.144 425.03C232.721 424.329 233.138 423.511 233.365 422.632C233.591 421.753 233.623 420.835 233.458 419.942C233.346 419.539 233.151 419.163 232.884 418.839C232.618 418.516 232.287 418.252 231.912 418.065C231.537 417.877 231.127 417.771 230.709 417.752C230.29 417.733 229.872 417.802 229.482 417.954C227.115 418.948 226.24 423.409 226.453 425.658C226.453 425.823 226.938 428.119 227.092 428.699C225.908 427.515 224.725 426.237 223.542 424.983C222.021 423.287 220.614 421.492 219.329 419.611C219.471 419.528 223.187 417.398 224.311 415.824C224.887 415.123 225.303 414.304 225.53 413.425C225.757 412.547 225.789 411.629 225.624 410.736C225.513 410.332 225.317 409.957 225.051 409.633C224.784 409.31 224.453 409.046 224.078 408.858C223.704 408.671 223.294 408.564 222.875 408.545C222.457 408.526 222.039 408.596 221.649 408.748C219.282 409.742 218.406 414.203 218.619 416.452C218.619 416.629 219.152 419.09 219.27 419.528L219.033 419.209C217.798 417.286 216.733 415.259 215.85 413.15C215.353 411.967 214.939 410.855 214.561 409.742C216.458 408.966 218.226 407.905 219.803 406.595C220.927 405.328 222.004 403.423 221.66 401.672C221.588 401.262 221.431 400.871 221.199 400.526C220.967 400.18 220.665 399.886 220.313 399.663C219.961 399.44 219.567 399.294 219.155 399.232C218.743 399.17 218.323 399.195 217.921 399.305C215.555 400.039 214.111 404.382 214.064 406.63C214.064 406.748 214.182 408.003 214.277 408.914C214.123 408.405 213.945 407.884 213.791 407.399C213.235 405.577 212.845 403.849 212.513 402.347C212.324 401.483 212.17 400.702 212.04 399.98C213.359 398.423 214.429 396.67 215.211 394.785C215.499 393.924 215.594 393.011 215.49 392.109C215.385 391.207 215.084 390.34 214.608 389.567C214.359 389.23 214.041 388.949 213.676 388.742C213.31 388.536 212.905 388.409 212.488 388.37C212.07 388.331 211.649 388.381 211.252 388.516C210.854 388.65 210.49 388.867 210.182 389.153C208.372 390.916 209.117 395.412 210.182 397.436C210.277 397.613 211.946 400.181 211.969 400.146C212.088 400.856 212.218 401.613 212.371 402.441C212.679 403.968 213.034 405.683 213.555 407.529C214.082 409.539 214.73 411.515 215.495 413.446C216.343 415.602 217.376 417.681 218.584 419.658C218.589 419.678 218.589 419.698 218.584 419.717C218.028 419.244 216.407 417.942 216.276 417.86C214.371 416.676 209.969 415.493 207.993 417.091C207.682 417.37 207.433 417.712 207.262 418.095C207.092 418.477 207.004 418.891 207.004 419.309C207.004 419.728 207.092 420.142 207.262 420.524C207.433 420.906 207.682 421.248 207.993 421.528C209.271 422.782 211.46 422.912 213.129 422.711C215.01 422.427 218.454 420.167 218.726 419.99C220.016 421.963 221.431 423.852 222.962 425.646C223.85 426.687 224.773 427.717 225.719 428.734L224.702 427.93C222.796 426.746 218.395 425.563 216.418 427.16C216.105 427.44 215.854 427.783 215.683 428.166C215.511 428.55 215.422 428.965 215.422 429.385C215.422 429.805 215.511 430.22 215.683 430.604C215.854 430.987 216.105 431.33 216.418 431.61C217.685 432.852 219.885 432.994 221.542 432.734C223.522 432.092 225.391 431.146 227.08 429.929Z" fill="#263238"/>
<path d="M245.362 396.099C246.877 397.377 251.148 398.536 251.148 398.536C251.148 398.536 251.065 395.483 251.03 395.294C250.675 393.069 248.663 388.975 246.19 388.585C245.774 388.531 245.351 388.567 244.949 388.688C244.548 388.809 244.176 389.014 243.859 389.289C243.542 389.563 243.286 389.902 243.109 390.282C242.931 390.663 242.836 391.076 242.83 391.496C242.735 393.271 244.072 395.01 245.362 396.099Z" fill="#263238"/>
<path d="M214.158 409.529C214.158 409.529 212.395 407.021 212.265 406.879C210.75 405.222 206.822 402.903 204.526 403.956C204.151 404.142 203.818 404.406 203.551 404.729C203.285 405.053 203.089 405.429 202.977 405.833C202.865 406.237 202.84 406.661 202.903 407.075C202.966 407.49 203.116 407.887 203.343 408.239C204.242 409.778 206.313 410.488 207.993 410.689C210.005 410.914 214.158 409.529 214.158 409.529Z" fill="#263238"/>
<path d="M243.137 408.843C244.865 409.636 248.983 409.671 249.314 409.671C249.291 412.024 249.426 414.377 249.717 416.712C249.882 418.073 250.095 419.445 250.32 420.818C250.119 420.203 249.941 419.635 249.906 419.635C248.983 417.576 245.977 414.156 243.469 414.44C243.053 414.499 242.655 414.644 242.299 414.867C241.943 415.089 241.639 415.384 241.404 415.733C241.17 416.081 241.011 416.474 240.939 416.887C240.867 417.301 240.882 417.725 240.984 418.132C241.362 419.871 243.114 421.197 244.652 421.907C246.593 422.49 248.613 422.769 250.64 422.735C250.734 423.255 250.817 423.776 250.912 424.297C251.361 426.817 251.823 429.326 252.202 431.787C252.202 432.154 252.284 432.521 252.332 432.888L253.077 430.758C252.675 428.557 252.225 426.344 251.787 424.131C251.634 423.374 251.48 422.605 251.338 421.847C252.951 421.944 254.57 421.909 256.177 421.741L258.26 415.718L259.905 414.286C259.688 414.179 259.457 414.104 259.219 414.061C256.734 413.612 253.515 416.818 252.45 418.794C252.367 418.948 251.503 421.161 251.267 421.694C250.947 420.001 250.64 418.321 250.403 416.653C250.068 414.399 249.883 412.126 249.847 409.849C250.012 409.849 254.284 410.133 256.095 409.446C256.965 409.175 257.765 408.716 258.439 408.103C259.114 407.49 259.646 406.737 260 405.896C260.13 405.498 260.175 405.076 260.131 404.66C260.087 404.243 259.956 403.839 259.746 403.477C259.537 403.114 259.252 402.799 258.913 402.553C258.573 402.308 258.185 402.136 257.775 402.051C255.29 401.589 252.06 404.808 250.995 406.784C250.912 406.938 249.989 409.281 249.811 409.719C249.811 409.588 249.811 409.458 249.811 409.316C249.847 407.033 250.076 404.757 250.498 402.512C250.722 401.329 251.006 400.146 251.302 398.962C252.095 399.092 255.716 399.66 257.408 399.211C259.1 398.761 260.958 397.791 261.68 396.146C261.852 395.764 261.942 395.35 261.944 394.931C261.946 394.512 261.86 394.097 261.691 393.714C261.523 393.33 261.276 392.986 260.966 392.704C260.656 392.421 260.291 392.207 259.893 392.075C257.526 391.354 253.977 394.194 252.639 396.051C252.568 396.146 251.977 397.235 251.551 398.063C251.693 397.554 251.835 397.022 251.977 396.537C252.533 394.714 253.16 393.069 253.693 391.614C254.024 390.798 254.332 390.064 254.615 389.378C255.467 389.094 258.852 387.958 260.13 386.798C261.408 385.638 262.662 383.875 262.496 382.065C262.473 381.646 262.363 381.236 262.171 380.862C261.98 380.489 261.712 380.159 261.385 379.896C261.058 379.633 260.679 379.441 260.273 379.334C259.868 379.226 259.444 379.205 259.029 379.272C256.544 379.745 254.698 383.911 254.426 386.147C254.426 386.348 254.367 389.413 254.426 389.401C254.13 390.064 253.823 390.762 253.503 391.543C252.912 392.987 252.261 394.62 251.669 396.442C251.016 398.401 250.474 400.396 250.048 402.418C249.567 404.684 249.286 406.989 249.208 409.304V409.435C249.007 408.725 248.368 406.748 248.308 406.606C247.374 404.547 244.368 401.128 241.859 401.412C241.444 401.47 241.046 401.616 240.691 401.838C240.335 402.061 240.031 402.357 239.798 402.705C239.564 403.053 239.407 403.447 239.336 403.86C239.265 404.274 239.282 404.697 239.386 405.104C239.895 406.808 241.646 408.133 243.137 408.843Z" fill="#263238"/>
<path d="M422.573 305.493L417.852 299.636L422.1 296.287L424.952 299.849L423.982 302.109L424.786 303.908L423.118 305.103" fill="white"/>
<path d="M422.573 305.493L417.852 299.636L422.1 296.287L424.952 299.849L423.982 302.109L424.786 303.908L423.118 305.103" stroke="#263238" stroke-width="1.1833" stroke-linecap="round" stroke-linejoin="round"/>
<path d="M460.865 315.658C460.865 315.658 457.635 312.771 456.428 312.96C455.221 313.149 439.388 315.8 439.388 315.8L424.822 303.908L422.597 305.493L436.536 322.982L451.683 322.036L448.429 338.602L434.643 349.086L457.126 362.517L461.658 348.222L479.561 330.591L472.604 321.87L460.865 315.658Z" fill="white" stroke="#263238" stroke-width="1.1833" stroke-linecap="round" stroke-linejoin="round"/>
<path d="M465.48 311.836L462.936 317.184L462.001 316.332L460.214 329.337L472.615 321.823L471.373 319.858L471.657 315.8L465.48 311.836Z" fill="white" stroke="#263238" stroke-width="1.1833" stroke-linecap="round" stroke-linejoin="round"/>
<path d="M460.214 329.337L467.468 324.935L461.409 320.675L460.214 329.337Z" fill="white" stroke="#263238" stroke-width="1.1833" stroke-linecap="round" stroke-linejoin="round"/>
<path d="M479.798 299.092C479.798 299.092 485.277 292.678 490.85 296.725C496.423 300.772 494.885 304.724 498.861 302.559C502.837 300.393 510.304 294.891 514.8 301.896C519.297 308.901 515.83 316.238 513.001 317.918C510.173 319.598 510.919 316.391 510.978 314.841C511.037 313.291 506.399 311.291 505.369 314.486C504.34 317.681 498.932 322.604 492.069 322.142C485.206 321.681 483.88 313.244 484.034 308.286C484.024 306.798 483.627 305.338 482.883 304.049C482.138 302.761 481.071 301.689 479.786 300.937L479.798 299.092Z" fill="#263238" stroke="#263238" stroke-width="1.1833" stroke-linecap="round" stroke-linejoin="round"/>
<path d="M466.663 297.766C466.663 297.766 463.232 305.41 463.942 309.919C464.652 314.427 464.273 317.894 466.569 318.77C468.864 319.646 476.473 315.042 478.153 312.001C479.833 308.96 482.236 304.57 481.573 300.358C480.91 296.145 472.84 290.016 466.663 297.766Z" fill="white" stroke="#263238" stroke-width="1.1833" stroke-linecap="round" stroke-linejoin="round"/>
<path d="M467.965 305.789C467.787 306.381 467.409 306.783 467.113 306.688C466.817 306.594 466.723 306.049 466.9 305.505C467.077 304.961 467.456 304.511 467.752 304.606C468.048 304.7 468.095 305.197 467.965 305.789Z" fill="#263238"/>
<path d="M473.432 308.061C473.254 308.653 472.864 309.067 472.568 308.972C472.272 308.877 472.177 308.333 472.355 307.789C472.532 307.244 472.923 306.795 473.219 306.878C473.515 306.96 473.609 307.469 473.432 308.061Z" fill="#263238"/>
<path d="M469.349 306.771C469.349 306.771 469.704 307.031 469.207 307.954C468.71 308.877 467.515 308.546 467.645 309.339C467.776 310.132 469.278 310.522 469.278 310.522" stroke="#263238" stroke-width="1.1833" stroke-linecap="round" stroke-linejoin="round"/>
<path d="M466.592 311.895C466.592 311.895 468.497 313.693 470.201 313.256" stroke="#263238" stroke-width="1.1833" stroke-linecap="round" stroke-linejoin="round"/>
<path d="M475.23 306.168L471.692 305.268" stroke="#263238" stroke-width="1.1833" stroke-linecap="round" stroke-linejoin="round"/>
<path d="M468.9 303.931L467.208 302.417" stroke="#263238" stroke-width="1.1833" stroke-linecap="round" stroke-linejoin="round"/>
<path d="M466.663 297.766C466.663 297.766 466.155 298.95 465.563 300.571C467.563 299.529 471.006 298.358 474.154 300.299C477.301 302.239 478.887 306.7 479.526 309.434C480.863 306.724 482.058 303.517 481.573 300.358C480.91 296.145 472.84 290.016 466.663 297.766Z" fill="#263238" stroke="#263238" stroke-width="1.1833" stroke-linecap="round" stroke-linejoin="round"/>
<path d="M478.709 309.315C478.709 309.315 481.171 307.055 481.076 309.114C480.981 311.173 478.153 312.392 477.526 312.487C476.899 312.581 476.946 311.788 476.946 311.788" fill="white"/>
<path d="M478.709 309.315C478.709 309.315 481.171 307.055 481.076 309.114C480.981 311.173 478.153 312.392 477.526 312.487C476.899 312.581 476.946 311.788 476.946 311.788" stroke="#263238" stroke-width="1.1833" stroke-linecap="round" stroke-linejoin="round"/>
<path d="M479.55 330.603L475.763 357.594C475.68 358.169 475.397 358.696 474.965 359.083C474.532 359.47 473.977 359.693 473.396 359.712H472.58C471.95 359.736 471.335 359.517 470.862 359.101C470.389 358.685 470.093 358.103 470.036 357.476L468.557 341.241L479.55 330.603Z" fill="white" stroke="#263238" stroke-width="1.1833" stroke-linecap="round" stroke-linejoin="round"/>
<path d="M472.698 353.89L460.546 343.17L457.824 345.453L469.491 358.955C469.747 359.231 470.062 359.445 470.413 359.58C470.763 359.716 471.14 359.769 471.515 359.736H472.473C472.841 359.721 473.2 359.624 473.525 359.452C473.851 359.28 474.133 359.038 474.353 358.744C474.573 358.449 474.725 358.109 474.797 357.748C474.868 357.388 474.859 357.016 474.769 356.659" fill="white"/>
<path d="M472.698 353.89L460.546 343.17L457.824 345.453L469.491 358.955C469.747 359.231 470.062 359.445 470.413 359.58C470.763 359.716 471.14 359.769 471.515 359.736H472.473C472.841 359.721 473.2 359.624 473.525 359.452C473.851 359.28 474.133 359.038 474.353 358.744C474.573 358.449 474.725 358.109 474.797 357.748C474.868 357.388 474.859 357.016 474.769 356.659" stroke="#263238" stroke-width="1.1833" stroke-linecap="round" stroke-linejoin="round"/>
<path d="M460.546 343.158L457.694 338.602L451.28 337.892L451.316 341.714L454.392 344.282L456.345 344.554L457.824 345.442L460.546 343.158Z" fill="white" stroke="#263238" stroke-width="1.1833" stroke-linecap="round" stroke-linejoin="round"/>
<path d="M426.206 357.369C426.206 357.369 412.811 374.799 413.545 377.687C414.279 380.574 433.85 411.138 433.85 411.138L436.572 409.34L425.816 375.758L447.435 367.155L426.206 357.369Z" fill="white" stroke="#263238" stroke-width="1.1833" stroke-linecap="round" stroke-linejoin="round"/>
<path d="M436.998 363.83L438.584 370.8L445.743 368.054L436.998 363.83Z" fill="#263238" stroke="#263238" stroke-width="1.1833" stroke-miterlimit="10"/>
<path d="M433.85 411.079L430.3 416.996C430.3 416.996 427.472 421.232 428.301 421.492C430.111 422.072 434.797 418.996 436.134 418.049C437.471 417.102 438.903 416.475 439.79 415.848C440.678 415.221 442.453 414.854 440.027 412.606C439.211 411.86 436.619 409.281 436.619 409.281L433.85 411.079Z" fill="white" stroke="#263238" stroke-width="1.1833" stroke-linecap="round" stroke-linejoin="round"/>
<path d="M455.966 351.808C449.936 349.403 443.768 347.36 437.495 345.69C426.644 342.744 418.621 340.46 418.775 343.17C418.929 345.879 438.666 389.531 438.666 389.531L442.051 388.455L436.891 364.386C436.891 364.386 445.175 370.184 451.292 367.309C457.41 364.433 459.741 356.659 459.315 354.009" fill="#263238"/>
<path d="M455.966 351.808C449.936 349.403 443.768 347.36 437.495 345.69C426.644 342.744 418.621 340.46 418.775 343.17C418.929 345.879 438.666 389.531 438.666 389.531L442.051 388.455L436.891 364.386C436.891 364.386 445.175 370.184 451.292 367.309C457.41 364.433 459.741 356.659 459.315 354.009" stroke="#263238" stroke-width="1.1833" stroke-linecap="round" stroke-linejoin="round"/>
<path d="M435.188 345.063C425.532 342.448 418.621 340.649 418.775 343.17C418.929 345.879 438.666 389.531 438.666 389.531L442.051 388.455L436.891 364.386C438.655 360.091 436.785 351.062 435.188 345.063Z" fill="white" stroke="#263238" stroke-width="1.1833" stroke-linecap="round" stroke-linejoin="round"/>
<path d="M436.891 364.386L428.383 352.044" stroke="#263238" stroke-width="1.1833" stroke-linecap="round" stroke-linejoin="round"/>
<path d="M438.666 389.531L435.495 395.507C435.495 395.507 429.093 401.708 430.513 402.027C431.933 402.347 443.968 397.176 444.867 395.945C445.766 394.714 442.051 388.455 442.051 388.455L438.666 389.531Z" fill="white" stroke="#263238" stroke-width="1.1833" stroke-linecap="round" stroke-linejoin="round"/>
<path d="M423.946 302.606L453.789 338.141" stroke="#263238" stroke-width="1.1833" stroke-miterlimit="10"/>
<path d="M332.122 192.559L419.698 297.352" stroke="#263238" stroke-width="1.1833" stroke-miterlimit="10"/>
<path d="M456.345 344.542V517.304" stroke="#263238" stroke-width="1.1833" stroke-miterlimit="10"/>
<path d="M171.347 296.536C171.347 296.536 177.642 333.372 170.802 345.051C163.963 356.73 146.805 348.329 146.805 348.329V516.121" stroke="#263238" stroke-width="1.1833" stroke-miterlimit="10"/>
<path d="M133.552 310.321C133.552 310.321 139.125 309.682 139.551 310.972C139.785 312.028 139.785 313.123 139.551 314.179C139.551 314.179 142.758 317.61 142.758 319.965C142.758 322.32 139.338 323.397 139.338 323.397L138.699 328.958L130.132 329.384L129.055 322.746C129.055 322.746 125.837 310.108 133.552 310.321Z" fill="white" stroke="#263238" stroke-width="1.1833" stroke-linecap="round" stroke-linejoin="round"/>
<path d="M135.268 319.504L132.901 316.072C133.696 314.781 134.136 313.304 134.179 311.788C134.179 309.422 133.966 305.15 129.044 305.15C124.121 305.15 120.902 309.008 119.837 317.362C118.772 325.716 123.683 329.786 130.759 328.284C137.835 326.781 135.268 319.504 135.268 319.504Z" fill="#263238" stroke="#263238" stroke-width="1.1833" stroke-linecap="round" stroke-linejoin="round"/>
<path d="M135.055 318.036C135.055 318.036 131.41 317.61 131.623 320.403C131.679 321.003 131.916 321.572 132.303 322.035C132.689 322.498 133.207 322.833 133.787 322.996C134.368 323.158 134.984 323.141 135.554 322.947C136.125 322.752 136.623 322.389 136.983 321.906" fill="white"/>
<path d="M135.055 318.036C135.055 318.036 131.41 317.61 131.623 320.403C131.679 321.003 131.916 321.572 132.303 322.035C132.689 322.498 133.207 322.833 133.787 322.996C134.368 323.158 134.984 323.141 135.554 322.947C136.125 322.752 136.623 322.389 136.983 321.906" stroke="#263238" stroke-width="1.1833" stroke-linecap="round" stroke-linejoin="round"/>
<path d="M129.978 331.479L122.086 333.703C122.086 333.703 121.47 335.241 120.547 337.253C119.305 339.987 115.885 345.536 115.885 345.536L100.088 350.045L95.0117 366.41L93.8876 373.178L102.904 368.658L103.472 352.873L117.672 350.684L123.766 335.301L129.978 331.479Z" fill="#263238" stroke="#263238" stroke-width="1.1833" stroke-linecap="round" stroke-linejoin="round"/>
<path d="M142.557 329.171C142.557 329.171 136.345 326.39 131.635 327.029C126.925 327.668 127.351 330.035 127.351 330.035L127.564 333.242C127.564 333.242 135.457 330.887 142.557 329.171Z" fill="white" stroke="#263238" stroke-width="1.1833" stroke-linecap="round" stroke-linejoin="round"/>
<path d="M121.34 344.814L125.778 365.333C125.811 365.579 125.903 365.813 126.046 366.017C126.189 366.22 126.378 366.387 126.598 366.502C126.817 366.618 127.062 366.68 127.31 366.682C127.558 366.685 127.804 366.628 128.026 366.516L138.048 361.511L121.34 344.814Z" fill="white" stroke="#263238" stroke-width="1.1833" stroke-linecap="round" stroke-linejoin="round"/>
<path d="M132.487 355.736L130.132 360.446" stroke="#263238" stroke-width="1.1833" stroke-linecap="round" stroke-linejoin="round"/>
<path d="M153.254 376.515L166.187 397.909L164.472 426.841L170.684 426.628L176.896 392.123L167.82 367.948L153.254 376.515Z" fill="#263238" stroke="#263238" stroke-width="1.1833" stroke-linecap="round" stroke-linejoin="round"/>
<path d="M127.553 333.242C127.553 333.242 121.34 343.951 121.34 344.814C121.34 345.678 145.551 369.013 145.551 369.013L163.975 356.801L152.402 336.685L169.063 320.332L170.341 298.263L167.347 298.05L161.987 314.12L144.237 328.106L127.553 333.242Z" fill="white" stroke="#263238" stroke-width="1.1833" stroke-linecap="round" stroke-linejoin="round"/>
<path d="M167.347 298.05L167.56 293.128L172.909 289.057L173.346 290.122V293.341L173.559 295.908L170.341 298.263L167.347 298.05Z" fill="white" stroke="#263238" stroke-width="1.1833" stroke-linecap="round" stroke-linejoin="round"/>
<path d="M145.551 369.013C145.551 369.013 149.621 375.864 152.65 378.006C155.68 380.148 165.04 373.509 167.406 371.569C169.773 369.628 178.766 358.079 178.766 358.079L187.12 393.673L192.267 391.531C192.267 391.531 189.25 344.199 187.759 342.874C186.268 341.548 163.123 356.576 163.123 356.576L145.551 369.013Z" fill="#263238" stroke="#263238" stroke-width="1.1833" stroke-linecap="round" stroke-linejoin="round"/>
<path d="M192.256 391.543H199.533C200.823 391.543 204.029 389.614 204.266 391.117C204.503 392.62 198.054 396.679 195.474 397.968C192.997 398.93 190.409 399.578 187.771 399.897L187.12 393.685L192.256 391.543Z" fill="white" stroke="#263238" stroke-width="1.1833" stroke-linecap="round" stroke-linejoin="round"/>
<path d="M170.684 426.628L174.328 433.266C174.328 433.266 178.825 435.195 178.825 436.059C178.825 436.923 171.548 436.485 170.897 436.485C170.246 436.485 162.981 429.385 162.981 429.385L164.472 426.805L170.684 426.628Z" fill="white" stroke="#263238" stroke-width="1.1833" stroke-linecap="round" stroke-linejoin="round"/>
<path d="M172.909 289.057L242.83 193.186" stroke="#263238" stroke-width="1.1833" stroke-miterlimit="10"/>
</svg>
