<svg width="550" height="550" viewBox="0 0 550 550" fill="none" xmlns="http://www.w3.org/2000/svg">
<path d="M366.421 39.479C366.421 39.479 285.626 15.686 205.843 63.8C126.06 111.914 85.382 201.663 50.479 273.658C15.576 345.653 34.925 416.196 95.381 445.819C155.837 475.442 197.428 425.348 282.568 418.825C367.708 412.302 390.522 422.906 461.461 373.065C532.4 323.224 545.897 213.059 490.71 134.75C435.523 56.441 366.421 39.479 366.421 39.479Z" fill="white"/>
<path opacity="0.7" d="M366.421 39.479C366.421 39.479 285.626 15.686 205.843 63.8C126.06 111.914 85.382 201.663 50.479 273.658C15.576 345.653 34.925 416.196 95.381 445.819C155.837 475.442 197.428 425.348 282.568 418.825C367.708 412.302 390.522 422.906 461.461 373.065C532.4 323.224 545.897 213.059 490.71 134.75C435.523 56.441 366.421 39.479 366.421 39.479Z" fill="white"/>
<path d="M182.776 81.587L171.633 63.8H73.469V81.587V87.989V383.9H477.499V81.587H182.776Z" fill="#263238"/>
<path d="M474.848 89.738H76.472V377.454H474.848V89.738Z" fill="white"/>
<mask id="mask0_82_724" style="mask-type:luminance" maskUnits="userSpaceOnUse" x="76" y="89" width="399" height="289">
<path d="M474.848 89.738H76.472V377.454H474.848V89.738Z" fill="white"/>
</mask>
<g mask="url(#mask0_82_724)">
<path opacity="0.17" d="M476.795 87.2739H467.544V379.632H476.795V87.2739Z" fill="black"/>
<path opacity="0.17" d="M476.795 264.044H467.544V377.267H476.795V264.044Z" fill="black"/>
<path d="M475.365 85.855H74.8881V101.508H475.365V85.855Z" fill="white" stroke="#263238" stroke-width="1.1" stroke-miterlimit="10"/>
</g>
<path d="M474.848 89.738H76.472V377.454H474.848V89.738Z" stroke="#263238" stroke-width="1.1" stroke-linecap="round" stroke-linejoin="round"/>
<g opacity="0.17">
<path d="M284.031 116.6H256.157C255.834 116.6 255.514 116.536 255.216 116.412C254.917 116.288 254.647 116.107 254.419 115.878C254.191 115.649 254.01 115.377 253.888 115.078C253.765 114.779 253.703 114.459 253.704 114.136C253.704 113.485 253.962 112.861 254.422 112.401C254.882 111.941 255.506 111.683 256.157 111.683H284.031C284.682 111.683 285.305 111.941 285.766 112.401C286.226 112.861 286.484 113.485 286.484 114.136C286.485 114.459 286.423 114.779 286.3 115.078C286.178 115.377 285.997 115.649 285.769 115.878C285.542 116.107 285.271 116.288 284.972 116.412C284.674 116.536 284.354 116.6 284.031 116.6Z" fill="black"/>
<path d="M339.768 116.6H311.894C311.571 116.6 311.251 116.536 310.953 116.412C310.654 116.288 310.383 116.107 310.155 115.878C309.928 115.649 309.747 115.377 309.624 115.078C309.502 114.779 309.439 114.459 309.441 114.136C309.441 113.814 309.504 113.495 309.628 113.197C309.751 112.9 309.932 112.629 310.159 112.401C310.387 112.174 310.658 111.993 310.955 111.87C311.253 111.746 311.572 111.683 311.894 111.683H339.768C340.091 111.682 340.411 111.744 340.71 111.867C341.009 111.989 341.281 112.17 341.51 112.398C341.739 112.625 341.92 112.896 342.044 113.195C342.168 113.493 342.232 113.813 342.232 114.136C342.232 114.79 341.972 115.416 341.51 115.878C341.048 116.34 340.421 116.6 339.768 116.6Z" fill="black"/>
<path d="M395.505 116.6H367.642C366.988 116.6 366.362 116.34 365.9 115.878C365.438 115.416 365.178 114.79 365.178 114.136C365.178 113.813 365.242 113.493 365.366 113.195C365.49 112.896 365.671 112.625 365.9 112.398C366.129 112.17 366.401 111.989 366.7 111.867C366.999 111.744 367.319 111.682 367.642 111.683H395.505C395.828 111.682 396.148 111.744 396.447 111.867C396.746 111.989 397.018 112.17 397.247 112.398C397.476 112.625 397.657 112.896 397.781 113.195C397.905 113.493 397.969 113.813 397.969 114.136C397.969 114.79 397.709 115.416 397.247 115.878C396.785 116.34 396.158 116.6 395.505 116.6Z" fill="black"/>
<path d="M451.253 116.6H423.379C422.726 116.6 422.099 116.34 421.637 115.878C421.175 115.416 420.915 114.79 420.915 114.136C420.915 113.813 420.979 113.493 421.103 113.195C421.227 112.896 421.408 112.625 421.637 112.398C421.866 112.17 422.138 111.989 422.437 111.867C422.736 111.744 423.056 111.682 423.379 111.683H451.253C451.575 111.683 451.894 111.746 452.192 111.87C452.489 111.993 452.76 112.174 452.988 112.401C453.215 112.629 453.396 112.9 453.519 113.197C453.643 113.495 453.706 113.814 453.706 114.136C453.707 114.459 453.645 114.779 453.522 115.078C453.4 115.377 453.219 115.649 452.991 115.878C452.764 116.107 452.493 116.288 452.194 116.412C451.896 116.536 451.576 116.6 451.253 116.6Z" fill="black"/>
</g>
<path d="M324.841 129.085H87.527V268.433H324.841V129.085Z" stroke="#263238" stroke-width="1.1" stroke-miterlimit="10"/>
<path d="M88.704 282.788H156.772" stroke="#263238" stroke-width="1.1" stroke-miterlimit="10"/>
<path d="M88.704 297.143H156.772" stroke="#263238" stroke-width="1.1" stroke-miterlimit="10"/>
<path d="M88.704 311.498H156.772" stroke="#263238" stroke-width="1.1" stroke-miterlimit="10"/>
<path d="M88.704 325.864H156.772" stroke="#263238" stroke-width="1.1" stroke-miterlimit="10"/>
<path d="M99.825 133.859C98.2694 133.859 96.7488 134.32 95.4554 135.184C94.162 136.049 93.1539 137.277 92.5587 138.714C91.9634 140.151 91.8076 141.733 92.1111 143.258C92.4146 144.784 93.1636 146.185 94.2636 147.285C95.3635 148.385 96.7649 149.134 98.2906 149.438C99.8162 149.741 101.398 149.586 102.835 148.99C104.272 148.395 105.5 147.387 106.364 146.094C107.229 144.8 107.69 143.28 107.69 141.724C107.69 139.638 106.861 137.638 105.386 136.163C103.911 134.688 101.911 133.859 99.825 133.859ZM100.925 143.572L97.548 145.53V137.72L100.881 139.7L104.269 141.658L100.925 143.572Z" stroke="#263238" stroke-width="1.1" stroke-miterlimit="10"/>
<path d="M443.069 129.085H337.502V213.543H443.069V129.085Z" stroke="#263238" stroke-width="1.1" stroke-miterlimit="10"/>
<path d="M443.069 188.606L427.02 172.15L406.758 182.292L368.753 150.194L337.502 184.184V213.543H443.069V188.606Z" stroke="#263238" stroke-width="1.1" stroke-miterlimit="10"/>
<path d="M408.023 157.795C413.387 157.795 417.736 153.446 417.736 148.082C417.736 142.718 413.387 138.369 408.023 138.369C402.659 138.369 398.31 142.718 398.31 148.082C398.31 153.446 402.659 157.795 408.023 157.795Z" stroke="#263238" stroke-width="1.1" stroke-miterlimit="10"/>
<path d="M443.069 231.275H337.502V315.733H443.069V231.275Z" stroke="#263238" stroke-width="1.1" stroke-miterlimit="10"/>
<path d="M443.069 290.796L427.02 274.34L406.758 284.482L368.753 252.384L337.502 286.374V315.722H443.069V290.796Z" stroke="#263238" stroke-width="1.1" stroke-miterlimit="10"/>
<path d="M418.127 250.454C418.985 245.143 415.376 240.142 410.065 239.284C404.754 238.426 399.753 242.035 398.895 247.346C398.037 252.656 401.646 257.657 406.957 258.516C412.268 259.374 417.269 255.765 418.127 250.454Z" stroke="#263238" stroke-width="1.10313" stroke-miterlimit="10"/>
<path d="M88.352 461.087C88.352 461.087 59.213 409.915 65.934 396.902C72.655 383.889 89.848 407.308 89.848 407.308C89.848 407.308 74.899 359.601 83.127 338.8C91.355 317.999 105.534 338.8 106.282 353.551C107.03 368.302 103.301 393.448 103.301 393.448C103.301 393.448 109.274 341.407 123.475 357.016C137.676 372.625 105.534 424.677 105.534 424.677C105.534 424.677 127.204 412.577 126.434 428.153C125.664 443.729 100.309 457.6 100.309 457.6" fill="white"/>
<path d="M88.605 451.55C88.605 451.55 61.6 426.393 74.8 415.118C88 403.843 94.842 427.218 94.842 427.218C94.842 427.218 80.3 355.3 103.818 352.66C127.336 350.02 110 415.118 110 415.118C110 415.118 130.053 387.354 128.7 409.915C127.347 432.476 97.592 451.55 97.592 451.55" stroke="#263238" stroke-width="1.1" stroke-miterlimit="10"/>
<path d="M101.849 446.974L83.6219 427.229" stroke="#263238" stroke-width="1.1" stroke-miterlimit="10"/>
<path d="M98.054 448.492L102.982 390.775" stroke="#263238" stroke-width="1.1" stroke-miterlimit="10"/>
<path d="M97.295 444.312L113.619 422.664" stroke="#263238" stroke-width="1.1" stroke-miterlimit="10"/>
<path d="M120.912 440.286H70.499L75.537 499.741H115.863L120.912 440.286Z" fill="#263238"/>
<path d="M313.214 195.239L341 238.975L303.82 238.667C303.82 238.667 304.755 202.422 305.69 198.363C306.625 194.304 312.279 193.996 313.214 195.239Z" fill="white" stroke="#263238" stroke-width="1.1" stroke-miterlimit="10"/>
<path d="M373.908 237.909L150.282 223.291L142.238 346.338L365.864 360.956L373.908 237.909Z" fill="white" stroke="#263238" stroke-width="1.1" stroke-miterlimit="10"/>
<path d="M367.231 340.256L143.605 325.638L142.254 346.318L365.879 360.936L367.231 340.256Z" fill="white" stroke="#263238" stroke-width="1.1" stroke-miterlimit="10"/>
<path d="M361.021 347.743L148.767 333.869L148.431 339.006L360.685 352.88L361.021 347.743Z" fill="#263238"/>
<path d="M154 336.864C154.029 336.387 153.917 335.911 153.676 335.498C153.436 335.085 153.078 334.752 152.649 334.542C152.219 334.331 151.737 334.253 151.263 334.317C150.789 334.38 150.344 334.583 149.985 334.899C149.627 335.215 149.369 335.63 149.246 336.092C149.123 336.554 149.14 337.042 149.294 337.495C149.448 337.948 149.733 338.345 150.112 338.636C150.492 338.927 150.949 339.099 151.426 339.13C151.744 339.151 152.063 339.109 152.364 339.006C152.666 338.903 152.944 338.742 153.184 338.532C153.423 338.321 153.618 338.065 153.758 337.779C153.898 337.493 153.98 337.182 154 336.864Z" fill="white" stroke="#263238" stroke-width="1.1" stroke-miterlimit="10"/>
<path d="M179.355 242.792C179.2 245.167 178.344 247.443 176.895 249.332C175.446 251.22 173.47 252.637 171.216 253.402C168.962 254.167 166.532 254.247 164.233 253.631C161.934 253.015 159.869 251.732 158.299 249.942C156.73 248.153 155.726 245.938 155.416 243.578C155.105 241.218 155.501 238.819 156.554 236.684C157.607 234.55 159.269 232.775 161.33 231.585C163.392 230.395 165.76 229.843 168.135 229.999C169.712 230.101 171.254 230.513 172.671 231.212C174.089 231.91 175.355 232.881 176.397 234.069C177.44 235.257 178.237 236.639 178.745 238.136C179.252 239.633 179.46 241.215 179.355 242.792Z" fill="#263238" stroke="#263238" stroke-width="1.1" stroke-linecap="round" stroke-linejoin="round"/>
<path d="M162.602 234.553L174.449 242.473L161.667 248.776L162.602 234.553Z" fill="white"/>
<path d="M236.775 143.187C236.775 143.187 232.144 156.145 232.452 158.587C232.76 161.029 233.992 161.986 232.452 163.526C230.912 165.066 225.973 168.773 226.589 170.929C227.205 173.085 230.296 175.56 230.296 175.56C230.296 175.56 233.684 189.134 237.083 190.674C240.482 192.214 245.718 190.982 245.718 190.982L249.414 200.882L275.33 194.403L273.79 178.662C273.79 178.662 281.49 163.856 279.653 154.913C277.816 145.97 261.756 137.313 251.273 137.313C240.79 137.313 237.699 140.723 236.775 143.187Z" fill="white" stroke="#263238" stroke-width="1.1" stroke-miterlimit="10"/>
<path d="M236.94 179.3C236.94 179.3 240.977 178.772 242.209 176.319" stroke="#263238" stroke-width="1.1" stroke-miterlimit="10"/>
<path d="M237.292 163.482C237.292 164.582 236.929 165.418 236.5 165.418C236.071 165.418 235.708 164.549 235.708 163.482C235.708 162.415 236.06 161.546 236.5 161.546C236.94 161.546 237.292 162.415 237.292 163.482Z" fill="#263238"/>
<path d="M235.4 159.093C235.4 159.093 237.688 156.277 239.085 159.797" stroke="#263238" stroke-width="1.1" stroke-miterlimit="10"/>
<path d="M242.935 148.126C242.935 148.126 232.76 148.742 232.144 139.172C231.528 129.602 245.41 124.366 250.657 124.366C255.904 124.366 252.197 129.613 252.197 129.613C252.197 129.613 265.155 125.906 268.543 129.305C271.931 132.704 269.17 135.476 269.17 135.476C269.17 135.476 286.132 142.571 286.132 154.913C286.132 167.255 277.2 179.3 275.649 181.753C274.098 184.206 270.402 186.384 263.615 186.692C256.828 187 252.813 183.601 251.273 178.992L249.733 174.372C249.733 174.372 254.969 168.817 252.505 164.186C250.041 159.555 248.49 162.338 247.874 164.186C247.258 166.034 248.49 167.893 247.258 167.893C246.026 167.893 246.95 166.353 243.562 162.954C240.174 159.555 237.391 158.015 238.623 154.627C239.643 152.21 241.105 150.005 242.935 148.126Z" fill="#263238" stroke="#263238" stroke-width="1.1" stroke-miterlimit="10"/>
<path d="M242.022 199.386L238.348 207.515L285.186 196.867L279.774 190.091L242.022 199.386Z" fill="white" stroke="#263238" stroke-width="1.1" stroke-miterlimit="10"/>
<path d="M205.612 289.432C205.612 289.432 196.141 303.6 192.5 310.992C188.859 318.384 178.31 332.805 175.857 334.202C173.404 335.599 165.682 334.906 164.989 335.434C164.296 335.962 158.323 342.617 156.75 344.542C155.177 346.467 157.102 347.182 158.499 347.347C159.896 347.512 161.48 346.654 163.229 345.07C164.419 344.066 165.891 343.455 167.442 343.321C168.146 343.145 162.712 350.68 162.888 351.912C163.149 352.645 163.62 353.284 164.242 353.752C164.864 354.219 165.61 354.494 166.386 354.541C167.618 354.365 170.786 352.088 170.786 352.088C170.786 352.088 179.586 353.309 182.171 351.208C184.756 349.107 188.485 337.183 189.189 335.61C189.893 334.037 209.682 315.898 217.217 309.936C224.752 303.974 229.317 298.54 229.317 293.986C229.317 289.432 205.612 289.432 205.612 289.432Z" fill="white" stroke="#263238" stroke-width="1.1" stroke-miterlimit="10"/>
<path d="M260.832 477.455C260.832 477.455 246.884 480.755 238.755 480.755C230.626 480.755 227.095 480.337 227.095 483.043C227.095 485.749 240.009 490.743 247.5 493.669C254.991 496.595 269.577 500.753 270.831 500.335C272.085 499.917 274.582 484.715 274.582 484.715L260.832 477.455Z" fill="white" stroke="#263238" stroke-width="1.1" stroke-miterlimit="10"/>
<path d="M227.92 481.492C227.649 481.654 227.429 481.888 227.284 482.167C227.138 482.447 227.073 482.761 227.095 483.076C227.095 485.782 240.009 490.776 247.5 493.702C254.991 496.628 269.577 500.786 270.831 500.368C271.117 500.269 271.469 499.4 271.843 498.113C257.257 495.209 233.937 484.363 227.92 481.492Z" fill="#263238" stroke="#263238" stroke-width="1.1" stroke-miterlimit="10"/>
<path d="M235.84 299.376C235.84 299.376 235.631 315.623 237.094 329.582C238.557 343.541 245.212 404.767 245.894 414.348C246.576 423.929 260.887 477.455 260.887 477.455L274.637 484.748C274.637 484.748 281.512 425.183 281.512 415.184V398.519C281.512 398.519 293.612 351.219 297.341 339.999C301.07 328.779 302.962 306.46 302.544 293.964C291.565 298.258 279.956 300.721 268.18 301.257C248.754 302.082 235.84 299.376 235.84 299.376Z" fill="#263238" stroke="#263238" stroke-width="1.1" stroke-miterlimit="10"/>
<path d="M311.96 213.048L306.339 258.038C306.339 258.038 304.139 292.138 303.534 295.218C302.929 298.298 300.091 299.904 287.287 304.271C274.483 308.638 239.8 305.525 236.984 302.709C234.168 299.893 233.552 272.404 233.552 272.404C233.552 272.404 229.801 288.343 226.952 290.532C224.103 292.721 213.521 291.775 208.527 287.089C203.533 282.403 209.462 228.668 209.143 223.674C208.824 218.68 239.8 206.492 239.8 206.492C239.8 206.492 282.777 196.592 285.186 196.867C287.595 197.142 311.344 192.115 313.214 195.239C315.084 198.363 316.338 200.244 316.338 200.244" fill="white"/>
<path d="M311.96 213.048L306.339 258.038C306.339 258.038 304.139 292.138 303.534 295.218C302.929 298.298 300.091 299.904 287.287 304.271C274.483 308.638 239.8 305.525 236.984 302.709C234.168 299.893 233.552 272.404 233.552 272.404C233.552 272.404 229.801 288.343 226.952 290.532C224.103 292.721 213.521 291.775 208.527 287.089C203.533 282.403 209.462 228.668 209.143 223.674C208.824 218.68 239.8 206.492 239.8 206.492C239.8 206.492 282.777 196.592 285.186 196.867C287.595 197.142 311.344 192.115 313.214 195.239C315.084 198.363 316.338 200.244 316.338 200.244" stroke="#263238" stroke-width="1.1" stroke-miterlimit="10"/>
<path d="M233.552 272.404L225.115 231.484" stroke="#263238" stroke-width="1.1" stroke-miterlimit="10"/>
<path d="M279.191 216.194L259.765 274.45" stroke="#263238" stroke-width="1.1" stroke-miterlimit="10"/>
<path d="M273.889 254.144L259.765 289.454" stroke="#263238" stroke-width="1.1" stroke-miterlimit="10"/>
<path d="M206.305 274.01C205.841 274.678 205.599 275.474 205.612 276.287C205.612 277.684 202.807 288.904 204.028 291.181C205.249 293.458 210.342 296.439 218.581 296.791C226.82 297.143 229.977 295.911 230.681 293.81C231.385 291.709 233.321 281.369 233.145 280.137C232.969 278.905 231.913 279.609 231.913 279.609C226.552 280.707 220.999 280.408 215.787 278.74C207.537 275.935 206.305 274.01 206.305 274.01Z" fill="white" stroke="#263238" stroke-width="1.1" stroke-miterlimit="10"/>
<path d="M236.885 311.3C236.885 311.3 237.303 346.291 238.128 366.905C238.953 387.519 242.297 405.405 243.551 409.607C244.805 413.809 273.119 450.01 279.576 457.71C286.033 465.41 298.529 477.081 298.529 477.081L312.642 469.381C312.642 469.381 294.371 443.3 288.53 431.2C282.689 419.1 272.492 399.124 272.492 399.124L278.949 341.429L289.575 335.599" fill="#263238"/>
<path d="M236.885 311.3C236.885 311.3 237.303 346.291 238.128 366.905C238.953 387.519 242.297 405.405 243.551 409.607C244.805 413.809 273.119 450.01 279.576 457.71C286.033 465.41 298.529 477.081 298.529 477.081L312.642 469.381C312.642 469.381 294.371 443.3 288.53 431.2C282.689 419.1 272.492 399.124 272.492 399.124L278.949 341.429L289.575 335.599" stroke="#263238" stroke-width="1.1" stroke-miterlimit="10"/>
<path d="M287.298 338.448L278.597 344.245L272.492 399.146L281.457 415.184" stroke="#696969" stroke-width="1.1" stroke-miterlimit="10"/>
<path d="M298.76 476.498C298.76 476.498 292.061 486.398 289.509 488.763C286.957 491.128 277.024 497.079 275.638 498.476C274.252 499.873 281.886 501.017 287.43 501.017C292.974 501.017 299.915 499.862 303.391 497.717C306.867 495.572 319.803 486.387 321.42 484.77C323.037 483.153 312.62 469.282 312.62 469.282L298.76 476.498Z" fill="white" stroke="#263238" stroke-width="1.1" stroke-miterlimit="10"/>
<path d="M321.42 484.825C321.981 484.275 321.134 482.306 319.781 479.941C314.721 485.265 303.523 496.595 298.76 498.003C293.546 499.554 280.247 498.52 276.023 498.135C275.886 498.238 275.757 498.352 275.638 498.476C274.252 499.862 281.886 501.017 287.43 501.017C292.974 501.017 299.915 499.862 303.391 497.717C306.867 495.572 319.803 486.442 321.42 484.825Z" fill="#263238" stroke="#263238" stroke-width="1.1" stroke-miterlimit="10"/>
<path d="M529.1 499.741H53.79" stroke="#263238" stroke-width="1.1" stroke-miterlimit="10"/>
</svg>
