<svg width="454" height="454" viewBox="0 0 454 454" fill="none" xmlns="http://www.w3.org/2000/svg">
<path opacity="0.3" d="M227 454C321.026 454 397.25 444.472 397.25 432.719C397.25 420.965 321.026 411.438 227 411.438C132.974 411.438 56.75 420.965 56.75 432.719C56.75 444.472 132.974 454 227 454Z" fill="black"/>
<path d="M411.438 295.554C411.438 324.851 391.022 350.077 362.413 356.383C332.988 362.874 288.999 368.875 227 368.875C165.001 368.875 121.012 362.874 91.5874 356.39C62.9783 350.084 42.5625 324.851 42.5625 295.554V168.789C42.5625 141.137 60.7509 116.777 87.3028 109.045C116.678 100.49 161.915 92.2188 227 92.2188C292.085 92.2188 337.322 100.49 366.697 109.045C393.249 116.77 411.438 141.13 411.438 168.789V295.554Z" fill="#FD3C4F"/>
<path d="M177.344 285.63V168.399C177.344 157.063 189.978 150.309 199.405 156.595L287.325 215.267C295.746 220.885 295.738 233.264 287.318 238.875L199.398 297.434C189.971 303.719 177.344 296.959 177.344 285.63Z" fill="white"/>
<path opacity="0.15" d="M375.969 241.188V295.561C375.969 308.231 367.251 318.999 354.773 321.751C330.647 327.064 288.9 333.406 227 333.406C207.655 333.406 191.985 348.92 191.602 368.173C202.697 368.62 214.458 368.875 227 368.875C288.999 368.875 332.988 362.874 362.413 356.39C391.022 350.084 411.438 324.851 411.438 295.554V205.719C391.852 205.719 375.969 221.602 375.969 241.188Z" fill="black"/>
<path opacity="0.3" d="M227 127.688C246.288 127.688 261.908 112.266 262.384 93.0842C251.296 92.5309 239.528 92.2188 227 92.2188C161.915 92.2188 116.678 100.49 87.3028 109.045C60.7509 116.77 42.5625 141.13 42.5625 168.789V269.562C62.1483 269.562 78.0312 253.68 78.0312 234.094V168.782C78.0312 156.949 85.9195 146.38 97.2127 143.095C121.36 136.065 163.483 127.688 227 127.688Z" fill="white"/>
<path d="M67.3906 205.719V168.782C67.3906 152.246 78.4356 137.477 94.2476 132.873" stroke="white" stroke-width="21.2812" stroke-miterlimit="10" stroke-linecap="round" stroke-linejoin="round"/>
</svg>
